<?xml version="1.0" encoding="utf-8"?>
<!-- Generator: Adobe Illustrator 25.2.3, SVG Export Plug-In . SVG Version: 6.00 Build 0)  -->
<svg version="1.1" id="Layer_1" xmlns="http://www.w3.org/2000/svg" xmlns:xlink="http://www.w3.org/1999/xlink" x="0px" y="0px"
	 viewBox="0 0 912 457" style="enable-background:new 0 0 912 457;" xml:space="preserve">
<style type="text/css">
	.st0{opacity:0.7;}
	.st1{fill:#EBEEF1;}
	.st2{fill:#333333;}
	.st3{fill:#E9E8E8;}
	.st4{fill:#C5C5C5;}
	.st5{fill:#484747;}
	.st6{fill:#8F8E8E;}
	.st7{fill:#6B6B6B;}
	.st8{fill:#A5A5A5;}
	.st9{fill:#56758D;}
	.st10{fill:#525352;}
	.st11{fill:#E84621;}
	.st12{opacity:0.5;}
	.st13{fill:#AE3519;}
	.st14{fill:#AD3519;}
	.st15{fill:#FFFFFF;}
	.st16{opacity:0.3;fill:#FFFFFF;}
	.st17{fill:#575757;}
	.st18{fill:#1A1A1A;}
	.st19{fill:#FEC82F;}
	.st20{fill:#575756;}
	.st21{fill:#FED359;}
	.st22{fill:#2E2D2C;}
	.st23{fill:#41586B;}
	.st24{fill:#F9B232;}
</style>
<g id="outer-line" class="st0">
	<g>
		<path class="st1" d="M2,452.3c-1.1,0-2,0.9-2,2v0.1c0,1.1,0.9,2,2,2s2-0.9,2-2v-0.1C4,453.2,3.1,452.3,2,452.3z"/>
	</g>
	<g>
		<path class="st1" d="M216,67.8l-0.4,0.3c-0.9,0.6-1.2,1.8-0.6,2.8c0.4,0.6,1,0.9,1.7,0.9c0.4,0,0.7-0.1,1.1-0.3l0.4-0.3
			c0.9-0.6,1.2-1.8,0.7-2.8C218.2,67.6,216.9,67.3,216,67.8z"/>
		<path class="st1" d="M208.7,72.4l-0.4,0.3c-0.9,0.6-1.2,1.8-0.6,2.8c0.4,0.6,1,0.9,1.7,0.9c0.4,0,0.7-0.1,1.1-0.3l0.4-0.3
			c0.9-0.6,1.2-1.8,0.6-2.8C210.9,72.1,209.7,71.8,208.7,72.4z"/>
		<path class="st1" d="M201.6,77.1l-0.4,0.3c-0.9,0.6-1.2,1.9-0.5,2.8c0.4,0.6,1,0.9,1.7,0.9c0.4,0,0.8-0.1,1.1-0.3l0.4-0.3
			c0.9-0.6,1.2-1.9,0.5-2.8C203.8,76.7,202.5,76.5,201.6,77.1z"/>
		<path class="st1" d="M268.7,39.9l-0.5,0.2c-1,0.5-1.5,1.6-1,2.6c0.3,0.7,1.1,1.2,1.8,1.2c0.3,0,0.6-0.1,0.8-0.2l0.5-0.2
			c1-0.5,1.5-1.6,1-2.6C270.9,39.9,269.7,39.4,268.7,39.9z"/>
		<path class="st1" d="M261,43.4l-0.5,0.2c-1,0.5-1.4,1.7-1,2.7c0.3,0.7,1.1,1.1,1.8,1.1c0.3,0,0.6-0.1,0.9-0.2l0.4-0.2
			c1-0.5,1.4-1.7,1-2.7C263.2,43.4,262,43,261,43.4z"/>
		<path class="st1" d="M194.6,81.9l-0.4,0.3c-0.9,0.6-1.1,1.9-0.5,2.8c0.4,0.6,1,0.9,1.6,0.9c0.4,0,0.8-0.1,1.1-0.4l0.4-0.3
			c0.9-0.6,1.1-1.9,0.5-2.8C196.7,81.5,195.5,81.3,194.6,81.9z"/>
		<path class="st1" d="M230.7,59.1l-0.4,0.2c-1,0.5-1.3,1.8-0.7,2.7c0.4,0.6,1,1,1.7,1c0.3,0,0.7-0.1,1-0.3l0.4-0.2
			c1-0.5,1.3-1.8,0.8-2.7C232.9,58.9,231.6,58.6,230.7,59.1z"/>
		<path class="st1" d="M253.3,47.1l-0.4,0.2c-1,0.5-1.4,1.7-0.9,2.7c0.4,0.7,1.1,1.1,1.8,1.1c0.3,0,0.6-0.1,0.9-0.2l0.4-0.2
			c1-0.5,1.4-1.7,0.9-2.7C255.5,47.1,254.3,46.7,253.3,47.1z"/>
		<path class="st1" d="M238.1,55l-0.4,0.2c-1,0.5-1.3,1.7-0.8,2.7c0.4,0.7,1,1,1.8,1c0.3,0,0.6-0.1,1-0.2l0.4-0.2
			c1-0.5,1.3-1.7,0.8-2.7C240.3,54.8,239.1,54.5,238.1,55z"/>
		<path class="st1" d="M245.7,51l-0.4,0.2c-1,0.5-1.4,1.7-0.9,2.7c0.4,0.7,1.1,1.1,1.8,1.1c0.3,0,0.6-0.1,0.9-0.2l0.4-0.2
			c1-0.5,1.4-1.7,0.8-2.7C247.9,50.9,246.6,50.5,245.7,51z"/>
		<path class="st1" d="M223.3,63.4l-0.4,0.3c-0.9,0.6-1.3,1.8-0.7,2.7c0.4,0.6,1,1,1.7,1c0.3,0,0.7-0.1,1-0.3l0.4-0.3
			c0.9-0.6,1.3-1.8,0.7-2.7C225.5,63.2,224.2,62.9,223.3,63.4z"/>
		<path class="st1" d="M187.6,86.9l-0.4,0.3c-0.9,0.7-1.1,1.9-0.4,2.8c0.4,0.5,1,0.8,1.6,0.8c0.4,0,0.8-0.1,1.2-0.4l0.4-0.3
			c0.9-0.7,1.1-1.9,0.4-2.8C189.8,86.4,188.5,86.2,187.6,86.9z"/>
		<path class="st1" d="M154.2,113.6l-0.4,0.3c-0.8,0.7-0.9,2-0.2,2.8c0.4,0.4,0.9,0.7,1.5,0.7c0.5,0,0.9-0.2,1.3-0.5l0.4-0.3
			c0.8-0.7,0.9-2,0.2-2.8C156.3,112.9,155.1,112.9,154.2,113.6z"/>
		<path class="st1" d="M141.6,125.1l-0.4,0.3c-0.8,0.8-0.8,2-0.1,2.8c0.4,0.4,0.9,0.6,1.4,0.6c0.5,0,1-0.2,1.4-0.6l0.4-0.3
			c0.8-0.8,0.8-2,0.1-2.8C143.7,124.4,142.4,124.4,141.6,125.1z"/>
		<path class="st1" d="M135.5,131.1l-0.4,0.3c-0.8,0.8-0.8,2,0,2.8c0.4,0.4,0.9,0.6,1.4,0.6c0.5,0,1-0.2,1.4-0.6l0.4-0.4
			c0.8-0.8,0.8-2,0-2.8C137.5,130.3,136.3,130.3,135.5,131.1z"/>
		<path class="st1" d="M147.9,119.3l-0.4,0.3c-0.8,0.7-0.9,2-0.1,2.8c0.4,0.4,0.9,0.6,1.5,0.6c0.5,0,1-0.2,1.4-0.5l0.4-0.3
			c0.8-0.7,0.9-2,0.1-2.8C150,118.6,148.7,118.6,147.9,119.3z"/>
		<path class="st1" d="M180.7,92l-0.4,0.3c-0.9,0.7-1.1,1.9-0.4,2.8c0.4,0.5,1,0.8,1.6,0.8c0.4,0,0.8-0.1,1.2-0.4l0.4-0.3
			c0.9-0.7,1.1-1.9,0.4-2.8C182.9,91.5,181.6,91.3,180.7,92z"/>
		<path class="st1" d="M174,97.2l-0.4,0.3c-0.9,0.7-1,1.9-0.3,2.8c0.4,0.5,1,0.8,1.6,0.8c0.4,0,0.9-0.1,1.2-0.4l0.4-0.3
			c0.9-0.7,1-1.9,0.3-2.8C176.1,96.7,174.8,96.5,174,97.2z"/>
		<path class="st1" d="M434.2,0.5l-0.5,0c-1.1,0.1-2,1-1.9,2.1c0.1,1.1,0.9,1.9,2,1.9c0,0,0.1,0,0.1,0l0.5,0c1.1,0,2-1,1.9-2.1
			C436.2,1.3,435.3,0.4,434.2,0.5z"/>
		<path class="st1" d="M167.3,102.5l-0.4,0.3c-0.9,0.7-1,2-0.3,2.8c0.4,0.5,1,0.7,1.6,0.7c0.4,0,0.9-0.1,1.3-0.4l0.4-0.3
			c0.9-0.7,1-2,0.3-2.8C169.4,102,168.1,101.8,167.3,102.5z"/>
		<path class="st1" d="M324.8,19l-0.5,0.1c-1.1,0.3-1.7,1.4-1.3,2.5c0.3,0.9,1.1,1.4,1.9,1.4c0.2,0,0.4,0,0.6-0.1l0.5-0.1
			c1.1-0.3,1.7-1.4,1.3-2.5C326.9,19.3,325.8,18.7,324.8,19z"/>
		<path class="st1" d="M374.6,7.1l-0.4,0.1c-1.1,0.2-1.8,1.2-1.6,2.3c0.2,1,1,1.6,2,1.6c0.1,0,0.2,0,0.4,0l0.5-0.1
			c1.1-0.2,1.8-1.2,1.6-2.3C376.8,7.7,375.7,6.9,374.6,7.1z"/>
		<path class="st1" d="M383.1,5.7l-0.5,0.1C381.6,6,380.8,7,381,8.1c0.2,1,1,1.7,2,1.7c0.1,0,0.2,0,0.3,0l0.5-0.1
			c1.1-0.2,1.8-1.2,1.7-2.3C385.3,6.3,384.2,5.5,383.1,5.7z"/>
		<path class="st1" d="M391.6,4.4l-0.5,0.1c-1.1,0.2-1.9,1.2-1.7,2.3c0.1,1,1,1.7,2,1.7c0.1,0,0.2,0,0.3,0l0.5-0.1
			c1.1-0.2,1.9-1.2,1.7-2.3C393.7,5,392.7,4.3,391.6,4.4z"/>
		<path class="st1" d="M276.5,36.4l-0.5,0.2c-1,0.4-1.5,1.6-1.1,2.6c0.3,0.8,1.1,1.2,1.8,1.2c0.3,0,0.5-0.1,0.8-0.2l0.5-0.2
			c1-0.4,1.5-1.6,1.1-2.6C278.7,36.5,277.5,36,276.5,36.4z"/>
		<path class="st1" d="M425.7,1l-0.5,0c-1.1,0.1-1.9,1-1.9,2.1c0.1,1.1,0.9,1.9,2,1.9c0,0,0.1,0,0.1,0l0.5,0c1.1-0.1,1.9-1,1.9-2.1
			C427.7,1.7,426.8,0.9,425.7,1z"/>
		<path class="st1" d="M417.1,1.6l-0.5,0c-1.1,0.1-1.9,1.1-1.8,2.2c0.1,1,1,1.8,2,1.8c0.1,0,0.1,0,0.2,0l0.5,0
			c1.1-0.1,1.9-1.1,1.8-2.2C419.2,2.3,418.2,1.5,417.1,1.6z"/>
		<path class="st1" d="M357.9,10.5l-0.5,0.1c-1.1,0.2-1.8,1.3-1.5,2.4c0.2,0.9,1,1.6,2,1.6c0.1,0,0.3,0,0.4,0l0.5-0.1
			c1.1-0.2,1.8-1.3,1.5-2.4C360.1,10.9,359,10.2,357.9,10.5z"/>
		<path class="st1" d="M408.6,2.4l-0.5,0.1c-1.1,0.1-1.9,1.1-1.8,2.2c0.1,1,1,1.8,2,1.8c0.1,0,0.1,0,0.2,0l0.5-0.1
			c1.1-0.1,1.9-1.1,1.8-2.2C410.7,3.1,409.7,2.3,408.6,2.4z"/>
		<path class="st1" d="M400,3.3l-0.4,0.1c-1.1,0.1-1.9,1.1-1.7,2.2c0.1,1,1,1.8,2,1.8c0.1,0,0.2,0,0.2,0l0.5-0.1
			c1.1-0.1,1.9-1.1,1.7-2.2C402.2,4,401.1,3.2,400,3.3z"/>
		<path class="st1" d="M366.3,8.7l-0.5,0.1c-1.1,0.2-1.8,1.3-1.6,2.4c0.2,1,1,1.6,2,1.6c0.1,0,0.3,0,0.4,0l0.5-0.1
			c1.1-0.2,1.8-1.3,1.6-2.3C368.4,9.2,367.4,8.5,366.3,8.7z"/>
		<path class="st1" d="M300.4,27l-0.5,0.2c-1,0.4-1.6,1.5-1.2,2.6c0.3,0.8,1.1,1.3,1.9,1.3c0.2,0,0.5,0,0.7-0.1l0.5-0.2
			c1-0.4,1.6-1.5,1.2-2.6C302.6,27.2,301.4,26.7,300.4,27z"/>
		<path class="st1" d="M349.5,12.4l-0.4,0.1c-1.1,0.3-1.7,1.3-1.5,2.4c0.2,0.9,1,1.5,1.9,1.5c0.2,0,0.3,0,0.5-0.1l0.5-0.1
			c1.1-0.3,1.7-1.3,1.4-2.4C351.7,12.8,350.5,12.1,349.5,12.4z"/>
		<path class="st1" d="M308.5,24.2l-0.5,0.2c-1,0.4-1.6,1.5-1.2,2.5c0.3,0.8,1.1,1.4,1.9,1.4c0.2,0,0.4,0,0.6-0.1l0.5-0.2
			c1-0.4,1.6-1.5,1.3-2.5C310.6,24.4,309.5,23.9,308.5,24.2z"/>
		<path class="st1" d="M284.4,33.2l-0.5,0.2c-1,0.4-1.5,1.6-1.1,2.6c0.3,0.8,1.1,1.2,1.9,1.2c0.3,0,0.5,0,0.8-0.1l0.5-0.2
			c1-0.4,1.5-1.6,1.1-2.6C286.6,33.3,285.4,32.8,284.4,33.2z"/>
		<path class="st1" d="M292.4,30l-0.5,0.2c-1,0.4-1.5,1.6-1.1,2.6c0.3,0.8,1.1,1.3,1.9,1.3c0.2,0,0.5,0,0.7-0.1l0.5-0.2
			c1-0.4,1.6-1.5,1.2-2.6C294.6,30.2,293.4,29.6,292.4,30z"/>
		<path class="st1" d="M341.3,14.4l-0.5,0.1c-1.1,0.3-1.7,1.4-1.4,2.4c0.2,0.9,1,1.5,1.9,1.5c0.2,0,0.3,0,0.5-0.1l0.5-0.1
			c1.1-0.3,1.7-1.4,1.4-2.4C343.4,14.8,342.3,14.2,341.3,14.4z"/>
		<path class="st1" d="M333,16.6l-0.5,0.1c-1.1,0.3-1.7,1.4-1.4,2.5c0.2,0.9,1.1,1.5,1.9,1.5c0.2,0,0.4,0,0.5-0.1l0.5-0.1
			c1.1-0.3,1.7-1.4,1.4-2.5C335.2,17,334.1,16.3,333,16.6z"/>
		<path class="st1" d="M316.6,21.5l-0.5,0.2c-1.1,0.3-1.6,1.5-1.3,2.5c0.3,0.9,1.1,1.4,1.9,1.4c0.2,0,0.4,0,0.6-0.1l0.5-0.2
			c1.1-0.3,1.6-1.5,1.3-2.5C318.8,21.8,317.6,21.2,316.6,21.5z"/>
		<path class="st1" d="M129.4,137.1l-0.4,0.4c-0.8,0.8-0.8,2.1,0,2.8c0.4,0.4,0.9,0.6,1.4,0.6c0.5,0,1-0.2,1.4-0.6l0.4-0.4
			c0.8-0.8,0.8-2.1,0-2.8C131.5,136.3,130.2,136.4,129.4,137.1z"/>
		<path class="st1" d="M160.7,108l-0.4,0.3c-0.8,0.7-0.9,2-0.2,2.8c0.4,0.5,1,0.7,1.5,0.7c0.5,0,0.9-0.2,1.3-0.5l0.4-0.3
			c0.8-0.7,0.9-2,0.2-2.8C162.8,107.4,161.6,107.3,160.7,108z"/>
		<path class="st1" d="M20.5,326.2c-1.1-0.3-2.2,0.3-2.5,1.4l-0.1,0.5c-0.3,1.1,0.3,2.2,1.4,2.5c0.2,0.1,0.4,0.1,0.6,0.1
			c0.9,0,1.7-0.6,1.9-1.4l0.1-0.5C22.1,327.7,21.5,326.5,20.5,326.2z"/>
		<path class="st1" d="M15.9,342.7c-1.1-0.3-2.2,0.4-2.4,1.5l-0.1,0.5c-0.3,1.1,0.4,2.2,1.5,2.4c0.2,0,0.3,0.1,0.5,0.1
			c0.9,0,1.7-0.6,1.9-1.5l0.1-0.5C17.7,344,17,342.9,15.9,342.7z"/>
		<path class="st1" d="M18.1,334.4c-1.1-0.3-2.2,0.3-2.5,1.4l-0.1,0.5c-0.3,1.1,0.3,2.2,1.4,2.5c0.2,0,0.3,0.1,0.5,0.1
			c0.9,0,1.7-0.6,1.9-1.5l0.1-0.5C19.8,335.8,19.2,334.7,18.1,334.4z"/>
		<path class="st1" d="M13.9,350.9c-1.1-0.2-2.2,0.4-2.4,1.5l-0.1,0.5c-0.2,1.1,0.4,2.1,1.5,2.4c0.1,0,0.3,0.1,0.4,0.1
			c0.9,0,1.7-0.6,1.9-1.6l0.1-0.5C15.7,352.3,15,351.2,13.9,350.9z"/>
		<path class="st1" d="M12.1,359.3c-1.1-0.2-2.1,0.5-2.4,1.5l-0.1,0.5c-0.2,1.1,0.5,2.1,1.5,2.4c0.1,0,0.3,0,0.4,0
			c0.9,0,1.8-0.6,2-1.6l0.1-0.5C13.8,360.5,13.1,359.5,12.1,359.3z"/>
		<path class="st1" d="M23,318.1c-1.1-0.3-2.2,0.3-2.5,1.3l-0.2,0.5c-0.3,1.1,0.3,2.2,1.3,2.5c0.2,0.1,0.4,0.1,0.6,0.1
			c0.9,0,1.6-0.5,1.9-1.4l0.1-0.5C24.6,319.5,24,318.4,23,318.1z"/>
		<path class="st1" d="M28.4,301.9c-1-0.4-2.2,0.2-2.6,1.2l-0.2,0.5c-0.4,1,0.2,2.2,1.2,2.6c0.2,0.1,0.4,0.1,0.7,0.1
			c0.8,0,1.6-0.5,1.9-1.3l0.2-0.5C30,303.4,29.5,302.2,28.4,301.9z"/>
		<path class="st1" d="M10.3,367.6c-1.1-0.2-2.1,0.5-2.3,1.6l-0.1,0.5c-0.2,1.1,0.5,2.1,1.6,2.3c0.1,0,0.3,0,0.4,0
			c0.9,0,1.8-0.7,2-1.6l0.1-0.5C12.1,368.9,11.4,367.8,10.3,367.6z"/>
		<path class="st1" d="M31.4,293.9c-1-0.4-2.2,0.1-2.6,1.2l-0.2,0.5c-0.4,1,0.1,2.2,1.2,2.6c0.2,0.1,0.5,0.1,0.7,0.1
			c0.8,0,1.6-0.5,1.9-1.3l0.2-0.5C33,295.4,32.4,294.2,31.4,293.9z"/>
		<path class="st1" d="M25.6,309.9c-1-0.3-2.2,0.2-2.5,1.3l-0.2,0.5c-0.3,1,0.2,2.2,1.3,2.5c0.2,0.1,0.4,0.1,0.6,0.1
			c0.8,0,1.6-0.5,1.9-1.4l0.2-0.5C27.2,311.4,26.7,310.3,25.6,309.9z"/>
		<path class="st1" d="M34.5,285.9c-1-0.4-2.2,0.1-2.6,1.1l-0.2,0.5c-0.4,1,0.1,2.2,1.1,2.6c0.2,0.1,0.5,0.1,0.7,0.1
			c0.8,0,1.5-0.5,1.9-1.3l0.2-0.5C36,287.5,35.5,286.3,34.5,285.9z"/>
		<path class="st1" d="M2.8,426.7c-1.1-0.1-2,0.8-2.1,1.9l0,0.5c-0.1,1.1,0.8,2,1.9,2.1c0,0,0.1,0,0.1,0c1.1,0,1.9-0.8,2-1.9l0-0.5
			C4.8,427.7,3.9,426.8,2.8,426.7z"/>
		<path class="st1" d="M2.4,435.2c-1.1,0-2,0.8-2.1,1.9l0,0.5c0,1.1,0.8,2,1.9,2.1c0,0,0,0,0.1,0c1.1,0,2-0.9,2-1.9l0-0.5
			C4.4,436.2,3.5,435.3,2.4,435.2z"/>
		<path class="st1" d="M3.4,418.2c-1.1-0.1-2.1,0.7-2.2,1.8l0,0.5c-0.1,1.1,0.7,2.1,1.8,2.1c0.1,0,0.1,0,0.1,0c1,0,1.9-0.8,2-1.9
			l0-0.5C5.4,419.3,4.5,418.3,3.4,418.2z"/>
		<path class="st1" d="M2.1,443.8c-1.1,0-2,0.9-2,2l0,0.5c0,1.1,0.9,2,2,2c0,0,0,0,0,0c1.1,0,2-0.9,2-2l0-0.5
			C4.1,444.7,3.2,443.8,2.1,443.8z"/>
		<path class="st1" d="M7.4,384.4c-1.1-0.2-2.1,0.6-2.3,1.7L5,386.6c-0.2,1.1,0.6,2.1,1.7,2.3c0.1,0,0.2,0,0.3,0c1,0,1.8-0.7,2-1.7
			l0.1-0.5C9.2,385.6,8.5,384.6,7.4,384.4z"/>
		<path class="st1" d="M6.2,392.9c-1.1-0.1-2.1,0.7-2.2,1.7L3.9,395c-0.1,1.1,0.6,2.1,1.7,2.2c0.1,0,0.2,0,0.3,0c1,0,1.9-0.7,2-1.7
			l0.1-0.5C8,394,7.3,393,6.2,392.9z"/>
		<path class="st1" d="M8.8,376c-1.1-0.2-2.1,0.5-2.3,1.6l-0.1,0.5c-0.2,1.1,0.5,2.1,1.6,2.3c0.1,0,0.2,0,0.3,0c1,0,1.8-0.7,2-1.7
			l0.1-0.5C10.6,377.2,9.9,376.2,8.8,376z"/>
		<path class="st1" d="M4.2,409.7c-1.1-0.1-2.1,0.7-2.2,1.8l0,0.5c-0.1,1.1,0.7,2.1,1.8,2.2c0.1,0,0.1,0,0.2,0c1,0,1.9-0.8,2-1.8
			l0-0.5C6.1,410.8,5.3,409.9,4.2,409.7z"/>
		<path class="st1" d="M5.1,401.3C4,401.1,3,401.9,2.9,403l-0.1,0.5c-0.1,1.1,0.7,2.1,1.8,2.2c0.1,0,0.2,0,0.2,0c1,0,1.9-0.8,2-1.8
			l0.1-0.5C7,402.4,6.2,401.4,5.1,401.3z"/>
		<path class="st1" d="M93.3,182.2c-0.9-0.7-2.1-0.5-2.8,0.4l-0.3,0.4c-0.7,0.9-0.5,2.1,0.4,2.8c0.4,0.3,0.8,0.4,1.2,0.4
			c0.6,0,1.2-0.3,1.6-0.8l0.3-0.4C94.3,184.1,94.1,182.9,93.3,182.2z"/>
		<path class="st1" d="M88.2,189.1c-0.9-0.6-2.1-0.4-2.8,0.5l-0.3,0.4c-0.6,0.9-0.4,2.1,0.5,2.8c0.4,0.3,0.8,0.4,1.2,0.4
			c0.6,0,1.2-0.3,1.6-0.8l0.3-0.4C89.3,190.9,89.1,189.7,88.2,189.1z"/>
		<path class="st1" d="M37.8,278c-1-0.4-2.2,0-2.6,1.1l-0.2,0.5c-0.4,1,0.1,2.2,1.1,2.6c0.3,0.1,0.5,0.2,0.8,0.2
			c0.8,0,1.5-0.5,1.8-1.2l0.2-0.5C39.3,279.6,38.8,278.4,37.8,278z"/>
		<path class="st1" d="M78.4,203c-0.9-0.6-2.2-0.4-2.8,0.6l-0.3,0.4c-0.6,0.9-0.4,2.2,0.6,2.8c0.3,0.2,0.7,0.3,1.1,0.3
			c0.6,0,1.3-0.3,1.7-0.9l0.3-0.4C79.6,204.9,79.3,203.6,78.4,203z"/>
		<path class="st1" d="M98.5,175.4c-0.9-0.7-2.1-0.5-2.8,0.3l-0.3,0.4c-0.7,0.9-0.5,2.1,0.4,2.8c0.4,0.3,0.8,0.4,1.2,0.4
			c0.6,0,1.2-0.3,1.6-0.8l0.3-0.4C99.5,177.4,99.3,176.1,98.5,175.4z"/>
		<path class="st1" d="M83.2,196c-0.9-0.6-2.2-0.4-2.8,0.5l-0.3,0.4c-0.6,0.9-0.4,2.2,0.5,2.8c0.3,0.2,0.7,0.4,1.1,0.4
			c0.6,0,1.3-0.3,1.6-0.9l0.3-0.4C84.4,197.9,84.1,196.6,83.2,196z"/>
		<path class="st1" d="M117.7,149.6l-0.3,0.4c-0.7,0.8-0.7,2.1,0.1,2.8c0.4,0.3,0.9,0.5,1.3,0.5c0.5,0,1.1-0.2,1.5-0.7l0.3-0.4
			c0.7-0.8,0.7-2.1-0.1-2.8C119.7,148.7,118.4,148.8,117.7,149.6z"/>
		<path class="st1" d="M103.8,168.8c-0.9-0.7-2.1-0.6-2.8,0.3l-0.3,0.4c-0.7,0.9-0.6,2.1,0.3,2.8c0.4,0.3,0.8,0.4,1.3,0.4
			c0.6,0,1.2-0.3,1.6-0.7l0.3-0.4C104.8,170.8,104.7,169.5,103.8,168.8z"/>
		<path class="st1" d="M112,156l-0.3,0.4c-0.7,0.8-0.6,2.1,0.2,2.8c0.4,0.3,0.8,0.5,1.3,0.5c0.6,0,1.1-0.2,1.5-0.7l0.3-0.4
			c0.7-0.8,0.6-2.1-0.2-2.8C114,155.1,112.7,155.2,112,156z"/>
		<path class="st1" d="M106.4,162.5l-0.3,0.4c-0.7,0.8-0.6,2.1,0.2,2.8c0.4,0.3,0.8,0.5,1.3,0.5c0.6,0,1.1-0.2,1.5-0.7l0.3-0.4
			c0.7-0.8,0.6-2.1-0.3-2.8C108.4,161.5,107.1,161.6,106.4,162.5z"/>
		<path class="st1" d="M123.5,143.3l-0.3,0.4c-0.8,0.8-0.7,2.1,0.1,2.8c0.4,0.4,0.9,0.5,1.4,0.5c0.5,0,1.1-0.2,1.5-0.6l0.3-0.4
			c0.8-0.8,0.7-2.1-0.1-2.8C125.5,142.5,124.3,142.5,123.5,143.3z"/>
		<path class="st1" d="M44.8,262.4c-1-0.5-2.2,0-2.7,1l-0.2,0.5c-0.5,1,0,2.2,1,2.7c0.3,0.1,0.6,0.2,0.8,0.2c0.8,0,1.5-0.4,1.8-1.2
			l0.2-0.5C46.2,264.1,45.8,262.9,44.8,262.4z"/>
		<path class="st1" d="M48.5,254.7c-1-0.5-2.2-0.1-2.7,0.9l-0.2,0.5c-0.5,1-0.1,2.2,0.9,2.7c0.3,0.1,0.6,0.2,0.9,0.2
			c0.7,0,1.5-0.4,1.8-1.1l0.2-0.4C49.9,256.4,49.5,255.2,48.5,254.7z"/>
		<path class="st1" d="M73.7,210.2c-0.9-0.6-2.2-0.3-2.8,0.6l-0.3,0.4c-0.6,0.9-0.3,2.2,0.6,2.8c0.3,0.2,0.7,0.3,1.1,0.3
			c0.7,0,1.3-0.3,1.7-0.9l0.3-0.4C74.9,212,74.6,210.8,73.7,210.2z"/>
		<path class="st1" d="M52.3,247.1c-1-0.5-2.2-0.1-2.7,0.9l-0.2,0.4c-0.5,1-0.1,2.2,0.9,2.7c0.3,0.1,0.6,0.2,0.9,0.2
			c0.7,0,1.4-0.4,1.8-1.1l0.2-0.4C53.7,248.8,53.3,247.6,52.3,247.1z"/>
		<path class="st1" d="M41.2,270.2c-1-0.4-2.2,0-2.6,1l-0.2,0.5c-0.4,1,0,2.2,1,2.6c0.3,0.1,0.5,0.2,0.8,0.2c0.8,0,1.5-0.4,1.8-1.2
			l0.2-0.5C42.7,271.8,42.2,270.6,41.2,270.2z"/>
		<path class="st1" d="M64.7,224.7c-1-0.6-2.2-0.2-2.7,0.7l-0.3,0.4c-0.6,1-0.2,2.2,0.7,2.7c0.3,0.2,0.7,0.3,1,0.3
			c0.7,0,1.4-0.4,1.7-1l0.3-0.4C66,226.5,65.7,225.2,64.7,224.7z"/>
		<path class="st1" d="M69.2,217.4c-0.9-0.6-2.2-0.3-2.7,0.7l-0.3,0.4c-0.6,0.9-0.3,2.2,0.7,2.7c0.3,0.2,0.7,0.3,1,0.3
			c0.7,0,1.3-0.3,1.7-1l0.3-0.4C70.4,219.2,70.1,218,69.2,217.4z"/>
		<path class="st1" d="M56.3,239.5c-1-0.5-2.2-0.1-2.7,0.8l-0.2,0.4c-0.5,1-0.2,2.2,0.8,2.7c0.3,0.2,0.6,0.2,0.9,0.2
			c0.7,0,1.4-0.4,1.8-1.1l0.2-0.4C57.7,241.3,57.3,240.1,56.3,239.5z"/>
		<path class="st1" d="M60.5,232.1c-1-0.5-2.2-0.2-2.7,0.8l-0.2,0.4c-0.5,1-0.2,2.2,0.8,2.7c0.3,0.2,0.6,0.3,1,0.3
			c0.7,0,1.4-0.4,1.7-1l0.2-0.4C61.8,233.8,61.4,232.6,60.5,232.1z"/>
		<path class="st1" d="M898.2,354.8c1.1-0.3,1.7-1.3,1.5-2.4l-0.1-0.5c-0.3-1.1-1.3-1.7-2.4-1.5c-1.1,0.3-1.7,1.3-1.5,2.4l0.1,0.5
			c0.2,0.9,1,1.5,1.9,1.5C897.9,354.8,898.1,354.8,898.2,354.8z"/>
		<path class="st1" d="M853.7,233.2l-0.2-0.3l0-0.1c-0.5-1-1.7-1.3-2.7-0.7c-1,0.5-1.3,1.8-0.7,2.8l0.2,0.4c0.4,0.6,1,1,1.7,1
			c0.3,0,0.7-0.1,1-0.3C853.9,235.4,854.3,234.2,853.7,233.2z"/>
		<path class="st1" d="M849.2,225.4c-0.6-1-1.8-1.3-2.7-0.7c-1,0.6-1.3,1.8-0.7,2.7l0.3,0.4c0.4,0.6,1,1,1.7,1c0.3,0,0.7-0.1,1-0.3
			c1-0.6,1.3-1.8,0.7-2.7L849.2,225.4z"/>
		<path class="st1" d="M844.8,218c-0.6-0.9-1.8-1.2-2.8-0.7c-0.9,0.6-1.2,1.8-0.7,2.7l0.3,0.4c0.4,0.6,1,1,1.7,1
			c0.4,0,0.7-0.1,1-0.3c0.9-0.6,1.2-1.8,0.7-2.7L844.8,218z"/>
		<path class="st1" d="M835.6,203.6c-0.6-0.9-1.9-1.2-2.8-0.5c-0.9,0.6-1.2,1.9-0.5,2.8l0.3,0.4c0.4,0.6,1,0.9,1.7,0.9
			c0.4,0,0.8-0.1,1.1-0.3c0.9-0.6,1.2-1.9,0.6-2.8L835.6,203.6z"/>
		<path class="st1" d="M830.8,196.6c-0.6-0.9-1.9-1.1-2.8-0.5c-0.9,0.6-1.1,1.9-0.5,2.8l0.3,0.4c0.4,0.6,1,0.9,1.6,0.9
			c0.4,0,0.8-0.1,1.1-0.4c0.9-0.6,1.1-1.9,0.5-2.8L830.8,196.6z"/>
		<path class="st1" d="M840.3,210.8c-0.6-0.9-1.8-1.2-2.8-0.6c-0.9,0.6-1.2,1.8-0.6,2.8l0.3,0.4c0.4,0.6,1,0.9,1.7,0.9
			c0.4,0,0.7-0.1,1.1-0.3c0.9-0.6,1.2-1.8,0.6-2.8L840.3,210.8z"/>
		<path class="st1" d="M872.8,271.4l-0.2-0.5c-0.4-1-1.6-1.5-2.6-1c-1,0.4-1.5,1.6-1,2.6l0.2,0.5c0.3,0.7,1.1,1.2,1.8,1.2
			c0.3,0,0.5-0.1,0.8-0.2C872.8,273.5,873.2,272.4,872.8,271.4z"/>
		<path class="st1" d="M857.8,240.7l-0.2-0.4c-0.5-1-1.7-1.3-2.7-0.8c-1,0.5-1.3,1.7-0.8,2.7l0.2,0.4c0.4,0.7,1.1,1.1,1.8,1.1
			c0.3,0,0.6-0.1,0.9-0.2C858,242.9,858.3,241.7,857.8,240.7z"/>
		<path class="st1" d="M865.6,255.9l-0.2-0.5c-0.5-1-1.7-1.4-2.7-0.9c-1,0.5-1.4,1.7-0.9,2.7l0.2,0.4c0.3,0.7,1.1,1.1,1.8,1.1
			c0.3,0,0.6-0.1,0.9-0.2C865.7,258.1,866.1,256.9,865.6,255.9z"/>
		<path class="st1" d="M861.8,248.3l-0.2-0.5c-0.5-1-1.7-1.4-2.7-0.9c-1,0.5-1.4,1.7-0.9,2.7l0.2,0.4c0.4,0.7,1.1,1.1,1.8,1.1
			c0.3,0,0.6-0.1,0.9-0.2C861.9,250.4,862.3,249.2,861.8,248.3z"/>
		<path class="st1" d="M869.3,263.6l-0.2-0.5c-0.5-1-1.7-1.4-2.7-1c-1,0.5-1.4,1.7-1,2.7l0.2,0.5c0.3,0.7,1.1,1.2,1.8,1.2
			c0.3,0,0.6-0.1,0.8-0.2C869.3,265.8,869.7,264.6,869.3,263.6z"/>
		<path class="st1" d="M799.3,156.1c-0.7-0.8-2-0.9-2.8-0.2c-0.8,0.7-0.9,2-0.2,2.8l0.3,0.4c0.4,0.4,0.9,0.7,1.5,0.7
			c0.5,0,0.9-0.2,1.3-0.5c0.8-0.7,0.9-2,0.2-2.8L799.3,156.1z"/>
		<path class="st1" d="M793.7,149.7c-0.7-0.8-2-0.9-2.8-0.1c-0.8,0.7-0.9,2-0.1,2.8l0.3,0.4c0.4,0.4,0.9,0.7,1.5,0.7
			c0.5,0,1-0.2,1.3-0.5c0.8-0.7,0.9-2,0.1-2.8L793.7,149.7z"/>
		<path class="st1" d="M787.9,143.4c-0.8-0.8-2-0.8-2.8-0.1c-0.8,0.8-0.8,2-0.1,2.8l0.3,0.4c0.4,0.4,0.9,0.6,1.5,0.6
			c0.5,0,1-0.2,1.4-0.5c0.8-0.8,0.8-2,0.1-2.8L787.9,143.4z"/>
		<path class="st1" d="M781.9,137.3c-0.8-0.8-2-0.8-2.8,0c-0.8,0.8-0.8,2,0,2.8l0.4,0.4c0.4,0.4,0.9,0.6,1.4,0.6
			c0.5,0,1-0.2,1.4-0.6c0.8-0.8,0.8-2,0-2.8L781.9,137.3z"/>
		<path class="st1" d="M769.7,125.2c-0.8-0.8-2.1-0.7-2.8,0.1c-0.8,0.8-0.7,2.1,0.1,2.8l0.4,0.3c0.4,0.4,0.9,0.5,1.4,0.5
			c0.5,0,1.1-0.2,1.5-0.6c0.8-0.8,0.7-2.1-0.1-2.8L769.7,125.2z"/>
		<path class="st1" d="M825.9,189.6c-0.6-0.9-1.9-1.1-2.8-0.5c-0.9,0.6-1.1,1.9-0.5,2.8l0.3,0.4c0.4,0.5,1,0.8,1.6,0.8
			c0.4,0,0.8-0.1,1.2-0.4c0.9-0.6,1.1-1.9,0.5-2.8L825.9,189.6z"/>
		<path class="st1" d="M442.8,0.2C442.8,0.2,442.8,0.2,442.8,0.2l-0.6,0c-1.1,0-2,1-1.9,2.1c0,1.1,0.9,1.9,2,1.9c0,0,0,0,0.1,0
			l0.5,0c1.1,0,2-0.9,2-2C444.8,1,443.9,0.2,442.8,0.2z"/>
		<path class="st1" d="M820.9,182.7c-0.7-0.9-1.9-1.1-2.8-0.4c-0.9,0.7-1.1,1.9-0.4,2.8l0.3,0.4c0.4,0.5,1,0.8,1.6,0.8
			c0.4,0,0.8-0.1,1.2-0.4c0.9-0.7,1.1-1.9,0.4-2.8L820.9,182.7z"/>
		<path class="st1" d="M815.7,175.9c-0.7-0.9-1.9-1-2.8-0.4c-0.9,0.7-1,1.9-0.4,2.8l0.3,0.4c0.4,0.5,1,0.8,1.6,0.8
			c0.4,0,0.9-0.1,1.2-0.4c0.9-0.7,1-1.9,0.3-2.8L815.7,175.9z"/>
		<path class="st1" d="M810.3,169.2c-0.7-0.9-2-1-2.8-0.3c-0.9,0.7-1,2-0.3,2.8l0.3,0.4c0.4,0.5,1,0.7,1.6,0.7
			c0.4,0,0.9-0.1,1.3-0.4c0.9-0.7,1-2,0.3-2.8L810.3,169.2z"/>
		<path class="st1" d="M775.9,131.2c-0.8-0.8-2.1-0.8-2.8,0c-0.8,0.8-0.8,2.1,0,2.8l0.4,0.3c0.4,0.4,0.9,0.6,1.4,0.6
			c0.5,0,1-0.2,1.4-0.6c0.8-0.8,0.8-2.1,0-2.8L775.9,131.2z"/>
		<path class="st1" d="M906.6,405.2c1.1-0.1,1.9-1.1,1.8-2.2l-0.1-0.5c-0.1-1.1-1.1-1.9-2.2-1.8c-1.1,0.1-1.9,1.1-1.8,2.2l0.1,0.5
			c0.1,1,1,1.8,2,1.8C906.5,405.2,906.5,405.2,906.6,405.2z"/>
		<path class="st1" d="M907.5,413.7c1.1-0.1,1.9-1.1,1.8-2.2l0-0.5c-0.1-1.1-1.1-1.9-2.2-1.8c-1.1,0.1-1.9,1.1-1.8,2.2l0,0.5
			c0.1,1,1,1.8,2,1.8C907.3,413.7,907.4,413.7,907.5,413.7z"/>
		<path class="st1" d="M905.6,396.7c1.1-0.1,1.9-1.1,1.7-2.2l-0.1-0.5c-0.1-1.1-1.2-1.9-2.2-1.7c-1.1,0.1-1.9,1.2-1.7,2.3l0.1,0.5
			c0.1,1,1,1.7,2,1.7C905.4,396.8,905.5,396.7,905.6,396.7z"/>
		<path class="st1" d="M904.4,388.3c1.1-0.2,1.8-1.2,1.7-2.3l-0.1-0.5c-0.2-1.1-1.2-1.8-2.3-1.7c-1.1,0.2-1.8,1.2-1.7,2.3l0.1,0.5
			c0.1,1,1,1.7,2,1.7C904.2,388.3,904.3,388.3,904.4,388.3z"/>
		<path class="st1" d="M901.7,371.5c1.1-0.2,1.8-1.3,1.6-2.3l-0.1-0.5c-0.2-1.1-1.3-1.8-2.3-1.6c-1.1,0.2-1.8,1.3-1.6,2.3l0.1,0.5
			c0.2,1,1,1.6,2,1.6C901.4,371.5,901.5,371.5,901.7,371.5z"/>
		<path class="st1" d="M903.1,379.9c1.1-0.2,1.8-1.2,1.6-2.3l-0.1-0.5c-0.2-1.1-1.2-1.8-2.3-1.6c-1.1,0.2-1.8,1.2-1.6,2.3l0.1,0.5
			c0.2,1,1,1.7,2,1.7C902.9,379.9,903,379.9,903.1,379.9z"/>
		<path class="st1" d="M909.1,443.2c-1.1,0-2,0.9-2,2l0,0.5c0,1.1,0.9,2,2,2c0,0,0,0,0,0c1.1,0,2-0.9,2-2l0-0.5
			C911.1,444.1,910.2,443.2,909.1,443.2z"/>
		<path class="st1" d="M908,422.2c0.1,0,0.1,0,0.2,0c1.1-0.1,1.9-1,1.8-2.1l0-0.5c-0.1-1.1-1-1.9-2.1-1.8c-1.1,0.1-1.9,1-1.8,2.1
			l0,0.5C906.1,421.4,906.9,422.2,908,422.2z"/>
		<path class="st1" d="M908.9,439.2C909,439.2,909,439.2,908.9,439.2c1.2,0,2-1,2-2.1l0-0.5c0-1.1-0.9-2-2.1-1.9c-1.1,0-2,1-1.9,2.1
			l0,0.5C907,438.4,907.9,439.2,908.9,439.2z"/>
		<path class="st1" d="M908.5,430.7c0,0,0.1,0,0.1,0c1.1-0.1,2-1,1.9-2.1l0-0.5c-0.1-1.1-1-1.9-2.1-1.9c-1.1,0.1-1.9,1-1.9,2.1
			l0,0.5C906.6,429.9,907.5,430.7,908.5,430.7z"/>
		<path class="st1" d="M900,363.1c1.1-0.2,1.8-1.3,1.5-2.4l-0.1-0.5c-0.2-1.1-1.3-1.8-2.4-1.5c-1.1,0.2-1.8,1.3-1.5,2.4l0.1,0.5
			c0.2,0.9,1,1.6,2,1.6C899.7,363.2,899.9,363.1,900,363.1z"/>
		<path class="st1" d="M882.5,295.1l-0.2-0.5c-0.4-1-1.5-1.6-2.6-1.2c-1,0.4-1.6,1.5-1.2,2.6l0.2,0.5c0.3,0.8,1.1,1.3,1.9,1.3
			c0.2,0,0.5,0,0.7-0.1C882.3,297.2,882.8,296.1,882.5,295.1z"/>
		<path class="st1" d="M885.4,303.1l-0.2-0.5c-0.4-1-1.5-1.6-2.6-1.2c-1,0.4-1.6,1.5-1.2,2.6l0.2,0.5c0.3,0.8,1.1,1.3,1.9,1.3
			c0.2,0,0.5,0,0.7-0.1C885.2,305.3,885.8,304.1,885.4,303.1z"/>
		<path class="st1" d="M888.2,311.2l-0.2-0.5c-0.3-1-1.5-1.6-2.5-1.3c-1,0.3-1.6,1.5-1.3,2.5l0.2,0.5c0.3,0.8,1.1,1.4,1.9,1.4
			c0.2,0,0.4,0,0.6-0.1C888,313.4,888.5,312.2,888.2,311.2z"/>
		<path class="st1" d="M879.4,287.1l-0.2-0.5c-0.4-1-1.6-1.5-2.6-1.1c-1,0.4-1.5,1.6-1.1,2.6l0.2,0.5c0.3,0.8,1.1,1.3,1.9,1.3
			c0.2,0,0.5,0,0.7-0.1C879.3,289.3,879.8,288.1,879.4,287.1z"/>
		<path class="st1" d="M890.8,319.3l-0.1-0.5c-0.3-1.1-1.5-1.6-2.5-1.3c-1.1,0.3-1.6,1.5-1.3,2.5l0.1,0.5c0.3,0.9,1.1,1.4,1.9,1.4
			c0.2,0,0.4,0,0.6-0.1C890.5,321.5,891.1,320.4,890.8,319.3z"/>
		<path class="st1" d="M876.1,279.2l-0.2-0.5c-0.4-1-1.6-1.5-2.6-1.1c-1,0.4-1.5,1.6-1.1,2.6l0.2,0.5c0.3,0.8,1.1,1.2,1.8,1.2
			c0.3,0,0.5-0.1,0.8-0.2C876.1,281.4,876.6,280.2,876.1,279.2z"/>
		<path class="st1" d="M896.3,346.5c1.1-0.3,1.7-1.3,1.5-2.4l-0.1-0.5c-0.3-1.1-1.4-1.7-2.4-1.4c-1.1,0.3-1.7,1.4-1.4,2.4l0.1,0.5
			c0.2,0.9,1,1.5,1.9,1.5C895.9,346.6,896.1,346.5,896.3,346.5z"/>
		<path class="st1" d="M895.6,335.8l-0.1-0.5c-0.3-1.1-1.4-1.7-2.5-1.4c-1.1,0.3-1.7,1.4-1.4,2.5l0.1,0.5c0.2,0.9,1,1.5,1.9,1.5
			c0.2,0,0.3,0,0.5-0.1C895.2,337.9,895.9,336.9,895.6,335.8z"/>
		<path class="st1" d="M893.3,327.5l-0.1-0.5c-0.3-1.1-1.4-1.7-2.5-1.4c-1.1,0.3-1.7,1.4-1.4,2.5l0.1,0.5c0.3,0.9,1.1,1.4,1.9,1.4
			c0.2,0,0.4,0,0.6-0.1C893,329.7,893.6,328.6,893.3,327.5z"/>
		<path class="st1" d="M804.9,162.6c-0.7-0.8-2-1-2.8-0.2c-0.8,0.7-1,2-0.2,2.8l0.3,0.4c0.4,0.5,1,0.7,1.5,0.7
			c0.5,0,0.9-0.2,1.3-0.5c0.8-0.7,1-2,0.2-2.8L804.9,162.6z"/>
		<path class="st1" d="M569.9,14.4l-0.5-0.1c-1.1-0.3-2.2,0.4-2.4,1.4c-0.3,1.1,0.4,2.2,1.4,2.4l0.5,0.1c0.2,0,0.3,0.1,0.5,0.1
			c0.9,0,1.7-0.6,1.9-1.5C571.6,15.8,571,14.7,569.9,14.4z"/>
		<path class="st1" d="M561.6,12.3l-0.5-0.1c-1.1-0.3-2.2,0.4-2.4,1.5c-0.3,1.1,0.4,2.2,1.5,2.4l0.5,0.1c0.2,0,0.3,0.1,0.5,0.1
			c0.9,0,1.7-0.6,1.9-1.5C563.3,13.7,562.7,12.6,561.6,12.3z"/>
		<path class="st1" d="M553.3,10.4l-0.5-0.1c-1.1-0.2-2.1,0.5-2.4,1.5c-0.2,1.1,0.5,2.1,1.5,2.4l0.5,0.1c0.1,0,0.3,0,0.4,0
			c0.9,0,1.7-0.6,2-1.6C555,11.7,554.3,10.7,553.3,10.4z"/>
		<path class="st1" d="M528,5.7l-0.5-0.1c-1.1-0.2-2.1,0.6-2.3,1.7c-0.2,1.1,0.6,2.1,1.7,2.3l0.5,0.1c0.1,0,0.2,0,0.3,0
			c1,0,1.8-0.7,2-1.7C529.9,6.9,529.1,5.9,528,5.7z"/>
		<path class="st1" d="M536.5,7.1L536,7c-1.1-0.2-2.1,0.5-2.3,1.6c-0.2,1.1,0.5,2.1,1.6,2.3l0.5,0.1c0.1,0,0.2,0,0.4,0
			c1,0,1.8-0.7,2-1.7C538.3,8.3,537.5,7.3,536.5,7.1z"/>
		<path class="st1" d="M544.9,8.7l-0.5-0.1c-1.1-0.2-2.1,0.5-2.3,1.6c-0.2,1.1,0.5,2.1,1.6,2.3l0.5,0.1c0.1,0,0.3,0,0.4,0
			c0.9,0,1.8-0.7,2-1.6C546.7,10,546,8.9,544.9,8.7z"/>
		<path class="st1" d="M594.6,21.5l-0.5-0.2c-1.1-0.3-2.2,0.2-2.5,1.3c-0.3,1.1,0.2,2.2,1.3,2.5l0.5,0.2c0.2,0.1,0.4,0.1,0.6,0.1
			c0.8,0,1.6-0.5,1.9-1.4C596.2,23,595.6,21.8,594.6,21.5z"/>
		<path class="st1" d="M578.2,16.6l-0.5-0.1c-1.1-0.3-2.2,0.3-2.5,1.4c-0.3,1.1,0.3,2.2,1.4,2.5l0.5,0.1c0.2,0.1,0.4,0.1,0.5,0.1
			c0.9,0,1.7-0.6,1.9-1.5C579.9,18,579.2,16.9,578.2,16.6z"/>
		<path class="st1" d="M602.7,24.2l-0.5-0.2c-1-0.4-2.2,0.2-2.5,1.3c-0.4,1,0.2,2.2,1.3,2.5l0.5,0.2c0.2,0.1,0.4,0.1,0.6,0.1
			c0.8,0,1.6-0.5,1.9-1.4C604.3,25.7,603.8,24.6,602.7,24.2z"/>
		<path class="st1" d="M586.4,19l-0.5-0.1c-1.1-0.3-2.2,0.3-2.5,1.3c-0.3,1.1,0.3,2.2,1.3,2.5l0.5,0.1c0.2,0.1,0.4,0.1,0.6,0.1
			c0.9,0,1.7-0.6,1.9-1.4C588.1,20.4,587.5,19.3,586.4,19z"/>
		<path class="st1" d="M511.1,3.3l-0.5-0.1c-1.1-0.1-2.1,0.6-2.2,1.7c-0.1,1.1,0.6,2.1,1.7,2.2l0.5,0.1c0.1,0,0.2,0,0.2,0
			c1,0,1.9-0.7,2-1.8C513,4.4,512.2,3.4,511.1,3.3z"/>
		<path class="st1" d="M468.4,0.2l-0.5,0c0,0,0,0-0.1,0c-1.1,0-2,0.9-2,1.9c0,1.1,0.8,2,1.9,2.1l0.5,0c0,0,0,0,0.1,0
			c1.1,0,2-0.9,2-1.9C470.4,1.1,469.5,0.2,468.4,0.2z"/>
		<path class="st1" d="M459.9,0l-0.5,0c-1.1,0-2,0.9-2,2c0,1.1,0.9,2,2,2l0.5,0c0,0,0,0,0,0c1.1,0,2-0.9,2-2
			C461.8,0.9,461,0,459.9,0z"/>
		<path class="st1" d="M477,0.5l-0.5,0c-1.1,0-2,0.8-2.1,1.9c0,1.1,0.8,2,1.9,2.1l0.5,0c0,0,0.1,0,0.1,0c1.1,0,1.9-0.8,2-1.9
			C478.9,1.5,478.1,0.5,477,0.5z"/>
		<path class="st1" d="M451.3,0C451.3,0,451.3,0,451.3,0l-0.5,0c-1.1,0-2,0.9-2,2c0,1.1,0.9,2,2,2c0,0,0,0,0,0l0.5,0
			c1.1,0,2-0.9,2-2C453.3,0.9,452.4,0,451.3,0z"/>
		<path class="st1" d="M610.9,27l-0.5-0.2c-1-0.4-2.2,0.2-2.6,1.2c-0.4,1,0.2,2.2,1.2,2.6l0.5,0.2c0.2,0.1,0.5,0.1,0.7,0.1
			c0.8,0,1.6-0.5,1.9-1.3C612.4,28.6,611.9,27.4,610.9,27z"/>
		<path class="st1" d="M519.6,4.4l-0.5-0.1C518,4.2,517,5,516.8,6.1c-0.2,1.1,0.6,2.1,1.7,2.3l0.5,0.1c0.1,0,0.2,0,0.3,0
			c1,0,1.8-0.7,2-1.7C521.4,5.6,520.7,4.6,519.6,4.4z"/>
		<path class="st1" d="M485.5,0.9l-0.5,0c-1.1-0.1-2.1,0.8-2.1,1.9c-0.1,1.1,0.8,2.1,1.9,2.1l0.5,0c0,0,0.1,0,0.1,0
			c1,0,1.9-0.8,2-1.9C487.4,2,486.6,1,485.5,0.9z"/>
		<path class="st1" d="M502.5,2.4l-0.4,0C501,2.2,500,3,499.9,4.1c-0.1,1.1,0.7,2.1,1.8,2.2l0.5,0.1c0.1,0,0.1,0,0.2,0
			c1,0,1.8-0.8,1.9-1.8C504.4,3.5,503.6,2.5,502.5,2.4z"/>
		<path class="st1" d="M494,1.6l-0.5,0c-1.1-0.1-2.1,0.7-2.2,1.8c-0.1,1.1,0.7,2.1,1.8,2.2l0.5,0c0.1,0,0.1,0,0.2,0
			c1,0,1.9-0.8,2-1.8C496,2.6,495.1,1.7,494,1.6z"/>
		<path class="st1" d="M650.5,43.5l-0.5-0.2c-1-0.5-2.2,0-2.7,1c-0.5,1,0,2.2,1,2.7l0.5,0.2c0.3,0.1,0.6,0.2,0.9,0.2
			c0.8,0,1.5-0.4,1.8-1.1C651.9,45.2,651.5,44,650.5,43.5z"/>
		<path class="st1" d="M717.1,82.2l-0.4-0.3c-0.9-0.6-2.2-0.4-2.8,0.5c-0.6,0.9-0.4,2.2,0.5,2.8l0.4,0.3c0.3,0.2,0.7,0.4,1.1,0.4
			c0.6,0,1.3-0.3,1.6-0.9C718.3,84.1,718,82.9,717.1,82.2z"/>
		<path class="st1" d="M724.1,87.2l-0.4-0.3c-0.9-0.6-2.1-0.4-2.8,0.4c-0.6,0.9-0.4,2.1,0.4,2.8l0.4,0.3c0.4,0.3,0.8,0.4,1.2,0.4
			c0.6,0,1.2-0.3,1.6-0.8C725.2,89.1,725,87.9,724.1,87.2z"/>
		<path class="st1" d="M710.1,77.4l-0.4-0.3c-0.9-0.6-2.2-0.4-2.8,0.5c-0.6,0.9-0.4,2.2,0.5,2.8l0.4,0.3c0.3,0.2,0.7,0.3,1.1,0.3
			c0.6,0,1.3-0.3,1.7-0.9C711.2,79.2,711,78,710.1,77.4z"/>
		<path class="st1" d="M695.7,68.1l-0.4-0.3c-0.9-0.6-2.2-0.3-2.8,0.7c-0.6,0.9-0.3,2.2,0.7,2.8l0.4,0.3c0.3,0.2,0.7,0.3,1.1,0.3
			c0.7,0,1.3-0.3,1.7-0.9C696.9,69.9,696.6,68.7,695.7,68.1z"/>
		<path class="st1" d="M731,92.3l-0.4-0.3c-0.9-0.7-2.1-0.5-2.8,0.4c-0.7,0.9-0.5,2.1,0.4,2.8l0.4,0.3c0.4,0.3,0.8,0.4,1.2,0.4
			c0.6,0,1.2-0.3,1.6-0.8C732,94.2,731.9,93,731,92.3z"/>
		<path class="st1" d="M702.9,72.7l-0.4-0.3c-0.9-0.6-2.2-0.3-2.8,0.6c-0.6,0.9-0.3,2.2,0.6,2.8l0.4,0.3c0.3,0.2,0.7,0.3,1.1,0.3
			c0.7,0,1.3-0.3,1.7-0.9C704.1,74.5,703.8,73.3,702.9,72.7z"/>
		<path class="st1" d="M737.8,97.6l-0.4-0.3c-0.9-0.7-2.1-0.5-2.8,0.3c-0.7,0.9-0.5,2.1,0.3,2.8l0.4,0.3c0.4,0.3,0.8,0.4,1.2,0.4
			c0.6,0,1.2-0.3,1.6-0.8C738.8,99.5,738.6,98.2,737.8,97.6z"/>
		<path class="st1" d="M757.1,113.7c-0.8-0.7-2.1-0.7-2.8,0.2c-0.7,0.8-0.7,2.1,0.2,2.8l0.4,0.3c0.4,0.3,0.9,0.5,1.3,0.5
			c0.6,0,1.1-0.2,1.5-0.7c0.7-0.8,0.6-2.1-0.2-2.8L757.1,113.7z"/>
		<path class="st1" d="M750.6,108.1c-0.8-0.7-2.1-0.6-2.8,0.2c-0.7,0.8-0.6,2.1,0.2,2.8l0.4,0.3c0.4,0.3,0.8,0.5,1.3,0.5
			c0.6,0,1.1-0.2,1.5-0.7c0.7-0.8,0.6-2.1-0.2-2.8L750.6,108.1z"/>
		<path class="st1" d="M744,102.6c-0.9-0.7-2.1-0.6-2.8,0.3c-0.7,0.9-0.6,2.1,0.3,2.8l0.4,0.3c0.4,0.3,0.8,0.5,1.3,0.5
			c0.6,0,1.2-0.3,1.5-0.7c0.7-0.9,0.6-2.1-0.3-2.8L744,102.6z"/>
		<path class="st1" d="M680.9,59.3l-0.4-0.2c-1-0.5-2.2-0.2-2.7,0.8c-0.5,1-0.2,2.2,0.8,2.7l0.4,0.2c0.3,0.2,0.7,0.3,1,0.3
			c0.7,0,1.4-0.4,1.7-1C682.2,61.1,681.9,59.9,680.9,59.3z"/>
		<path class="st1" d="M642.7,39.9l-0.5-0.2c-1-0.5-2.2,0-2.6,1c-0.4,1,0,2.2,1,2.6l0.5,0.2c0.3,0.1,0.5,0.2,0.8,0.2
			c0.8,0,1.5-0.4,1.8-1.2C644.1,41.6,643.7,40.4,642.7,39.9z"/>
		<path class="st1" d="M634.8,36.5l-0.5-0.2c-1-0.4-2.2,0-2.6,1.1c-0.4,1,0,2.2,1.1,2.6l0.5,0.2c0.3,0.1,0.5,0.2,0.8,0.2
			c0.8,0,1.5-0.5,1.8-1.2C636.3,38.1,635.8,36.9,634.8,36.5z"/>
		<path class="st1" d="M626.9,33.2l-0.5-0.2c-1-0.4-2.2,0.1-2.6,1.1c-0.4,1,0.1,2.2,1.1,2.6l0.5,0.2c0.2,0.1,0.5,0.1,0.7,0.1
			c0.8,0,1.5-0.5,1.9-1.3C628.4,34.8,627.9,33.6,626.9,33.2z"/>
		<path class="st1" d="M763.5,119.4c-0.8-0.7-2.1-0.7-2.8,0.1c-0.7,0.8-0.7,2.1,0.1,2.8l0.4,0.3c0.4,0.3,0.9,0.5,1.3,0.5
			c0.5,0,1.1-0.2,1.5-0.7c0.7-0.8,0.7-2.1-0.1-2.8L763.5,119.4z"/>
		<path class="st1" d="M673.4,55.2l-0.4-0.2c-1-0.5-2.2-0.2-2.7,0.8c-0.5,1-0.2,2.2,0.8,2.7l0.4,0.2c0.3,0.2,0.6,0.2,1,0.2
			c0.7,0,1.4-0.4,1.8-1C674.8,56.9,674.4,55.7,673.4,55.2z"/>
		<path class="st1" d="M658.2,47.3l-0.5-0.2c-1-0.5-2.2-0.1-2.7,0.9c-0.5,1-0.1,2.2,0.9,2.7l0.4,0.2c0.3,0.1,0.6,0.2,0.9,0.2
			c0.7,0,1.4-0.4,1.8-1.1C659.6,48.9,659.2,47.7,658.2,47.3z"/>
		<path class="st1" d="M688.3,63.6l-0.4-0.3c-1-0.6-2.2-0.2-2.7,0.7c-0.6,1-0.2,2.2,0.7,2.7l0.4,0.3c0.3,0.2,0.7,0.3,1,0.3
			c0.7,0,1.4-0.4,1.7-1C689.6,65.4,689.3,64.2,688.3,63.6z"/>
		<path class="st1" d="M618.9,30l-0.5-0.2c-1-0.4-2.2,0.1-2.6,1.2c-0.4,1,0.1,2.2,1.2,2.6l0.5,0.2c0.2,0.1,0.5,0.1,0.7,0.1
			c0.8,0,1.6-0.5,1.9-1.3C620.4,31.6,619.9,30.4,618.9,30z"/>
		<path class="st1" d="M665.8,51.1l-0.4-0.2c-1-0.5-2.2-0.1-2.7,0.9c-0.5,1-0.1,2.2,0.9,2.7l0.5,0.2c0.3,0.2,0.6,0.2,0.9,0.2
			c0.7,0,1.4-0.4,1.8-1.1C667.2,52.9,666.8,51.6,665.8,51.1z"/>
	</g>
	<g>
		<path class="st1" d="M909.3,452.3c-1.1,0-2,0.9-2,2v0.1c0,1.1,0.9,2,2,2c1.1,0,2-0.9,2-2v-0.1
			C911.3,453.2,910.4,452.3,909.3,452.3z"/>
	</g>
</g>
<g id="innter-line">
	<g>
		<path class="st1" d="M82.9,452.3c-1.1,0-2,0.9-2,2v0.1c0,1.1,0.9,2,2,2s2-0.9,2-2v-0.1C84.9,453.2,84,452.3,82.9,452.3z"/>
	</g>
	<g>
		<path class="st1" d="M268.6,130.5l-0.4,0.2c-1,0.6-1.3,1.8-0.7,2.7c0.4,0.6,1,1,1.7,1c0.3,0,0.7-0.1,1-0.3l0.4-0.2
			c1-0.6,1.3-1.8,0.7-2.7C270.8,130.3,269.6,129.9,268.6,130.5z"/>
		<path class="st1" d="M261.3,134.8l-0.4,0.3c-0.9,0.6-1.2,1.8-0.7,2.7c0.4,0.6,1,1,1.7,1c0.4,0,0.7-0.1,1-0.3l0.4-0.3
			c0.9-0.6,1.2-1.8,0.7-2.7C263.5,134.5,262.2,134.2,261.3,134.8z"/>
		<path class="st1" d="M254.1,139.3l-0.4,0.3c-0.9,0.6-1.2,1.8-0.6,2.8c0.4,0.6,1,0.9,1.7,0.9c0.4,0,0.7-0.1,1.1-0.3l0.4-0.3
			c0.9-0.6,1.2-1.8,0.6-2.8C256.2,139,255,138.7,254.1,139.3z"/>
		<path class="st1" d="M247,144l-0.4,0.3c-0.9,0.6-1.2,1.9-0.5,2.8c0.4,0.6,1,0.9,1.7,0.9c0.4,0,0.8-0.1,1.1-0.3l0.4-0.3
			c0.9-0.6,1.2-1.9,0.5-2.8C249.1,143.6,247.9,143.3,247,144z"/>
		<path class="st1" d="M291.1,118.5l-0.5,0.2c-1,0.5-1.4,1.7-0.9,2.7c0.3,0.7,1.1,1.1,1.8,1.1c0.3,0,0.6-0.1,0.9-0.2l0.4-0.2
			c1-0.5,1.4-1.7,0.9-2.7C293.3,118.5,292.1,118.1,291.1,118.5z"/>
		<path class="st1" d="M438.6,81.1l-0.5,0c-1.1,0.1-2,1-1.9,2.1c0.1,1.1,0.9,1.9,2,1.9c0,0,0.1,0,0.1,0l0.5,0c1.1,0,2-1,1.9-2.1
			C440.6,81.9,439.7,81,438.6,81.1z"/>
		<path class="st1" d="M276,126.3l-0.4,0.2c-1,0.5-1.3,1.7-0.8,2.7c0.4,0.7,1,1,1.8,1c0.3,0,0.7-0.1,1-0.2l0.4-0.2
			c1-0.5,1.3-1.7,0.8-2.7C278.2,126.2,277,125.8,276,126.3z"/>
		<path class="st1" d="M298.8,114.9l-0.5,0.2c-1,0.5-1.4,1.7-1,2.7c0.3,0.7,1.1,1.2,1.8,1.2c0.3,0,0.6-0.1,0.8-0.2l0.4-0.2
			c1-0.5,1.4-1.6,1-2.7C301,114.9,299.8,114.4,298.8,114.9z"/>
		<path class="st1" d="M200.3,180.9l-0.4,0.3c-0.8,0.8-0.9,2-0.1,2.8c0.4,0.4,0.9,0.6,1.5,0.6c0.5,0,1-0.2,1.4-0.5l0.4-0.3
			c0.8-0.8,0.9-2,0.1-2.8C202.4,180.2,201.1,180.1,200.3,180.9z"/>
		<path class="st1" d="M239.9,148.8l-0.4,0.3c-0.9,0.6-1.1,1.9-0.5,2.8c0.4,0.6,1,0.8,1.6,0.8c0.4,0,0.8-0.1,1.2-0.4l0.4-0.3
			c0.9-0.6,1.1-1.9,0.5-2.8C242.1,148.4,240.9,148.1,239.9,148.8z"/>
		<path class="st1" d="M213,169.6l-0.4,0.3c-0.8,0.7-0.9,2-0.2,2.8c0.4,0.5,1,0.7,1.5,0.7c0.5,0,0.9-0.2,1.3-0.5l0.4-0.3
			c0.8-0.7,0.9-2,0.2-2.8C215.1,169,213.9,168.9,213,169.6z"/>
		<path class="st1" d="M194.1,186.7l-0.4,0.3c-0.8,0.8-0.8,2,0,2.8c0.4,0.4,0.9,0.6,1.4,0.6c0.5,0,1-0.2,1.4-0.6l0.4-0.4
			c0.8-0.8,0.8-2,0-2.8C196.2,186,194.9,186,194.1,186.7z"/>
		<path class="st1" d="M206.6,175.2l-0.4,0.3c-0.8,0.7-0.9,2-0.2,2.8c0.4,0.4,0.9,0.7,1.5,0.7c0.5,0,0.9-0.2,1.3-0.5l0.4-0.3
			c0.8-0.7,0.9-2,0.2-2.8C208.7,174.5,207.4,174.4,206.6,175.2z"/>
		<path class="st1" d="M233,153.7l-0.4,0.3c-0.9,0.7-1.1,1.9-0.4,2.8c0.4,0.5,1,0.8,1.6,0.8c0.4,0,0.8-0.1,1.2-0.4l0.4-0.3
			c0.9-0.7,1.1-1.9,0.4-2.8C235.2,153.3,233.9,153.1,233,153.7z"/>
		<path class="st1" d="M219.6,164.1l-0.4,0.3c-0.9,0.7-1,2-0.3,2.8c0.4,0.5,1,0.7,1.6,0.7c0.4,0,0.9-0.1,1.3-0.4l0.4-0.3
			c0.9-0.7,1-2,0.3-2.8C221.7,163.6,220.4,163.5,219.6,164.1z"/>
		<path class="st1" d="M226.3,158.9l-0.4,0.3c-0.9,0.7-1,1.9-0.4,2.8c0.4,0.5,1,0.8,1.6,0.8c0.4,0,0.9-0.1,1.2-0.4l0.4-0.3
			c0.9-0.7,1-1.9,0.4-2.8C228.4,158.4,227.1,158.2,226.3,158.9z"/>
		<path class="st1" d="M404.7,84.1l-0.5,0.1c-1.1,0.1-1.9,1.2-1.7,2.3c0.1,1,1,1.7,2,1.7c0.1,0,0.2,0,0.3,0l0.5-0.1
			c1.1-0.1,1.9-1.2,1.7-2.3C406.8,84.7,405.8,84,404.7,84.1z"/>
		<path class="st1" d="M387.8,86.8l-0.5,0.1c-1.1,0.2-1.8,1.2-1.6,2.3c0.2,1,1,1.6,2,1.6c0.1,0,0.2,0,0.4,0l0.5-0.1
			c1.1-0.2,1.8-1.2,1.6-2.3C390,87.3,388.9,86.6,387.8,86.8z"/>
		<path class="st1" d="M306.5,111.4l-0.5,0.2c-1,0.4-1.5,1.6-1,2.6c0.3,0.8,1.1,1.2,1.8,1.2c0.3,0,0.5-0.1,0.8-0.2l0.5-0.2
			c1-0.4,1.5-1.6,1-2.6C308.7,111.5,307.5,111,306.5,111.4z"/>
		<path class="st1" d="M396.3,85.4l-0.5,0.1c-1.1,0.2-1.8,1.2-1.7,2.3c0.2,1,1,1.7,2,1.7c0.1,0,0.2,0,0.3,0l0.5-0.1
			c1.1-0.2,1.8-1.2,1.7-2.3C398.4,85.9,397.3,85.2,396.3,85.4z"/>
		<path class="st1" d="M371.1,90.2l-0.4,0.1c-1.1,0.2-1.7,1.3-1.5,2.4c0.2,0.9,1,1.5,1.9,1.5c0.2,0,0.3,0,0.5-0.1l0.5-0.1
			c1.1-0.2,1.7-1.3,1.5-2.4C373.3,90.7,372.2,90,371.1,90.2z"/>
		<path class="st1" d="M379.5,88.4l-0.5,0.1c-1.1,0.2-1.8,1.3-1.6,2.4c0.2,0.9,1,1.6,2,1.6c0.1,0,0.3,0,0.4,0l0.5-0.1
			c1.1-0.2,1.8-1.3,1.6-2.4C381.6,88.9,380.6,88.2,379.5,88.4z"/>
		<path class="st1" d="M413.1,83.1l-0.5,0.1c-1.1,0.1-1.9,1.1-1.8,2.2c0.1,1,1,1.8,2,1.8c0.1,0,0.2,0,0.2,0l0.5-0.1
			c1.1-0.1,1.9-1.1,1.8-2.2C415.2,83.7,414.2,82.9,413.1,83.1z"/>
		<path class="st1" d="M430.1,81.5l-0.5,0c-1.1,0.1-1.9,1-1.9,2.1c0.1,1.1,1,1.9,2,1.9c0,0,0.1,0,0.1,0l0.5,0c1.1-0.1,1.9-1,1.9-2.1
			C432.1,82.3,431.2,81.5,430.1,81.5z"/>
		<path class="st1" d="M421.6,82.2l-0.5,0c-1.1,0.1-1.9,1.1-1.8,2.2c0.1,1,1,1.8,2,1.8c0.1,0,0.1,0,0.2,0l0.5,0
			c1.1-0.1,1.9-1.1,1.8-2.2C423.7,82.9,422.7,82.1,421.6,82.2z"/>
		<path class="st1" d="M188.1,192.7l-0.3,0.4c-0.8,0.8-0.8,2.1,0,2.8c0.4,0.4,0.9,0.6,1.4,0.6c0.5,0,1-0.2,1.4-0.6l0.3-0.4
			c0.8-0.8,0.8-2.1,0-2.8C190.1,191.9,188.9,192,188.1,192.7z"/>
		<path class="st1" d="M330.3,102.1l-0.5,0.2c-1,0.4-1.6,1.5-1.2,2.6c0.3,0.8,1.1,1.3,1.9,1.3c0.2,0,0.4,0,0.7-0.1l0.5-0.2
			c1-0.4,1.6-1.5,1.2-2.6C332.5,102.3,331.3,101.7,330.3,102.1z"/>
		<path class="st1" d="M322.3,105l-0.5,0.2c-1,0.4-1.6,1.5-1.2,2.6c0.3,0.8,1.1,1.3,1.9,1.3c0.2,0,0.5,0,0.7-0.1l0.5-0.2
			c1-0.4,1.6-1.5,1.2-2.6C324.5,105.2,323.3,104.6,322.3,105z"/>
		<path class="st1" d="M314.4,108.2l-0.5,0.2c-1,0.4-1.5,1.6-1.1,2.6c0.3,0.8,1.1,1.2,1.9,1.2c0.3,0,0.5,0,0.8-0.1l0.5-0.2
			c1-0.4,1.5-1.6,1.1-2.6C316.6,108.2,315.4,107.7,314.4,108.2z"/>
		<path class="st1" d="M338.3,99.4l-0.5,0.2c-1,0.3-1.6,1.5-1.3,2.5c0.3,0.8,1.1,1.4,1.9,1.4c0.2,0,0.4,0,0.6-0.1l0.5-0.2
			c1-0.3,1.6-1.5,1.3-2.5C340.5,99.6,339.4,99,338.3,99.4z"/>
		<path class="st1" d="M354.7,94.4l-0.5,0.1c-1.1,0.3-1.7,1.4-1.4,2.5c0.2,0.9,1.1,1.5,1.9,1.5c0.2,0,0.4,0,0.5-0.1l0.5-0.1
			c1.1-0.3,1.7-1.4,1.4-2.5C356.8,94.7,355.7,94.1,354.7,94.4z"/>
		<path class="st1" d="M362.9,92.2l-0.5,0.1c-1.1,0.3-1.7,1.4-1.4,2.4c0.2,0.9,1,1.5,1.9,1.5c0.2,0,0.3,0,0.5-0.1l0.5-0.1
			c1.1-0.3,1.7-1.4,1.4-2.4C365,92.6,364,92,362.9,92.2z"/>
		<path class="st1" d="M346.5,96.8l-0.5,0.1c-1.1,0.3-1.7,1.4-1.3,2.5c0.3,0.9,1.1,1.4,1.9,1.4c0.2,0,0.4,0,0.6-0.1l0.5-0.1
			c1.1-0.3,1.7-1.4,1.3-2.5C348.6,97.1,347.5,96.5,346.5,96.8z"/>
		<path class="st1" d="M283.5,122.4l-0.4,0.2c-1,0.5-1.4,1.7-0.9,2.7c0.4,0.7,1.1,1.1,1.8,1.1c0.3,0,0.6-0.1,0.9-0.2l0.4-0.2
			c1-0.5,1.4-1.7,0.9-2.7C285.7,122.2,284.5,121.9,283.5,122.4z"/>
		<path class="st1" d="M93,368.3c-1.1-0.3-2.2,0.4-2.4,1.5l-0.1,0.5c-0.2,1.1,0.4,2.1,1.5,2.4c0.2,0,0.3,0.1,0.4,0.1
			c0.9,0,1.7-0.6,1.9-1.6l0.1-0.5C94.7,369.7,94,368.6,93,368.3z"/>
		<path class="st1" d="M89.4,384.9c-1.1-0.2-2.1,0.5-2.3,1.6L87,387c-0.2,1.1,0.5,2.1,1.6,2.3c0.1,0,0.2,0,0.4,0
			c0.9,0,1.8-0.7,2-1.6l0.1-0.5C91.2,386.2,90.5,385.1,89.4,384.9z"/>
		<path class="st1" d="M97.3,351.9c-1.1-0.3-2.2,0.3-2.5,1.4l-0.1,0.5c-0.3,1.1,0.3,2.2,1.4,2.5c0.2,0.1,0.4,0.1,0.5,0.1
			c0.9,0,1.7-0.6,1.9-1.5l0.1-0.5C98.9,353.4,98.3,352.2,97.3,351.9z"/>
		<path class="st1" d="M182.2,198.9l-0.3,0.4c-0.8,0.8-0.7,2.1,0.1,2.8c0.4,0.4,0.9,0.5,1.4,0.5c0.5,0,1.1-0.2,1.5-0.6l0.3-0.4
			c0.8-0.8,0.7-2.1-0.1-2.8C184.2,198,182.9,198.1,182.2,198.9z"/>
		<path class="st1" d="M95,360.1c-1.1-0.3-2.2,0.4-2.4,1.4l-0.1,0.5c-0.3,1.1,0.4,2.2,1.4,2.4c0.2,0,0.3,0.1,0.5,0.1
			c0.9,0,1.7-0.6,1.9-1.5l0.1-0.5C96.7,361.5,96.1,360.4,95,360.1z"/>
		<path class="st1" d="M105.1,327.7c-1-0.4-2.2,0.2-2.6,1.2l-0.2,0.5c-0.4,1,0.2,2.2,1.2,2.6c0.2,0.1,0.4,0.1,0.7,0.1
			c0.8,0,1.6-0.5,1.9-1.3l0.2-0.5C106.7,329.2,106.2,328.1,105.1,327.7z"/>
		<path class="st1" d="M102.3,335.7c-1-0.3-2.2,0.2-2.5,1.3l-0.2,0.5c-0.3,1,0.2,2.2,1.3,2.5c0.2,0.1,0.4,0.1,0.6,0.1
			c0.8,0,1.6-0.5,1.9-1.4l0.2-0.5C103.9,337.2,103.4,336.1,102.3,335.7z"/>
		<path class="st1" d="M99.7,343.8c-1.1-0.3-2.2,0.3-2.5,1.3l-0.1,0.5c-0.3,1.1,0.3,2.2,1.3,2.5c0.2,0.1,0.4,0.1,0.6,0.1
			c0.9,0,1.6-0.6,1.9-1.4l0.1-0.5C101.3,345.3,100.7,344.2,99.7,343.8z"/>
		<path class="st1" d="M83.1,443.8c-1.1,0-2,0.9-2,2l0,0.5c0,1.1,0.9,2,2,2c0,0,0,0,0,0c1.1,0,2-0.9,2-2l0-0.5
			C85,444.8,84.2,443.8,83.1,443.8z"/>
		<path class="st1" d="M87.9,393.3c-1.1-0.2-2.1,0.6-2.3,1.7l-0.1,0.5c-0.2,1.1,0.6,2.1,1.7,2.3c0.1,0,0.2,0,0.3,0
			c1,0,1.8-0.7,2-1.7l0.1-0.5C89.8,394.5,89,393.4,87.9,393.3z"/>
		<path class="st1" d="M83.4,435.3c-1.1,0-2,0.8-2.1,1.9l0,0.5c0,1.1,0.8,2,1.9,2.1c0,0,0.1,0,0.1,0c1.1,0,1.9-0.8,2-1.9l0-0.5
			C85.4,436.3,84.5,435.4,83.4,435.3z"/>
		<path class="st1" d="M108.1,319.8c-1-0.4-2.2,0.1-2.6,1.1l-0.2,0.5c-0.4,1,0.1,2.2,1.2,2.6c0.2,0.1,0.5,0.1,0.7,0.1
			c0.8,0,1.6-0.5,1.9-1.3l0.2-0.5C109.7,321.3,109.1,320.2,108.1,319.8z"/>
		<path class="st1" d="M83.9,426.9c-1.1-0.1-2.1,0.8-2.1,1.9l0,0.5c-0.1,1.1,0.8,2.1,1.9,2.1c0,0,0.1,0,0.1,0c1,0,1.9-0.8,2-1.9
			l0-0.5C85.9,427.9,85,427,83.9,426.9z"/>
		<path class="st1" d="M86.6,401.6c-1.1-0.1-2.1,0.6-2.3,1.7l-0.1,0.5c-0.1,1.1,0.6,2.1,1.7,2.3c0.1,0,0.2,0,0.3,0
			c1,0,1.8-0.7,2-1.7l0.1-0.5C88.5,402.8,87.7,401.8,86.6,401.6z"/>
		<path class="st1" d="M85.5,410c-1.1-0.1-2.1,0.7-2.2,1.8l-0.1,0.5c-0.1,1.1,0.7,2.1,1.8,2.2c0.1,0,0.2,0,0.2,0c1,0,1.9-0.8,2-1.8
			l0.1-0.5C87.4,411.1,86.6,410.1,85.5,410z"/>
		<path class="st1" d="M84.6,418.4c-1.1-0.1-2.1,0.7-2.2,1.8l0,0.5c-0.1,1.1,0.7,2.1,1.8,2.2c0.1,0,0.1,0,0.2,0c1,0,1.9-0.8,2-1.8
			l0-0.5C86.5,419.5,85.7,418.5,84.6,418.4z"/>
		<path class="st1" d="M91.1,376.6c-1.1-0.2-2.1,0.5-2.4,1.6l-0.1,0.5c-0.2,1.1,0.5,2.1,1.6,2.4c0.1,0,0.3,0,0.4,0
			c0.9,0,1.8-0.6,2-1.6l0.1-0.5C92.9,377.9,92.2,376.8,91.1,376.6z"/>
		<path class="st1" d="M152.6,237.9c-0.9-0.6-2.1-0.4-2.8,0.5l-0.3,0.4c-0.6,0.9-0.4,2.1,0.5,2.8c0.4,0.2,0.8,0.4,1.2,0.4
			c0.6,0,1.2-0.3,1.6-0.8l0.3-0.4C153.7,239.8,153.5,238.6,152.6,237.9z"/>
		<path class="st1" d="M162.8,224.4c-0.9-0.7-2.1-0.5-2.8,0.3l-0.3,0.4c-0.7,0.9-0.5,2.1,0.3,2.8c0.4,0.3,0.8,0.4,1.2,0.4
			c0.6,0,1.2-0.3,1.6-0.8l0.3-0.4C163.8,226.3,163.7,225.1,162.8,224.4z"/>
		<path class="st1" d="M157.6,231.1c-0.9-0.7-2.1-0.5-2.8,0.4l-0.3,0.4c-0.7,0.9-0.5,2.1,0.4,2.8c0.4,0.3,0.8,0.4,1.2,0.4
			c0.6,0,1.2-0.3,1.6-0.8l0.3-0.4C158.7,233,158.5,231.8,157.6,231.1z"/>
		<path class="st1" d="M143,251.9c-0.9-0.6-2.2-0.3-2.8,0.6l-0.3,0.4c-0.6,0.9-0.3,2.2,0.6,2.8c0.3,0.2,0.7,0.3,1.1,0.3
			c0.7,0,1.3-0.3,1.7-0.9l0.3-0.4C144.2,253.8,143.9,252.5,143,251.9z"/>
		<path class="st1" d="M147.7,244.9c-0.9-0.6-2.2-0.4-2.8,0.5l-0.3,0.4c-0.6,0.9-0.4,2.2,0.5,2.8c0.3,0.2,0.7,0.3,1.1,0.3
			c0.6,0,1.3-0.3,1.7-0.9l0.3-0.4C148.9,246.7,148.6,245.5,147.7,244.9z"/>
		<path class="st1" d="M165.3,218.1l-0.3,0.4c-0.7,0.9-0.6,2.1,0.3,2.8c0.4,0.3,0.8,0.4,1.3,0.4c0.6,0,1.2-0.3,1.6-0.7l0.3-0.4
			c0.7-0.9,0.6-2.1-0.3-2.8C167.3,217.1,166,217.2,165.3,218.1z"/>
		<path class="st1" d="M176.4,205.2l-0.3,0.4c-0.7,0.8-0.7,2.1,0.2,2.8c0.4,0.3,0.9,0.5,1.3,0.5c0.5,0,1.1-0.2,1.5-0.7l0.3-0.4
			c0.7-0.8,0.7-2.1-0.2-2.8C178.4,204.3,177.2,204.3,176.4,205.2z"/>
		<path class="st1" d="M170.8,211.6l-0.3,0.4c-0.7,0.8-0.6,2.1,0.2,2.8c0.4,0.3,0.8,0.5,1.3,0.5c0.6,0,1.1-0.2,1.5-0.7l0.3-0.4
			c0.7-0.8,0.6-2.1-0.2-2.8C172.8,210.6,171.5,210.7,170.8,211.6z"/>
		<path class="st1" d="M134.1,266.3c-1-0.6-2.2-0.2-2.7,0.7l-0.3,0.4c-0.6,1-0.2,2.2,0.7,2.7c0.3,0.2,0.7,0.3,1,0.3
			c0.7,0,1.4-0.4,1.7-1l0.2-0.4C135.3,268.1,135,266.9,134.1,266.3z"/>
		<path class="st1" d="M121.9,288.7c-1-0.5-2.2-0.1-2.7,0.9l-0.2,0.4c-0.5,1-0.1,2.2,0.9,2.7c0.3,0.1,0.6,0.2,0.9,0.2
			c0.7,0,1.4-0.4,1.8-1.1l0.2-0.5C123.3,290.4,122.9,289.2,121.9,288.7z"/>
		<path class="st1" d="M118.2,296.4c-1-0.5-2.2,0-2.7,1l-0.2,0.5c-0.5,1,0,2.2,1,2.7c0.3,0.1,0.6,0.2,0.8,0.2c0.8,0,1.5-0.4,1.8-1.2
			l0.2-0.5C119.6,298,119.2,296.8,118.2,296.4z"/>
		<path class="st1" d="M114.7,304.1c-1-0.4-2.2,0-2.6,1l-0.2,0.5c-0.4,1,0,2.2,1,2.6c0.3,0.1,0.5,0.2,0.8,0.2c0.8,0,1.5-0.5,1.8-1.2
			l0.2-0.5C116.1,305.7,115.7,304.5,114.7,304.1z"/>
		<path class="st1" d="M138.5,259.1c-0.9-0.6-2.2-0.3-2.8,0.7l-0.3,0.4c-0.6,0.9-0.3,2.2,0.7,2.7c0.3,0.2,0.7,0.3,1,0.3
			c0.7,0,1.3-0.3,1.7-1l0.3-0.4C139.7,260.9,139.4,259.7,138.5,259.1z"/>
		<path class="st1" d="M111.3,311.9c-1-0.4-2.2,0.1-2.6,1.1l-0.2,0.5c-0.4,1,0.1,2.2,1.1,2.6c0.2,0.1,0.5,0.1,0.8,0.1
			c0.8,0,1.5-0.5,1.9-1.2l0.2-0.5C112.8,313.5,112.3,312.3,111.3,311.9z"/>
		<path class="st1" d="M125.8,281.2c-1-0.5-2.2-0.1-2.7,0.8l-0.2,0.4c-0.5,1-0.1,2.2,0.9,2.7c0.3,0.2,0.6,0.2,0.9,0.2
			c0.7,0,1.4-0.4,1.8-1.1l0.2-0.4C127.1,282.9,126.8,281.7,125.8,281.2z"/>
		<path class="st1" d="M129.8,273.7c-1-0.5-2.2-0.2-2.7,0.8l-0.2,0.4c-0.5,1-0.2,2.2,0.8,2.7c0.3,0.2,0.6,0.2,1,0.2
			c0.7,0,1.4-0.4,1.8-1l0.2-0.4C131.2,275.5,130.8,274.2,129.8,273.7z"/>
		<path class="st1" d="M531.8,88.4l-0.5-0.1c-1.1-0.2-2.1,0.5-2.4,1.6c-0.2,1.1,0.5,2.1,1.6,2.4l0.5,0.1c0.1,0,0.3,0,0.4,0
			c0.9,0,1.8-0.6,2-1.6C533.5,89.7,532.8,88.6,531.8,88.4z"/>
		<path class="st1" d="M780.1,267.4l-0.2-0.4c-0.6-1-1.8-1.3-2.7-0.7c-1,0.6-1.3,1.8-0.7,2.7l0.3,0.4c0.4,0.6,1,1,1.7,1
			c0.3,0,0.7-0.1,1-0.3C780.4,269.6,780.7,268.4,780.1,267.4z"/>
		<path class="st1" d="M784.3,274.8l-0.2-0.4c-0.5-1-1.8-1.3-2.7-0.8c-1,0.5-1.3,1.8-0.8,2.7l0.2,0.4c0.4,0.7,1,1,1.8,1
			c0.3,0,0.7-0.1,1-0.2C784.5,277,784.9,275.8,784.3,274.8z"/>
		<path class="st1" d="M788.3,282.3l-0.2-0.4c-0.5-1-1.7-1.4-2.7-0.8c-1,0.5-1.4,1.7-0.8,2.7l0.2,0.4c0.4,0.7,1.1,1.1,1.8,1.1
			c0.3,0,0.6-0.1,0.9-0.2C788.5,284.5,788.8,283.3,788.3,282.3z"/>
		<path class="st1" d="M723.2,192.8c-0.8-0.8-2-0.8-2.8,0c-0.8,0.8-0.8,2,0,2.8l0.4,0.4c0.4,0.4,0.9,0.6,1.4,0.6
			c0.5,0,1-0.2,1.4-0.6c0.8-0.8,0.8-2,0-2.8L723.2,192.8z"/>
		<path class="st1" d="M447.1,80.8C447.1,80.8,447.1,80.8,447.1,80.8l-0.5,0c-1.1,0-2,0.9-2,2c0,1.1,0.9,2,2,2c0,0,0,0,0,0l0.5,0
			c1.1,0,2-0.9,2-2C449.1,81.7,448.2,80.8,447.1,80.8z"/>
		<path class="st1" d="M802.6,313.1l-0.2-0.4c-0.4-1-1.6-1.5-2.6-1.1c-1,0.4-1.5,1.6-1.1,2.6l0.2,0.5c0.3,0.8,1.1,1.2,1.8,1.2
			c0.3,0,0.5,0,0.8-0.2C802.6,315.3,803,314.1,802.6,313.1z"/>
		<path class="st1" d="M795.8,297.6l-0.2-0.4c-0.5-1-1.7-1.4-2.7-1c-1,0.5-1.4,1.7-1,2.7l0.2,0.4c0.3,0.7,1.1,1.2,1.8,1.2
			c0.3,0,0.6-0.1,0.8-0.2C795.9,299.7,796.3,298.6,795.8,297.6z"/>
		<path class="st1" d="M792.2,289.9l-0.2-0.4c-0.5-1-1.7-1.4-2.7-0.9c-1,0.5-1.4,1.7-0.9,2.7l0.2,0.4c0.3,0.7,1.1,1.1,1.8,1.1
			c0.3,0,0.6-0.1,0.9-0.2C792.3,292.1,792.7,290.9,792.2,289.9z"/>
		<path class="st1" d="M799.3,305.3l-0.2-0.5c-0.4-1-1.6-1.5-2.6-1c-1,0.4-1.5,1.6-1,2.6l0.2,0.5c0.3,0.8,1.1,1.2,1.8,1.2
			c0.3,0,0.5-0.1,0.8-0.2C799.3,307.5,799.8,306.3,799.3,305.3z"/>
		<path class="st1" d="M740.5,211.6c-0.7-0.8-2-0.9-2.8-0.2c-0.8,0.7-0.9,2-0.2,2.8l0.3,0.4c0.4,0.5,1,0.7,1.5,0.7
			c0.5,0,0.9-0.2,1.3-0.5c0.8-0.7,0.9-2,0.2-2.8L740.5,211.6z"/>
		<path class="st1" d="M734.9,205.2c-0.7-0.8-2-0.9-2.8-0.1c-0.8,0.7-0.9,2-0.1,2.8l0.3,0.4c0.4,0.4,0.9,0.7,1.5,0.7
			c0.5,0,1-0.2,1.3-0.5c0.8-0.7,0.9-2,0.1-2.8L734.9,205.2z"/>
		<path class="st1" d="M746,218.1c-0.7-0.9-2-1-2.8-0.3c-0.9,0.7-1,2-0.3,2.8l0.3,0.4c0.4,0.5,1,0.7,1.6,0.7c0.4,0,0.9-0.1,1.3-0.4
			c0.9-0.7,1-2,0.3-2.8L746,218.1z"/>
		<path class="st1" d="M729.1,199c-0.8-0.8-2-0.8-2.8-0.1c-0.8,0.8-0.8,2-0.1,2.8l0.3,0.4c0.4,0.4,0.9,0.6,1.5,0.6
			c0.5,0,1-0.2,1.4-0.5c0.8-0.8,0.8-2,0.1-2.8L729.1,199z"/>
		<path class="st1" d="M761.5,238.4c-0.6-0.9-1.9-1.1-2.8-0.5c-0.9,0.6-1.1,1.9-0.5,2.8l0.3,0.4c0.4,0.5,1,0.8,1.6,0.8
			c0.4,0,0.8-0.1,1.2-0.4c0.9-0.6,1.1-1.9,0.5-2.8L761.5,238.4z"/>
		<path class="st1" d="M766.3,245.4c-0.6-0.9-1.9-1.2-2.8-0.5c-0.9,0.6-1.2,1.9-0.5,2.8l0.3,0.4c0.4,0.6,1,0.9,1.7,0.9
			c0.4,0,0.8-0.1,1.1-0.3c0.9-0.6,1.1-1.9,0.5-2.8L766.3,245.4z"/>
		<path class="st1" d="M756.4,231.5c-0.7-0.9-1.9-1.1-2.8-0.4c-0.9,0.7-1.1,1.9-0.4,2.8l0.3,0.4c0.4,0.5,1,0.8,1.6,0.8
			c0.4,0,0.8-0.1,1.2-0.4c0.9-0.7,1.1-1.9,0.4-2.8L756.4,231.5z"/>
		<path class="st1" d="M751.3,224.8c-0.7-0.9-1.9-1-2.8-0.3c-0.9,0.7-1,1.9-0.3,2.8l0.3,0.4c0.4,0.5,1,0.8,1.6,0.8
			c0.4,0,0.9-0.1,1.2-0.4c0.9-0.7,1-1.9,0.3-2.8L751.3,224.8z"/>
		<path class="st1" d="M771,252.5c-0.6-0.9-1.8-1.2-2.8-0.6c-0.9,0.6-1.2,1.8-0.6,2.8l0.3,0.4c0.4,0.6,1,0.9,1.7,0.9
			c0.4,0,0.7-0.1,1.1-0.3c0.9-0.6,1.2-1.8,0.6-2.8L771,252.5z"/>
		<path class="st1" d="M825.2,405.6c1.1-0.2,1.9-1.2,1.7-2.3l-0.1-0.5c-0.1-1.1-1.1-1.9-2.3-1.7c-1.1,0.1-1.9,1.2-1.7,2.3l0.1,0.5
			c0.1,1,1,1.7,2,1.7C825,405.6,825.1,405.6,825.2,405.6z"/>
		<path class="st1" d="M826.8,422.4c0.1,0,0.1,0,0.2,0c1.1-0.1,1.9-1.1,1.8-2.2l0-0.5c-0.1-1.1-1.1-1.9-2.2-1.8
			c-1.1,0.1-1.9,1.1-1.8,2.2l0,0.5C824.9,421.7,825.8,422.4,826.8,422.4z"/>
		<path class="st1" d="M826.2,414c1.1-0.1,1.9-1.1,1.8-2.2l-0.1-0.5c-0.1-1.1-1.1-1.9-2.2-1.8c-1.1,0.1-1.9,1.1-1.8,2.2l0.1,0.5
			c0.1,1,1,1.8,2,1.8C826,414,826.1,414,826.2,414z"/>
		<path class="st1" d="M824,397.2c1.1-0.2,1.8-1.2,1.6-2.3l-0.1-0.5c-0.2-1.1-1.2-1.8-2.3-1.7c-1.1,0.2-1.8,1.2-1.7,2.3l0.1,0.5
			c0.2,1,1,1.7,2,1.7C823.7,397.2,823.9,397.2,824,397.2z"/>
		<path class="st1" d="M828,439.4C828,439.4,828,439.4,828,439.4c1.2-0.1,2.1-1,2-2.1l0-0.5c-0.1-1.1-1-2-2.1-1.9
			c-1.1,0.1-2,1-1.9,2.1l0,0.5C826,438.5,826.9,439.4,828,439.4z"/>
		<path class="st1" d="M827.5,430.9c0,0,0.1,0,0.1,0c1.1-0.1,1.9-1,1.9-2.1l0-0.5c-0.1-1.1-1-1.9-2.1-1.9c-1.1,0.1-1.9,1-1.9,2.1
			l0,0.5C825.5,430.1,826.4,430.9,827.5,430.9z"/>
		<path class="st1" d="M828.2,443.3c-1.1,0-2,0.9-2,2l0,0.5c0,1.1,0.9,2,2,2c0,0,0,0,0,0c1.1,0,2-0.9,2-2l0-0.5
			C830.2,444.2,829.3,443.3,828.2,443.3z"/>
		<path class="st1" d="M822.6,388.9c1.1-0.2,1.8-1.2,1.6-2.3l-0.1-0.5c-0.2-1.1-1.2-1.8-2.3-1.6c-1.1,0.2-1.8,1.2-1.6,2.3l0.1,0.5
			c0.2,1,1,1.6,2,1.6C822.3,388.9,822.4,388.9,822.6,388.9z"/>
		<path class="st1" d="M811.5,337.1l-0.2-0.5c-0.3-1-1.5-1.6-2.5-1.3c-1,0.4-1.6,1.5-1.3,2.5l0.2,0.5c0.3,0.8,1.1,1.4,1.9,1.4
			c0.2,0,0.4,0,0.6-0.1C811.3,339.2,811.8,338.1,811.5,337.1z"/>
		<path class="st1" d="M814.1,345.2l-0.1-0.5c-0.3-1.1-1.5-1.6-2.5-1.3c-1.1,0.3-1.6,1.4-1.3,2.5l0.1,0.5c0.3,0.9,1.1,1.4,1.9,1.4
			c0.2,0,0.4,0,0.6-0.1C813.8,347.3,814.4,346.2,814.1,345.2z"/>
		<path class="st1" d="M805.8,321l-0.2-0.5c-0.4-1-1.5-1.5-2.6-1.2c-1,0.4-1.5,1.6-1.2,2.6l0.2,0.5c0.3,0.8,1.1,1.3,1.9,1.3
			c0.2,0,0.5,0,0.7-0.1C805.6,323.2,806.2,322,805.8,321z"/>
		<path class="st1" d="M808.7,329l-0.2-0.5c-0.4-1-1.5-1.6-2.6-1.2c-1,0.4-1.6,1.5-1.2,2.6l0.2,0.5c0.3,0.8,1.1,1.3,1.9,1.3
			c0.2,0,0.5,0,0.7-0.1C808.5,331.2,809.1,330,808.7,329z"/>
		<path class="st1" d="M819.2,372.2c1.1-0.2,1.8-1.3,1.5-2.4l-0.1-0.5c-0.3-1.1-1.3-1.7-2.4-1.5c-1.1,0.3-1.7,1.3-1.5,2.4l0.1,0.5
			c0.2,0.9,1,1.6,1.9,1.6C818.9,372.3,819,372.3,819.2,372.2z"/>
		<path class="st1" d="M821,380.5c1.1-0.2,1.8-1.3,1.5-2.4l-0.1-0.5c-0.2-1.1-1.3-1.8-2.4-1.5c-1.1,0.2-1.8,1.3-1.5,2.4l0.1,0.5
			c0.2,0.9,1,1.6,2,1.6C820.7,380.6,820.8,380.6,821,380.5z"/>
		<path class="st1" d="M816.5,353.3l-0.1-0.5c-0.3-1.1-1.4-1.7-2.5-1.4c-1.1,0.3-1.7,1.4-1.4,2.5l0.1,0.4c0.3,0.9,1.1,1.4,1.9,1.4
			c0.2,0,0.4,0,0.6-0.1C816.2,355.5,816.8,354.4,816.5,353.3z"/>
		<path class="st1" d="M817.3,364c1.1-0.3,1.7-1.4,1.4-2.4l-0.1-0.5c-0.3-1.1-1.4-1.7-2.4-1.4c-1.1,0.3-1.7,1.4-1.4,2.4l0.1,0.5
			c0.2,0.9,1,1.5,1.9,1.5C816.9,364.1,817.1,364,817.3,364z"/>
		<path class="st1" d="M775.5,259.7c-0.6-0.9-1.8-1.2-2.8-0.7c-0.9,0.6-1.2,1.8-0.7,2.8l0.3,0.4c0.4,0.6,1,1,1.7,1
			c0.4,0,0.7-0.1,1-0.3c0.9-0.6,1.2-1.8,0.7-2.7L775.5,259.7z"/>
		<path class="st1" d="M548.4,92.2l-0.5-0.1c-1.1-0.3-2.2,0.4-2.4,1.5c-0.3,1.1,0.4,2.2,1.5,2.4l0.5,0.1c0.2,0,0.3,0.1,0.5,0.1
			c0.9,0,1.7-0.6,1.9-1.5C550.1,93.6,549.4,92.5,548.4,92.2z"/>
		<path class="st1" d="M556.6,94.4l-0.5-0.1c-1.1-0.3-2.2,0.3-2.5,1.4c-0.3,1.1,0.3,2.2,1.4,2.5l0.5,0.1c0.2,0,0.4,0.1,0.5,0.1
			c0.9,0,1.7-0.6,1.9-1.5C558.3,95.8,557.7,94.7,556.6,94.4z"/>
		<path class="st1" d="M564.8,96.8l-0.5-0.1c-1.1-0.3-2.2,0.3-2.5,1.3c-0.3,1.1,0.3,2.2,1.3,2.5l0.5,0.1c0.2,0.1,0.4,0.1,0.6,0.1
			c0.9,0,1.7-0.6,1.9-1.4C566.4,98.2,565.8,97.1,564.8,96.8z"/>
		<path class="st1" d="M540.1,90.2l-0.5-0.1c-1.1-0.2-2.1,0.4-2.4,1.5c-0.2,1.1,0.4,2.1,1.5,2.4l0.5,0.1c0.2,0,0.3,0.1,0.4,0.1
			c0.9,0,1.7-0.6,1.9-1.6C541.8,91.5,541.2,90.5,540.1,90.2z"/>
		<path class="st1" d="M523.4,86.8l-0.5-0.1c-1.1-0.2-2.1,0.5-2.3,1.6c-0.2,1.1,0.5,2.1,1.6,2.3l0.5,0.1c0.1,0,0.2,0,0.4,0
			c0.9,0,1.8-0.7,2-1.6C525.2,88,524.5,87,523.4,86.8z"/>
		<path class="st1" d="M589,105.1l-0.5-0.2c-1-0.4-2.2,0.1-2.6,1.2c-0.4,1,0.1,2.2,1.2,2.6l0.5,0.2c0.2,0.1,0.5,0.1,0.7,0.1
			c0.8,0,1.6-0.5,1.9-1.3C590.6,106.6,590.1,105.5,589,105.1z"/>
		<path class="st1" d="M581,102.1l-0.5-0.2c-1-0.4-2.2,0.2-2.6,1.2c-0.4,1,0.2,2.2,1.2,2.6l0.5,0.2c0.2,0.1,0.4,0.1,0.7,0.1
			c0.8,0,1.6-0.5,1.9-1.3C582.6,103.6,582.1,102.5,581,102.1z"/>
		<path class="st1" d="M572.9,99.4l-0.5-0.2c-1.1-0.3-2.2,0.2-2.5,1.3c-0.3,1,0.2,2.2,1.3,2.5l0.5,0.2c0.2,0.1,0.4,0.1,0.6,0.1
			c0.8,0,1.6-0.5,1.9-1.4C574.5,100.8,574,99.7,572.9,99.4z"/>
		<path class="st1" d="M481.2,81.5l-0.5,0c-1.1-0.1-2.1,0.8-2.1,1.9c-0.1,1.1,0.8,2.1,1.9,2.1l0.5,0c0,0,0.1,0,0.1,0
			c1,0,1.9-0.8,2-1.9C483.1,82.6,482.3,81.6,481.2,81.5z"/>
		<path class="st1" d="M464.1,80.8l-0.5,0c-1.1,0-2,0.9-2,2c0,1.1,0.9,2,2,2l0.5,0c0,0,0,0,0,0c1.1,0,2-0.9,2-2
			C466.1,81.7,465.2,80.8,464.1,80.8z"/>
		<path class="st1" d="M597,108.2l-0.5-0.2c-1-0.4-2.2,0.1-2.6,1.1c-0.4,1,0.1,2.2,1.1,2.6l0.5,0.2c0.2,0.1,0.5,0.1,0.8,0.1
			c0.8,0,1.5-0.5,1.9-1.2C598.5,109.8,598,108.6,597,108.2z"/>
		<path class="st1" d="M515,85.4l-0.5-0.1c-1.1-0.2-2.1,0.6-2.3,1.7c-0.2,1.1,0.6,2.1,1.7,2.3l0.5,0.1c0.1,0,0.2,0,0.3,0
			c1,0,1.8-0.7,2-1.7C516.8,86.6,516.1,85.5,515,85.4z"/>
		<path class="st1" d="M455.6,80.7h-0.5c-1.1,0-2,0.9-2,2s0.9,2,2,2h0.5c1.1,0,2-0.9,2-2S456.7,80.7,455.6,80.7z"/>
		<path class="st1" d="M472.6,81.1l-0.5,0c-1.1,0-2,0.8-2.1,1.9c0,1.1,0.8,2,1.9,2.1l0.5,0c0,0,0.1,0,0.1,0c1.1,0,2-0.8,2-1.9
			C474.6,82,473.7,81.1,472.6,81.1z"/>
		<path class="st1" d="M506.6,84.1l-0.5-0.1c-1.1-0.2-2.1,0.6-2.2,1.7c-0.1,1.1,0.6,2.1,1.7,2.2l0.5,0.1c0.1,0,0.2,0,0.3,0
			c1,0,1.8-0.7,2-1.7C508.4,85.3,507.7,84.3,506.6,84.1z"/>
		<path class="st1" d="M498.1,83.1l-0.5-0.1c-1.1-0.1-2.1,0.7-2.2,1.8c-0.1,1.1,0.7,2.1,1.8,2.2l0.5,0.1c0.1,0,0.2,0,0.2,0
			c1,0,1.9-0.8,2-1.8C500,84.2,499.2,83.2,498.1,83.1z"/>
		<path class="st1" d="M489.6,82.2l-0.5,0c-1.1-0.1-2.1,0.7-2.2,1.8c-0.1,1.1,0.7,2.1,1.8,2.2l0.5,0c0.1,0,0.1,0,0.2,0
			c1,0,1.9-0.8,2-1.8C491.6,83.3,490.7,82.3,489.6,82.2z"/>
		<path class="st1" d="M671.7,149.1l-0.4-0.3c-0.9-0.6-2.2-0.4-2.8,0.5c-0.6,0.9-0.4,2.2,0.5,2.8l0.4,0.3c0.3,0.2,0.8,0.4,1.1,0.4
			c0.6,0,1.2-0.3,1.6-0.8C672.8,150.9,672.6,149.7,671.7,149.1z"/>
		<path class="st1" d="M678.6,154.1l-0.4-0.3c-0.9-0.7-2.1-0.5-2.8,0.4c-0.7,0.9-0.5,2.1,0.4,2.8l0.4,0.3c0.4,0.3,0.8,0.4,1.2,0.4
			c0.6,0,1.2-0.3,1.6-0.8C679.7,156,679.5,154.7,678.6,154.1z"/>
		<path class="st1" d="M685.4,159.2l-0.4-0.3c-0.9-0.7-2.1-0.5-2.8,0.4c-0.7,0.9-0.5,2.1,0.4,2.8l0.4,0.3c0.4,0.3,0.8,0.4,1.2,0.4
			c0.6,0,1.2-0.3,1.6-0.8C686.5,161.1,686.3,159.9,685.4,159.2z"/>
		<path class="st1" d="M692.1,164.5l-0.4-0.3c-0.9-0.7-2.1-0.6-2.8,0.3c-0.7,0.9-0.6,2.1,0.3,2.8l0.4,0.3c0.4,0.3,0.8,0.4,1.3,0.4
			c0.6,0,1.2-0.3,1.6-0.7C693.1,166.4,693,165.2,692.1,164.5z"/>
		<path class="st1" d="M664.7,144.2l-0.4-0.3c-0.9-0.6-2.2-0.4-2.8,0.5c-0.6,0.9-0.4,2.2,0.5,2.8l0.4,0.3c0.3,0.2,0.7,0.3,1.1,0.3
			c0.6,0,1.3-0.3,1.7-0.9C665.9,146.1,665.6,144.8,664.7,144.2z"/>
		<path class="st1" d="M717.2,186.8c-0.8-0.8-2.1-0.8-2.8,0c-0.8,0.8-0.8,2.1,0,2.8l0.4,0.3c0.4,0.4,0.9,0.6,1.4,0.6
			c0.5,0,1-0.2,1.4-0.6c0.8-0.8,0.8-2.1,0-2.8L717.2,186.8z"/>
		<path class="st1" d="M711,180.9c-0.8-0.8-2.1-0.7-2.8,0.1c-0.8,0.8-0.7,2.1,0.1,2.8l0.4,0.3c0.4,0.4,0.9,0.5,1.4,0.5
			c0.5,0,1.1-0.2,1.5-0.6c0.8-0.8,0.7-2.1-0.1-2.8L711,180.9z"/>
		<path class="st1" d="M698.3,169.6c-0.8-0.7-2.1-0.6-2.8,0.2c-0.7,0.8-0.6,2.1,0.2,2.8l0.4,0.3c0.4,0.3,0.8,0.5,1.3,0.5
			c0.6,0,1.1-0.2,1.5-0.7c0.7-0.8,0.6-2.1-0.2-2.8L698.3,169.6z"/>
		<path class="st1" d="M704.7,175.2c-0.8-0.7-2.1-0.7-2.8,0.2c-0.7,0.8-0.7,2.1,0.2,2.8l0.4,0.3c0.4,0.3,0.9,0.5,1.3,0.5
			c0.6,0,1.1-0.2,1.5-0.7c0.7-0.8,0.7-2.1-0.2-2.8L704.7,175.2z"/>
		<path class="st1" d="M604.9,111.5l-0.5-0.2c-1-0.4-2.2,0-2.6,1c-0.4,1,0,2.2,1,2.6l0.5,0.2c0.3,0.1,0.5,0.2,0.8,0.2
			c0.8,0,1.5-0.4,1.8-1.2C606.3,113.1,605.9,112,604.9,111.5z"/>
		<path class="st1" d="M620.4,118.7l-0.4-0.2c-1-0.5-2.2-0.1-2.7,0.9c-0.5,1-0.1,2.2,0.9,2.7l0.5,0.2c0.3,0.1,0.6,0.2,0.9,0.2
			c0.7,0,1.5-0.4,1.8-1.1C621.8,120.3,621.4,119.1,620.4,118.7z"/>
		<path class="st1" d="M612.7,115l-0.5-0.2c-1-0.5-2.2,0-2.7,1c-0.5,1,0,2.2,1,2.7l0.4,0.2c0.3,0.1,0.6,0.2,0.8,0.2
			c0.8,0,1.5-0.4,1.8-1.2C614.1,116.6,613.7,115.5,612.7,115z"/>
		<path class="st1" d="M628,122.5l-0.5-0.2c-1-0.5-2.2-0.1-2.7,0.9c-0.5,1-0.1,2.2,0.9,2.7l0.4,0.2c0.3,0.2,0.6,0.2,0.9,0.2
			c0.7,0,1.4-0.4,1.8-1.1C629.4,124.2,629,123,628,122.5z"/>
		<path class="st1" d="M643,130.7l-0.4-0.3c-1-0.6-2.2-0.2-2.7,0.7c-0.5,1-0.2,2.2,0.7,2.7l0.4,0.2c0.3,0.2,0.7,0.3,1,0.3
			c0.7,0,1.4-0.4,1.7-1C644.3,132.5,643.9,131.2,643,130.7z"/>
		<path class="st1" d="M650.3,135l-0.4-0.3c-0.9-0.6-2.2-0.3-2.7,0.7c-0.6,0.9-0.3,2.2,0.7,2.7l0.4,0.3c0.3,0.2,0.7,0.3,1,0.3
			c0.7,0,1.3-0.3,1.7-1C651.6,136.8,651.3,135.6,650.3,135z"/>
		<path class="st1" d="M635.6,126.5l-0.5-0.2c-1-0.5-2.2-0.2-2.7,0.8c-0.5,1-0.2,2.2,0.8,2.7l0.4,0.2c0.3,0.2,0.6,0.3,1,0.3
			c0.7,0,1.4-0.4,1.8-1C636.9,128.3,636.5,127,635.6,126.5z"/>
		<path class="st1" d="M657.6,139.6l-0.4-0.3c-0.9-0.6-2.2-0.3-2.8,0.6c-0.6,0.9-0.3,2.2,0.6,2.8l0.4,0.3c0.3,0.2,0.7,0.3,1.1,0.3
			c0.7,0,1.3-0.3,1.7-0.9C658.8,141.4,658.5,140.2,657.6,139.6z"/>
	</g>
	<g>
		<path class="st1" d="M828.3,452.3c-1.1,0-2,0.9-2,2v0.1c0,1.1,0.9,2,2,2c1.1,0,2-0.9,2-2v-0.1
			C830.3,453.2,829.4,452.3,828.3,452.3z"/>
	</g>
</g>
<g id="truck-group">
	<rect x="564.4" y="389.1" class="st2" width="130" height="28"/>
	<path class="st3" d="M775.5,378.4c-0.3-1.5-0.9-3-1.8-4.2l-8-10.5l-2.8-16.6c-0.6-3.4-2.8-6.2-6-7.4c-10-4-26-12.1-66.3-15.2
		l-26.2-53.7c-1-2.1-3.2-3.6-5.6-3.6h-68.5c-3.4,0-6.2,3-6.3,6.5l-0.2,115.5h87.8l14.5-21h38.2c0,0,40.9,2,40.9,44h7.8l3.5-3.5
		c2.2-2.2,3.3-5.4,2.7-8.5L775.5,378.4z"/>
	<path class="st4" d="M777.8,391.1h-16.9c2.6,6,4.3,13,4.3,21h7.8l3.5-3.5c2.2-2.2,3.3-5.6,2.7-8.7L777.8,391.1z"/>
	<path class="st3" d="M671.4,388.8v36.2h5.4c0,0-4.7-46.5,31.3-57l-21.9-12.9L671.4,388.8z"/>
	<path class="st5" d="M721,365.8c-24.8,0-44.4,19.7-44.4,44.4c0,2.3,0.1,3.9,0.1,6.9h72.5c0,0,0,0.1,0.1,0.1
		c5.5-2.9,11.2-5.4,16.6-8.3C765.1,384.9,745.3,365.8,721,365.8z"/>
	<g>
		<ellipse class="st2" cx="724.3" cy="414.8" rx="32.8" ry="32.7"/>
		<ellipse class="st6" cx="724.3" cy="414.8" rx="20.9" ry="20.9"/>
		<ellipse class="st7" cx="724.3" cy="414.8" rx="18.1" ry="18"/>
		<ellipse class="st8" cx="724.3" cy="414.8" rx="11.1" ry="11"/>
	</g>
	<rect x="319.4" y="408.1" class="st2" width="127" height="7"/>
	<path class="st9" d="M659.9,277.1c-0.8,0-1.2,0.7-0.9,1.4l23,45.3c0.2,0.3,0.5,0.3,0.9,0.3h7.6l-23.2-47H659.9z"/>
	<g>
		<path class="st2" d="M683.4,322.1l-22.3-44l7-0.1l-1-1.9h-6.6c-0.7,0-1.3,0.5-1.7,1.1c-0.4,0.6-0.4,1.4-0.1,2l22.6,44.6
			c0.3,0.7,1,1.1,1.8,1.1l7.6-0.5l-1.1-2.3H683.4z"/>
	</g>
	<path class="st9" d="M649.4,277.1h-53v47h71.8c2.4,0,3.9-2.3,2.9-4.4L649.4,277.1z"/>
	<path class="st2" d="M649.4,277.1h-53v47h71.8c2.4,0,3.9-2.3,2.9-4.4L649.4,277.1z M656.3,322.1h-57.9v-43h49.9l14.4,32.3
		C660.1,315.6,659,317.1,656.3,322.1z"/>
	<rect x="583.4" y="389.1" class="st7" width="88" height="33"/>
	<rect x="583.4" y="412.1" class="st10" width="88" height="10"/>
	<rect x="228.4" y="389.1" class="st2" width="339" height="13"/>
	<g>
		<ellipse class="st2" cx="300.3" cy="414.8" rx="32.8" ry="32.7"/>
		<ellipse class="st6" cx="300.3" cy="414.8" rx="20.9" ry="20.9"/>
		<ellipse class="st7" cx="300.3" cy="414.8" rx="18.1" ry="18"/>
		<ellipse class="st8" cx="300.3" cy="414.8" rx="11.1" ry="11"/>
	</g>
	<g>
		<g>
			<g>
				<path class="st11" d="M497.4,301.6c-27.8-7.2-57.3-13.9-57.3-13.9l-38.1-16.4c-20-7.1-30.7-9.8-48.6-10.2
					c-26.7-0.7-41.8-1.4-90.1,18.6c-24.9,10.3-43.3,13-43.3,13c-5.4,1.1-9.4,5.5-9.9,10.9c-0.6,7.1-0.6,17.4,2.4,27.1
					c5.8,18.7,19.6,26.7,19.6,26.7l12-1.9l38.1-0.2l11.6,1.8l168.1-0.7l11.6-1.6l40.7-0.2l10.7,1.5l5,0l13.2-7.2
					c0,0,6.6-23.9-0.1-30.9C536.9,311.5,517.5,306.8,497.4,301.6z"/>
			</g>
			<g class="st12">
				<path class="st13" d="M232.2,357.4l12-1.9l38.1-0.2l11.6,1.8l168.1-0.7l11.6-1.6l40.7-0.2l10.7,1.5l5,0l13.2-7.2
					c0,0,0.2-0.8,0.5-2.1L222,348.1C227.3,354.5,232.2,357.4,232.2,357.4z"/>
			</g>
			<path class="st14" d="M522.1,336.7c-0.1-16.2-12.1-27.2-28.3-27.1c-16.3,0.1-28.2,11.1-28.1,27.3l0.1,15.4l-3.8,4.1l11.6-1.6
				l40.7-0.2l10.7,1.5l-2.8-3.9L522.1,336.7z"/>
			<path class="st14" d="M292.5,337.7c-0.1-16.2-12.7-28.1-29-28c-16.3,0.1-28.8,12.1-28.7,28.3l0.1,16.2l-2.7,3.2l11.5-1.9
				l40.1-0.2l8.8,1.8l3.2,0l-3.2-3.2L292.5,337.7z"/>
			<path class="st15" d="M528.1,312.4c0,0-16.7-0.3-7.6,5.1c0,0,22,5.7,20.9,1C541.3,318.5,534.1,312.9,528.1,312.4z"/>
			<path class="st16" d="M259.1,286.6l-11.9,3.3l231.5,14.8c-10.4-5.6-50.6-8.2-50.6-8.2L259.1,286.6z"/>
			<g>
				<path class="st2" d="M493.8,311.8c-14.6,0.1-26.3,11.9-26.3,26.4c0.1,14.5,11.9,26.2,26.5,26.2c14.5-0.1,26.3-11.9,26.2-26.4
					C520.2,323.5,508.3,311.8,493.8,311.8z"/>
				<path class="st6" d="M494,317.5c-11.3,0-20.4,9.2-20.4,20.5c0.1,11.3,9.3,20.4,20.6,20.3c11.3,0,20.4-9.2,20.4-20.5
					C514.5,326.6,505.3,317.5,494,317.5z"/>
				<g>
					<g>
						<path class="st15" d="M490.5,318.4l2.4,13.7c0.4-0.1,0.8-0.1,1.2-0.1c0.3,0,0.6,0,0.8,0.1l2.2-13.7c-1.1-0.2-2.2-0.3-3.3-0.3
							C492.6,318.1,491.5,318.2,490.5,318.4z"/>
						<path class="st15" d="M494,344.4c-0.4,0-0.8,0-1.2-0.1l-2.2,13.5c1.1,0.2,2.2,0.3,3.3,0.3c1.1,0,2.2-0.1,3.3-0.3l-2.3-13.4
							C494.6,344.4,494.3,344.4,494,344.4z"/>
						<path class="st15" d="M500.1,337c0.1,0.4,0.1,0.8,0.1,1.2c0,0.3,0,0.6-0.1,0.9l13.5,2.2c0.2-1.1,0.3-2.2,0.3-3.3
							c0-1.1-0.1-2.2-0.3-3.3L500.1,337z"/>
						<path class="st15" d="M474.1,334.9c-0.2,1.1-0.3,2.2-0.3,3.3c0,1.1,0.1,2.2,0.3,3.3l13.7-2.3c0-0.3-0.1-0.6-0.1-0.8
							c0-0.4,0-0.8,0.1-1.1L474.1,334.9z"/>
						<path class="st15" d="M497.6,343.3l7.9,11c1.8-1.3,3.4-2.9,4.6-4.7l-11.1-7.8C498.7,342.4,498.2,342.9,497.6,343.3z"/>
						<path class="st15" d="M477.5,326.5l11.5,8.1c0.4-0.5,0.9-1,1.4-1.4l-8.2-11.4C480.3,323.2,478.8,324.7,477.5,326.5z"/>
						<path class="st15" d="M505.4,321.8l-8,11.3c0.6,0.4,1.1,0.9,1.5,1.4l11.2-8C508.8,324.6,507.2,323.1,505.4,321.8z"/>
						<path class="st15" d="M488.8,341.7l-11.2,8.1c1.3,1.8,2.9,3.3,4.7,4.6l8-11.2C489.7,342.7,489.2,342.3,488.8,341.7z"/>
					</g>
					<g>
						<path class="st15" d="M494.1,317.3c-11.4,0.1-20.6,9.3-20.5,20.6c0.1,11.4,9.3,20.5,20.7,20.5c11.4-0.1,20.6-9.3,20.5-20.7
							C514.7,326.4,505.4,317.2,494.1,317.3z M494.3,356.6c-10.4,0-18.8-8.3-18.9-18.7c0-10.3,8.4-18.8,18.7-18.8
							c10.3,0,18.8,8.3,18.9,18.7C513,348.1,504.6,356.5,494.3,356.6z"/>
					</g>
				</g>
			</g>
			<g>
				<path class="st2" d="M263.6,312.9c-14.6,0.1-26.3,11.9-26.3,26.4c0.1,14.5,11.9,26.2,26.5,26.2c14.6-0.1,26.3-11.9,26.2-26.4
					C290,324.5,278.2,312.8,263.6,312.9z"/>
				<path class="st6" d="M263.6,319.1c-11.1,0-20,9-20,20.1c0,11.1,9.1,20,20.2,19.9c11.1,0,20-9,20-20.1
					C283.8,328,274.7,319.1,263.6,319.1z"/>
				<g>
					<g>
						<path class="st15" d="M260.3,319.4l2.4,13.7c0.4-0.1,0.7-0.1,1.1-0.1c0.3,0,0.6,0,0.8,0.1l2.2-13.7c-1.1-0.2-2.2-0.3-3.3-0.3
							C262.5,319.1,261.4,319.2,260.3,319.4z"/>
						<path class="st15" d="M263.9,345.5c-0.4,0-0.8,0-1.2-0.1l-2.2,13.5c1.1,0.2,2.2,0.3,3.3,0.3c1.1,0,2.2-0.1,3.3-0.3l-2.3-13.4
							C264.5,345.4,264.2,345.5,263.9,345.5z"/>
						<path class="st15" d="M269.9,338c0.1,0.4,0.1,0.8,0.1,1.2c0,0.3,0,0.6-0.1,0.9l13.5,2.2c0.2-1.1,0.3-2.2,0.3-3.3
							c0-1.1-0.1-2.2-0.3-3.3L269.9,338z"/>
						<path class="st15" d="M243.9,335.9c-0.2,1.1-0.3,2.2-0.3,3.3c0,1.1,0.1,2.2,0.3,3.3l13.7-2.3c0-0.3-0.1-0.6-0.1-0.8
							c0-0.4,0-0.8,0.1-1.1L243.9,335.9z"/>
						<path class="st15" d="M267.4,344.3l8,11c1.8-1.3,3.4-2.9,4.6-4.7l-11.1-7.8C268.5,343.4,268,343.9,267.4,344.3z"/>
						<path class="st15" d="M247.3,327.6l11.5,8.1c0.4-0.5,0.9-1,1.4-1.4l-8.2-11.4C250.2,324.2,248.6,325.8,247.3,327.6z"/>
						<path class="st15" d="M275.2,322.8l-8,11.3c0.6,0.4,1.1,0.9,1.5,1.4l11.2-8C278.6,325.6,277.1,324.1,275.2,322.8z"/>
						<path class="st15" d="M258.7,342.7l-11.2,8.1c1.3,1.8,2.9,3.3,4.7,4.6l8-11.2C259.5,343.8,259,343.3,258.7,342.7z"/>
					</g>
					<g>
						<path class="st15" d="M263.9,318.3c-11.4,0.1-20.6,9.3-20.5,20.6c0.1,11.4,9.3,20.5,20.7,20.5c11.4-0.1,20.6-9.3,20.5-20.7
							C284.6,327.4,275.3,318.3,263.9,318.3z M264.1,357.6c-10.4,0-18.8-8.3-18.9-18.7c0-10.3,8.3-18.8,18.7-18.8
							c10.3,0,18.8,8.3,18.9,18.7C282.9,349.1,274.5,357.6,264.1,357.6z"/>
					</g>
				</g>
			</g>
			<g>
				<path class="st2" d="M530.4,337.4c0,0-4.8-0.5-5.4,3.7c-0.3,2.2,0.8,6,5.2,6.2c10.3,0.4,13.4,0.7,13.4,0.7s4.8-2.5,1.6-10.3
					L530.4,337.4z"/>
			</g>
			<g>
				<path class="st14" d="M350.8,297.9l-12.7,0.1c-1.8,0-3.3,1.5-3.3,3.3c0,1.8,1.5,3.3,3.3,3.3l12.7-0.1c1.8,0,3.3-1.5,3.3-3.3
					C354.1,299.4,352.6,297.9,350.8,297.9z M350.8,303l-12.7,0.1c-1,0-1.8-0.8-1.8-1.7c0-1,0.8-1.8,1.7-1.8l12.7-0.1
					c1,0,1.8,0.8,1.8,1.7C352.6,302.2,351.8,303,350.8,303z"/>
			</g>
			<path class="st14" d="M429.5,290.6l-2.1,3.3c1.6,0.7,8.4,0.5,7.4,7.5c-1.3,8.9-5.3,37.7-5.3,38l0,0.1c0,0.4-0.5,8.7-9.1,8.7
				c-1.7,0-4.7,0-8.3,0.1c-15.5,0.1-47.8,0.4-50.7-0.1c-0.7-0.1-1.6-0.2-2.6-0.2c-4.7-0.2-11.7-0.5-16-8.8
				c-3.8-7.3-14.6-36.6-20.7-53c-0.8-0.4-1.6-0.9-2.2-1.6c5.9,15.9,17.6,47.7,21.5,55.4c4.6,9.1,12.5,9.4,17.3,9.6
				c1,0,1.8,0.1,2.4,0.2c1.9,0.3,15.1,0.4,28.8,0.3c7.9,0,16-0.1,22.1-0.1c3.7,0,6.6-0.1,8.3-0.1c9.7,0,10.6-9.4,10.6-10.2
				c0.2-1.1,4-29.2,5.3-38C437.7,292.1,429.6,290.6,429.5,290.6z"/>
			<path class="st14" d="M210.3,315.1c0,0,8.9,0.9,14.4-11.7l-14.5,0.1C210.3,303.5,208.7,310.1,210.3,315.1z"/>
			<path class="st16" d="M436.4,290.5c10.5-1.1,86.8,22,86.8,22l6.2-0.2c-18.7-7.2-85.2-23-85.2-23L436.4,290.5z"/>
			<path class="st2" d="M393.3,268.5l-1.4,0.5c0,0,26.7,11.4,41.3,20.4l6.9-1.7c0,0-33.9-15.6-44.3-18.5L393.3,268.5z"/>
			<path class="st2" d="M323.9,265.8c-24.2,4.8-37.6,10.1-37.6,10.1l12.9,6.6c2.4,1.4,11.4,2.5,14.2,2.7l115.8,5.4l-43.6-20.4
				C385.7,270.2,348.2,261,323.9,265.8z"/>
			<path class="st17" d="M323.9,265.8c-24.2,4.8-37.6,10.1-37.6,10.1l8.2,4.2c1-0.6,2.2-1,3.6-1l105.5-0.5l-18-8.4
				C385.7,270.2,348.2,261,323.9,265.8z"/>
			<path class="st18" d="M384.9,270c-5.4-1.2-38.8-8.6-61-4.2c-24.2,4.8-37.6,10.1-37.6,10.1l12.9,6.6c0.7,0.4,1.9,0.8,3.3,1.1
				c3.7,0.8,8.9,1.5,10.8,1.6l115.8,5.4l-43.6-20.4C385.7,270.2,385.4,270.1,384.9,270z M313.6,283c-1.8-0.1-6.9-0.7-10.5-1.5
				c-1.9-0.4-2.6-0.8-2.7-0.9l-0.1,0l-0.1,0l-8.4-4.3c5.8-1.9,16.9-5.3,32.5-8.3c9.1-1.8,21.3-1.8,36.1,0c11.7,1.4,21.3,3.5,24,4.2
				c0.2,0.1,0.4,0.1,0.5,0.1l33.5,15.7L313.6,283z"/>
			<g>
				<path class="st14" d="M409.4,288c0,0-4.7,9.6,4.5,10.1l6.7-0.1c0.9,0,1.8-0.2,2.7-0.5c2.1-0.9,5.9-2.7,5.8-4.3l0.2-2.6
					C429.3,290.6,410.6,283.9,409.4,288z"/>
				<path class="st11" d="M409.4,288c0,0-2.4,4.8-0.4,7.8c0.5-0.1,1-0.1,1.5-0.1c6.3,0.8,13,0.2,18.6-2.8l0.2-2.4
					C429.3,290.6,410.6,283.9,409.4,288z"/>
				<path class="st16" d="M410.5,288.8c0,0-1.2,2.4-1.1,4.7c0.5-0.7,1.1-1.3,1.8-1.8c3.1-2.2,7.1-2.2,10.7-1.8c1.1,0,2.3,0,3.4,0.1
					C420.2,288.4,411.2,286.1,410.5,288.8z"/>
			</g>
			<g>
				<polygon class="st18" points="312.6,268.4 318.9,284.9 320.9,284.1 314.6,267.6 				"/>
			</g>
		</g>
		<g>
			<polygon class="st15" points="203.4,358.1 203,358.1 186.9,367.4 188.5,370.4 203.8,361.7 532.6,361 547,368.1 548.4,365.1 
				533.4,357.6 			"/>
		</g>
		<g>
			<g>
				
					<rect x="228.1" y="362" transform="matrix(5.431802e-02 -0.9985 0.9985 5.431802e-02 -143.9724 575.2672)" class="st15" width="7.2" height="3.3"/>
			</g>
			<g>
				
					<rect x="275" y="361.9" transform="matrix(5.431802e-02 -0.9985 0.9985 5.431802e-02 -99.5937 621.9835)" class="st15" width="7.2" height="3.3"/>
			</g>
			<g>
				
					<rect x="321.8" y="361.9" transform="matrix(5.434865e-02 -0.9985 0.9985 5.434865e-02 -55.2244 668.6882)" class="st15" width="7.2" height="3.3"/>
			</g>
			<g>
				
					<rect x="368.7" y="361.8" transform="matrix(5.431802e-02 -0.9985 0.9985 5.431802e-02 -10.8355 715.4161)" class="st15" width="7.2" height="3.3"/>
			</g>
			<g>
				
					<rect x="415.5" y="361.7" transform="matrix(5.431802e-02 -0.9985 0.9985 5.431802e-02 33.5436 762.1329)" class="st15" width="7.2" height="3.3"/>
			</g>
			<g>
				
					<rect x="462.4" y="361.7" transform="matrix(5.431802e-02 -0.9985 0.9985 5.431802e-02 77.9221 808.8489)" class="st15" width="7.2" height="3.3"/>
			</g>
			<g>
				
					<rect x="509.3" y="361.6" transform="matrix(5.431968e-02 -0.9985 0.9985 5.431968e-02 122.3002 855.5649)" class="st15" width="7.2" height="3.3"/>
			</g>
		</g>
		<g>
			<polygon class="st2" points="228.6,389.6 529.1,389.1 560,383.6 218.6,384.2 			"/>
			<path class="st11" d="M176.6,375.6c-0.9,0-1,1.3-0.1,1.5l39,7.1l344.6-0.6l0-8.6L176.6,375.6z"/>
			
				<rect x="175.8" y="365.1" transform="matrix(1 -1.796960e-03 1.796960e-03 1 -0.6647 0.6617)" class="st2" width="384.2" height="10.1"/>
			<g>
				<polygon class="st19" points="175.8,373.5 175.8,374.8 176.6,375.6 189.8,375.6 200.8,365.4 184.6,365.5 				"/>
				<polygon class="st19" points="204.8,375.6 221,375.5 232,365.4 215.8,365.4 				"/>
				<polygon class="st19" points="236,375.5 252.2,375.5 263.1,365.3 247,365.4 				"/>
				<polygon class="st19" points="267.2,375.5 283.4,375.4 294.3,365.3 278.2,365.3 				"/>
				<polygon class="st19" points="298.4,375.4 314.6,375.4 325.5,365.2 309.4,365.2 				"/>
				<polygon class="st19" points="329.6,375.3 345.8,375.3 356.7,365.2 340.6,365.2 				"/>
				<polygon class="st19" points="360.8,375.3 377,375.3 387.9,365.1 371.8,365.1 				"/>
				<polygon class="st19" points="392,375.2 408.2,375.2 419.1,365.1 403,365.1 				"/>
				<polygon class="st19" points="423.2,375.2 439.4,375.1 450.3,365 434.2,365 				"/>
				<polygon class="st19" points="454.4,375.1 470.6,375.1 481.5,364.9 465.4,365 				"/>
				<polygon class="st19" points="485.6,375.1 501.8,375 512.7,364.9 496.6,364.9 				"/>
				<polygon class="st19" points="516.8,375 533,375 543.9,364.8 527.8,364.9 				"/>
				<polygon class="st19" points="559,364.8 548,374.9 560,374.9 560,364.8 				"/>
			</g>
		</g>
	</g>
	<rect x="406.4" y="389.1" class="st2" width="161" height="33"/>
	<g>
		<rect x="221.4" y="388.1" class="st3" width="26" height="18"/>
		<path class="st20" d="M219.4,407.1h29v-20h-29V407.1z M222.4,389.1h24v16h-24V389.1z"/>
	</g>
	<g>
		<rect x="226.4" y="391.1" class="st20" width="2" height="12"/>
		<rect x="231.4" y="391.1" class="st20" width="1" height="12"/>
		<rect x="235.4" y="391.1" class="st20" width="2" height="12"/>
		<rect x="240.4" y="391.1" class="st20" width="2" height="12"/>
	</g>
	<path class="st11" d="M227.1,393.5c-0.9,0-1.6,0.7-1.6,1.6c0,0.9,0.7,1.6,1.6,1.6c0.9,0,1.6-0.7,1.6-1.6
		C228.7,394.2,228,393.5,227.1,393.5z"/>
	<path class="st11" d="M232,397.8c-0.9,0-1.6,0.7-1.6,1.6c0,0.9,0.7,1.6,1.6,1.6c0.9,0,1.6-0.7,1.6-1.6
		C233.6,398.6,232.9,397.8,232,397.8z"/>
	<path class="st11" d="M236.8,396.2c-0.9,0-1.6,0.7-1.6,1.6c0,0.9,0.7,1.6,1.6,1.6c0.9,0,1.6-0.7,1.6-1.6
		C238.4,396.9,237.7,396.2,236.8,396.2z"/>
	<path class="st11" d="M241.6,392.5c-0.9,0-1.6,0.7-1.6,1.6c0,0.9,0.7,1.6,1.6,1.6c0.9,0,1.6-0.7,1.6-1.6
		C243.3,393.2,242.5,392.5,241.6,392.5z"/>
	<g>
		<path class="st4" d="M653.4,272.1h-62.9v114h81.8l-0.1-1c0-0.1-0.7-13.4,12.5-20.8l0.6-0.4l-2.5-36.4L653.4,272.1z M670,384.1
			h-76.5v-109h58.6l28.5,53.5l2.4,34.2C671.5,369.5,670.1,381.1,670,384.1z"/>
	</g>
	<g>
		<path class="st2" d="M673.7,278.1h-7.1c-1.1,0-2.2,0.7-2.2,1.7v21.7c0,1.1,1.1,1.6,2.2,1.6h7.1c1.1,0,1.7-0.5,1.7-1.6v-21.7
			C675.4,278.7,674.8,278.1,673.7,278.1z"/>
		<g>
			<path class="st2" d="M671.9,299.2c-0.9,0-1.5,0.7-1.5,1.6v12.1c0,2.2-1.6,4.1-3.8,4.1h-0.9c-0.9,0-1.6,0.6-1.6,1.5
				c0,0.9,0.7,1.5,1.6,1.5h0.9c4,0,6.8-3.2,6.8-7.1v-12.1C673.4,299.9,672.8,299.2,671.9,299.2z"/>
		</g>
	</g>
	<path class="st2" d="M608.3,336.1h-6.8c-1,0-2.1,0.7-2.1,1.7v16.8c0,1,1.1,1.5,2.1,1.5h6.8c1,0,2.1-0.5,2.1-1.5v-16.8
		C610.4,336.8,609.3,336.1,608.3,336.1z"/>
	<path class="st4" d="M760.9,342.6c0,0-5.2-1.3-4.7,1.3c0.4,2.6,3,16.8,9.5,19.7l-3-17.5C762.7,346.2,763,344.5,760.9,342.6z"/>
	<rect x="568.4" y="269.1" class="st2" width="10" height="3"/>
	<rect x="567.4" y="272.1" class="st11" width="12" height="146"/>
	<polygon class="st6" points="566.7,269.1 579.8,269.1 581.6,263.1 564.9,263.1 	"/>
	<path class="st19" d="M577,253.1h-7.5c-2.1,0-3.8,1.6-3.8,3.7l-0.8,6.3h16.7l-0.8-6.3C580.8,254.7,579.1,253.1,577,253.1z"/>
	<path class="st21" d="M569.5,253.1c-2.1,0-3.8,1.6-3.8,3.7l-0.8,6.3h5c2.6-4,6.1-6.6,9.9-8.9c-0.7-0.7-1.7-1.1-2.7-1.1H569.5z"/>
</g>
<g id="icons">
	<g id="icon-1">
		<g>
			<ellipse class="st15" cx="149.4" cy="240.2" rx="62.8" ry="62.6"/>
		</g>
		<g>
			<g>
				<g>
					<path class="st22" d="M192.7,243.1C192.8,243,192.8,243.1,192.7,243.1L192.7,243.1c0.2,0,0.3-0.1,0.3-0.1
						c-0.1,0-0.2-0.1-0.3-0.1L192.7,243.1z"/>
					<path class="st22" d="M193.1,242.9c-0.1,0.1-0.2,0.1-0.3,0.1h0c0,0,0-0.1,0,0l0-0.2C192.9,242.8,193,242.9,193.1,242.9
						c0.3-0.3,0.4-1,0.4-1.4v-2.1c0-0.6-0.3-1.1-0.9-1.1c0-0.1,0.1-0.2,0.1-0.3c0.6-0.1,1-0.6,1-1.2l-0.2-2.1
						c-0.1-0.6-0.6-1-1.1-0.9c0-0.1,0-0.3-0.1-0.4c0.6-0.2,0.9-0.7,0.8-1.3l-0.5-2.1c-0.1-0.6-0.7-0.9-1.2-0.8
						c0-0.1-0.1-0.2-0.1-0.3c0.5-0.2,0.8-0.8,0.6-1.3l-0.7-2c-0.2-0.5-0.7-0.8-1.3-0.7c0-0.1-0.1-0.3-0.2-0.4
						c0.5-0.3,0.7-0.9,0.4-1.4l-0.9-2c-0.2-0.5-0.8-0.7-1.3-0.6c0-0.1-0.1-0.2-0.1-0.3c0.4-0.3,0.5-0.9,0.3-1.4l-1.1-1.8
						c-0.3-0.5-0.8-0.6-1.3-0.4c0-0.1-0.1-0.1-0.1-0.2c0.4-0.4,0.4-1,0.1-1.4l-1.3-1.7c-0.3-0.4-0.9-0.5-1.3-0.3
						c0-0.1-0.1-0.1-0.2-0.2c0.3-0.4,0.3-1-0.1-1.4l-1.5-1.6c-0.3-0.4-0.9-0.4-1.3-0.2c0,0-0.1-0.1-0.1-0.1c0.2-0.4,0.1-1-0.2-1.3
						l-1.6-1.4c-0.3-0.3-0.8-0.3-1.1-0.2c0.1-0.4-0.1-0.8-0.4-1l-1.7-1.3c-0.4-0.3-0.9-0.3-1.3,0c0,0,0,0,0,0c0.1-0.5-0.1-1-0.5-1.2
						l-1.9-1.1c-0.4-0.2-0.9-0.2-1.3,0.1c0,0,0,0-0.1-0.1c0.1-0.4-0.2-0.9-0.6-1.1l-2-0.9c-0.4-0.2-0.9-0.1-1.2,0.3
						c-0.1,0-0.2-0.1-0.2-0.1c0-0.4-0.3-0.9-0.7-1l-2-0.7c-0.5-0.1-0.9,0-1.2,0.4c-0.1,0-0.2-0.1-0.3-0.1c0-0.4-0.4-0.8-0.8-0.9
						l-2.1-0.5c-0.5-0.1-0.9,0.1-1.2,0.5c-0.1,0-0.3-0.1-0.5-0.1c-0.1-0.4-0.5-0.8-0.9-0.8l-2.1-0.3c-0.5-0.1-0.9,0.2-1.1,0.6
						c-0.2,0-0.5,0-0.7,0c-0.1-0.4-0.5-0.7-1-0.7l-2.2,0c-0.5,0-0.9,0.3-1,0.7c-0.2,0-0.5,0-0.7,0c-0.2-0.4-0.6-0.6-1.1-0.6
						l-2.2,0.2c-0.5,0-0.8,0.4-0.9,0.8c-0.2,0-0.5,0.1-0.7,0.1c-0.3-0.4-0.7-0.5-1.1-0.5l-2.1,0.5c-0.4,0.1-0.8,0.5-0.8,0.9
						c-0.2,0.1-0.4,0.1-0.6,0.2c-0.3-0.3-0.7-0.5-1.2-0.3l-2,0.7c-0.4,0.1-0.7,0.5-0.7,0.9c-0.1,0.1-0.3,0.1-0.4,0.2
						c-0.3-0.3-0.8-0.4-1.2-0.2l-2,0.9c-0.4,0.2-0.7,0.6-0.6,1c-0.2,0.1-0.3,0.2-0.5,0.3c-0.3-0.3-0.8-0.3-1.2-0.1l-1.9,1.1
						c-0.4,0.2-0.6,0.7-0.5,1.1c-0.2,0.1-0.3,0.2-0.5,0.3c-0.4-0.2-0.8-0.2-1.2,0.1l-1.7,1.3c-0.4,0.3-0.5,0.7-0.4,1.1
						c-0.1,0.1-0.3,0.2-0.4,0.3c-0.4-0.2-0.9-0.1-1.2,0.2l-1.6,1.5c-0.3,0.3-0.4,0.8-0.3,1.2c-0.1,0.1-0.1,0.1-0.2,0.1
						c-0.4-0.1-0.9,0-1.2,0.3l-1.4,1.6c-0.3,0.4-0.4,0.8-0.1,1.2c0,0.1-0.1,0.1-0.1,0.1c-0.4-0.1-0.9,0-1.2,0.4l-1.3,1.7
						c-0.3,0.4-0.3,0.9,0,1.2c-0.1,0.1-0.1,0.2-0.2,0.3c-0.5-0.1-0.9,0.1-1.1,0.5l-1.1,1.9c-0.3,0.4-0.2,0.9,0.1,1.2c0,0,0,0,0,0
						c-0.5,0-0.9,0.2-1.1,0.6l-0.9,2c-0.2,0.4-0.1,0.9,0.3,1.2c-0.1,0.2-0.1,0.3-0.2,0.5c-0.5,0-0.9,0.3-1,0.7l-0.7,2
						c-0.1,0.5,0,1,0.4,1.2c0,0.1-0.1,0.2-0.1,0.3c-0.5,0-0.9,0.4-1,0.8l-0.5,2.1c-0.1,0.5,0.1,1,0.6,1.2c0,0.1,0,0.2-0.1,0.3
						c-0.5,0.1-0.9,0.5-0.9,0.9l-0.2,2.1c-0.1,0.5,0.3,1,0.7,1.1c0,0.1-0.3,0.2-0.3,0.3c-0.5,0.1-1.2,0.5-1.2,1v2.1
						c0,0.5,0.7,0.9,1.2,1c0,0.1,0.2,0.3,0.2,0.4c-0.5,0.2-0.7,0.6-0.7,1.1l0.3,2.1c0.1,0.5,0.5,0.9,1,1c0,0.2,0.1,0.3,0.1,0.5
						c-0.5,0.2-0.8,0.7-0.6,1.2l0.5,2.1c0.1,0.5,0.6,0.9,1.1,0.8c0,0.1,0.1,0.2,0.1,0.3c-0.5,0.2-0.7,0.8-0.5,1.3l0.7,2
						c0.2,0.5,0.7,0.8,1.2,0.7c0.1,0.1,0.1,0.3,0.2,0.4c-0.5,0.3-0.7,0.9-0.4,1.4l0.9,1.9c0.3,0.5,0.8,0.7,1.3,0.6
						c0.1,0.1,0.1,0.2,0.2,0.3c-0.5,0.3-0.6,0.9-0.3,1.4l1.1,1.8c0.3,0.5,0.9,0.7,1.4,0.4c0.1,0.1,0.1,0.1,0.1,0.2
						c-0.4,0.4-0.5,1-0.2,1.5l1.3,1.7c0.3,0.5,1,0.6,1.5,0.2c0,0.1,0.1,0.1,0.1,0.1c-0.4,0.4-0.4,1.1-0.1,1.5l1.5,1.6
						c0.4,0.4,1.1,0.5,1.5,0.1c0,0,0,0,0,0.1c-0.4,0.4-0.4,1.1,0.1,1.5l1.6,1.4c0.3,0.3,0.7,0.3,1.1,0.2c-0.1,0.4,0.1,0.8,0.4,1
						l1.7,1.3c0.4,0.3,1,0.3,1.4-0.1c-0.2,0.5,0,1,0.5,1.3l1.9,1.1c0.5,0.3,1.1,0.1,1.4-0.3c-0.2,0.5,0.1,1.1,0.6,1.3l2,0.9
						c0.5,0.3,1.2,0,1.4-0.5l0-0.1c0,0,0.1,0,0.1,0l0,0.1c-0.2,0.6,0.1,1.2,0.7,1.4l2,0.7c0.6,0.2,1.2-0.1,1.4-0.7l0-0.1
						c0,0,0.1,0,0.1,0l0,0.1c-0.1,0.6,0.2,1.2,0.8,1.3l2.1,0.5c0.6,0.1,1.2-0.2,1.3-0.8l0-0.1c0.1,0,0.2,0,0.3,0.1l0,0.1
						c-0.1,0.6,0.4,1.1,0.9,1.2l2.1,0.3c0.6,0.1,1.1-0.4,1.2-0.9l-0.2-0.1c0.1,0,0.3,0,0.3,0v0.1c0,0.6,0.7,1.1,1.3,1.1l2.4,0
						c0.6,0,1.3-0.5,1.3-1.1v-0.2c0,0,0.2,0,0.4,0l0,0.1c0.1,0.6,0.6,1,1.1,1l2.1-0.2c0.6-0.1,1-0.6,1-1.2l0-0.2
						c0.2,0,0.3-0.1,0.5-0.1l0,0.1c0.1,0.6,0.7,0.9,1.3,0.8l2.1-0.5c0.6-0.1,1-0.7,0.8-1.3l0-0.2c0.1,0,0.3-0.1,0.4-0.1l0.1,0.1
						c0.2,0.6,0.8,0.9,1.4,0.7l2-0.7c0.6-0.2,0.9-0.8,0.7-1.4l-0.1-0.1c0.1,0,0.1-0.1,0.2-0.1l0.1,0.1c0.3,0.5,0.9,0.8,1.4,0.5
						l2-0.9c0.5-0.2,0.8-0.9,0.5-1.4l-0.1-0.1c0.1-0.1,0.2-0.1,0.3-0.2l0.1,0.1c0.3,0.5,1,0.7,1.5,0.4l1.9-1.1
						c0.5-0.3,0.7-1,0.4-1.5l-0.1-0.1c0.1-0.1,0.2-0.1,0.3-0.2l0.1,0.1c0.4,0.5,1,0.6,1.5,0.2l1.7-1.3c0.5-0.4,0.6-1,0.2-1.5
						l-0.1-0.1c0.1-0.1,0.1-0.1,0.2-0.2l0.1,0.1c0.4,0.4,1.1,0.5,1.5,0.1l1.6-1.5c0.4-0.4,0.5-1.1,0.1-1.5l-0.1-0.1c0,0,0,0,0,0
						l0.1,0.1c0.5,0.4,1.1,0.3,1.5-0.1l1.4-1.6c0.4-0.4,0.3-1.1-0.1-1.5l0,0l0,0c0.5,0.3,1.2,0.2,1.5-0.3l1.3-1.8
						c0.3-0.5,0.2-1.1-0.3-1.5l-0.1-0.1c0,0,0.1-0.1,0.1-0.1l0.1,0.1c0.5,0.3,1.2,0.1,1.5-0.4l1.1-1.9c0.3-0.4,0.2-1-0.2-1.3
						c0.5,0.1,1-0.1,1.2-0.6l0.9-2c0.2-0.5,0-1.2-0.5-1.4l-0.1,0c0-0.1,0.1-0.2,0.1-0.4l0.1,0c0.6,0.2,1.2-0.1,1.4-0.7l0.7-2
						c0.2-0.6-0.1-1.2-0.7-1.4l-0.1,0c0,0,0-0.1,0-0.1l0,0c0.6,0.1,1.2-0.3,1.3-0.8l0.4-2.2c0.1-0.6-0.2-1.4-0.8-1.4h0h0h0h0h0
						c0.6,0,1.1-0.3,1.2-0.9l0.2-2.1C193.8,243.5,193.5,243.1,193.1,242.9z M149.4,274.2c-18.9,0-34.3-15.2-34.3-34.1
						c0-18.8,15.3-34.1,34.3-34.1c18.9,0,34.3,15.2,34.3,34.1C183.6,259,168.3,274.2,149.4,274.2z"/>
				</g>
			</g>
			<g>
				<g>
					<path class="st23" d="M149.4,210.9c-16,0-29.1,13.3-29.1,29.6c0,16.3,13,29.6,29.1,29.6c16,0,29.1-13.3,29.1-29.6
						C178.5,224.1,165.5,210.9,149.4,210.9z M149.4,267.5c-14.7,0-26.6-12.2-26.6-27.1c0-15,11.9-27.1,26.6-27.1
						c14.7,0,26.6,12.2,26.6,27.1C176,255.4,164.1,267.5,149.4,267.5z"/>
				</g>
			</g>
			<g>
				<g>
					<path class="st23" d="M149.4,232.2c-4.5,0-8.2,3.7-8.2,8.2c0,4.5,3.7,8.2,8.2,8.2c4.6,0,8.2-3.7,8.2-8.2
						C157.7,235.9,154,232.2,149.4,232.2z"/>
				</g>
			</g>
			<polygon class="st23" points="151.4,237.2 151.4,212.1 147.4,212.1 147.4,237.2 123.4,228.5 121.9,233.1 145.6,241.7 
				131.3,260.4 135.2,263.2 149.4,244.5 163.7,263.2 167.6,260.4 153.3,241.7 177.1,233.1 175.5,228.5 			"/>
		</g>
	</g>
	<g id="icon-2">
		<g>
			<ellipse class="st15" cx="279" cy="126.4" rx="62.8" ry="62.6"/>
		</g>
		<g>
			<rect x="255.4" y="92.1" class="st11" width="33" height="33"/>
			<g>
				<g>
					<path class="st22" d="M298.8,92.4l-1.1,1.8l5.9,6.6c1.1,1.7,1.8,3.2,1.8,4.8v37.1c0,1.5-1.3,2.4-2.8,2.4h-0.3
						c-1.5,0-2.9-0.9-2.9-2.4v-20.8c0-3.5-2.7-6.8-6.2-6.8h-2.8v4h2.8c1.7,0,3.2,1.2,3.2,2.8v20.8c0,3.3,2.6,6.4,5.9,6.4h0.3
						c3.3,0,5.8-3.1,5.8-6.4v-36.6c0-2.5-0.8-4.8-2.6-6.6L298.8,92.4z"/>
				</g>
				<g>
					<path class="st22" d="M302.4,101.6v-4.5h-2v4.5c0,1.8,0.8,3.6,2.1,4.9l4.1,3.9l1.3-1.3l-4-3.9
						C303,104.2,302.4,102.9,302.4,101.6z"/>
				</g>
			</g>
			<path class="st24" d="M287.3,88.1H257c-2.5,0-4.6,1.3-4.6,3.8v67.2h39V91.9C291.4,89.4,289.8,88.1,287.3,88.1z M285.4,111.8
				c0,2.5-1.5,4.2-4.1,4.2h-18.5c-2.5,0-4.5-1.8-4.5-4.2V99.2c0-2.5,2-4.1,4.5-4.1h18.5c2.5,0,4.1,1.7,4.1,4.1V111.8z"/>
			<rect x="249.4" y="158.1" class="st23" width="46" height="7"/>
		</g>
	</g>
	<g id="icon-4">
		<g>
			<ellipse class="st15" cx="626.4" cy="126.4" rx="62.8" ry="62.6"/>
		</g>
		<g>
			<rect x="593.4" y="131.1" class="st24" width="66" height="21"/>
			<path class="st23" d="M657,127.1l0.2-0.1h-5h0h-51.6l0,0l-5-0.1l-0.2,0.2c-2.6,0.2-4.9,2.3-4.9,5v18.1c0,2.7,2.6,4.9,5.4,4.9
				h61.1c2.8,0,4.5-2.1,4.5-4.9v-18.1C661.4,129.4,659.6,127.3,657,127.1z M602,147.6c-3.1,0-5.6-2.5-5.6-5.6c0-3.1,2.5-5.6,5.6-5.6
				c3.1,0,5.6,2.5,5.6,5.6C607.6,145.1,605.1,147.6,602,147.6z M650.7,147.6c-3.1,0-5.6-2.5-5.6-5.6c0-3.1,2.5-5.6,5.6-5.6
				c3.1,0,5.6,2.5,5.6,5.6C656.3,145.1,653.8,147.6,650.7,147.6z"/>
			<path class="st24" d="M601.5,106.1l-1.8,23.9c1.2-0.2,2.4-0.3,3.6-0.3c17.2-0.2,34.5-0.2,51.7,0l-2.5-23.6H601.5z"/>
			<path class="st23" d="M657,127.1l-4.1-17.6c-0.6-3.1-3.2-5.5-6.3-5.5h-40.5c-3.1,0-5.8,2.4-6.3,5.4l-4.4,17.6
				c-2.6,0.2-4.9,2.4-4.9,5v18.1c0,2.7,2.6,4.9,5.4,4.9h0.6v9.6c0,1.7,1.3,3.4,2.9,3.4h5c1.7,0,3.1-1.7,3.1-3.4v-9.6h38v9.6
				c0,1.7,1.2,3.4,2.9,3.4h5c1.7,0,3.1-1.7,3.1-3.4v-9.6h0.5c2.8,0,4.5-2.1,4.5-4.9v-18.1C661.4,129.4,659.6,127.3,657,127.1z
				 M604.5,110.5c0.2-0.8,0.8-1.5,1.6-1.5h40.5c0.7,0,1.4,0.6,1.6,1.6l4,16.4h-51.6L604.5,110.5z M602,147.6c-3.1,0-5.6-2.5-5.6-5.6
				c0-3.1,2.5-5.6,5.6-5.6c3.1,0,5.6,2.5,5.6,5.6C607.6,145.1,605.1,147.6,602,147.6z M650.7,147.6c-3.1,0-5.6-2.5-5.6-5.6
				c0-3.1,2.5-5.6,5.6-5.6c3.1,0,5.6,2.5,5.6,5.6C656.3,145.1,653.8,147.6,650.7,147.6z"/>
			<g>
				<g>
					<path class="st23" d="M649.9,85.2c-4,0-7.5,3.2-7.5,7.2v8.1c0,0.5,0.5,0.8,1,0.8c0.5,0,1-0.4,1-0.8v-8.1c0-3.1,2.4-5.5,5.5-5.5
						c3.1,0,5.5,2.5,5.5,5.5v9.6c0,0.5,0.5,0.8,1,0.8c0.5,0,1-0.4,1-0.8v-9.6C657.4,88.4,653.9,85.2,649.9,85.2z"/>
				</g>
				<rect x="640.4" y="99.1" class="st11" width="19" height="19"/>
				<path class="st22" d="M652.5,105.9c0-1.3-1-2.3-2.3-2.3s-2.3,1-2.3,2.3c0,0.8,0.4,1.5,1,1.9l-1,6.2h4.5l-1-6.2
					C652.1,107.4,652.5,106.8,652.5,105.9z"/>
			</g>
		</g>
	</g>
	<g id="icon-5">
		<g>
			<ellipse class="st15" cx="761.8" cy="240.2" rx="62.8" ry="62.6"/>
		</g>
		<g>
			<g>
				<rect x="726.4" y="219.1" class="st24" width="70" height="51"/>
				<rect x="726.4" y="219.1" class="st11" width="70" height="4"/>
				<g>
					<rect x="738.4" y="211.1" class="st11" width="8" height="8"/>
					<rect x="776.4" y="211.1" class="st11" width="9" height="8"/>
				</g>
				<polygon class="st11" points="744.4,230.1 741.4,230.1 741.4,234.1 737.4,234.1 737.4,237.1 741.4,237.1 741.4,241.1 
					744.4,241.1 744.4,237.1 748.4,237.1 748.4,234.1 744.4,234.1 				"/>
				<rect x="775.4" y="234.1" class="st11" width="11" height="3"/>
			</g>
			<polygon class="st11" points="761.4,247.1 765.2,233.3 756.5,248.2 754.7,251.1 758.5,251.1 762.3,251.1 758.5,265.3 767.2,250 
				768.9,247.1 765.2,247.1 			"/>
		</g>
	</g>
	<g id="icon-3">
		<g>
			<ellipse class="st15" cx="448.8" cy="86.5" rx="62.8" ry="62.6"/>
		</g>
		<g>
			<path class="st22" d="M412.9,94.2c-3.6,0-6.6,2.9-6.6,6.5s2.9,6.5,6.6,6.5c3.6,0,6.6-2.9,6.6-6.5S416.6,94.2,412.9,94.2z
				 M412.9,104.3c-2,0-3.6-1.6-3.6-3.6c0-2,1.6-3.6,3.6-3.6c2,0,3.6,1.6,3.6,3.6C416.6,102.7,414.9,104.3,412.9,104.3z"/>
			<path class="st24" d="M498.3,93.4c-0.1-0.3-0.2-0.6-0.4-0.8l-1.6-2.1l-0.6-3.3c0-0.1,0-0.1,0-0.2v0c0,0,0.1-0.3-0.4-0.7h0
				c-0.2-0.3-1.8-3.2-9.9-3.8l-4.5-9.4h0l-0.2-0.2l-0.5-1.1c-0.2-0.4-0.6-0.7-1.1-0.7h-13.7c-0.7,0-1.2,0.6-1.3,1.3l0,21.7h-1.7v-20
				h-3v17.8l-61-0.1v6.3h7.3c1.2-3,4-5,7.2-5c4.3,0,7.8,3.4,7.8,7.6c0,0.5,0,1.3-0.1,1.3h56.9c0,0,1,0,1-1h1.8c0,0,0-0.3,0-0.4
				c0-4.3,3.5-7.7,7.8-7.7c4.2,0,7.7,3.4,7.8,7.6c1.1-0.2,2-0.3,2-0.3l0.7-0.7c0.4-0.4,0.7-1.1,0.5-1.7L498.3,93.4z M478.6,82.1
				h-11.2v-8h9.6l2.9,6.2C479.4,81.1,479.2,81.1,478.6,82.1z"/>
			<g>
				<path class="st23" d="M462.4,94.1v-20h-3v17.8l-61-0.1v6.3h7.3c1.2-3,4-5,7.2-5c4.3,0,7.8,3.4,7.8,7.6c0,0.5,0,1.3-0.1,1.3h43.9
					V89l-0.3,5.1H462.4z"/>
			</g>
			<path class="st22" d="M488,94.2c-3.6,0-6.6,2.9-6.6,6.5s2.9,6.5,6.6,6.5c3.6,0,6.6-2.9,6.6-6.5S491.7,94.2,488,94.2z M488,104.3
				c-2,0-3.6-1.6-3.6-3.6c0-2,1.6-3.6,3.6-3.6c2,0,3.6,1.6,3.6,3.6C491.7,102.7,490,104.3,488,104.3z"/>
			<g>
				<path class="st11" d="M458.1,85c0,0-1.7-5.2-2-5.6c0,0,0,0,0,0c-0.1-0.1-0.2-0.3-0.3-0.4c-0.1-0.1-0.2-0.3-0.4-0.4
					c-0.6-0.6-1.4-1.4-2.1-1.8c-1.1-0.7-10.4-2.7-10.4-2.7s-9.1-7.7-16.7-8.2c-7.3-0.4-13,0.2-16.2,0.7l0.1-0.1c0,0-2.6,0.3-4.3,3.7
					l0.1-0.1c-0.9,1.5-1.7,3.1-2.2,4.1c-0.1,0.3-1.3,1.2-2.4,3.4l-0.1,0.2l-0.1,0.1c-0.2,0.5-0.4,0.9-0.6,1.5l-0.2,0.5l-0.3,1h0
					c-0.2,0-0.3,1.1-0.5,1.8c-0.8,4.1,2.4,6.2,2.4,6.2h0.3c-0.3-1-0.5-1.5-0.5-2.3c0-3.3,2.7-6,6.1-6c3.3,0,6.1,2.7,6.1,6.1
					c0,0.8-0.2,1.6-0.5,2.3l26.4,0c-0.3-0.7-0.5-1.5-0.5-2.4c0-3.3,2.7-6.1,6.1-6.1c3.3,0,6.1,2.7,6.1,6.1c0,0.8-0.2,1.6-0.5,2.4
					l6.2,0.2l0.4-1.3h0L458.1,85L458.1,85L458.1,85z M417.8,73.2l-7.2-0.3l-2.7-0.1c2.1-4.7,3.6-4.8,3.6-4.8c2.1-0.3,4.1-0.4,6-0.6
					c0.4,0,0.8-0.1,1.3-0.1L417.8,73.2z M436.5,74l-6.2-0.2l-9.3-0.5l0-0.2l-0.1-3.9c0.1-0.3,0.1-0.6,0-0.9l0-1.1c1,0,2-0.1,3-0.1
					c6.5,0,9.5,2.6,11.6,4c0.4,0.3,0.9,0.6,1.3,0.9L436.5,74z"/>
				<path class="st22" d="M407.7,81.7c-2.8,0-5.1,2.3-5.1,5c0,0.8,0.2,1.6,0.6,2.3c0.8,1.6,2.5,2.7,4.5,2.7c1.9,0,3.6-1.1,4.5-2.7
					c0.4-0.7,0.6-1.5,0.6-2.3C412.8,84,410.5,81.7,407.7,81.7z M409.7,89.1c-0.5,0.5-1.2,0.7-2,0.7c-0.8,0-1.5-0.3-2-0.7
					c-0.7-0.6-1.1-1.4-1.1-2.3c0-1.7,1.4-3.1,3.1-3.1c1.7,0,3.1,1.4,3.1,3.1C410.8,87.7,410.4,88.5,409.7,89.1z"/>
				<path class="st22" d="M445.3,81.7c-2.8,0-5.1,2.3-5.1,5c0,0.9,0.2,1.7,0.6,2.4c0.8,1.6,2.5,2.7,4.5,2.7c1.9,0,3.6-1.1,4.5-2.7
					c0.4-0.7,0.6-1.5,0.6-2.4C450.4,84,448.1,81.7,445.3,81.7z M447.3,89.1c-0.5,0.5-1.2,0.7-2,0.7c-0.8,0-1.5-0.3-2-0.7
					c-0.7-0.6-1.1-1.4-1.1-2.4c0-1.7,1.4-3.1,3.1-3.1c1.7,0,3.1,1.4,3.1,3.1C448.4,87.7,448,88.5,447.3,89.1z"/>
			</g>
			<path class="st22" d="M495.3,98.1c0.3,1,0.5,1.6,0.5,2.5c1.1-0.2,2-0.3,2-0.3l0.7-0.7c0.4-0.4,0.6-1.5,0.6-1.5H495.3z"/>
			<path class="st22" d="M420.2,98.1c0.3,1,0.5,1.7,0.5,2.6c0,0.5,0,1.4-0.1,1.4h56.9c0,0,1,0,1-1h1.8c0,0,0-0.2,0-0.4
				c0-1,0.2-1.6,0.5-2.6H420.2z"/>
		</g>
	</g>
</g>
</svg>
