<?xml version="1.0" encoding="utf-8"?>
<!-- Generator: Adobe Illustrator 25.2.3, SVG Export Plug-In . SVG Version: 6.00 Build 0)  -->
<svg version="1.1" id="Layer_1" xmlns="http://www.w3.org/2000/svg" xmlns:xlink="http://www.w3.org/1999/xlink" x="0px" y="0px"
	 viewBox="0 0 1065 300" style="enable-background:new 0 0 1065 300;" xml:space="preserve">
<style type="text/css">
	.st0{fill:#333333;}
	.st1{fill:#8F8E8E;}
	.st2{fill:#E9E8E8;}
	.st3{fill:#C5C5C5;}
	.st4{fill:#484747;}
	.st5{fill:#6B6B6B;}
	.st6{fill:#A5A5A5;}
	.st7{fill:#56758D;}
	.st8{fill:#525352;}
	.st9{fill:#E84621;}
	.st10{opacity:0.5;}
	.st11{fill:#AE3519;}
	.st12{fill:#AD3519;}
	.st13{fill:#FFFFFF;}
	.st14{opacity:0.3;fill:#FFFFFF;}
	.st15{fill:#575757;}
	.st16{fill:#1A1A1A;}
	.st17{fill:#FEC82F;}
	.st18{fill:#575756;}
	.st19{fill:#FED359;}
	.st20{fill:#CCA28A;}
	.st21{opacity:6.000000e-02;}
	.st22{fill:#2C5288;}
	.st23{opacity:0.1;}
	.st24{fill:#454444;}
	.st25{fill:#FFF03E;}
	.st26{fill:#623E3B;}
	.st27{fill:#CDCDCD;}
</style>
<rect x="748.8" y="205.9" class="st0" width="191.6" height="42.2"/>
<polygon class="st1" points="473.3,152.5 528.9,204.6 533,200.3 477.4,148.2 "/>
<polygon class="st0" points="516.5,197.1 537.2,216.5 545.4,207.8 524.6,188.4 "/>
<path class="st2" d="M1059.2,190.5c-0.4-2.3-1.3-4.4-2.7-6.2l-11.8-15.6l-4.1-24.4c-0.8-5-4.2-9.1-8.9-11
	c-14.7-5.9-38.3-17.9-97.8-22.5l-38.6-79.1c-1.5-3.2-4.8-5.2-8.3-5.2h-101c-5.1,0-9.2,4.1-9.2,9.2l-0.3,170.2h129.5l21.4-30.6h56.3
	c0,0,60.3,3.3,60.3,64.8h11.6l5.2-5.2c3.3-3.3,4.8-8,4-12.6L1059.2,190.5z"/>
<path class="st3" d="M1062.6,209.8h-24.9c3.9,8.1,6.3,18.1,6.3,30.4h11.6l5.2-5.2c3.3-3.3,4.8-8,4-12.6L1062.6,209.8z"/>
<path class="st2" d="M906.1,205.9v53.5h7.7c0,0-6.9-68.7,46.1-84.1l-32.2-19.1L906.1,205.9z"/>
<path class="st4" d="M978.9,171.8c-36.5,0-65.5,29.3-65.5,65.8c0,3.4,0.1,6.2,0.1,10.4h106.9c0,0,0,0,0.1-0.1
	c8.1-4.2,16.5-8,24.5-12.3C1043.8,200.2,1014.7,171.8,978.9,171.8z"/>
<g>
	<ellipse class="st0" cx="983.7" cy="244.2" rx="48.4" ry="48.3"/>
	
		<ellipse transform="matrix(1.420656e-03 -1 1 1.420656e-03 738.1448 1227.5227)" class="st1" cx="983.7" cy="244.2" rx="30.8" ry="30.8"/>
	<ellipse class="st5" cx="983.7" cy="244.2" rx="26.6" ry="26.6"/>
	<ellipse class="st6" cx="983.7" cy="244.2" rx="16.3" ry="16.3"/>
</g>
<rect x="387.4" y="234.7" class="st0" width="186.1" height="10.3"/>
<path class="st7" d="M888.8,40.7c-1.1,0-1.8,1.2-1.3,2.2l33.9,67.2c0.3,0.5,0.8,0.8,1.3,0.8H934l-34.2-70.1H888.8z"/>
<g>
	<path class="st0" d="M923.4,107.6l-32.9-65.2l10.3-0.1l-1.4-2.7h-9.7c-1,0-2,0.5-2.5,1.4c-0.5,0.9-0.6,2-0.1,2.9l33.2,65.8
		c0.5,1,1.5,1.6,2.7,1.6l11.1-0.6l-1.6-3.2H923.4z"/>
</g>
<path class="st7" d="M873.3,40.7h-78.2v70.1h106c3.5,0,5.8-3.7,4.2-6.9L873.3,40.7z"/>
<path class="st0" d="M873.3,40.7h-78.2v70.1h106c3.5,0,5.8-3.7,4.2-6.9L873.3,40.7z M883.5,106.7h-84.7V43.8h73l21.2,47.4
	C889.2,97.5,887.4,100.4,883.5,106.7z"/>
<rect x="776.6" y="205.9" class="st5" width="129.5" height="49.1"/>
<rect x="776.6" y="240.2" class="st8" width="129.5" height="14.8"/>
<rect x="252.1" y="205.9" class="st0" width="499.8" height="19.5"/>
<g>
	<ellipse class="st0" cx="358.8" cy="244.2" rx="48.4" ry="48.3"/>
	<ellipse class="st1" cx="358.8" cy="244.2" rx="30.8" ry="30.8"/>
	<ellipse class="st5" cx="358.8" cy="244.2" rx="26.6" ry="26.6"/>
	<ellipse class="st6" cx="358.8" cy="244.2" rx="16.3" ry="16.3"/>
</g>
<g>
	<g>
		<path class="st9" d="M511.4,32c-10.9-7.1-40.2-7.5-70.8-8.3c-42.3-1.2-86.9-1-86.9-1l-60.1-11c-31.1-3.6-47.3-3.9-73.2,1.4
			C181.8,21,160,25,97.2,69.6c-32.4,23-57.8,33-57.8,33c-7.4,3.3-11.6,11-10.5,19c1.5,10.4,4.9,25.2,12.4,38.2
			c14.5,24.9,37,31.9,37,31.9l16.6-6.8l54.6-12.9l17.2-1.2l241.1-56.8l16.1-6.1l58.4-13.8l15.9-1.4l7.1-1.7l16.5-14.8
			C521.9,76.4,523.4,39.8,511.4,32z"/>
	</g>
	<g class="st10">
		<path class="st11" d="M78.3,191.9l16.6-6.8l54.6-12.9l17.2-1.2l241.1-56.8l16.1-6.1l58.4-13.8l15.9-1.4l7.1-1.7l16.5-14.8
			c0,0,0-1.2,0.1-3.2L60.6,182C70.2,189.3,78.3,191.9,78.3,191.9z"/>
	</g>
	<path class="st12" d="M487.7,66c-5.5-23.3-26.4-35.1-49.7-29.6c-23.3,5.5-36.8,25.4-31.3,48.6l5.2,22.1l-4.1,7.1l16.1-6.1
		l58.4-13.8l15.9-1.4l-5.3-4.6L487.7,66z"/>
	<path class="st12" d="M158.3,143.6c-5.5-23.3-27.6-36.2-50.9-30.7c-23.3,5.5-37.3,26.9-31.8,50.2l5.5,23.3l-2.8,5.5l15.9-6.6
		l57.5-13.5l13.3-0.3l4.5-1.1l-5.6-3.5L158.3,143.6z"/>
	<path class="st13" d="M488.2,29c0,0-24.1,5.1-9.3,9.8c0,0,33.5,0.9,30.4-5.5C509.3,33.4,496.9,27.8,488.2,29z"/>
	<path class="st14" d="M339.2,39.5L93.3,81.2l-16,8.8l337.3-55.5C397.9,29.9,339.2,39.5,339.2,39.5z"/>
	<g>
		<path class="st0" d="M438.8,39.6c-20.9,4.9-33.8,25.8-28.9,46.7c4.9,20.9,25.9,33.8,46.7,28.9c20.9-4.9,33.8-25.8,28.9-46.7
			C480.6,47.6,459.6,34.7,438.8,39.6z"/>
		<path class="st1" d="M441,47.7c-16.2,3.8-26.3,20-22.4,36.2c3.8,16.2,20.1,26.2,36.3,22.4c16.2-3.8,26.2-20,22.4-36.2
			C473.4,53.9,457.2,43.9,441,47.7z"/>
		<g>
			<g>
				<path class="st13" d="M440.8,48.6c-1.6,0.4-3.1,0.9-4.6,1.5l8,19c0.5-0.2,1-0.4,1.6-0.6c0.4-0.1,0.8-0.1,1.2-0.2l-1.4-20.5
					C444,48,442.4,48.2,440.8,48.6z"/>
				<path class="st13" d="M450,86.4c-0.6,0.1-1.2,0.2-1.8,0.2l1.3,20.1c1.6-0.1,3.2-0.3,4.8-0.7c1.6-0.4,3.2-0.9,4.6-1.5L451.2,86
					C450.8,86.2,450.4,86.3,450,86.4z"/>
				<path class="st13" d="M474.8,66l-18.6,7.8c0.2,0.5,0.4,1.1,0.6,1.7c0.1,0.4,0.1,0.9,0.2,1.3l20-1.3c-0.1-1.6-0.3-3.2-0.7-4.8
					C475.9,69,475.4,67.4,474.8,66z"/>
				<path class="st13" d="M438.7,77.9l-20.6,1.4c0.1,1.6,0.3,3.2,0.7,4.8c0.4,1.6,0.9,3.1,1.5,4.6l19-7.9c-0.1-0.4-0.3-0.8-0.4-1.2
					C438.8,79.1,438.7,78.5,438.7,77.9z"/>
				<path class="st13" d="M454.7,83.6l15.1,13.2c2.1-2.5,3.9-5.2,5.1-8.3l-18.5-7.6C456,81.9,455.4,82.8,454.7,83.6z"/>
				<path class="st13" d="M420.3,66.2l19.1,7.8c0.4-0.9,0.9-1.7,1.5-2.5l-15.5-13.6C423.2,60.4,421.5,63.2,420.3,66.2z"/>
				<path class="st13" d="M451,68.9c0.9,0.3,1.8,0.9,2.6,1.5L467,55.2c-2.5-2.1-5.2-3.9-8.3-5.1L451,68.9z"/>
				<path class="st13" d="M428.1,99.5c2.5,2.2,5.2,3.9,8.3,5.1l7.7-18.8c-0.9-0.4-1.8-1-2.5-1.6L428.1,99.5z"/>
			</g>
			<g>
				<path class="st13" d="M441,47.4c-16.3,3.8-26.5,20.2-22.6,36.5c3.9,16.3,20.3,26.4,36.6,22.6c16.3-3.8,26.4-20.2,22.6-36.5
					C473.7,53.6,457.3,43.5,441,47.4z M454.3,103.8c-14.9,3.5-29.8-5.7-33.3-20.6c-3.5-14.8,5.7-29.8,20.6-33.3
					c14.8-3.5,29.8,5.7,33.3,20.6C478.4,85.4,469.2,100.3,454.3,103.8z"/>
			</g>
		</g>
	</g>
	<g>
		<path class="st0" d="M108.6,117.4c-20.9,4.9-33.8,25.8-28.9,46.7c4.9,20.9,25.8,33.8,46.7,28.9c20.9-4.9,33.8-25.8,28.9-46.7
			C150.4,125.4,129.4,112.5,108.6,117.4z"/>
		<path class="st1" d="M110.7,126.4c-15.9,3.8-25.8,19.7-22,35.5c3.8,15.9,19.7,25.7,35.6,22c15.9-3.7,25.8-19.7,22-35.6
			C142.5,132.5,126.6,122.7,110.7,126.4z"/>
		<g>
			<g>
				<path class="st13" d="M110.6,126.4c-1.6,0.4-3.1,0.9-4.6,1.5l8,19c0.5-0.2,1-0.4,1.6-0.6c0.4-0.1,0.8-0.1,1.2-0.2l-1.4-20.5
					C113.8,125.8,112.2,126.1,110.6,126.4z"/>
				<path class="st13" d="M119.8,164.2c-0.6,0.1-1.2,0.2-1.7,0.2l1.3,20.1c1.6-0.1,3.2-0.3,4.8-0.7c1.6-0.4,3.2-0.9,4.6-1.5
					l-7.8-18.5C120.6,164,120.2,164.1,119.8,164.2z"/>
				<path class="st13" d="M144.6,143.8l-18.6,7.8c0.2,0.5,0.4,1.1,0.6,1.7c0.1,0.4,0.1,0.9,0.2,1.3l20.1-1.3
					c-0.1-1.6-0.3-3.2-0.7-4.8C145.8,146.8,145.2,145.2,144.6,143.8z"/>
				<path class="st13" d="M108.5,155.7l-20.6,1.4c0.1,1.6,0.3,3.2,0.7,4.8c0.4,1.6,0.9,3.2,1.5,4.6l19-7.9c-0.1-0.4-0.3-0.8-0.4-1.2
					C108.6,156.9,108.5,156.3,108.5,155.7z"/>
				<path class="st13" d="M124.5,161.4l15.1,13.2c2.1-2.5,3.9-5.2,5.1-8.2l-18.5-7.6C125.8,159.7,125.2,160.6,124.5,161.4z"/>
				<path class="st13" d="M90.1,144l19.1,7.8c0.4-0.9,0.9-1.7,1.5-2.5l-15.6-13.6C93,138.2,91.3,141,90.1,144z"/>
				<path class="st13" d="M120.8,146.7c1,0.3,1.8,0.9,2.6,1.5l13.4-15.3c-2.4-2.1-5.2-3.9-8.3-5.1L120.8,146.7z"/>
				<path class="st13" d="M97.9,177.3c2.5,2.1,5.2,3.9,8.3,5.1l7.7-18.8c-0.9-0.4-1.8-1-2.5-1.7L97.9,177.3z"/>
			</g>
			<g>
				<path class="st13" d="M110.8,125.2c-16.3,3.8-26.5,20.2-22.6,36.5c3.9,16.3,20.3,26.4,36.6,22.6c16.3-3.8,26.4-20.2,22.6-36.5
					C143.5,131.4,127.1,121.3,110.8,125.2z M124.2,181.6c-14.9,3.5-29.8-5.7-33.3-20.6c-3.5-14.8,5.7-29.8,20.6-33.3
					c14.8-3.5,29.8,5.7,33.3,20.6C148.3,163.2,139,178.1,124.2,181.6z"/>
			</g>
		</g>
	</g>
	<g>
		<path class="st0" d="M499.8,64.3c0,0-7.1,0.9-6.6,7.1c0.3,3.2,3.1,8.4,9.5,7.2c14.8-2.9,19.5-3.4,19.5-3.4s6.1-5.2-1.2-15.4
			L499.8,64.3z"/>
	</g>
	<g>
		<path class="st12" d="M228.8,67.1l-18.2,4.3c-2.6,0.6-4.2,3.2-3.6,5.9c0.6,2.6,3.3,4.2,5.9,3.6l18.2-4.3c2.6-0.6,4.2-3.2,3.6-5.9
			C234.1,68.1,231.4,66.4,228.8,67.1z M230.5,74.3l-18.2,4.3c-1.4,0.3-2.8-0.5-3.1-1.9c-0.3-1.4,0.5-2.8,1.9-3.1l18.2-4.3
			c1.4-0.3,2.8,0.5,3.1,1.9C232.8,72.6,231.9,74,230.5,74.3z"/>
	</g>
	<path class="st12" d="M352.8,44c-1.2-14.2-13.4-13.6-13.5-13.6l-1.9,5.4c2.5,0.6,12.3-2,13.1,8.4c1.1,13.2,5,56,5.1,56.4l0,0.1
		c0.1,0.5,2.2,12.6-10.2,15.6c-2.5,0.6-6.7,1.6-12,2.9c-22.2,5.3-68.5,16.4-72.8,16.6c-1,0.1-2.3,0.3-3.8,0.6
		c-6.8,1.3-17,3.2-25.9-7.3c-7.8-9.3-33.1-47.9-47.3-69.4c-1.3-0.3-2.6-0.8-3.7-1.6c13.8,20.9,41.1,62.7,49.4,72.5
		c9.7,11.5,21.1,9.4,28,8.1c1.4-0.3,2.6-0.5,3.5-0.5c2.9-0.1,21.9-4.5,41.5-9.1c11.4-2.7,22.9-5.4,31.7-7.5
		c5.3-1.3,9.5-2.3,11.9-2.8c14-3.3,12.1-17,11.9-18.1C357.7,98.8,353.9,57,352.8,44z"/>
	<path class="st12" d="M32.8,138.3c0,0,13.1-1.6,16.8-21.6l-20.8,4.9C28.8,121.7,28.8,131.7,32.8,138.3z"/>
	<path class="st14" d="M349.3,28c14.8-5.1,132,2.9,132,2.9l8.9-2.4C460.9,24.5,360,23.7,360,23.7L349.3,28z"/>
	<path class="st0" d="M280,10.6l-1.8,1.2c0,0,42.1,7.5,66.1,15.6l9.4-4.8c0,0-53.8-11.3-69.9-11.9L280,10.6z"/>
	<path class="st0" d="M179.5,29.7c-33.2,14.9-50.6,26.9-50.6,26.9l20.7,5.2c3.9,1.2,17.2-0.2,21.3-0.9L339,30.4l-69.4-14.9
		C269.6,15.5,212.7,14.9,179.5,29.7z"/>
	<path class="st15" d="M179.5,29.7c-33.2,14.9-50.6,26.9-50.6,26.9l13.1,3.3c1.2-1.2,2.8-2.1,4.9-2.6l151.4-35.7l-28.7-6.2
		C269.6,15.5,212.7,14.9,179.5,29.7z"/>
	<path class="st16" d="M268.5,15.5c-8.2,0-58.5,0.6-89,14.2c-33.2,14.9-50.6,26.9-50.6,26.9l20.7,5.2c1.1,0.3,3,0.5,5.2,0.5
		c5.5,0,13.2-0.9,16.1-1.3L339,30.4l-69.4-14.9C269.6,15.5,269.2,15.5,268.5,15.5z M170.3,57.9c-2.6,0.4-10.1,1.3-15.6,1.3
		c-2.9,0-4-0.3-4.2-0.3l-0.1,0l-0.1,0l-13.5-3.4c7.7-4.7,22.5-13.2,43.9-22.7c12.5-5.6,30-9.6,51.9-12c17.3-1.8,31.8-2,35.8-2
		c0.3,0,0.6,0,0.8,0l53.3,11.4L170.3,57.9z"/>
	<g>
		<path class="st12" d="M339,30.4c0,0-29.1-3.4-29.4,2.9c0,0-3.6,15.3,9.9,13l9.6-2.3c1.3-0.3,2.6-0.9,3.7-1.7
			c2.7-2,7.6-5.8,6.9-8.1L339,30.4z"/>
		<path class="st9" d="M309.6,33.3c0,0-1.8,7.7,2,11.4c0.7-0.3,1.4-0.5,2.2-0.6c9.4-1,18.8-4,25.9-10.2l-0.6-3.5
			C339,30.4,309.9,27,309.6,33.3z"/>
		<path class="st14" d="M311.4,34.1c0,0-0.9,3.8,0,7.2c0.5-1.2,1.2-2.3,2-3.3c3.6-4.2,9.4-5.5,14.8-6.1c1.6-0.4,3.3-0.7,5-1
			C325.3,30.3,311.6,29.9,311.4,34.1z"/>
	</g>
	<g>
		<polygon class="st16" points="164,37.2 178.7,58.8 181.3,57.1 166.7,35.4 		"/>
	</g>
</g>
<g>
	<polygon class="st1" points="37.3,203 36.6,203.2 16.6,221.6 19.9,225.2 39,207.6 510.9,97.5 533.9,102.9 535,98.3 510.9,92.6 	"/>
</g>
<g>
	<g>
		
			<rect x="77.3" y="195.8" transform="matrix(0.9851 -0.1722 0.1722 0.9851 -33.4366 16.7227)" class="st1" width="4.8" height="10.6"/>
	</g>
	<g>
		
			<rect x="144.5" y="180.1" transform="matrix(0.985 -0.1723 0.1723 0.985 -29.7495 28.0869)" class="st1" width="4.8" height="10.6"/>
	</g>
	<g>
		
			<rect x="211.8" y="164.5" transform="matrix(0.9851 -0.1722 0.1722 0.9851 -26.0382 39.4242)" class="st1" width="4.8" height="10.6"/>
	</g>
	<g>
		
			<rect x="279" y="148.8" transform="matrix(0.9851 -0.1723 0.1723 0.9851 -22.3416 50.7834)" class="st1" width="4.8" height="10.6"/>
	</g>
	<g>
		
			<rect x="346.3" y="133.2" transform="matrix(0.985 -0.1723 0.1723 0.985 -18.6468 62.1619)" class="st1" width="4.8" height="10.6"/>
	</g>
	<g>
		
			<rect x="413.6" y="117.5" transform="matrix(0.9851 -0.1722 0.1722 0.9851 -14.9372 73.4524)" class="st1" width="4.8" height="10.6"/>
	</g>
	<g>
		
			<rect x="480.8" y="101.9" transform="matrix(0.9851 -0.1722 0.1722 0.9851 -11.2395 84.8032)" class="st1" width="4.8" height="10.6"/>
	</g>
</g>
<g>
	<polygon class="st0" points="83.8,239.5 515.1,139 557.8,120.8 67.7,234.9 	"/>
	<path class="st9" d="M4.5,236.5c-1.3,0.3-1,2.2,0.3,2.2l58.3-2.7l494.7-115.2l-2.9-12.4L4.5,236.5z"/>
	
		<rect x="-5.7" y="157.8" transform="matrix(0.9738 -0.2273 0.2273 0.9738 -30.3133 67.3823)" class="st0" width="566.2" height="15"/>
	<g>
		<polygon class="st17" points="2.7,233.8 3.1,235.6 4.5,236.5 23.4,232.1 35.8,213.9 12.6,219.3 		"/>
		<polygon class="st17" points="45,227.1 68.2,221.7 80.6,203.5 57.3,208.9 		"/>
		<polygon class="st17" points="89.7,216.7 113,211.3 125.3,193.1 102.1,198.5 		"/>
		<polygon class="st17" points="134.5,206.3 157.8,200.9 170.1,182.6 146.9,188 		"/>
		<polygon class="st17" points="179.3,195.8 202.5,190.4 214.9,172.2 191.7,177.6 		"/>
		<polygon class="st17" points="224.1,185.4 247.3,180 259.7,161.8 236.5,167.2 		"/>
		<polygon class="st17" points="268.9,175 292.1,169.6 304.5,151.3 281.3,156.7 		"/>
		<polygon class="st17" points="313.7,164.5 336.9,159.1 349.3,140.9 326.1,146.3 		"/>
		<polygon class="st17" points="358.5,154.1 381.7,148.7 394.1,130.5 370.8,135.9 		"/>
		<polygon class="st17" points="403.3,143.7 426.5,138.3 438.8,120.1 415.6,125.5 		"/>
		<polygon class="st17" points="448,133.3 471.3,127.9 483.6,109.6 460.4,115 		"/>
		<polygon class="st17" points="492.8,122.8 516,117.4 528.4,99.2 505.2,104.6 		"/>
		<polygon class="st17" points="550,94.2 537.6,112.4 554.9,108.4 551.5,93.8 		"/>
	</g>
</g>
<polygon class="st0" points="159.6,234.7 120.1,245 123.4,263.6 66.1,292.5 92.9,292.5 155.3,265 324.8,247.3 324.8,231.4 
	162.5,249.1 "/>
<rect x="514.8" y="205.9" class="st0" width="237.2" height="49.1"/>
<polygon class="st0" points="475.3,155.4 483.5,153.7 486,144.4 463.6,149.6 "/>
<polygon class="st0" points="123.5,236 81.4,252.6 85.7,275.6 181.8,235.5 256.7,210.4 312.7,207.7 312.7,180.1 123.5,227.4 "/>
<path class="st9" d="M92,255c-2.8,0-5,2.2-5,5s2.2,5,5,5c2.8,0,5-2.2,5-5S94.8,255,92,255z"/>
<g>
	<rect x="241.9" y="204.9" class="st2" width="39.4" height="26.5"/>
	<path class="st18" d="M240.3,233h42.6v-29.7h-42.6V233z M243.5,206.5h36.2v23.3h-36.2V206.5z"/>
</g>
<g>
	<rect x="249.5" y="209.9" class="st18" width="2.8" height="16.5"/>
	<rect x="256.6" y="209.9" class="st18" width="2.8" height="16.5"/>
	<rect x="263.8" y="209.9" class="st18" width="2.8" height="16.5"/>
	<rect x="270.9" y="209.9" class="st18" width="2.8" height="16.5"/>
</g>
<path class="st9" d="M250.9,212.8c-1.3,0-2.4,1.1-2.4,2.4c0,1.3,1.1,2.4,2.4,2.4c1.3,0,2.4-1.1,2.4-2.4
	C253.3,213.8,252.2,212.8,250.9,212.8z"/>
<path class="st9" d="M258,219.2c-1.3,0-2.4,1.1-2.4,2.4c0,1.3,1.1,2.4,2.4,2.4c1.3,0,2.4-1.1,2.4-2.4
	C260.4,220.3,259.3,219.2,258,219.2z"/>
<path class="st9" d="M265.2,216.8c-1.3,0-2.4,1.1-2.4,2.4c0,1.3,1.1,2.4,2.4,2.4c1.3,0,2.4-1.1,2.4-2.4
	C267.6,217.9,266.5,216.8,265.2,216.8z"/>
<path class="st9" d="M272.3,211.3c-1.3,0-2.4,1.1-2.4,2.4c0,1.3,1.1,2.4,2.4,2.4c1.3,0,2.4-1.1,2.4-2.4
	C274.7,212.4,273.6,211.3,272.3,211.3z"/>
<g>
	<path class="st3" d="M879.2,34.1h-92.3v168.4h120l-0.1-1.7c0-0.2-1-20.1,18.4-30.9l0.9-0.5l-3.7-53.6L879.2,34.1z M903.6,199.3
		H790.1v-162h87.1l41.9,79.4l3.5,50.9C905.9,177.5,903.9,194,903.6,199.3z"/>
</g>
<g>
	<path class="st0" d="M909.2,42.1h-10.4c-1.6,0-2.9,1.3-2.9,2.9v32c0,1.6,1.3,2.9,2.9,2.9h10.4c1.6,0,2.9-1.3,2.9-2.9v-32
		C912,43.3,910.7,42.1,909.2,42.1z"/>
	<g>
		<path class="st0" d="M907,73.5c-1.3,0-2.4,1.1-2.4,2.4v17.9c0,3.2-2.6,5.9-5.9,5.9h-1.4c-1.3,0-2.4,1.1-2.4,2.4
			c0,1.3,1.1,2.4,2.4,2.4h1.4c5.9,0,10.7-4.8,10.7-10.7V75.9C909.4,74.6,908.4,73.5,907,73.5z"/>
	</g>
</g>
<path class="st0" d="M812.8,127.9h-10c-1.5,0-2.7,1.2-2.7,2.7v24.7c0,1.5,1.2,2.7,2.7,2.7h10c1.5,0,2.7-1.2,2.7-2.7v-24.7
	C815.4,129.1,814.2,127.9,812.8,127.9z"/>
<path class="st3" d="M1037.7,137.7c0,0-7.6-1.9-7,2c0.6,3.8,4.4,24.8,14,29l-4.4-25.8C1040.4,142.9,1040.7,140.5,1037.7,137.7z"/>
<rect x="754.4" y="29" class="st0" width="14" height="4.3"/>
<rect x="751.9" y="33.1" class="st9" width="18.5" height="216.1"/>
<polygon class="st1" points="751.4,29.8 770.8,29.8 773.4,20 748.8,20 "/>
<path class="st17" d="M766.6,5h-11.1c-3.1,0-5.6,2.5-5.6,5.6l-1.2,9.4h24.7l-1.2-9.4C772.3,7.5,769.8,5,766.6,5z"/>
<path class="st19" d="M755.6,5c-3.1,0-5.6,2.5-5.6,5.6l-1.2,9.4h7.3c3.8-5.3,9-9.8,14.6-13.3c-1-1.1-2.5-1.7-4.1-1.7H755.6z"/>
<g>
	<g>
		<g>
			<path class="st20" d="M658.8,124.5L656,95.1l-14.1-8.9l7.1,36.7l4.3,32.4l0,0l-1.9,7.5l-0.6,8.2c2,0.1,2.8-2.5,3.1-4.3
				c0.2-1.7,1.6-1.2,1.6-1.2s0.7,9.1,0.9,11.1c0.2,2,2.1,1.5,2.1,1.5l2.8-3.5l1.7-7.8l-2.7-12L658.8,124.5z"/>
			<path class="st21" d="M658.8,124.5L656,95.1l-14.1-8.9l7.1,36.7l3.4,25.6c1.6,0,3.2,0.9,4.1,2.9c3.9,8.6,3.5,17.8,1.8,26.8
				l2.8-3.5l1.7-7.8l-2.7-12L658.8,124.5z"/>
			<path class="st20" d="M585.5,151.1l-0.4,1.2l0,0l-6.3,10.7l-0.7,7.8l1.6,4.2c0,0,1.6,1,2.4-0.8c0.8-1.8,4.2-10.2,4.2-10.2
				s1.4-0.1,1.1,1.6c-0.3,1.7-0.3,4.4,1.6,4.9l1.9-8l0.5-7.8l0.8-1.6C589.7,153.4,587.2,152.6,585.5,151.1z"/>
			<path class="st21" d="M589.7,153c0,0.3-0.1,0.5-0.1,0.8c-0.1,0.6-0.3,2-0.3,2.2c0,4.7-0.4,9.5-1.1,14.2c0.2,0.2,0.4,0.3,0.7,0.4
				l1.9-8l0.5-7.8l0.8-1.6C591.3,153.2,590.5,153.2,589.7,153z"/>
			<path class="st22" d="M601.9,153.1l-0.6,23.7l7,107.3l9.4,0.9l4.7-109.3l2.2-0.1l12.5,108.4l9.4,0.9l0.1-110.4l-0.8-21.7
				C645.6,153,602.1,153.3,601.9,153.1z"/>
			<polygon class="st23" points="601.9,153.1 601.9,153.9 642.7,154.9 645.2,283.9 646.5,283.9 646.6,176.6 645.7,153 			"/>
			<polygon class="st23" points="643.8,131.2 644.6,104.4 643.2,98 642.7,104.7 640.8,131.1 642.7,152.9 645.7,153 645.5,147.9 			
				"/>
			<polygon class="st23" points="615.9,283.9 617.8,283.9 622.4,175.8 621.8,175.9 			"/>
			<path class="st24" d="M654.6,84.5L654.6,84.5c-0.6-1.4-2.5-5.6-8.1-7c0,0-22.9-8.6-22.9-8.6l-21.5,8.6c-5.6,1.4-7.6,5.6-8.1,7
				l0,0l-5,39.2l-4.8,29.6c0,0,7.1,1.2,7.4,1.5l7.7-26.4c0,0,3.5-16.1,3.5-19.2l0.4,21.8l-1.2,16.6h0l-0.3,12.7
				c14.8-0.2,29.6-0.2,44.5-0.2l-0.6-12.6l0,0l-1.7-16.4l0.9-26.6l4.4,21.8l4.1,27.8c2.3,0,4.7,0.1,7,0.1l-0.6-31.1L654.6,84.5z"/>
			<path class="st25" d="M645.5,147.6l-0.8-43c0,0,2.6-21,0.7-27.6c-4.5-1.7-21.8-8.2-21.8-8.2l-20.7,8.3c5.8,18.5,0,33,0,32.1
				l-0.8,38.4h0l-0.3,12.7c14.8-0.2,29.6-0.2,44.5-0.2L645.5,147.6L645.5,147.6z"/>
			<path class="st23" d="M602.4,106.7C602.5,106.6,602.5,106.6,602.4,106.7C602.5,106.6,602.4,106.6,602.4,106.7z"/>
			<path class="st23" d="M594.9,134.8c-1.6,6.4-3.2,12.8-5.4,19.4c0,0,2,0.4,2.1,0.5l7.7-26.4c0,0,3.5-16.1,3.5-19.2
				c0,0-0.4-2.1-0.4-2.6C602,108.4,594.9,134.8,594.9,134.8z"/>
			<path class="st23" d="M654.6,84.5L654.6,84.5c-0.6-1.4-2.5-5.6-8.1-7l-21.7-8.2c0,0,0-0.1,0-0.1c0,0,0,0,0-0.1l-0.1-0.1l-0.3,0.1
				L624,69l-0.1,0.1c0,0,0,0,0,0.1c0,0,0,0.1,0,0.1l-1,0.4c0.2,0.1,0.5,0.2,0.7,0.3c4,1.8,7.6,4.4,11.6,6.1
				c3.6,1.5,10.2,3.8,13.4,6.2c3,2.2,6.6,29.2,7.4,33.3c0.9,5.2,2.3,38.9,2.3,38.9c1,0,1,0,2,0l-0.6-31.1L654.6,84.5z"/>
			<path class="st20" d="M610.6,57.7c0,6.3,5.1,11.4,11.4,11.4c6.3,0,12.9-7.4,12.9-13.7l0.1-11.5h-24.5V57.7z"/>
			<path class="st20" d="M616.6,71.6c4.3,0.1,8.6,0.2,12.9-0.3c0.3,0,0.5,0,0.7,0V59.8h-13.6V71.6z"/>
			<path class="st24" d="M637.6,283.9l-6.6,4.4c-5.5,0.6-5.9,4.9-5.9,4.9H648c0.8-4.9-1.4-9.3-1.4-9.3H637.6z"/>
			<path class="st23" d="M645.2,283.9c0.3,0.8,0.5,1.7,0.5,2.6c0.1,2,0.2,3.9-0.4,5.8c-0.1,0.3-0.2,0.6-0.3,0.9h2.9
				c0.8-4.9-1.4-9.3-1.4-9.3H645.2z"/>
			<path class="st24" d="M607.9,283.9l-10.3,4.4c-5.5,0.6-5.9,4.9-5.9,4.9h27.5c0.8-4.9-1.4-9.3-1.4-9.3H607.9z"/>
			<path class="st23" d="M615.9,283.9c0.2,0.7,0.4,1.4,0.4,2.3c0.1,3-0.8,5.3-2.4,7h5.3c0.8-4.9-1.4-9.3-1.4-9.3H615.9z"/>
		</g>
		<path class="st26" d="M625.3,35h-17.5c0,8.7,2.8,8.9,2.8,8.9c2,0.5,2.6,2.3,2.8,3.7v9.7c0,5.8,4.7,10.5,10.5,10.5
			c5.8,0,11.9-6.8,11.9-12.6l0-0.2c0,0,0,0,0,0l0.3-11.2C636.1,33.6,625.3,35,625.3,35z"/>
		<path class="st20" d="M612.7,49.9l0.4,6.3c2.2,0,3-5.1,1.6-6.5C613.4,48.4,612.7,49.9,612.7,49.9z"/>
		<rect x="601.4" y="154.6" class="st24" width="44.9" height="6.2"/>
	</g>
	<g>
		<rect x="602.4" y="126.7" class="st27" width="42.7" height="4.6"/>
		<polygon class="st27" points="602.2,137.1 602.2,141.7 645.4,141.7 645.3,137.1 		"/>
		<path class="st27" d="M607.9,75.1c0,0,3.9,6.8,3.6,21.8v31.2h4.4V96.9c0,0,1.4-13.3-3.9-23.4L607.9,75.1z"/>
		<path class="st27" d="M637.9,87.5l-0.6,39.2h3.5c0,0,0.2-31.7,0.7-39.1c0,0,0.4-8.2,2.3-11.2l-3.5-1.3
			C637.7,82,637.9,87.5,637.9,87.5z"/>
	</g>
	<path class="st23" d="M645.5,147.6l-0.8-43c0,0,2.6-21,0.7-27.6c-0.5-0.2-1.1-0.4-1.9-0.7c0,0.1-1.6-0.8-1.6-0.7
		c-3,26.8-4.3,63.5-22.8,84.6c7.9,0,19.1,0,27,0L645.5,147.6L645.5,147.6z"/>
</g>
</svg>
