<?xml version="1.0" encoding="utf-8"?>
<!-- Generator: Adobe Illustrator 25.2.3, SVG Export Plug-In . SVG Version: 6.00 Build 0)  -->
<svg version="1.1" id="Layer_1" xmlns="http://www.w3.org/2000/svg" xmlns:xlink="http://www.w3.org/1999/xlink" x="0px" y="0px"
	 viewBox="0 0 1600 800" style="enable-background:new 0 0 1600 800;" xml:space="preserve">
<style type="text/css">
	.st0{fill:url(#SVGID_1_);}
	.st1{fill:#96D0EE;}
	.st2{fill:#A9BE89;}
	.st3{fill:#BBC4DD;}
	.st4{fill:#C5D5E7;}
	.st5{fill:#A3AFD2;}
	.st6{opacity:0.5;fill:#E9E7E7;}
	.st7{fill:#93AE6B;}
	.st8{fill:#785A54;}
	.st9{fill:#98AF79;}
	.st10{fill:#8BA468;}
	.st11{fill:#74876A;}
	.st12{fill:#CDCDCD;}
	.st13{fill:#F6E1B5;}
	.st14{fill:#FAF8F7;}
	.st15{fill:#FFFFFF;}
	.st16{opacity:0.7;fill:#FFFFFF;enable-background:new    ;}
	.st17{opacity:0.4;fill:#FFFFFF;enable-background:new    ;}
	.st18{opacity:0.5;fill:#FFFFFF;enable-background:new    ;}
</style>

<linearGradient id="SVGID_1_" gradientUnits="userSpaceOnUse" x1="800" y1="768.306" x2="800" y2="16.312">
	<stop  offset="5.586592e-03" style="stop-color:#ACCBEE"/>
	<stop  offset="1" style="stop-color:#E7F0FD"/>
</linearGradient>
<rect class="st0" width="1600" height="800"/>
<rect y="636.4" class="st1" width="1600" height="35.6"/>
<polygon class="st2" points="0,695 1600,695 1600,668 0,667.9 "/>
<g>
	<path class="st3" d="M1547.4,481.8h-7.1v37.1h-42.6v-3.4v-2v-0.7v-0.3v-3.8v-2V506v-0.3v-3.8v-2v-0.7v-0.3v-3.8v-2v-0.7v-0.3v-3.8
		v-2v-0.7v-0.3v-3.8v-2v-0.7v-0.3v-3.8v-2v-0.7v-0.3V468v-2v-0.7V465v-3.8v-2v-0.7v-0.3v-3.8v-2v-0.7v-0.3v-5.6v0h-6.2v-5.1h-4.4
		v-3.8l-8.1,3.4h-1v3.8h-18.5v5.1h-6.2v5.6v0.3v0.7v2v3.8v0.3v0.7v2v3.8v0.3v0.7v2v3.8v0.3v0.7v1.4l-25.6-7.8h-0.7l-32.1,9.8v-1.5
		h-2v-2h2v-2.4h-2v-2h2v-2.4h-2v-2h2v-2.4h-2v-2h2v-2.4h-2v-2h2v-2.4h-2v-2h2v-2.4h-2v-2h2v-2.4h-2v-2h2v-2.4h-2v-2h2v-2.4h-2v-2h2
		V434h-2v-3.5h-7.7v-11.2h-3.1v-11.4l-3.5,0.5v-2.7h-17.7v5.4l-3.5,0.5v7.7h-3.1v11.2h-6.9v3.5h-2.6v2.4h2.6v2h-2.6v2.4h2.6v2h-2.6
		v2.4h2.6v2h-2.6v2.4h2.6v2h-2.6v2.4h2.6v2h-2.6v2.4h2.6v2h-2.6v2.4h2.6v2h-2.6v2.4h2.6v2h-2.6v2.4h2.6v2h-2.6v2.4l-3.2,0.3v10.7
		h-42.3v-36.1h-8.6v-22.2h-0.1l-14-14.3h-3.4v-11.4h-0.1l-1.3-10.5h0l-1.3,10.5h-0.1v11.4h-3.4l-14,14.3h-0.1v22.2h-8.6v19.3h-39.6
		v-2.6v-2.2V462v-2.2v-3.5V454v-3.5v-2.2v-3.5v-2.2V439v-2.2v-3.5V431v-3.5v-2.2v-3.5v-14.5h-6.3c-0.2-2.5-2.6-4.5-5.5-4.5h-3.1
		v-12.2h-1.2v12.2h-3.1c-2.9,0-5.3,2-5.5,4.5h-6.3v41.2l-16.6,18.3v28h-28.7v-36.8h-9.2v-6.3h0.1c0.4,0,0.6-0.3,0.6-0.6
		c0-0.3-0.3-0.6-0.6-0.6h-0.1h-38.8h-0.1c-0.4,0-0.6,0.3-0.6,0.6c0,0.3,0.3,0.6,0.6,0.6h0.1v6.3h-9.2v56.6h-49.8v-23.2l-27.3-22.6
		v-54.2l-40.3-27.7v82h-27.3v-31.5h-46v-17.7h-5.8v17.7h-40.3v-20.1h-10.1v20.1h-15.8v-45.4h-47.5v63.1h-31.8v11.6v14v6.9h-50.8
		v-56.6h-9.2v-6.3h0.1c0.4,0,0.6-0.3,0.6-0.6c0-0.3-0.3-0.6-0.6-0.6h-0.1h-5.9v-10.1h-5.1l-5.9-4.6h-3l-0.8-14.9c0,0,0,0,0,0
		c-0.1,0-0.1,0-0.2,0l-0.8,14.9h-3l-5.9,4.6h-5.1v10.1h-3.2h-0.1c-0.4,0-0.6,0.3-0.6,0.6c0,0.3,0.3,0.6,0.6,0.6h0.1v6.3h-9.2v36.8
		h-28.7v-28L576,421.3v-41.2h-6.3c-0.2-2.5-2.6-4.5-5.5-4.5H561v-12.2h-1.2v12.2h-3.1c-2.9,0-5.3,2-5.5,4.5h-6.3v14.5v3.5v2.2v3.5
		v2.2v3.5v2.2v3.5v2.2v3.5v2.2v3.5v2.2v3.5v2.2v3.5v2.2v2.6h-39.6v-19.3h-8.6v-22.2h-0.1l-14-14.3h-3.4V376h-0.1l-1.3-10.5h0
		l-1.3,10.5h-0.1v11.4h-3.4l-14,14.3h-0.1v22.2h-8.6V460H408v-10.7h-3.5v1.7h-2.3v-2h2.6v-2.4h-2.6v-2h2.6v-2.4h-2.6v-2h2.6v-2.4
		h-2.6v-2h2.6v-2.4h-2.6v-2h2.6V429h-2.6v-2h2.6v-2.4h-2.6v-2h2.6v-2.4h-2.6v-2h2.6v-2.4h-2.6v-2h2.6v-2.4h-2.6v-2h2.6v-2.4h-2.6
		v-3.5h-6.9v-11.2h-3.1v-7.7l-3.5-0.5v-5.4h-17.7v2.7l-3.5-0.5v11.4h-3.1v11.2h-7.7v3.5h-2v2.4h2v2h-2v2.4h2v2h-2v2.4h2v2h-2v2.4h2
		v2h-2v2.4h2v2h-2v2.4h2v2h-2v2.4h2v2h-2v2.4h2v2h-2v2.4h2v2h-2v2.4h2v2h-2v1.5l-32.1-9.8h-0.7l-25.6,7.8v-1.4v-0.7v-0.3v-3.8v-2
		v-0.7v-0.3v-3.8v-2v-0.7v-0.3v-3.8v-2V428v-0.3v-5.6h-6.2V417h-18.5v-3.8h-1h-8.1v3.8h-4.4v5.1H252v0v5.6v0.3v0.7v2v3.8v0.3v0.7v2
		v3.8v0.3v0.7v2v3.8v0.3v0.7v2v3.8v0.3v0.7v2v3.8v0.3v0.7v2v3.8v0.3v0.7v2v3.8v0.3v0.7v2v3.8v0.3v0.7v2v3.8v0.3v0.7v2v3.4h-42.6
		v-37.1h-7.1v-6.8h-12.8v-11.4H187v11.4h-2.7v-17.4h-2.7v17.4h-56.1v6.8h-7.1v16.3H97.6v-37.8h-8.9l-0.1-7.5h-8.7v-6.6h0.1
		c0.4,0,0.7-0.3,0.7-0.6c0-0.3-0.3-0.6-0.7-0.6h-0.1l-15.6-12.5v-6.9h-3l-0.8-15.6c0,0,0,0,0,0c-0.1,0-0.1,0-0.2,0l-0.8,15.6h-3v6.9
		h0.2L41,421.2H41c-0.4,0-0.7,0.3-0.7,0.6c0,0.3,0.3,0.6,0.7,0.6H41v6.6h-9.8v7.5h-8.9v52.9H0v151.8h1600V475h-52.6V481.8z
		 M264.4,494h-7V488h7V494z M264.4,485.6h-7v-6.1h7V485.6z M264.4,477.1h-7V471h7V477.1z M264.4,468.7h-7v-6.1h7V468.7z
		 M264.4,460.2h-7v-6.1h7V460.2z M264.4,451.7h-7v-6.1h7V451.7z M264.4,443.3h-7v-6.1h7V443.3z M264.4,434.8h-7v-6.1h7V434.8z
		 M273.3,494h-7V488h7V494z M273.3,485.6h-7v-6.1h7V485.6z M273.3,477.1h-7V471h7V477.1z M273.3,468.7h-7v-6.1h7V468.7z
		 M273.3,460.2h-7v-6.1h7V460.2z M273.3,451.7h-7v-6.1h7V451.7z M273.3,443.3h-7v-6.1h7V443.3z M273.3,434.8h-7v-6.1h7V434.8z
		 M282.3,494h-7V488h7V494z M282.3,485.6h-7v-6.1h7V485.6z M282.3,477.1h-7V471h7V477.1z M282.3,468.7h-7v-6.1h7V468.7z
		 M282.3,460.2h-7v-6.1h7V460.2z M282.3,451.7h-7v-6.1h7V451.7z M282.3,443.3h-7v-6.1h7V443.3z M282.3,434.8h-7v-6.1h7V434.8z
		 M291.2,494h-7V488h7V494z M291.2,485.6h-7v-6.1h7V485.6z M291.2,477.1h-7V471h7V477.1z M291.2,468.7h-7v-6.1h7V468.7z
		 M291.2,460.2h-7v-6.1h7V460.2z M291.2,451.7h-7v-6.1h7V451.7z M291.2,443.3h-7v-6.1h7V443.3z M291.2,434.8h-7v-6.1h7V434.8z
		 M404.4,459.9h-2.3v-2h2.3V459.9z M404.4,455.5h-2.3v-2h2.3V455.5z M513.5,465.7h-6.7v-5.9h6.7V465.7z M513.5,458.1h-6.7v-5.9h6.7
		V458.1z M522.8,465.7h-6.7v-5.9h6.7V465.7z M522.8,458.1h-6.7v-5.9h6.7V458.1z M532,465.7h-6.7v-5.9h6.7V465.7z M532,458.1h-6.7
		v-5.9h6.7V458.1z M541.3,465.7h-6.7v-5.9h6.7V465.7z M541.3,458.1h-6.7v-5.9h6.7V458.1z M550.6,465.7h-6.7v-5.9h6.7V465.7z
		 M550.6,458.1h-6.7v-5.9h6.7V458.1z M559.8,465.7h-6.7v-5.9h6.7V465.7z M559.8,458.1h-6.7v-5.9h6.7V458.1z M569.1,465.7h-6.7v-5.9
		h6.7V465.7z M569.1,458.1h-6.7v-5.9h6.7V458.1z M578.4,465.7h-6.7v-5.9h6.7V465.7z M578.4,458.1h-6.7v-5.9h6.7V458.1z M587.6,465.7
		H581v-5.9h6.7V465.7z M587.6,458.1H581v-5.9h6.7V458.1z M653.3,485.2h-26.6v-6.1h26.6V485.2z M653.3,476.7h-26.6v-6.1h26.6V476.7z
		 M653.3,468.2h-26.6v-6.1h26.6V468.2z M653.3,459.8h-26.6v-6.1h26.6V459.8z M653.3,451.3h-26.6v-6.1h26.6V451.3z M653.3,442.8
		h-26.6v-6.1h26.6V442.8z M804.9,480.4H789v-14h15.9V480.4z M849.1,480.4h-15.9v-14h15.9V480.4z M871.3,480.4h-15.9v-14h15.9V480.4z
		 M893.4,480.4h-15.9v-14h15.9V480.4z M915.5,480.4h-15.9v-14h15.9V480.4z M989.2,509.4h-31.4v-7.3h31.4V509.4z M989.2,499.2h-31.4
		v-7.3h31.4V499.2z M989.2,489h-31.4v-7.3h31.4V489z M989.2,478.8h-31.4v-7.3h31.4V478.8z M989.2,468.6h-31.4v-7.3h31.4V468.6z
		 M989.2,458.4h-31.4v-7.3h31.4V458.4z M989.2,448.2h-31.4v-7.3h31.4V448.2z M989.2,438h-31.4v-7.3h31.4V438z M989.2,427.8h-31.4
		v-7.3h31.4V427.8z M1089.8,538.9h-7v-6.1h7V538.9z M1089.8,530.5h-7v-6.1h7V530.5z M1089.8,522h-7v-6.1h7V522z M1089.8,513.5h-7
		v-6.1h7V513.5z M1089.8,505.1h-7V499h7V505.1z M1089.8,496.6h-7v-6.1h7V496.6z M1089.8,488.1h-7v-6.1h7V488.1z M1089.8,479.7h-7
		v-6.1h7V479.7z M1089.8,471.2h-7v-6.1h7V471.2z M1098.8,538.9h-7v-6.1h7V538.9z M1098.8,530.5h-7v-6.1h7V530.5z M1098.8,522h-7
		v-6.1h7V522z M1098.8,513.5h-7v-6.1h7V513.5z M1098.8,505.1h-7V499h7V505.1z M1098.8,496.6h-7v-6.1h7V496.6z M1098.8,488.1h-7v-6.1
		h7V488.1z M1098.8,479.7h-7v-6.1h7V479.7z M1098.8,471.2h-7v-6.1h7V471.2z M1107.7,538.9h-7v-6.1h7V538.9z M1107.7,530.5h-7v-6.1h7
		V530.5z M1107.7,522h-7v-6.1h7V522z M1107.7,513.5h-7v-6.1h7V513.5z M1107.7,505.1h-7V499h7V505.1z M1107.7,496.6h-7v-6.1h7V496.6z
		 M1107.7,488.1h-7v-6.1h7V488.1z M1107.7,479.7h-7v-6.1h7V479.7z M1107.7,471.2h-7v-6.1h7V471.2z M1116.7,538.9h-7v-6.1h7V538.9z
		 M1116.7,530.5h-7v-6.1h7V530.5z M1116.7,522h-7v-6.1h7V522z M1116.7,513.5h-7v-6.1h7V513.5z M1116.7,505.1h-7V499h7V505.1z
		 M1116.7,496.6h-7v-6.1h7V496.6z M1116.7,488.1h-7v-6.1h7V488.1z M1116.7,479.7h-7v-6.1h7V479.7z M1116.7,471.2h-7v-6.1h7V471.2z
		 M1200.5,503.7h-8.4v-7.3h8.4V503.7z M1200.5,493.5h-8.4v-7.3h8.4V493.5z M1200.5,483.3h-8.4V476h8.4V483.3z M1200.5,473.1h-8.4
		v-7.3h8.4V473.1z M1200.5,462.9h-8.4v-7.3h8.4V462.9z M1200.5,452.7h-8.4v-7.3h8.4V452.7z M1200.5,442.5h-8.4v-7.3h8.4V442.5z
		 M1200.5,432.3h-8.4V425h8.4V432.3z M1200.5,422.1h-8.4v-7.3h8.4V422.1z M1270,507.8h-11.2v-6.1h11.2V507.8z M1270,499.3h-11.2
		v-6.1h11.2V499.3z M1270,490.9h-11.2v-6.1h11.2V490.9z M1270,482.4h-11.2v-6.1h11.2V482.4z M1270,473.9h-11.2v-6.1h11.2V473.9z
		 M1270,465.5h-11.2v-6.1h11.2V465.5z M1270,457h-11.2v-6.1h11.2V457z M1270,448.6h-11.2v-6.1h11.2V448.6z M1270,440.1h-11.2V434
		h11.2V440.1z M1284.4,507.8h-11.2v-6.1h11.2V507.8z M1284.4,499.3h-11.2v-6.1h11.2V499.3z M1284.4,490.9h-11.2v-6.1h11.2V490.9z
		 M1284.4,482.4h-11.2v-6.1h11.2V482.4z M1284.4,473.9h-11.2v-6.1h11.2V473.9z M1284.4,465.5h-11.2v-6.1h11.2V465.5z M1284.4,457
		h-11.2v-6.1h11.2V457z M1284.4,448.6h-11.2v-6.1h11.2V448.6z M1284.4,440.1h-11.2V434h11.2V440.1z M1465.8,528.2h-7v-6.1h7V528.2z
		 M1465.8,519.7h-7v-6.1h7V519.7z M1465.8,511.3h-7v-6.1h7V511.3z M1465.8,502.8h-7v-6.1h7V502.8z M1465.8,494.3h-7v-6.1h7V494.3z
		 M1465.8,485.9h-7v-6.1h7V485.9z M1465.8,477.4h-7v-6.1h7V477.4z M1465.8,469h-7v-6.1h7V469z M1465.8,460.5h-7v-6.1h7V460.5z
		 M1474.7,528.2h-7v-6.1h7V528.2z M1474.7,519.7h-7v-6.1h7V519.7z M1474.7,511.3h-7v-6.1h7V511.3z M1474.7,502.8h-7v-6.1h7V502.8z
		 M1474.7,494.3h-7v-6.1h7V494.3z M1474.7,485.9h-7v-6.1h7V485.9z M1474.7,477.4h-7v-6.1h7V477.4z M1474.7,469h-7v-6.1h7V469z
		 M1474.7,460.5h-7v-6.1h7V460.5z M1492.6,524.8h-7v-6.1h7V524.8z M1492.6,516.3h-7v-6.1h7V516.3z M1492.6,507.9h-7v-6.1h7V507.9z
		 M1492.6,499.4h-7v-6.1h7V499.4z M1492.6,490.9h-7v-6.1h7V490.9z M1492.6,482.5h-7v-6.1h7V482.5z M1492.6,474h-7v-6.1h7V474z
		 M1492.6,465.6h-7v-6.1h7V465.6z M1492.6,457.1h-7V451h7V457.1z"/>
	<rect x="789" y="466.4" class="st4" width="15.9" height="14"/>
	<rect x="833.2" y="466.4" class="st4" width="15.9" height="14"/>
	<rect x="855.4" y="466.4" class="st4" width="15.9" height="14"/>
	<rect x="877.5" y="466.4" class="st4" width="15.9" height="14"/>
	<rect x="899.6" y="466.4" class="st4" width="15.9" height="14"/>
	<rect x="1192.1" y="414.8" class="st4" width="8.4" height="7.3"/>
	<rect x="1192.1" y="425" class="st4" width="8.4" height="7.3"/>
	<rect x="1192.1" y="435.2" class="st4" width="8.4" height="7.3"/>
	<rect x="1192.1" y="445.4" class="st4" width="8.4" height="7.3"/>
	<rect x="1192.1" y="455.6" class="st4" width="8.4" height="7.3"/>
	<rect x="1192.1" y="465.8" class="st4" width="8.4" height="7.3"/>
	<rect x="1192.1" y="476" class="st4" width="8.4" height="7.3"/>
	<rect x="1192.1" y="486.2" class="st4" width="8.4" height="7.3"/>
	<rect x="1192.1" y="496.4" class="st4" width="8.4" height="7.3"/>
	<rect x="1109.7" y="465.1" class="st4" width="7" height="6.1"/>
	<rect x="1109.7" y="473.6" class="st4" width="7" height="6.1"/>
	<rect x="1109.7" y="482.1" class="st4" width="7" height="6.1"/>
	<rect x="1109.7" y="490.5" class="st4" width="7" height="6.1"/>
	<rect x="1109.7" y="499" class="st4" width="7" height="6.1"/>
	<rect x="1109.7" y="507.5" class="st4" width="7" height="6.1"/>
	<rect x="1109.7" y="515.9" class="st4" width="7" height="6.1"/>
	<rect x="1109.7" y="524.4" class="st4" width="7" height="6.1"/>
	<rect x="1109.7" y="532.8" class="st4" width="7" height="6.1"/>
	<rect x="1100.8" y="465.1" class="st4" width="7" height="6.1"/>
	<rect x="1100.8" y="473.6" class="st4" width="7" height="6.1"/>
	<rect x="1100.8" y="482.1" class="st4" width="7" height="6.1"/>
	<rect x="1100.8" y="490.5" class="st4" width="7" height="6.1"/>
	<rect x="1100.8" y="499" class="st4" width="7" height="6.1"/>
	<rect x="1100.8" y="507.5" class="st4" width="7" height="6.1"/>
	<rect x="1100.8" y="515.9" class="st4" width="7" height="6.1"/>
	<rect x="1100.8" y="524.4" class="st4" width="7" height="6.1"/>
	<rect x="1100.8" y="532.8" class="st4" width="7" height="6.1"/>
	<rect x="1091.8" y="465.1" class="st4" width="7" height="6.1"/>
	<rect x="1091.8" y="473.6" class="st4" width="7" height="6.1"/>
	<rect x="1091.8" y="482.1" class="st4" width="7" height="6.1"/>
	<rect x="1091.8" y="490.5" class="st4" width="7" height="6.1"/>
	<rect x="1091.8" y="499" class="st4" width="7" height="6.1"/>
	<rect x="1091.8" y="507.5" class="st4" width="7" height="6.1"/>
	<rect x="1091.8" y="515.9" class="st4" width="7" height="6.1"/>
	<rect x="1091.8" y="524.4" class="st4" width="7" height="6.1"/>
	<rect x="1091.8" y="532.8" class="st4" width="7" height="6.1"/>
	<rect x="1082.9" y="465.1" class="st4" width="7" height="6.1"/>
	<rect x="1082.9" y="473.6" class="st4" width="7" height="6.1"/>
	<rect x="1082.9" y="482.1" class="st4" width="7" height="6.1"/>
	<rect x="1082.9" y="490.5" class="st4" width="7" height="6.1"/>
	<rect x="1082.9" y="499" class="st4" width="7" height="6.1"/>
	<rect x="1082.9" y="507.5" class="st4" width="7" height="6.1"/>
	<rect x="1082.9" y="515.9" class="st4" width="7" height="6.1"/>
	<rect x="1082.9" y="524.4" class="st4" width="7" height="6.1"/>
	<rect x="1082.9" y="532.8" class="st4" width="7" height="6.1"/>
	<rect x="284.2" y="428.7" class="st4" width="7" height="6.1"/>
	<rect x="284.2" y="437.2" class="st4" width="7" height="6.1"/>
	<rect x="284.2" y="445.6" class="st4" width="7" height="6.1"/>
	<rect x="284.2" y="454.1" class="st4" width="7" height="6.1"/>
	<rect x="284.2" y="462.6" class="st4" width="7" height="6.1"/>
	<rect x="284.2" y="471" class="st4" width="7" height="6.1"/>
	<rect x="284.2" y="479.5" class="st4" width="7" height="6.1"/>
	<rect x="284.2" y="488" class="st4" width="7" height="6.1"/>
	<rect x="275.3" y="428.7" class="st4" width="7" height="6.1"/>
	<rect x="275.3" y="437.2" class="st4" width="7" height="6.1"/>
	<rect x="275.3" y="445.6" class="st4" width="7" height="6.1"/>
	<rect x="275.3" y="454.1" class="st4" width="7" height="6.1"/>
	<rect x="275.3" y="462.6" class="st4" width="7" height="6.1"/>
	<rect x="275.3" y="471" class="st4" width="7" height="6.1"/>
	<rect x="275.3" y="479.5" class="st4" width="7" height="6.1"/>
	<rect x="275.3" y="488" class="st4" width="7" height="6.1"/>
	<rect x="266.4" y="428.7" class="st4" width="7" height="6.1"/>
	<rect x="266.4" y="437.2" class="st4" width="7" height="6.1"/>
	<rect x="266.4" y="445.6" class="st4" width="7" height="6.1"/>
	<rect x="266.4" y="454.1" class="st4" width="7" height="6.1"/>
	<rect x="266.4" y="462.6" class="st4" width="7" height="6.1"/>
	<rect x="266.4" y="471" class="st4" width="7" height="6.1"/>
	<rect x="266.4" y="479.5" class="st4" width="7" height="6.1"/>
	<rect x="266.4" y="488" class="st4" width="7" height="6.1"/>
	<rect x="257.4" y="428.7" class="st4" width="7" height="6.1"/>
	<rect x="257.4" y="437.2" class="st4" width="7" height="6.1"/>
	<rect x="257.4" y="445.6" class="st4" width="7" height="6.1"/>
	<rect x="257.4" y="454.1" class="st4" width="7" height="6.1"/>
	<rect x="257.4" y="462.6" class="st4" width="7" height="6.1"/>
	<rect x="257.4" y="471" class="st4" width="7" height="6.1"/>
	<rect x="257.4" y="479.5" class="st4" width="7" height="6.1"/>
	<rect x="257.4" y="488" class="st4" width="7" height="6.1"/>
	<rect x="626.7" y="436.8" class="st4" width="26.6" height="6.1"/>
	<rect x="626.7" y="445.2" class="st4" width="26.6" height="6.1"/>
	<rect x="626.7" y="453.7" class="st4" width="26.6" height="6.1"/>
	<rect x="626.7" y="462.2" class="st4" width="26.6" height="6.1"/>
	<rect x="626.7" y="470.6" class="st4" width="26.6" height="6.1"/>
	<rect x="626.7" y="479.1" class="st4" width="26.6" height="6.1"/>
	<rect x="1485.7" y="451" class="st4" width="7" height="6.1"/>
	<rect x="1485.7" y="459.5" class="st4" width="7" height="6.1"/>
	<rect x="1485.7" y="467.9" class="st4" width="7" height="6.1"/>
	<rect x="1485.7" y="476.4" class="st4" width="7" height="6.1"/>
	<rect x="1485.7" y="484.9" class="st4" width="7" height="6.1"/>
	<rect x="1485.7" y="493.3" class="st4" width="7" height="6.1"/>
	<rect x="1485.7" y="501.8" class="st4" width="7" height="6.1"/>
	<rect x="1485.7" y="510.2" class="st4" width="7" height="6.1"/>
	<rect x="1485.7" y="518.7" class="st4" width="7" height="6.1"/>
	<rect x="1467.8" y="454.4" class="st4" width="7" height="6.1"/>
	<rect x="1467.8" y="462.9" class="st4" width="7" height="6.1"/>
	<rect x="1467.8" y="471.3" class="st4" width="7" height="6.1"/>
	<rect x="1467.8" y="479.8" class="st4" width="7" height="6.1"/>
	<rect x="1467.8" y="488.3" class="st4" width="7" height="6.1"/>
	<rect x="1467.8" y="496.7" class="st4" width="7" height="6.1"/>
	<rect x="1467.8" y="505.2" class="st4" width="7" height="6.1"/>
	<rect x="1467.8" y="513.7" class="st4" width="7" height="6.1"/>
	<rect x="1467.8" y="522.1" class="st4" width="7" height="6.1"/>
	<rect x="1458.8" y="454.4" class="st4" width="7" height="6.1"/>
	<rect x="1458.8" y="462.9" class="st4" width="7" height="6.1"/>
	<rect x="1458.8" y="471.3" class="st4" width="7" height="6.1"/>
	<rect x="1458.8" y="479.8" class="st4" width="7" height="6.1"/>
	<rect x="1458.8" y="488.3" class="st4" width="7" height="6.1"/>
	<rect x="1458.8" y="496.7" class="st4" width="7" height="6.1"/>
	<rect x="1458.8" y="505.2" class="st4" width="7" height="6.1"/>
	<rect x="1458.8" y="513.7" class="st4" width="7" height="6.1"/>
	<rect x="1458.8" y="522.1" class="st4" width="7" height="6.1"/>
	<rect x="1273.2" y="434" class="st4" width="11.2" height="6.1"/>
	<rect x="1273.2" y="442.5" class="st4" width="11.2" height="6.1"/>
	<rect x="1273.2" y="450.9" class="st4" width="11.2" height="6.1"/>
	<rect x="1273.2" y="459.4" class="st4" width="11.2" height="6.1"/>
	<rect x="1273.2" y="467.9" class="st4" width="11.2" height="6.1"/>
	<rect x="1273.2" y="476.3" class="st4" width="11.2" height="6.1"/>
	<rect x="1273.2" y="484.8" class="st4" width="11.2" height="6.1"/>
	<rect x="1273.2" y="493.2" class="st4" width="11.2" height="6.1"/>
	<rect x="1273.2" y="501.7" class="st4" width="11.2" height="6.1"/>
	<rect x="1258.8" y="434" class="st4" width="11.2" height="6.1"/>
	<rect x="1258.8" y="442.5" class="st4" width="11.2" height="6.1"/>
	<rect x="1258.8" y="450.9" class="st4" width="11.2" height="6.1"/>
	<rect x="1258.8" y="459.4" class="st4" width="11.2" height="6.1"/>
	<rect x="1258.8" y="467.9" class="st4" width="11.2" height="6.1"/>
	<rect x="1258.8" y="476.3" class="st4" width="11.2" height="6.1"/>
	<rect x="1258.8" y="484.8" class="st4" width="11.2" height="6.1"/>
	<rect x="1258.8" y="493.2" class="st4" width="11.2" height="6.1"/>
	<rect x="1258.8" y="501.7" class="st4" width="11.2" height="6.1"/>
	<rect x="581" y="459.8" class="st4" width="6.7" height="5.9"/>
	<rect x="571.7" y="459.8" class="st4" width="6.7" height="5.9"/>
	<rect x="562.4" y="459.8" class="st4" width="6.7" height="5.9"/>
	<rect x="553.2" y="459.8" class="st4" width="6.7" height="5.9"/>
	<rect x="543.9" y="459.8" class="st4" width="6.7" height="5.9"/>
	<rect x="534.6" y="459.8" class="st4" width="6.7" height="5.9"/>
	<rect x="525.4" y="459.8" class="st4" width="6.7" height="5.9"/>
	<rect x="516.1" y="459.8" class="st4" width="6.7" height="5.9"/>
	<rect x="506.8" y="459.8" class="st4" width="6.7" height="5.9"/>
	<rect x="581" y="452.3" class="st4" width="6.7" height="5.9"/>
	<rect x="571.7" y="452.3" class="st4" width="6.7" height="5.9"/>
	<rect x="562.4" y="452.3" class="st4" width="6.7" height="5.9"/>
	<rect x="553.2" y="452.3" class="st4" width="6.7" height="5.9"/>
	<rect x="543.9" y="452.3" class="st4" width="6.7" height="5.9"/>
	<rect x="534.6" y="452.3" class="st4" width="6.7" height="5.9"/>
	<rect x="525.4" y="452.3" class="st4" width="6.7" height="5.9"/>
	<rect x="516.1" y="452.3" class="st4" width="6.7" height="5.9"/>
	<rect x="506.8" y="452.3" class="st4" width="6.7" height="5.9"/>
	<rect x="957.9" y="420.5" class="st4" width="31.4" height="7.3"/>
	<rect x="957.9" y="430.7" class="st4" width="31.4" height="7.3"/>
	<rect x="957.9" y="440.9" class="st4" width="31.4" height="7.3"/>
	<rect x="957.9" y="451.1" class="st4" width="31.4" height="7.3"/>
	<rect x="957.9" y="461.3" class="st4" width="31.4" height="7.3"/>
	<rect x="957.9" y="471.5" class="st4" width="31.4" height="7.3"/>
	<rect x="957.9" y="481.7" class="st4" width="31.4" height="7.3"/>
	<rect x="957.9" y="491.9" class="st4" width="31.4" height="7.3"/>
	<rect x="957.9" y="502.1" class="st4" width="31.4" height="7.3"/>
</g>
<g>
	<path class="st5" d="M1577.7,488.8h-8.9v-7.5h-9.8v-6.6h0.1c0.4,0,0.7-0.3,0.7-0.6c0-0.3-0.3-0.6-0.7-0.6h-0.1l-15.6-12.5h0.2v-6.9
		h-3l-0.8-15.6c-0.1,0-0.1,0-0.2,0c0,0,0,0,0,0l-0.8,15.6h-3v6.9l-15.6,12.5h-0.1c-0.4,0-0.7,0.3-0.7,0.6c0,0.3,0.3,0.6,0.7,0.6h0.1
		v6.6h-8.7l-0.1,7.5h-8.9v58.4l-111.9,0.3h-42.6V544v-2v-0.7v-0.3v-3.8v-2v-0.7v-0.3v-3.8v-2v-0.7v-0.3v-3.8v-2V521v-0.3v-3.8v-2
		v-0.7v-0.3v-3.8v-2v-0.7v-0.3v-3.8v-2v-0.7v-0.3v-3.8v-2v-0.7v-0.3v-3.8v-2v-0.7v-0.3V483v-2v-0.7V480v-5.6v0h-6.2v-5.1h-4.4v-3.8
		h-8.1h-1v3.8H1310v5.1h-6.2v5.6v0.3v0.7v2v3.8v0.3v0.7v2v3.8v0.3v0.7v2v3.8v0.3v0.7v1.4l-25.6-7.8h-0.7l-32.1,9.8v-1.5h-2v-2h2
		v-2.4h-2v-2h2v-2.4h-2v-2h2v-2.4h-2v-2h2v-2.4h-2v-2h2v-2.4h-2v-2h2v-2.4h-2v-2h2v-2.4h-2v-2h2V468h-2v-2h2v-2.4h-2v-2h2v-2.4h-2
		v-3.5h-7.7v-11.2h-3.1V433l-3.5,0.5v-2.7h-17.7v5.4l-3.5,0.5v7.7h-3.1v11.2h-6.9v3.5h-2.6v2.4h2.6v2h-2.6v2.4h2.6v2h-2.6v2.4h2.6v2
		h-2.6v2.4h2.6v2h-2.6v2.4h2.6v2h-2.6v2.4h2.6v2h-2.6v2.4h2.6v2h-2.6v2.4h2.6v2h-2.6v2.4h2.6v2h-2.6v2.4h2.6v2h-2.3v-1.7h-3.5v10.7
		h-42.3v-36.1h-8.6V454h-0.1l-14-14.3h-3.4v-11.4h-0.1l-1.3-10.5h0l-1.3,10.5h-0.1v11.4h-3.4l-14,14.3h-0.1v22.2h-8.6v19.3h-39.6
		v-2.6v-2.2v-3.5v-2.2v-3.5v-2.2v-3.5v-2.2v-3.5v-2.2v-3.5v-2.2v-3.5v-2.2v-3.5v-2.2v-3.5v-14.5h-6.3c-0.2-2.5-2.6-4.5-5.5-4.5h-3.1
		v-12.2h-1.2v12.2h-3.1c-2.9,0-5.3,2-5.5,4.5h-6.3v41.2l-16.6,18.3v28h-28.7v-36.8h-9.2v-6.3h0.1c0.4,0,0.6-0.3,0.6-0.6
		c0-0.3-0.3-0.6-0.6-0.6h-0.1h-3.2v-10.1h-5.1l-5.9-4.6h-3l-0.8-14.9c-0.1,0-0.1,0-0.2,0c0,0,0,0,0,0l-0.8,14.9h-3l-5.9,4.6h-5.1
		v10.1h-5.9h-0.1c-0.4,0-0.6,0.3-0.6,0.6c0,0.3,0.3,0.6,0.6,0.6h0.1v6.3h-9.2v56.6h-50.8v-6.9v-14v-11.6H839V444h-47.5v45.4h-15.8
		v-20.1h-10.1v20.1h-40.3v-17.7h-5.8v17.7h-46V521h-27.3v-82h-40.3v82l-27.3,22.6v23.2h-49.8v-56.6h-9.2v-6.3h0.1
		c0.4,0,0.6-0.3,0.6-0.6s-0.3-0.6-0.6-0.6h-0.1h-38.8h-0.1c-0.4,0-0.6,0.3-0.6,0.6s0.3,0.6,0.6,0.6h0.1v6.3h-9.2V547h-28.7v-28
		l-16.6-18.3v-41.2h-6.3c-0.2-2.5-2.6-4.5-5.5-4.5h-3.1v-12.2h-1.2V455H407c-2.9,0-5.3,2-5.5,4.5h-6.3V474v3.5v2.2v3.5v2.2v3.5v2.2
		v3.5v2.2v3.5v2.2v3.5v2.2v3.5v2.2v3.5v2.2v2.6h-39.6v-19.3h-8.6v-22.2h-0.1l-14-14.3h-3.4v-11.4h-0.1l-1.3-10.5h0l-1.3,10.5h-0.1
		v11.4h-3.4l-14,14.3h-0.1v22.2h-8.6v36.1h-42.3v-10.7l-3.2-0.3V526h-2.6v-2h2.6v-2.4h-2.6v-2h2.6v-2.4h-2.6v-2h2.6v-2.4h-2.6v-2
		h2.6v-2.4h-2.6v-2h2.6v-2.4h-2.6v-2h2.6v-2.4h-2.6v-2h2.6v-2.4h-2.6v-2h2.6v-2.4h-2.6v-2h2.6v-2.4h-2.6v-3.5h-6.9v-11.2h-3.1v-7.7
		l-3.5-0.5V458h-17.7v2.7l-3.5-0.5v11.4h-3.1v11.2h-7.7v3.5h-2v2.4h2v2h-2v2.4h2v2h-2v2.4h2v2h-2v2.4h2v2h-2v2.4h2v2h-2v2.4h2v2h-2
		v2.4h2v2h-2v2.4h2v2h-2v2.4h2v2h-2v2.4h2v2h-2v1.5l-32.1-9.8h-0.7l-25.6,7.8v-1.4v-0.7v-0.3v-3.8v-2V521v-0.3v-3.8v-2v-0.7v-0.3
		v-3.8v-2v-0.7v-0.3v-5.6h-6.2v-5.1h-18.5v-3.8h-1l-8.1-3.4v3.8h-4.4v5.1h-6.2v0v5.6v0.3v0.7v2v3.8v0.3v0.7v2v3.8v0.3v0.7v2v3.8v0.3
		v0.7v2v3.8v0.3v0.7v2v3.8v0.3v0.7v2v3.8v0.3v0.7v2v3.8v0.3v0.7v2v3.8v0.3v0.7v2v3.8v0.3v0.7v2v3.4H59.7v-37.1h-7.1v-6.8H0v127h1600
		V541.7h-22.3V488.8z M114.4,577.1h-7V571h7V577.1z M114.4,568.6h-7v-6.1h7V568.6z M114.4,560.1h-7v-6.1h7V560.1z M114.4,551.7h-7
		v-6.1h7V551.7z M114.4,543.2h-7v-6.1h7V543.2z M114.4,534.8h-7v-6.1h7V534.8z M114.4,526.3h-7v-6.1h7V526.3z M114.4,517.8h-7v-6.1
		h7V517.8z M114.4,509.4h-7v-6.1h7V509.4z M132.3,580.5h-7v-6.1h7V580.5z M132.3,572h-7v-6.1h7V572z M132.3,563.5h-7v-6.1h7V563.5z
		 M132.3,555.1h-7V549h7V555.1z M132.3,546.6h-7v-6.1h7V546.6z M132.3,538.2h-7v-6.1h7V538.2z M132.3,529.7h-7v-6.1h7V529.7z
		 M132.3,521.2h-7v-6.1h7V521.2z M132.3,512.8h-7v-6.1h7V512.8z M141.3,580.5h-7v-6.1h7V580.5z M141.3,572h-7v-6.1h7V572z
		 M141.3,563.5h-7v-6.1h7V563.5z M141.3,555.1h-7V549h7V555.1z M141.3,546.6h-7v-6.1h7V546.6z M141.3,538.2h-7v-6.1h7V538.2z
		 M141.3,529.7h-7v-6.1h7V529.7z M141.3,521.2h-7v-6.1h7V521.2z M141.3,512.8h-7v-6.1h7V512.8z M326.8,560.1h-11.2V554h11.2V560.1z
		 M326.8,551.6h-11.2v-6.1h11.2V551.6z M326.8,543.1h-11.2v-6.1h11.2V543.1z M326.8,534.7h-11.2v-6.1h11.2V534.7z M326.8,526.2
		h-11.2v-6.1h11.2V526.2z M326.8,517.8h-11.2v-6.1h11.2V517.8z M326.8,509.3h-11.2v-6.1h11.2V509.3z M326.8,500.8h-11.2v-6.1h11.2
		V500.8z M326.8,492.4h-11.2v-6.1h11.2V492.4z M341.2,560.1H330V554h11.2V560.1z M341.2,551.6H330v-6.1h11.2V551.6z M341.2,543.1
		H330v-6.1h11.2V543.1z M341.2,534.7H330v-6.1h11.2V534.7z M341.2,526.2H330v-6.1h11.2V526.2z M341.2,517.8H330v-6.1h11.2V517.8z
		 M341.2,509.3H330v-6.1h11.2V509.3z M341.2,500.8H330v-6.1h11.2V500.8z M341.2,492.4H330v-6.1h11.2V492.4z M407.9,556h-8.4v-7.3
		h8.4V556z M407.9,545.8h-8.4v-7.3h8.4V545.8z M407.9,535.6h-8.4v-7.3h8.4V535.6z M407.9,525.4h-8.4v-7.3h8.4V525.4z M407.9,515.2
		h-8.4v-7.3h8.4V515.2z M407.9,505h-8.4v-7.3h8.4V505z M407.9,494.8h-8.4v-7.3h8.4V494.8z M407.9,484.6h-8.4v-7.3h8.4V484.6z
		 M407.9,474.4h-8.4v-7.3h8.4V474.4z M490.4,591.2h-7v-6.1h7V591.2z M490.4,582.7h-7v-6.1h7V582.7z M490.4,574.3h-7v-6.1h7V574.3z
		 M490.4,565.8h-7v-6.1h7V565.8z M490.4,557.3h-7v-6.1h7V557.3z M490.4,548.9h-7v-6.1h7V548.9z M490.4,540.4h-7v-6.1h7V540.4z
		 M490.4,532h-7v-6.1h7V532z M490.4,523.5h-7v-6.1h7V523.5z M499.3,591.2h-7v-6.1h7V591.2z M499.3,582.7h-7v-6.1h7V582.7z
		 M499.3,574.3h-7v-6.1h7V574.3z M499.3,565.8h-7v-6.1h7V565.8z M499.3,557.3h-7v-6.1h7V557.3z M499.3,548.9h-7v-6.1h7V548.9z
		 M499.3,540.4h-7v-6.1h7V540.4z M499.3,532h-7v-6.1h7V532z M499.3,523.5h-7v-6.1h7V523.5z M508.3,591.2h-7v-6.1h7V591.2z
		 M508.3,582.7h-7v-6.1h7V582.7z M508.3,574.3h-7v-6.1h7V574.3z M508.3,565.8h-7v-6.1h7V565.8z M508.3,557.3h-7v-6.1h7V557.3z
		 M508.3,548.9h-7v-6.1h7V548.9z M508.3,540.4h-7v-6.1h7V540.4z M508.3,532h-7v-6.1h7V532z M508.3,523.5h-7v-6.1h7V523.5z
		 M517.2,591.2h-7v-6.1h7V591.2z M517.2,582.7h-7v-6.1h7V582.7z M517.2,574.3h-7v-6.1h7V574.3z M517.2,565.8h-7v-6.1h7V565.8z
		 M517.2,557.3h-7v-6.1h7V557.3z M517.2,548.9h-7v-6.1h7V548.9z M517.2,540.4h-7v-6.1h7V540.4z M517.2,532h-7v-6.1h7V532z
		 M517.2,523.5h-7v-6.1h7V523.5z M642.2,561.7h-31.4v-7.3h31.4V561.7z M642.2,551.5h-31.4v-7.3h31.4V551.5z M642.2,541.3h-31.4v-7.3
		h31.4V541.3z M642.2,531.1h-31.4v-7.3h31.4V531.1z M642.2,520.9h-31.4v-7.3h31.4V520.9z M642.2,510.7h-31.4v-7.3h31.4V510.7z
		 M642.2,500.5h-31.4v-7.3h31.4V500.5z M642.2,490.3h-31.4V483h31.4V490.3z M642.2,480.1h-31.4v-7.3h31.4V480.1z M700.5,532.7h-15.9
		v-14h15.9V532.7z M722.6,532.7h-15.9v-14h15.9V532.7z M744.7,532.7h-15.9v-14h15.9V532.7z M766.8,532.7h-15.9v-14h15.9V532.7z
		 M811.1,532.7h-15.9v-14h15.9V532.7z M1019.1,517.9h-6.7v-5.9h6.7V517.9z M1019.1,510.4h-6.7v-5.9h6.7V510.4z M1028.3,517.9h-6.7
		v-5.9h6.7V517.9z M1028.3,510.4h-6.7v-5.9h6.7V510.4z M1037.6,517.9h-6.7v-5.9h6.7V517.9z M1037.6,510.4h-6.7v-5.9h6.7V510.4z
		 M1046.9,517.9h-6.7v-5.9h6.7V517.9z M1046.9,510.4h-6.7v-5.9h6.7V510.4z M1056.2,517.9h-6.7v-5.9h6.7V517.9z M1056.2,510.4h-6.7
		v-5.9h6.7V510.4z M1065.4,517.9h-6.7v-5.9h6.7V517.9z M1065.4,510.4h-6.7v-5.9h6.7V510.4z M1074.7,517.9h-6.7v-5.9h6.7V517.9z
		 M1074.7,510.4h-6.7v-5.9h6.7V510.4z M1084,517.9h-6.7v-5.9h6.7V517.9z M1084,510.4h-6.7v-5.9h6.7V510.4z M1093.2,517.9h-6.7v-5.9
		h6.7V517.9z M1093.2,510.4h-6.7v-5.9h6.7V510.4z M1197.9,512.2h-2.3v-2h2.3V512.2z M1197.9,507.7h-2.3v-2h2.3V507.7z M1315.8,546.3
		h-7v-6.1h7V546.3z M1315.8,537.9h-7v-6.1h7V537.9z M1315.8,529.4h-7v-6.1h7V529.4z M1315.8,520.9h-7v-6.1h7V520.9z M1315.8,512.5
		h-7v-6.1h7V512.5z M1315.8,504h-7v-6.1h7V504z M1315.8,495.5h-7v-6.1h7V495.5z M1315.8,487.1h-7V481h7V487.1z M1324.8,546.3h-7
		v-6.1h7V546.3z M1324.8,537.9h-7v-6.1h7V537.9z M1324.8,529.4h-7v-6.1h7V529.4z M1324.8,520.9h-7v-6.1h7V520.9z M1324.8,512.5h-7
		v-6.1h7V512.5z M1324.8,504h-7v-6.1h7V504z M1324.8,495.5h-7v-6.1h7V495.5z M1324.8,487.1h-7V481h7V487.1z M1333.7,546.3h-7v-6.1h7
		V546.3z M1333.7,537.9h-7v-6.1h7V537.9z M1333.7,529.4h-7v-6.1h7V529.4z M1333.7,520.9h-7v-6.1h7V520.9z M1333.7,512.5h-7v-6.1h7
		V512.5z M1333.7,504h-7v-6.1h7V504z M1333.7,495.5h-7v-6.1h7V495.5z M1333.7,487.1h-7V481h7V487.1z M1342.7,546.3h-7v-6.1h7V546.3z
		 M1342.7,537.9h-7v-6.1h7V537.9z M1342.7,529.4h-7v-6.1h7V529.4z M1342.7,520.9h-7v-6.1h7V520.9z M1342.7,512.5h-7v-6.1h7V512.5z
		 M1342.7,504h-7v-6.1h7V504z M1342.7,495.5h-7v-6.1h7V495.5z M1342.7,487.1h-7V481h7V487.1z"/>
	<rect x="795.2" y="518.7" class="st4" width="15.9" height="14"/>
	<rect x="750.9" y="518.7" class="st4" width="15.9" height="14"/>
	<rect x="728.8" y="518.7" class="st4" width="15.9" height="14"/>
	<rect x="706.7" y="518.7" class="st4" width="15.9" height="14"/>
	<rect x="684.6" y="518.7" class="st4" width="15.9" height="14"/>
	<rect x="399.5" y="467.1" class="st4" width="8.4" height="7.3"/>
	<rect x="399.5" y="477.3" class="st4" width="8.4" height="7.3"/>
	<rect x="399.5" y="487.5" class="st4" width="8.4" height="7.3"/>
	<rect x="399.5" y="497.7" class="st4" width="8.4" height="7.3"/>
	<rect x="399.5" y="507.9" class="st4" width="8.4" height="7.3"/>
	<rect x="399.5" y="518.1" class="st4" width="8.4" height="7.3"/>
	<rect x="399.5" y="528.3" class="st4" width="8.4" height="7.3"/>
	<rect x="399.5" y="538.5" class="st4" width="8.4" height="7.3"/>
	<rect x="399.5" y="548.7" class="st4" width="8.4" height="7.3"/>
	<rect x="483.4" y="517.4" class="st4" width="7" height="6.1"/>
	<rect x="483.4" y="525.9" class="st4" width="7" height="6.1"/>
	<rect x="483.4" y="534.3" class="st4" width="7" height="6.1"/>
	<rect x="483.4" y="542.8" class="st4" width="7" height="6.1"/>
	<rect x="483.4" y="551.3" class="st4" width="7" height="6.1"/>
	<rect x="483.4" y="559.7" class="st4" width="7" height="6.1"/>
	<rect x="483.4" y="568.2" class="st4" width="7" height="6.1"/>
	<rect x="483.4" y="576.7" class="st4" width="7" height="6.1"/>
	<rect x="483.4" y="585.1" class="st4" width="7" height="6.1"/>
	<rect x="492.3" y="517.4" class="st4" width="7" height="6.1"/>
	<rect x="492.3" y="525.9" class="st4" width="7" height="6.1"/>
	<rect x="492.3" y="534.3" class="st4" width="7" height="6.1"/>
	<rect x="492.3" y="542.8" class="st4" width="7" height="6.1"/>
	<rect x="492.3" y="551.3" class="st4" width="7" height="6.1"/>
	<rect x="492.3" y="559.7" class="st4" width="7" height="6.1"/>
	<rect x="492.3" y="568.2" class="st4" width="7" height="6.1"/>
	<rect x="492.3" y="576.7" class="st4" width="7" height="6.1"/>
	<rect x="492.3" y="585.1" class="st4" width="7" height="6.1"/>
	<rect x="501.3" y="517.4" class="st4" width="7" height="6.1"/>
	<rect x="501.3" y="525.9" class="st4" width="7" height="6.1"/>
	<rect x="501.3" y="534.3" class="st4" width="7" height="6.1"/>
	<rect x="501.3" y="542.8" class="st4" width="7" height="6.1"/>
	<rect x="501.3" y="551.3" class="st4" width="7" height="6.1"/>
	<rect x="501.3" y="559.7" class="st4" width="7" height="6.1"/>
	<rect x="501.3" y="568.2" class="st4" width="7" height="6.1"/>
	<rect x="501.3" y="576.7" class="st4" width="7" height="6.1"/>
	<rect x="501.3" y="585.1" class="st4" width="7" height="6.1"/>
	<rect x="510.2" y="517.4" class="st4" width="7" height="6.1"/>
	<rect x="510.2" y="525.9" class="st4" width="7" height="6.1"/>
	<rect x="510.2" y="534.3" class="st4" width="7" height="6.1"/>
	<rect x="510.2" y="542.8" class="st4" width="7" height="6.1"/>
	<rect x="510.2" y="551.3" class="st4" width="7" height="6.1"/>
	<rect x="510.2" y="559.7" class="st4" width="7" height="6.1"/>
	<rect x="510.2" y="568.2" class="st4" width="7" height="6.1"/>
	<rect x="510.2" y="576.7" class="st4" width="7" height="6.1"/>
	<rect x="510.2" y="585.1" class="st4" width="7" height="6.1"/>
	<rect x="1308.9" y="481" class="st4" width="7" height="6.1"/>
	<rect x="1308.9" y="489.5" class="st4" width="7" height="6.1"/>
	<rect x="1308.9" y="497.9" class="st4" width="7" height="6.1"/>
	<rect x="1308.9" y="506.4" class="st4" width="7" height="6.1"/>
	<rect x="1308.9" y="514.8" class="st4" width="7" height="6.1"/>
	<rect x="1308.9" y="523.3" class="st4" width="7" height="6.1"/>
	<rect x="1308.9" y="531.8" class="st4" width="7" height="6.1"/>
	<rect x="1308.9" y="540.2" class="st4" width="7" height="6.1"/>
	<rect x="1317.8" y="481" class="st4" width="7" height="6.1"/>
	<rect x="1317.8" y="489.5" class="st4" width="7" height="6.1"/>
	<rect x="1317.8" y="497.9" class="st4" width="7" height="6.1"/>
	<rect x="1317.8" y="506.4" class="st4" width="7" height="6.1"/>
	<rect x="1317.8" y="514.8" class="st4" width="7" height="6.1"/>
	<rect x="1317.8" y="523.3" class="st4" width="7" height="6.1"/>
	<rect x="1317.8" y="531.8" class="st4" width="7" height="6.1"/>
	<rect x="1317.8" y="540.2" class="st4" width="7" height="6.1"/>
	<rect x="1326.7" y="481" class="st4" width="7" height="6.1"/>
	<rect x="1326.7" y="489.5" class="st4" width="7" height="6.1"/>
	<rect x="1326.7" y="497.9" class="st4" width="7" height="6.1"/>
	<rect x="1326.7" y="506.4" class="st4" width="7" height="6.1"/>
	<rect x="1326.7" y="514.8" class="st4" width="7" height="6.1"/>
	<rect x="1326.7" y="523.3" class="st4" width="7" height="6.1"/>
	<rect x="1326.7" y="531.8" class="st4" width="7" height="6.1"/>
	<rect x="1326.7" y="540.2" class="st4" width="7" height="6.1"/>
	<rect x="1335.7" y="481" class="st4" width="7" height="6.1"/>
	<rect x="1335.7" y="489.5" class="st4" width="7" height="6.1"/>
	<rect x="1335.7" y="497.9" class="st4" width="7" height="6.1"/>
	<rect x="1335.7" y="506.4" class="st4" width="7" height="6.1"/>
	<rect x="1335.7" y="514.8" class="st4" width="7" height="6.1"/>
	<rect x="1335.7" y="523.3" class="st4" width="7" height="6.1"/>
	<rect x="1335.7" y="531.8" class="st4" width="7" height="6.1"/>
	<rect x="1335.7" y="540.2" class="st4" width="7" height="6.1"/>
	<rect x="107.4" y="503.3" class="st4" width="7" height="6.1"/>
	<rect x="107.4" y="511.7" class="st4" width="7" height="6.1"/>
	<rect x="107.4" y="520.2" class="st4" width="7" height="6.1"/>
	<rect x="107.4" y="528.7" class="st4" width="7" height="6.1"/>
	<rect x="107.4" y="537.1" class="st4" width="7" height="6.1"/>
	<rect x="107.4" y="545.6" class="st4" width="7" height="6.1"/>
	<rect x="107.4" y="554.1" class="st4" width="7" height="6.1"/>
	<rect x="107.4" y="562.5" class="st4" width="7" height="6.1"/>
	<rect x="107.4" y="571" class="st4" width="7" height="6.1"/>
	<rect x="125.3" y="506.7" class="st4" width="7" height="6.1"/>
	<rect x="125.3" y="515.2" class="st4" width="7" height="6.1"/>
	<rect x="125.3" y="523.6" class="st4" width="7" height="6.1"/>
	<rect x="125.3" y="532.1" class="st4" width="7" height="6.1"/>
	<rect x="125.3" y="540.5" class="st4" width="7" height="6.1"/>
	<rect x="125.3" y="549" class="st4" width="7" height="6.1"/>
	<rect x="125.3" y="557.5" class="st4" width="7" height="6.1"/>
	<rect x="125.3" y="565.9" class="st4" width="7" height="6.1"/>
	<rect x="125.3" y="574.4" class="st4" width="7" height="6.1"/>
	<rect x="134.3" y="506.7" class="st4" width="7" height="6.1"/>
	<rect x="134.3" y="515.2" class="st4" width="7" height="6.1"/>
	<rect x="134.3" y="523.6" class="st4" width="7" height="6.1"/>
	<rect x="134.3" y="532.1" class="st4" width="7" height="6.1"/>
	<rect x="134.3" y="540.5" class="st4" width="7" height="6.1"/>
	<rect x="134.3" y="549" class="st4" width="7" height="6.1"/>
	<rect x="134.3" y="557.5" class="st4" width="7" height="6.1"/>
	<rect x="134.3" y="565.9" class="st4" width="7" height="6.1"/>
	<rect x="134.3" y="574.4" class="st4" width="7" height="6.1"/>
	<rect x="315.7" y="486.3" class="st4" width="11.2" height="6.1"/>
	<rect x="315.7" y="494.7" class="st4" width="11.2" height="6.1"/>
	<rect x="315.7" y="503.2" class="st4" width="11.2" height="6.1"/>
	<rect x="315.7" y="511.7" class="st4" width="11.2" height="6.1"/>
	<rect x="315.7" y="520.1" class="st4" width="11.2" height="6.1"/>
	<rect x="315.7" y="528.6" class="st4" width="11.2" height="6.1"/>
	<rect x="315.7" y="537.1" class="st4" width="11.2" height="6.1"/>
	<rect x="315.7" y="545.5" class="st4" width="11.2" height="6.1"/>
	<rect x="315.7" y="554" class="st4" width="11.2" height="6.1"/>
	<rect x="330" y="486.3" class="st4" width="11.2" height="6.1"/>
	<rect x="330" y="494.7" class="st4" width="11.2" height="6.1"/>
	<rect x="330" y="503.2" class="st4" width="11.2" height="6.1"/>
	<rect x="330" y="511.7" class="st4" width="11.2" height="6.1"/>
	<rect x="330" y="520.1" class="st4" width="11.2" height="6.1"/>
	<rect x="330" y="528.6" class="st4" width="11.2" height="6.1"/>
	<rect x="330" y="537.1" class="st4" width="11.2" height="6.1"/>
	<rect x="330" y="545.5" class="st4" width="11.2" height="6.1"/>
	<rect x="330" y="554" class="st4" width="11.2" height="6.1"/>
	<rect x="1012.4" y="512.1" class="st4" width="6.7" height="5.9"/>
	<rect x="1021.7" y="512.1" class="st4" width="6.7" height="5.9"/>
	<rect x="1031" y="512.1" class="st4" width="6.7" height="5.9"/>
	<rect x="1040.2" y="512.1" class="st4" width="6.7" height="5.9"/>
	<rect x="1049.5" y="512.1" class="st4" width="6.7" height="5.9"/>
	<rect x="1058.8" y="512.1" class="st4" width="6.7" height="5.9"/>
	<rect x="1068" y="512.1" class="st4" width="6.7" height="5.9"/>
	<rect x="1077.3" y="512.1" class="st4" width="6.7" height="5.9"/>
	<rect x="1086.6" y="512.1" class="st4" width="6.7" height="5.9"/>
	<rect x="1012.4" y="504.5" class="st4" width="6.7" height="5.9"/>
	<rect x="1021.7" y="504.5" class="st4" width="6.7" height="5.9"/>
	<rect x="1031" y="504.5" class="st4" width="6.7" height="5.9"/>
	<rect x="1040.2" y="504.5" class="st4" width="6.7" height="5.9"/>
	<rect x="1049.5" y="504.5" class="st4" width="6.7" height="5.9"/>
	<rect x="1058.8" y="504.5" class="st4" width="6.7" height="5.9"/>
	<rect x="1068" y="504.5" class="st4" width="6.7" height="5.9"/>
	<rect x="1077.3" y="504.5" class="st4" width="6.7" height="5.9"/>
	<rect x="1086.6" y="504.5" class="st4" width="6.7" height="5.9"/>
	<rect x="610.8" y="472.8" class="st4" width="31.4" height="7.3"/>
	<rect x="610.8" y="483" class="st4" width="31.4" height="7.3"/>
	<rect x="610.8" y="493.1" class="st4" width="31.4" height="7.3"/>
	<rect x="610.8" y="503.3" class="st4" width="31.4" height="7.3"/>
	<rect x="610.8" y="513.5" class="st4" width="31.4" height="7.3"/>
	<rect x="610.8" y="523.7" class="st4" width="31.4" height="7.3"/>
	<rect x="610.8" y="533.9" class="st4" width="31.4" height="7.3"/>
	<rect x="610.8" y="544.1" class="st4" width="31.4" height="7.3"/>
	<rect x="610.8" y="554.3" class="st4" width="31.4" height="7.3"/>
</g>
<path class="st6" d="M566.2,608.7H558H160.6h-4.9L0,645.6v8.6h1600v-8.9l-878.1,0L566.2,608.7z M158.7,645.3l-131.9,0l129.1-28.7
	l1.1,4h1.7V645.3z M214.8,645.3l-48.2,0v-24.8h1.7l1.2-4.2h42.4l1.2,4.2h1.7V645.3z M270.8,645.3l-48.2,0v-24.8h1.7l1.2-4.2h42.4
	l1.2,4.2h1.7V645.3z M326.8,645.3l-48.2,0v-24.8h1.7l1.2-4.2h42.4l1.2,4.2h1.7V645.3z M382.8,645.3l-48.2,0v-24.8h1.7l1.2-4.2H380
	l1.2,4.2h1.7V645.3z M438.8,645.3l-48.2,0v-24.8h1.7l1.2-4.2H436l1.2,4.2h1.7V645.3z M494.9,645.3l-48.2,0v-24.8h1.7l1.2-4.2H492
	l1.2,4.2h1.7V645.3z M550.9,645.3l-48.2,0v-24.8h1.7l1.2-4.2H548l1.2,4.2h1.7V645.3z M558.7,645.3v-24.8h1.7l1.2-4.2h3.3l130.3,29
	L558.7,645.3z"/>
<polygon class="st7" points="0,781.2 1600,781 1600,695 0,695 "/>
<g>
	<g>
		<path class="st8" d="M99.1,601.8c-0.2,0-0.4,0.1-0.5,0.3l-0.5,2.1c-0.1,0.5-0.3,1-0.5,1.6c-0.1,0.2-0.1,0.5-0.2,0.7
			c-0.2,0.6-0.4,1.3-0.7,2.1c-0.1,0.3-0.2,0.6-0.3,0.8c-0.1,0.3-0.3,0.7-0.4,1c-0.1,0.2-0.2,0.4-0.2,0.6c-0.2,0.5-0.5,1.1-0.8,1.7
			c-0.5,1-1,2.2-1.8,3.6c-0.1,0.2-0.3,0.4-0.4,0.7c-0.2,0.4-0.5,0.8-0.7,1.2c-0.1,0.2-0.3,0.4-0.4,0.7c-0.3,0.4-0.5,0.8-0.8,1.2
			c-1,1.4-1.8,2.5-2.7,3.5l-0.7,0.8l-0.6,0.6c-0.3-1.6-0.8-4.6-0.8-7.9c0-0.9,0-1.6,0.1-2.2c0-0.8,0.1-1.5,0.2-2.1
			c0-0.4,0.1-0.7,0.2-1c0.1-0.4,0.1-0.7,0.2-1c0.1-0.3,0.1-0.6,0.2-0.9l0.1-0.2c0.1-0.2,0.1-0.4,0.2-0.6l0.1-0.3
			c0.1-0.2,0.1-0.3,0.2-0.5l0.3-0.7c0.1-0.3,0.2-0.5,0.3-0.7c0.1-0.1,0.1-0.2,0.1-0.3l0.5-0.9c0.1-0.2,0-0.4-0.2-0.6
			c-0.2-0.1-0.4-0.1-0.6,0.1l-0.6,0.9c-0.1,0.1-0.1,0.2-0.2,0.3c-0.1,0.2-0.3,0.5-0.4,0.7l-0.4,0.7c-0.1,0.2-0.2,0.3-0.2,0.5
			l-0.1,0.3c-0.1,0.2-0.2,0.4-0.3,0.6l-0.1,0.2c-0.1,0.3-0.3,0.6-0.4,0.9c-0.1,0.3-0.2,0.6-0.3,1c-0.1,0.3-0.2,0.7-0.3,1.1
			c-0.2,0.6-0.4,1.4-0.5,2.2c-0.1,0.7-0.3,1.4-0.4,2.3c-0.5,3.6-0.4,7-0.3,8.7c0.1,0.9,0.1,1.8,0.2,2.7c-0.1,0.1-0.2,0.2-0.4,0.3
			c-0.4,0.3-0.7,0.6-1.1,0.9c-1.1,0.8-2.2,1.6-3.2,2.2c-1.2,0.7-2.2,1.3-3,1.7c-0.6,0.3-1.2,0.6-1.8,0.9c-0.2-6.4-0.2-13.2-0.1-20.3
			c0.1,0,0.1-0.1,0.2-0.1c0.2-0.1,0.5-0.2,0.7-0.3c0.1,0,0.2-0.1,0.4-0.2c0.1-0.1,0.2-0.1,0.3-0.2c0.3-0.1,0.5-0.3,0.8-0.4l0.6-0.3
			l0.5-0.4c0.3-0.2,0.6-0.4,0.8-0.6c0.1-0.1,0.2-0.1,0.3-0.2c0.2-0.2,0.5-0.4,0.7-0.6c0.1-0.1,0.2-0.2,0.3-0.3
			c0.2-0.2,0.4-0.4,0.6-0.7l0.3-0.3c0.2-0.2,0.3-0.4,0.5-0.7l0.2-0.3c0.2-0.2,0.3-0.4,0.4-0.6c0.1-0.1,0.1-0.2,0.2-0.3l0.1-0.2
			c0.1-0.2,0.2-0.4,0.3-0.6l0.5-1.1c0.1-0.2,0-0.4-0.2-0.5c-0.2-0.1-0.4-0.1-0.6,0.1l-0.8,0.9c-0.1,0.1-0.2,0.2-0.4,0.4
			c-0.1,0.1-0.1,0.1-0.2,0.2c-0.1,0.1-0.2,0.2-0.3,0.2c-0.1,0.1-0.3,0.3-0.4,0.4c-0.1,0.1-0.2,0.2-0.3,0.2c-0.2,0.1-0.4,0.3-0.5,0.4
			c-0.1,0.1-0.2,0.2-0.3,0.2c-0.2,0.1-0.4,0.3-0.6,0.4c-0.1,0.1-0.3,0.1-0.4,0.2c-0.2,0.1-0.4,0.2-0.6,0.3c-0.1,0-0.2,0.1-0.3,0.1
			c-0.2,0.1-0.5,0.2-0.7,0.3l-0.5,0.2l-0.5,0.2c-0.2,0.1-0.4,0.1-0.6,0.1c-0.1,0-0.2,0-0.3,0.1c0,0-0.1,0-0.1,0
			c0.1-5.6,0.4-11.4,0.7-17.1c0-0.2-0.1-0.4-0.3-0.5c-0.2,0-0.4,0.1-0.5,0.3c-0.1,0.2-3.5,10.3-5.6,33.4c-0.1,0-0.1,0-0.2,0
			c-0.3,0-0.6-0.1-1-0.2c-0.1,0-0.3-0.1-0.4-0.1c-0.2,0-0.5-0.1-0.7-0.2l-0.5-0.1l0-0.8c0-0.2,0-0.3,0-0.5c0-0.3,0-0.7,0-1.2l0-2
			c0-0.7,0-1.4,0-2.2l0-0.1c0-0.2,0-0.4,0-0.6c0-0.6,0-1.2-0.1-1.8l-0.1-1.2c0-0.5-0.1-0.9-0.1-1.3c0-0.3-0.1-0.5-0.1-0.8
			c-0.1-0.5-0.1-1.1-0.3-1.6l-0.2-1.2c-0.1-0.3-0.1-0.5-0.2-0.8c0-0.1-0.1-0.3-0.1-0.4c-0.2-0.7-0.4-1.4-0.6-2l-0.1-0.2
			c-0.1-0.2-0.2-0.5-0.3-0.7c0-0.1-0.1-0.2-0.1-0.3l-0.1-0.2c-0.1-0.2-0.2-0.5-0.3-0.7l-0.4-0.8l-0.4-0.7c-0.3-0.4-0.5-0.8-0.8-1.1
			c-0.2-0.3-0.4-0.5-0.6-0.7c-0.2-0.1-0.3-0.2-0.3-0.2c-0.2-0.1-0.4-0.1-0.6,0.1c-0.1,0.2-0.1,0.4,0,0.6c0,0,0.1,0.1,0.2,0.2
			c0.1,0.1,0.3,0.3,0.4,0.6c0.2,0.3,0.4,0.7,0.6,1l0.3,0.7l0.3,0.8c0.1,0.2,0.1,0.4,0.2,0.6l0.1,0.2c0,0.1,0.1,0.2,0.1,0.3
			c0.1,0.2,0.1,0.4,0.1,0.6l0,0.2c0.1,0.6,0.2,1.2,0.3,1.9c0,0.1,0,0.3,0.1,0.4c0,0.2,0.1,0.5,0.1,0.7l0.1,1.2c0,0.5,0,1,0,1.5
			c0,0.3,0,0.5,0,0.8c0,0.3,0,0.7,0,1.1l-0.1,1.2c0,0.5-0.1,1.1-0.1,1.6c0,0.2,0,0.4-0.1,0.6l0,0.1c-0.1,0.7-0.1,1.4-0.2,2l-0.3,1.9
			c0,0.4-0.1,0.7-0.2,1c0,0.2-0.1,0.3-0.1,0.5c-0.1,0-0.2-0.1-0.4-0.1c-0.3-0.1-0.5-0.2-0.8-0.4c-0.2-0.1-0.3-0.1-0.4-0.2
			c-0.4-0.2-0.8-0.4-1.2-0.6c-0.7-0.4-1.5-0.9-2.3-1.5c-0.8-0.6-1.5-1.2-2-1.7c-1.2-1.1-2.2-2.3-3.1-3.6c-0.7-0.9-1.2-1.9-1.7-2.9
			c-0.3-0.7-0.5-1.2-0.5-1.2c-0.1-0.2-0.3-0.3-0.5-0.3c-0.2,0.1-0.4,0.3-0.3,0.5c0,0,0.1,0.5,0.4,1.3c0.4,1.1,0.9,2.2,1.4,3.3
			c0.8,1.4,1.7,2.8,2.9,4.2c0.8,0.9,1.4,1.5,2,2.1c0.8,0.7,1.6,1.4,2.3,1.9c0.4,0.3,0.8,0.6,1.2,0.9c0.1,0.1,0.3,0.2,0.4,0.3
			c0.3,0.2,0.6,0.4,0.8,0.5c0.8,0.5,1.7,0.9,2.6,1.3l1.1,0.5l1.4,0.5c0.3,0.1,0.5,0.2,0.8,0.3c0.1,0,0.3,0.1,0.4,0.1
			c0.4,0.1,0.8,0.2,1.1,0.3c0.2,0.1,0.5,0.1,0.7,0.2c-0.9,11.9-1.5,26.8-1.1,45.2c0,0.2,0.2,0.4,0.4,0.4H76c0.1,0,0.2-0.1,0.3-0.1
			c0.1-0.1,0.1-0.2,0.1-0.3c0-0.2-1.5-14.5-2.2-34.4c1.1-0.6,2.7-1.4,4.4-2.6c0.9-0.6,2-1.4,3.2-2.3c1-0.8,2.2-1.8,3.3-2.9
			c0.4-0.4,0.7-0.7,1.1-1.1c0.2-0.2,0.3-0.4,0.5-0.5l0.3-0.4c0.4-0.5,0.8-0.9,1.2-1.4l0.3-0.3c0.4-0.5,0.8-1,1.2-1.5l0.7-1l0.7-1
			c0.8-1.2,1.6-2.5,2.5-4.1c0.2-0.5,0.5-0.9,0.7-1.4c0.1-0.2,0.2-0.5,0.4-0.7c0.2-0.5,0.4-0.9,0.6-1.4c0.1-0.2,0.2-0.5,0.3-0.7
			c0.6-1.6,1.1-2.8,1.5-4c0.2-0.7,0.4-1.3,0.6-1.9c0.1-0.2,0.1-0.4,0.2-0.6c0.1-0.4,0.2-0.8,0.3-1.1c0.1-0.3,0.1-0.6,0.2-0.9
			c0.2-0.8,0.4-1.6,0.5-2.3c0-0.2,0.1-0.5,0.1-0.7c0.1-0.6,0.2-1.2,0.3-1.7l0.3-2.1C99.5,602.1,99.3,601.9,99.1,601.8z"/>
		<path class="st9" d="M115.1,575.4c0.1-0.7,0.1-1.3,0.1-2c0-8.8-7.1-15.9-15.9-15.9c-2.9,0-5.6,0.8-7.9,2.1
			c-0.6-15-12.9-27-28.1-27c-15.5,0-28.1,12.6-28.1,28.1c0,3.3,0.6,6.5,1.6,9.4c-0.5,0-1.1-0.1-1.6-0.1c-9.8,0-17.8,8-17.8,17.8
			c0,1.7,0.2,3.4,0.7,4.9c-2.2,3.8-3.4,8.1-3.4,12.8c0,14.2,11.5,25.7,25.7,25.7c11.8,0,21.8-8,24.8-18.9c2,0.9,4.2,1.4,6.5,1.4
			c1.7,0,3.3-0.3,4.8-0.8c4.9,5,11.7,8,19.2,8c0.1,0,0.3,0,0.4,0c2.7,2.5,6.2,4,10.1,4c8.2,0,14.8-6.6,14.8-14.8
			c0-1.7-0.3-3.4-0.8-4.9c1.6-3.4,2.5-7.2,2.5-11.2C122.7,586.8,119.8,580.2,115.1,575.4z"/>
		<path class="st7" d="M17.4,587.4c1.4-1.2,3.2-2.1,5-2.7c1.1-3.8,3.6-7.3,7.1-9.6c1.3-0.8,2.7-1.4,4.2-1.8
			c-0.9-0.9-1.7-1.8-2.5-2.8C23.4,572.3,17.6,579.1,17.4,587.4z"/>
		<path class="st10" d="M119,598.2c-5.9,3.9-13,4.9-19.8,3.3c-4.4-1-8.4-3.3-12.4-5.4c-4.7,3.1-10,5.4-15.6,6.6
			c-7.1,3.2-14.6,5.2-22.9,5.1c-0.5,0.6-0.9,1.1-1.4,1.6c-4,4.1-9.2,6.5-15,6.8c-6.2,0.3-11.1-2.3-15.8-6.1c-0.5-0.4-1-0.9-1.4-1.4
			c1.6,12.7,12.4,22.5,25.5,22.5c11.8,0,21.8-8,24.8-18.9c2,0.9,4.2,1.4,6.5,1.4c1.7,0,3.3-0.3,4.8-0.8c4.9,5,11.7,8,19.2,8
			c0.1,0,0.3,0,0.4,0c2.7,2.5,6.2,4,10.1,4c8.2,0,14.8-6.6,14.8-14.8c0-1.7-0.3-3.4-0.8-4.9c1.4-3,2.2-6.4,2.4-9.9
			C121.5,596.5,120.3,597.4,119,598.2z"/>
	</g>
	<g>
		<path class="st8" d="M166.9,625c-0.2,0-0.4,0.1-0.4,0.2c0,0-0.1,0.4-0.4,0.9c-0.4,0.8-0.8,1.6-1.4,2.3c-0.7,1-1.5,2-2.5,2.9
			c-0.4,0.4-1,0.9-1.6,1.3c-0.6,0.5-1.3,0.9-1.8,1.2c-0.3,0.2-0.6,0.3-1,0.5c-0.1,0-0.2,0.1-0.4,0.2c-0.2,0.1-0.4,0.2-0.6,0.3
			c-0.1,0-0.2,0.1-0.3,0.1c0-0.1,0-0.3-0.1-0.4c-0.1-0.3-0.1-0.5-0.1-0.8l-0.2-1.5c-0.1-0.5-0.1-1-0.2-1.6l0-0.1c0-0.2,0-0.3,0-0.5
			c0-0.4-0.1-0.9-0.1-1.3l0-0.9c0-0.4,0-0.6,0-0.9c0-0.2,0-0.4,0-0.6c0-0.4,0-0.8,0-1.2l0.1-0.9c0-0.2,0-0.4,0.1-0.6
			c0-0.1,0-0.2,0-0.3c0.1-0.5,0.2-1,0.2-1.5l0-0.1c0-0.2,0.1-0.3,0.1-0.5c0-0.1,0-0.2,0.1-0.3l0-0.2c0-0.2,0.1-0.4,0.2-0.5l0.2-0.7
			l0.2-0.5c0.1-0.3,0.3-0.6,0.4-0.8c0.1-0.2,0.3-0.4,0.3-0.5c0.1-0.1,0.1-0.2,0.1-0.2c0.1-0.1,0.1-0.3,0-0.5c-0.1-0.1-0.3-0.2-0.5,0
			c0,0-0.1,0.1-0.2,0.2c-0.1,0.1-0.3,0.3-0.5,0.5c-0.2,0.2-0.4,0.6-0.6,0.9l-0.3,0.6l-0.3,0.6c-0.1,0.2-0.2,0.4-0.3,0.6l-0.1,0.2
			c0,0.1-0.1,0.2-0.1,0.2c-0.1,0.2-0.2,0.4-0.2,0.5l0,0.1c-0.2,0.5-0.4,1-0.5,1.6c0,0.1-0.1,0.2-0.1,0.3c-0.1,0.2-0.1,0.4-0.2,0.6
			l-0.2,0.9c-0.1,0.4-0.2,0.9-0.2,1.3c0,0.2-0.1,0.4-0.1,0.6c0,0.3-0.1,0.6-0.1,1l-0.1,1c-0.1,0.5-0.1,1-0.1,1.4c0,0.2,0,0.3,0,0.5
			l0,0.1c0,0.6,0,1.2,0,1.7l0,1.6c0,0.3,0,0.6,0,0.9c0,0.1,0,0.3,0,0.4l0,0.7l-0.4,0.1c-0.2,0.1-0.4,0.1-0.6,0.1
			c-0.1,0-0.2,0-0.3,0.1c-0.3,0.1-0.6,0.1-0.8,0.1c-0.1,0-0.1,0-0.2,0c-1.7-18.5-4.4-26.7-4.5-26.8c-0.1-0.2-0.2-0.3-0.4-0.2
			c-0.2,0-0.3,0.2-0.3,0.4c0.3,4.6,0.5,9.2,0.6,13.7c0,0-0.1,0-0.1,0c-0.1,0-0.2,0-0.3-0.1c-0.2,0-0.3-0.1-0.5-0.1l-0.4-0.1
			l-0.4-0.1c-0.2-0.1-0.4-0.2-0.6-0.2c-0.1,0-0.2-0.1-0.3-0.1c-0.2-0.1-0.3-0.2-0.5-0.3c-0.1-0.1-0.2-0.1-0.3-0.2
			c-0.1-0.1-0.3-0.2-0.5-0.3c-0.1-0.1-0.2-0.1-0.3-0.2c-0.1-0.1-0.3-0.2-0.4-0.3c-0.1-0.1-0.2-0.1-0.2-0.2c-0.1-0.1-0.2-0.2-0.4-0.3
			c-0.1-0.1-0.1-0.1-0.2-0.2c0,0-0.1-0.1-0.1-0.1c-0.1-0.1-0.2-0.2-0.3-0.3l-0.6-0.8c-0.1-0.1-0.3-0.2-0.5-0.1
			c-0.1,0.1-0.2,0.3-0.1,0.4l0.4,0.9c0.1,0.1,0.2,0.3,0.2,0.5l0.1,0.2c0.1,0.1,0.1,0.2,0.1,0.2c0.1,0.2,0.2,0.3,0.3,0.5l0.2,0.2
			c0.1,0.2,0.3,0.4,0.4,0.5l0.2,0.3c0.2,0.2,0.3,0.4,0.5,0.5c0.1,0.1,0.2,0.2,0.3,0.3c0.2,0.2,0.3,0.3,0.5,0.5
			c0.1,0.1,0.1,0.1,0.2,0.2c0.2,0.2,0.4,0.4,0.7,0.5l0.4,0.3l0.5,0.3c0.2,0.1,0.4,0.2,0.6,0.3c0.1,0,0.2,0.1,0.3,0.1
			c0.1,0,0.2,0.1,0.3,0.1c0.2,0.1,0.4,0.2,0.6,0.2c0.1,0,0.1,0,0.2,0.1c0.1,5.6,0,11.1-0.1,16.2c-0.4-0.2-0.9-0.4-1.4-0.7
			c-0.7-0.4-1.5-0.8-2.4-1.4c-0.8-0.5-1.7-1.1-2.6-1.8c-0.3-0.2-0.6-0.4-0.9-0.7c-0.1-0.1-0.2-0.2-0.3-0.2c0.1-0.7,0.1-1.4,0.2-2.1
			c0.1-1.4,0.2-4.1-0.2-7c-0.1-0.7-0.2-1.3-0.3-1.9c-0.1-0.7-0.3-1.3-0.4-1.8c-0.1-0.3-0.2-0.6-0.3-0.8c-0.1-0.3-0.2-0.6-0.3-0.8
			c-0.1-0.2-0.2-0.5-0.3-0.7l-0.1-0.2c-0.1-0.2-0.1-0.3-0.2-0.5l-0.1-0.2c-0.1-0.1-0.1-0.3-0.2-0.4l-0.3-0.5
			c-0.1-0.2-0.2-0.4-0.4-0.6c-0.1-0.1-0.1-0.2-0.2-0.2l-0.5-0.7c-0.1-0.1-0.3-0.2-0.5-0.1c-0.2,0.1-0.2,0.3-0.1,0.5l0.4,0.8
			c0,0.1,0.1,0.2,0.1,0.3c0.1,0.2,0.2,0.4,0.2,0.6l0.2,0.6c0,0.1,0.1,0.2,0.1,0.4l0.1,0.2c0.1,0.2,0.1,0.3,0.1,0.5l0.1,0.2
			c0.1,0.2,0.1,0.5,0.2,0.7c0.1,0.2,0.1,0.5,0.1,0.8c0,0.2,0.1,0.5,0.1,0.8c0.1,0.5,0.1,1.1,0.2,1.7c0,0.5,0,1.1,0,1.8
			c0,2.6-0.4,5-0.7,6.3l-0.5-0.5l-0.6-0.7c-0.7-0.8-1.4-1.7-2.2-2.8c-0.2-0.3-0.4-0.6-0.6-0.9c-0.1-0.2-0.2-0.4-0.3-0.5
			c-0.2-0.3-0.4-0.6-0.6-0.9c-0.1-0.2-0.2-0.4-0.3-0.5c-0.6-1.1-1.1-2.1-1.5-2.9c-0.2-0.5-0.4-0.9-0.6-1.4c-0.1-0.2-0.1-0.3-0.2-0.5
			c-0.1-0.3-0.2-0.6-0.3-0.8c-0.1-0.2-0.2-0.5-0.2-0.7c-0.2-0.6-0.4-1.2-0.6-1.7c-0.1-0.2-0.1-0.4-0.2-0.6c-0.1-0.5-0.3-0.9-0.4-1.3
			l-0.4-1.6c0-0.2-0.2-0.3-0.4-0.3c-0.2,0-0.3,0.2-0.3,0.4l0.2,1.7c0,0.4,0.1,0.8,0.2,1.4c0,0.2,0.1,0.4,0.1,0.6
			c0.1,0.6,0.2,1.2,0.4,1.8c0.1,0.2,0.1,0.5,0.2,0.7c0.1,0.3,0.2,0.6,0.2,0.9c0,0.2,0.1,0.3,0.1,0.5c0.1,0.5,0.3,1,0.5,1.5
			c0.3,0.9,0.7,1.9,1.2,3.2c0.1,0.2,0.2,0.4,0.2,0.6c0.2,0.4,0.3,0.7,0.5,1.1c0.1,0.2,0.2,0.4,0.3,0.6c0.2,0.4,0.4,0.7,0.6,1.1
			c0.7,1.3,1.3,2.3,2,3.3l0.5,0.8l0.6,0.8c0.3,0.4,0.6,0.8,1,1.2l0.2,0.3c0.3,0.4,0.7,0.8,1,1.1l0.3,0.3c0.1,0.2,0.3,0.3,0.4,0.4
			c0.3,0.3,0.6,0.6,0.9,0.9c0.9,0.9,1.8,1.7,2.6,2.3c1,0.8,1.8,1.4,2.6,1.9c1.4,0.9,2.6,1.6,3.6,2.1c-0.6,16-3.6,44.2-3.6,44.4
			c0,0.1,0,0.2,0.1,0.3c0.1,0.1,0.2,0.1,0.3,0.1h7c0.2,0,0.3-0.2,0.3-0.3c0.3-14.7,1.7-43.5,0.9-53c0.2,0,0.4-0.1,0.6-0.2
			c0.3-0.1,0.6-0.2,0.9-0.3c0.1,0,0.2-0.1,0.3-0.1c0.2-0.1,0.4-0.1,0.6-0.2l1.1-0.4l0.9-0.4c0.7-0.3,1.4-0.7,2.1-1.1
			c0.2-0.1,0.4-0.3,0.7-0.4c0.1-0.1,0.2-0.1,0.3-0.2c0.3-0.2,0.7-0.5,1-0.7c0.5-0.4,1.2-0.9,1.8-1.5c0.5-0.5,1-1,1.6-1.7
			c0.9-1.1,1.7-2.2,2.3-3.3c0.5-0.8,0.8-1.7,1.2-2.6c0.2-0.7,0.3-1,0.3-1.1C167.2,625.3,167.1,625.1,166.9,625z"/>
		<path class="st9" d="M194.2,607.5c0-8-6.5-14.5-14.5-14.5c-0.4,0-0.9,0-1.3,0.1c0.8-2.4,1.3-5,1.3-7.6c0-12.6-10.2-22.8-22.9-22.8
			c-12.3,0-22.4,9.7-22.8,21.9c-1.9-1.1-4.1-1.7-6.4-1.7c-7.1,0-12.9,5.8-12.9,12.9c0,0.6,0,1.1,0.1,1.6c-3.8,3.9-6.2,9.3-6.2,15.2
			c0,3.3,0.7,6.4,2,9.1c-0.4,1.3-0.7,2.6-0.7,4c0,6.7,5.4,12,12.1,12c3.2,0,6.1-1.2,8.2-3.3c0.1,0,0.2,0,0.4,0
			c6.1,0,11.6-2.5,15.6-6.5c1.2,0.4,2.5,0.6,3.9,0.6c1.9,0,3.7-0.4,5.3-1.2c2.4,8.8,10.5,15.3,20.2,15.3c11.5,0,20.9-9.3,20.9-20.9
			c0-3.8-1-7.4-2.8-10.4C194,610.3,194.2,608.9,194.2,607.5z M159.8,608.2C159.8,608.2,159.8,608.2,159.8,608.2c0-0.1,0-0.1,0.1-0.1
			C159.9,608.1,159.9,608.2,159.8,608.2z"/>
		<path class="st7" d="M183,593.4c-0.6,0.8-1.3,1.6-2,2.3c1.2,0.3,2.3,0.7,3.4,1.4c2.9,1.8,4.9,4.7,5.8,7.8c1.5,0.5,2.9,1.2,4.1,2.2
			C194,600.4,189.3,594.9,183,593.4z"/>
		<path class="st10" d="M195.1,625.7c-3.8,3.1-7.8,5.2-12.8,4.9c-4.7-0.2-8.9-2.2-12.2-5.5c-2-2-3.5-4.4-4.4-7
			c-9.4,1-18.9,0.2-28.6-3.5c-3,1.6-6.1,3.3-9.4,4c-5.5,1.3-11.3,0.5-16.1-2.7c-1-0.7-2-1.4-2.9-2.3c0.1,2.9,0.8,5.6,2,8
			c-0.4,1.3-0.7,2.6-0.7,4c0,6.7,5.4,12,12.1,12c3.2,0,6.1-1.2,8.2-3.3c0.1,0,0.2,0,0.4,0c6.1,0,11.6-2.5,15.6-6.5
			c1.2,0.4,2.5,0.6,3.9,0.6c1.9,0,3.7-0.4,5.3-1.2c2.4,8.8,10.5,15.3,20.2,15.3c10.7,0,19.4-8,20.7-18.3
			C195.9,625,195.6,625.4,195.1,625.7z"/>
	</g>
	<g>
		<path class="st11" d="M78.3,676.6c0-0.1,0-0.2,0-0.2c0-6.7-5.9-12-13.2-12c-2.9,0-5.6,0.9-7.8,2.3c-2.6-4.3-7.7-7.1-13.4-7.1
			c-8.5,0-15.4,6.3-15.4,14.1c0,1,0.1,1.9,0.3,2.8c-5.4,0.2-9.8,4.3-9.8,9.3v0c0,5.1,4.6,9.3,10.2,9.3H76c5.6,0,10.2-4.2,10.2-9.3v0
			C86.2,681.3,82.8,677.5,78.3,676.6z"/>
		<path class="st11" d="M127.8,676.6c0-0.1,0-0.2,0-0.2c0-6.7-5.9-12-13.2-12c-2.9,0-5.6,0.9-7.8,2.3c-2.6-4.3-7.7-7.1-13.4-7.1
			c-8.5,0-15.4,6.3-15.4,14.1c0,1,0.1,1.9,0.3,2.8c-5.4,0.2-9.8,4.3-9.8,9.3v0c0,5.1,4.6,9.3,10.2,9.3h46.8c5.6,0,10.2-4.2,10.2-9.3
			v0C135.8,681.3,132.4,677.5,127.8,676.6z"/>
		<path class="st11" d="M173.6,680.5c0-0.1,0-0.1,0-0.2c0-5.2-4.7-9.5-10.4-9.5c-2.3,0-4.4,0.7-6.1,1.8c-2.1-3.4-6-5.6-10.6-5.6
			c-6.7,0-12.1,5-12.1,11.1c0,0.8,0.1,1.5,0.2,2.2c-4.3,0.2-7.7,3.4-7.7,7.3v0c0,4,3.6,7.3,8,7.3h36.9c4.4,0,8-3.3,8-7.3v0
			C179.9,684.2,177.2,681.2,173.6,680.5z"/>
	</g>
</g>
<polygon class="st12" points="0,800 1600,800 1600,778.5 0,778.5 "/>
<g>
	<g>
		<g>
			<path class="st13" d="M1255,390.1l6.3,9.6c0,0,23.8,2.8,20.5-10.2C1281.8,389.5,1269.6,388,1255,390.1z"/>
			<path class="st14" d="M1272.7,389c0.6,2.3,1,4.7,1,7c0,1.1,0,2.2,0,3.3c5.2-1.1,9.7-3.7,8.1-9.8
				C1281.8,389.5,1278.2,389.1,1272.7,389z"/>
			<g>
				<path class="st14" d="M1281.8,387.2h-16.6c-33.3,0-53.5,17.3-61.9,31.7c-9,15.6-10.2,30.9-10.3,31.6l0,0.1v327.5
					c-0.1,0.1,4.5-0.2,4.5,0V450.8c0.1-1.1,1.4-15.4,9.7-29.6c11.4-19.6,33-29.5,58-29.5h16.6c1.2,0,2.3-1,2.3-2.2
					C1284,388.2,1283,387.2,1281.8,387.2z"/>
			</g>
			<path class="st15" d="M1197.5,449.4h-3.7c-1.2,0-2.1,1-2.1,2.1v326.5c0,0,7.9-0.2,7.9,0V451.6
				C1199.6,450.4,1198.6,449.4,1197.5,449.4z"/>
		</g>
		<path class="st15" d="M1195.4,687.5c-5.1,0-9.3,4.1-9.3,9.2v81.6h18.5v-81.6C1204.7,691.6,1200.5,687.5,1195.4,687.5z"/>
	</g>
</g>
<g>
	<g>
		<g>
			<path class="st13" d="M251.6,390.1l6.3,9.6c0,0,23.8,2.8,20.5-10.2C278.4,389.5,266.2,388,251.6,390.1z"/>
			<path class="st14" d="M269.3,389c0.6,2.3,1,4.7,1,7c0,1.1,0,2.2,0,3.3c5.2-1.1,9.7-3.7,8.1-9.8
				C278.4,389.5,274.8,389.1,269.3,389z"/>
			<g>
				<path class="st14" d="M278.4,387.2h-16.6c-33.3,0-53.5,17.3-61.9,31.7c-9,15.6-10.2,30.9-10.3,31.6l0,0.1v327.5
					c-0.1,0.1,4.5-0.2,4.5,0V450.8c0.1-1.1,1.4-15.4,9.7-29.6c11.4-19.6,33-29.5,58-29.5h16.6c1.2,0,2.3-1,2.3-2.2
					C280.6,388.2,279.6,387.2,278.4,387.2z"/>
			</g>
			<path class="st15" d="M194.1,449.4h-3.7c-1.2,0-2.1,1-2.1,2.1v326.5c0,0,7.9-0.2,7.9,0V451.6
				C196.2,450.4,195.2,449.4,194.1,449.4z"/>
		</g>
		<path class="st15" d="M192,687.5c-5.1,0-9.3,4.1-9.3,9.2v81.6h18.5v-81.6C201.3,691.6,197.1,687.5,192,687.5z"/>
	</g>
</g>
<g id="cloudGroup">

	<path id="cloud5" class="st16" d="M232,190.8c-1.1-14-12.9-25.1-27.2-25.1c-6,0-11.6,2-16.1,5.2c-5.3-9.3-15.3-15.6-26.9-15.6
		c-17.1,0-30.9,13.8-30.9,30.9c0,1.5,0.1,3,0.4,4.4H128c-10.8,0-19.7,8.8-19.7,19.7c0,10.8,8.8,19.7,19.7,19.7h101.1
		c10.8,0,19.7-8.8,19.7-19.7C248.9,200.3,241.5,192.1,232,190.8z"/>
	<path id="cloud4" class="st17" d="M1370.5,154.6c-1.1-14-12.8-25.1-27.2-25.1c-6,0-11.6,2-16.1,5.2c-5.3-9.3-15.3-15.6-26.9-15.6
		c-17.1,0-30.9,13.8-30.9,30.9c0,1.5,0.1,3,0.4,4.4h-3.2c-10.8,0-19.7,8.8-19.7,19.7c0,10.8,8.8,19.7,19.7,19.7h101.1
		c10.8,0,19.7-8.8,19.7-19.7C1387.5,164.1,1380.1,155.9,1370.5,154.6z"/>
	<path id="cloud3" class="st16" d="M1521.3,218c-1.1-14-12.9-25.1-27.2-25.1c-6,0-11.6,2-16.1,5.2c-5.3-9.3-15.3-15.6-26.9-15.6
		c-17.1,0-30.9,13.8-30.9,30.9c0,1.5,0.1,3,0.4,4.4h-3.2c-10.8,0-19.7,8.8-19.7,19.7c0,10.8,8.8,19.7,19.7,19.7h101.2
		c10.8,0,19.7-8.8,19.7-19.7C1538.3,227.7,1530.9,219.5,1521.3,218z"/>
	<path id="cloud2" class="st18" d="M610.6,132.8h-6.5c0-0.2,0-0.3,0-0.5c0-11.7-9.5-21.3-21.3-21.3c-2.9,0-5.6,0.6-8.1,1.6
		c-2.7-10.6-12.4-18.5-23.8-18.5c-11.3,0-20.8,7.6-23.7,18.1c-1.4-0.4-3-0.7-4.6-0.7c-8.9,0-16.1,7.2-16.1,16.1
		c0,1.8,0.3,3.6,0.9,5.2h-6c-3.8,0-7,3.1-7,7c0,3.8,3.1,7,7,7h109.2c3.8,0,7-3.1,7-7C617.6,135.9,614.4,132.8,610.6,132.8z"/>
	<path id="cloud1" class="st15" d="M663.5,135.9H661c0.2-1.2,0.3-2.3,0.3-3.5c0-13.7-11.1-24.9-24.9-24.9c-9.3,0-17.3,5.1-21.6,12.6
		c-3.6-2.6-8.1-4.2-12.9-4.2c-11.5,0-21,8.9-21.9,20.3c-7.7,1-13.7,7.6-13.7,15.5c0,8.7,7.1,15.8,15.8,15.8h81.3
		c8.7,0,15.8-7.1,15.8-15.8C679.3,143,672.2,135.9,663.5,135.9z"/>
	<animateMotion
	attributeName="cloud-transform"
	begin="0s"
	dur="30s"
	repeatCount="indefinite"
	from="500,0"
	to="-300,0"
/>
</g>
</svg>
