<?xml version="1.0" encoding="utf-8"?>
<!-- Generator: Adobe Illustrator 25.2.3, SVG Export Plug-In . SVG Version: 6.00 Build 0)  -->
<svg version="1.1" id="Layer_1" xmlns="http://www.w3.org/2000/svg" xmlns:xlink="http://www.w3.org/1999/xlink" x="0px" y="0px"
	 viewBox="0 0 59 57" style="enable-background:new 0 0 59 57;" xml:space="preserve">
<style type="text/css">
	.st0{fill:#E84621;}
	.st1{fill:#F9B232;}
	.st2{fill:#41586B;}
</style>
<g>
	<g>
		<g>
			<g>
				<g>
					<g>
						<path class="st0" d="M24.2,16.7c0,0-2.5-2.8-2.8-4.4c-0.3-1.6-1.7-6-1.7-6l-9.6,12.3c0,0,6.4,0.8,8.8,3.2l33.8,34.2
							c1.4,1.4,3.8,1.4,5.2,0c1.4-1.4,1.4-3.8,0-5.2L24.2,16.7z"/>
					</g>
					<g>
						<path class="st1" d="M17,1.9C14.8,0.5,7.4-0.2,6.3,0.1C5.1,0.4,5.7,0.6,5.7,0.6s5.3,3.3,6.4,4.1c1.4,1,1.2,1.6,1.2,1.6
							s0.1,3.9-3.6,6.3c-1.8,1.1-3.1,0.5-3.1,0.5l-5.1-2.8C0.1,9.5,0,10.2,0,10.2c1.1,1.9,3,4.6,4.8,6.3c1.3,1.2,2.6,2.7,7.3,2
							c5.5-0.8,7.7-7.8,8-9.4C20.3,7.5,19.1,3.4,17,1.9z"/>
					</g>
				</g>
			</g>
		</g>
	</g>
	<g>
		<polygon class="st2" points="50.4,4.4 53.4,7.4 57.7,1.8 56,0 		"/>
		<polygon class="st2" points="47.9,7.9 49.9,9.9 53.4,7.4 50.4,4.4 		"/>
		<polygon class="st2" points="5.6,50.6 7.6,52.6 49.9,9.9 47.9,7.9 		"/>
		<g>
			<path class="st2" d="M28.8,32.4l-3.3-3.3c-0.5-0.5-1.3-0.7-2-0.4l-0.3-0.3l-1.1,1.2l0.3,0.3c-0.2,0.7-0.1,1.5,0.4,2l3.3,3.3
				c0.5,0.5,1.3,0.7,2,0.4l0.3,0.3l1.1-1.2l-0.3-0.3C29.5,33.7,29.3,33,28.8,32.4z"/>
			<g>
				<path class="st1" d="M19.8,33.9c-1.2,0.6-3.4,1.6-5.6,2.8c0.1,0.7-0.1,1.5-0.6,2l-9.9,10c-0.5,0.5-1.1,0.7-1.7,0.7
					c-0.1,0.2-0.2,0.4-0.3,0.6c-0.9,2.3,0.3,4.2,1.3,5.2L3,55.4c1,1,2.9,2.2,5.1,1.3c0.2-0.1,0.4-0.2,0.6-0.3c0-0.6,0.2-1.3,0.7-1.8
					l9.9-10c0.5-0.6,1.3-0.8,2-0.7c1.2-2.2,2.2-4.4,2.8-5.6c1.1-2.3,2.7-2.7,2.7-2.7l-4.4-4.4C22.4,31.2,22.1,32.8,19.8,33.9z
					 M18.2,43.5l-9.9,10c-0.9,0.9-2.4,0.9-3.3,0l-0.4-0.4c-0.9-0.9-0.9-2.4,0-3.3l9.9-10c0.9-0.9,2.4-0.9,3.3,0l0.4,0.4
					C19.1,41.1,19.1,42.5,18.2,43.5z"/>
				<path class="st2" d="M9.5,40.1c-2.2,2.3-6.3,6.9-7.6,9.4c0.6,0,1.3-0.2,1.7-0.7l9.9-10c0.5-0.6,0.8-1.3,0.6-2
					C12.4,37.8,10.6,38.9,9.5,40.1z"/>
				<path class="st2" d="M17.8,39.8c-0.9-0.9-2.4-0.9-3.3,0l-9.9,10c-0.9,0.9-0.9,2.4,0,3.3L5,53.5c0.9,0.9,2.4,0.9,3.3,0l9.9-10
					c0.9-0.9,0.9-2.4,0-3.3L17.8,39.8z"/>
				<path class="st2" d="M19.4,44.6l-9.9,10c-0.5,0.5-0.7,1.1-0.7,1.8c2.5-1.3,7-5.5,9.3-7.7c1.1-1.1,2.3-2.9,3.3-4.7
					C20.7,43.8,19.9,44.1,19.4,44.6z"/>
			</g>
		</g>
	</g>
</g>
</svg>
