<?xml version="1.0" encoding="utf-8"?>
<!-- Generator: Adobe Illustrator 25.2.3, SVG Export Plug-In . SVG Version: 6.00 Build 0)  -->
<svg version="1.1" id="Layer_1" xmlns="http://www.w3.org/2000/svg" xmlns:xlink="http://www.w3.org/1999/xlink" x="0px" y="0px"
	 viewBox="0 0 762 656" style="enable-background:new 0 0 762 656;" xml:space="preserve">
<style type="text/css">
	
		.st0{fill-rule:evenodd;clip-rule:evenodd;fill:none;stroke:#E6F2FF;stroke-width:2.546;stroke-linecap:round;stroke-miterlimit:10;}
	
		.st1{fill-rule:evenodd;clip-rule:evenodd;fill:none;stroke:#FFFFFF;stroke-width:2.1289;stroke-linecap:round;stroke-linejoin:round;stroke-miterlimit:10;}
	.st2{fill-rule:evenodd;clip-rule:evenodd;fill:#E6F2FF;}
	.st3{fill:#ADC6E1;}
	.st4{fill-rule:evenodd;clip-rule:evenodd;fill:#ADC6E1;}
	.st5{fill:#E3735A;}
	.st6{fill:#BA5E4A;}
	.st7{fill-rule:evenodd;clip-rule:evenodd;fill:#2B3B47;}
	
		.st8{fill-rule:evenodd;clip-rule:evenodd;fill:none;stroke:#2B3B47;stroke-width:2.546;stroke-linecap:round;stroke-miterlimit:10;}
	.st9{fill-rule:evenodd;clip-rule:evenodd;fill:#E84621;}
	.st10{fill-rule:evenodd;clip-rule:evenodd;fill:#FFFFFF;}
	.st11{fill:#4F71DD;}
	.st12{fill:#2B3B47;}
	.st13{fill:#587FF5;}
	.st14{fill:#557AED;}
	.st15{fill:none;stroke:#2B3B47;stroke-width:2.546;stroke-linecap:round;stroke-miterlimit:10;}
	.st16{fill:none;stroke:#AB4A35;stroke-width:2;stroke-linecap:round;stroke-linejoin:round;stroke-miterlimit:10;}
	
		.st17{fill-rule:evenodd;clip-rule:evenodd;fill:none;stroke:#7E9CFC;stroke-width:1.6974;stroke-linecap:round;stroke-miterlimit:10;}
	.st18{fill:none;stroke:#7E9CFC;stroke-width:1.6974;stroke-linecap:round;stroke-miterlimit:10;}
	
		.st19{fill-rule:evenodd;clip-rule:evenodd;fill:none;stroke:#AB4A35;stroke-width:2;stroke-linecap:round;stroke-linejoin:round;stroke-miterlimit:10;}
	.st20{fill:#FFFFFF;}
	.st21{fill:#E84621;}
</style>
<ellipse transform="matrix(1 -7.737355e-03 7.737355e-03 1 -2.7276 0.1281)" class="st0" cx="15.2" cy="352.6" rx="8.1" ry="8.1"/>
<path class="st1" d="M43.2,522.4L1.1,428.5c0,0-3.6-6.7,4.5-9.3"/>
<path class="st2" d="M124.5,586.6c0,0-138.3-87.9-57.5-241.5c80.9-153.7,125.3-62,209.1-239.9C359.9-72.8,616.8-12.3,609.6,192
	C602.4,396.3,834.2,475.4,739,550.9C643.8,626.3,311.3,724.9,124.5,586.6z"/>
<ellipse class="st3" cx="382.8" cy="245.6" rx="18.9" ry="21.2"/>
<path class="st4" d="M331.3,438c0,0,40.2-208.8,223.2-191.4c117,11.1,196.5,332.9-29.4,340C74.2,600.7,247.7,579.6,331.3,438z"/>
<path class="st5" d="M341.2,529.1L341.2,529.1c-13.3-3.1-21.7-16.6-18.6-29.9L353,369.5c3.1-13.3,16.6-21.7,29.9-18.6h0
	c13.3,3.1,21.7,16.6,18.6,29.9l-30.4,129.7C367.9,523.9,354.5,532.3,341.2,529.1z"/>
<polygon class="st6" points="336.9,438.2 378.2,480.3 388.2,440.8 "/>
<path class="st5" d="M202.5,545.3l126.8-59.6l41.3,27c0,0-6.9,37.7-143.8,57.2L202.5,545.3z"/>
<path class="st7" d="M393.5,526.7c-18.9,19-60.6,39.8-60.5,59.1l171.3,4.6c0,0,11.9,2.6,28.3,0c15.8-2.5-15.2-81.6-15.2-81.6
	L393.5,526.7z"/>
<path class="st4" d="M304.7,305.6H191.5c-13.8,0-25-11.2-25-25v-37.1c0-13.8,11.2-25,25-25h113.3c13.8,0,25,11.2,25,25v37.1
	C329.8,294.4,318.5,305.6,304.7,305.6z"/>
<path class="st7" d="M294.4,209.6H131c-12.6,0-22.9-10.2-22.9-22.9v-11.1c0-12.6,10.2-22.9,22.9-22.9h163.5
	c12.6,0,22.9,10.2,22.9,22.9v11.1C317.3,199.4,307.1,209.6,294.4,209.6z"/>
<path class="st8" d="M270,327.3L270,327.3c0.9-2.6,1.4-5.4,1.4-8.2V282c0-13.8-11.2-25-25-25H133.1c-13.8,0-25,11.2-25,25v37.1
	c0,13.8,11.2,25,25,25h113.3l22.2,12.2c3.3,1.8,7.3-1.1,6.5-4.8L270,327.3z"/>
<ellipse class="st9" cx="145.7" cy="299.8" rx="20.7" ry="20.7"/>
<line class="st8" x1="174.5" y1="288.9" x2="256.1" y2="288.9"/>
<line class="st8" x1="174.5" y1="311.3" x2="231.6" y2="311.3"/>
<path class="st10" d="M504.4,590.3H282.7v-14.1h212.9c4.8,0,8.7,3.9,8.7,8.7V590.3z"/>
<path class="st10" d="M339.2,590.3H84.8L0.2,423.5l5.4-7.4c2.2-3,5.7-4.8,9.5-4.8h237.5c3.5,0,6.8,2.2,8.3,5.6L339.2,590.3z"/>
<path class="st7" d="M328.1,590.3H73.7L0.5,427.1c-1.7-3.7,1-7.9,5.1-7.9h242.1c2.2,0,4.2,1.3,5.1,3.3L328.1,590.3z"/>
<ellipse transform="matrix(0.3647 -0.9311 0.9311 0.3647 -380.3512 461.6725)" class="st10" cx="148.2" cy="509.6" rx="18.2" ry="25.4"/>
<path class="st8" d="M341.7,584.1c0,1.9-1.6,3.5-3.5,3.5c-1.9,0-3.5-1.6-3.5-3.5c0-1.9,1.6-3.5,3.5-3.5
	C340.2,580.6,341.7,582.1,341.7,584.1z"/>
<line class="st8" x1="447.3" y1="583.3" x2="466" y2="583.3"/>
<line class="st8" x1="475.4" y1="583.3" x2="494.2" y2="583.3"/>
<path class="st11" d="M510.5,330.5c-36.5,10.7-72.5,9.1-107.9-4.9c0,0-46,25.9-41.5,82.6c1.4,17.3,15.5,27.3,23.4,35
	c4.3,31.6,5,64-2.5,85.9c-14.2,55.1,59.9,32,130.8,8.3c0,0,27.5-106.5,30.9-120.5C557,363,510.5,330.5,510.5,330.5z"/>
<path class="st12" d="M458.4,198.7c0,0,24.5,26.7,14.9,46.7c-9.6,20-13.2,40-26.3,32.3c-13.1-7.7-18.2-94.5-18.2-94.5L458.4,198.7z"
	/>
<path class="st5" d="M455.4,346.6l-3.3,0.8c-10.1,2.3-34.3-1.8-36.8-12.9c18.4-9.6,6.6-46.3-4.2-81.7c-2.5-11.1,3.7-22,13.8-24.4
	l3.3-0.8c10.1-2.3,25.2,7.8,27.7,18.9c8.2,33,9.4,62.3,29.6,69.1C488,326.6,465.5,344.2,455.4,346.6z"/>
<path class="st5" d="M508,391.2l-148.6-13.7c0-20.8,7.5-61.9,55.9-63.1l63.2-0.4l39.2,9C536.8,323,527.1,391.2,508,391.2z"/>
<path class="st6" d="M420.6,285.6c0,0,4.5-0.9,5.9-1.5c1.3-0.6,19.5-10.6,19.5-10.6s-6.8,25-22.1,28.4
	C423.9,301.8,421.5,289.1,420.6,285.6z"/>
<path class="st7" d="M446.6,171.1c0,0,19.9-20.8,41.7-11.7c21.8,9.1,11,27.9,36.8,37.9c42.8,16.6,30.7,57.2,15.3,66.3
	c-27.5,16.2-43.9,1.4-47.6-14.8c-3.8-16.2,1.2-56.5-20.5-52C450.4,201.2,444,198.5,446.6,171.1z"/>
<path class="st5" d="M406,293.7c-10.5-5.8-20-21.6-21.9-38.9l-4.8-29.4c-2.4-22.1,11.6-41.9,31.1-44l1.9-0.2
	c19.5-2.1,37.3,14.3,39.7,36.4l3.8,35.9c1.9,17.4-20.6,29.1-28.7,37.8C423.2,295.7,409,295.4,406,293.7z"/>
<path class="st12" d="M365.3,213.9c-2.3,10.6,10.5,17.5,18.3,10c3.7-3.5,8.1-5.9,11.7-8.5c21.4-15.4,46.5-5.2,44.4-13.1L416.7,176
	c0,0-19.9-12-38,9.6C371.4,194.4,367.4,204.4,365.3,213.9z"/>
<path class="st7" d="M406.4,172.9c0,0,25.2-20.4,55.5-0.1c30.3,20.3,13,68.2,13,68.2s-39.2-9.9-41.8-29.9s-30.5-27.7-30.5-27.7
	L406.4,172.9z"/>
<path class="st13" d="M465.9,243.3c-1.2,6.6-5.4,10.9-9.6,9.6c-4.2-1.3-6.6-7.8-5.4-14.4c1.2-6.6,5.4-10.9,9.6-9.6
	C464.7,230.2,467.1,236.7,465.9,243.3z"/>
<path class="st12" d="M387.7,237.2c2.3-0.5,4.5-0.7,6.7-0.5c0.9,0.1,1.7-0.8,1.7-1.7l0,0c0-0.8-0.6-1.5-1.4-1.6
	c-2.6-0.3-5.2-0.1-7.8,0.6c-0.8,0.2-1.3,1-1.2,1.9l0,0C385.9,236.8,386.8,237.4,387.7,237.2z"/>
<path class="st12" d="M417.5,234.6c3-0.5,5.9-0.8,9-0.6c1.3,0,2.3-0.8,2.3-1.8l0,0c0-0.8-0.8-1.5-1.9-1.6c-3.5-0.3-7,0-10.4,0.8
	c-1.1,0.2-1.8,1.1-1.6,1.9l0,0C415.1,234.2,416.3,234.8,417.5,234.6z"/>
<path class="st12" d="M424.3,243.3c0.3,1.8-0.6,3.5-1.8,3.7c-1.3,0.2-2.5-1.1-2.8-3c-0.3-1.8,0.6-3.5,1.8-3.7
	C422.8,240.1,424.1,241.4,424.3,243.3z"/>
<path class="st12" d="M394.7,246.7c0.3,1.8-0.6,3.5-1.8,3.7c-1.3,0.2-2.5-1.1-2.8-3c-0.3-1.8,0.6-3.5,1.8-3.7
	C393.2,243.5,394.4,244.8,394.7,246.7z"/>
<path class="st8" d="M456,240.9c0,0,0.6-6.9,4.5-5.7"/>
<path class="st14" d="M424.7,309.1c0,0-9.7-4.6-14.2,2.9l-25.2,7.4c-13.4,3.9-23.9,14.2-28.2,27.4l-24.1,89.8
	c17.3,6.9,34.2,7.3,50.6,0L424.7,309.1z"/>
<path class="st14" d="M424.7,309.1c0,0-1.3,36.6,22.6,36.6s25.5-40.2,25.5-40.2l30.2,28.1l12.1,69.9l15.4,65.4v82.8h-149v-90.5
	c0,0-32-20.9-20.7-61.3C372,359.5,424.7,309.1,424.7,309.1z"/>
<path class="st5" d="M556.4,535.5L556.4,535.5c-15.3,1.3-28.9-10.1-30.3-25.4l-11-126.6c-1.3-15.3,10.1-29,25.4-30.3h0
	c15.3-1.3,28.9,10.1,30.3,25.4l11,126.6C583.1,520.5,571.7,534.2,556.4,535.5z"/>
<path class="st15" d="M428.8,353.1c0,0,14.4,22.5,36,0"/>
<path class="st15" d="M361.3,422.9c0,0-3.8-17.7,16.8-37.3c4.5-4.3,6.9-22.5,6.9-22.5"/>
<ellipse class="st14" cx="385.8" cy="469.5" rx="8.5" ry="11.7"/>
<ellipse class="st14" cx="388.9" cy="542.8" rx="15.4" ry="13.5"/>
<path class="st5" d="M353.9,576.3c-1.4,0,4.5-26.5,46.2-26.5c38.1,0,34.7,26.5,34.7,26.5H353.9z"/>
<path class="st15" d="M381.5,461.2c0,0-9.7,8.9,0,20v46.1c0,0-10.3,8.5-8,15.6"/>
<path class="st15" d="M408.5,312.9c0,0-0.6,5.6,2.9,9.1"/>
<polygon class="st6" points="520.3,440.9 578.3,465 575.3,430.5 "/>
<path class="st14" d="M472.8,305.4c0,0,12.4-3.1,18.5,8.2l30.1,6.2c22.8,5.1,41.4,21.5,49.2,43.5l11.4,65.2
	c-23.8,7.4-46,18-63.2,11.5l-28.1-112L472.8,305.4z"/>
<line class="st15" x1="513.8" y1="395.8" x2="518.7" y2="440"/>
<path class="st15" d="M491.3,312.7c0,0-0.5,4.9-2.2,8.2"/>
<path class="st15" d="M3.3,419.2c0,0,3.5-8,11.8-8s237.5,0,237.5,0"/>
<path class="st16" d="M404.7,244.4c0,0-2,8.8-3.5,13.7c-1.6,5.4,2.6,6.7,7,6.5"/>
<path class="st17" d="M448.1,165.9c0,0,21.4,1.8,30,30.7"/>
<path class="st15" d="M379.1,222.2c0.4,0,50.2-2.3,55.6-26.9"/>
<path class="st15" d="M503.2,179.7c0,0,10.6,11.7,27.3,9.6c16.7-2.1,37.1,25.6,20.6,43.8"/>
<path class="st16" d="M358.4,575.2l6.7-7.3c5.4-7.3,17.6-8.7,17.6-8.7"/>
<path class="st16" d="M367.3,575.2l9.6-7c4.9-3.5,10.6-5.6,16.6-6l0,0"/>
<path class="st16" d="M324,488.5c0,0,7.8-3.2,14,0"/>
<path class="st18" d="M408.2,175.2c0,0-23.1-2.7-36.8,35.5"/>
<path class="st18" d="M437.7,199.9c0,0,3.6,21.3,19.7,26.3"/>
<path class="st15" d="M408.5,312.5l-25.2,7.4c-13.4,3.9-23.9,14.2-28.2,27.4L331,437"/>
<path class="st12" d="M382.8,329.7c0,1.3-1,2.3-2.3,2.3c-1.3,0-2.3-1-2.3-2.3c0-1.3,1-2.3,2.3-2.3
	C381.8,327.4,382.8,328.4,382.8,329.7z"/>
<path class="st12" d="M412.7,329.7c0,1.3-1,2.3-2.3,2.3c-1.3,0-2.3-1-2.3-2.3c0-1.3,1-2.3,2.3-2.3
	C411.7,327.4,412.7,328.4,412.7,329.7z"/>
<path class="st12" d="M472.8,329.7c0,1.3-1,2.3-2.3,2.3c-1.3,0-2.3-1-2.3-2.3c0-1.3,1-2.3,2.3-2.3
	C471.8,327.4,472.8,328.4,472.8,329.7z"/>
<path class="st12" d="M502.8,329.7c0,1.3-1,2.3-2.3,2.3c-1.3,0-2.3-1-2.3-2.3c0-1.3,1-2.3,2.3-2.3
	C501.7,327.4,502.8,328.4,502.8,329.7z"/>
<path class="st12" d="M532.7,329.7c0,1.3-1,2.3-2.3,2.3c-1.3,0-2.3-1-2.3-2.3c0-1.3,1-2.3,2.3-2.3
	C531.7,327.4,532.7,328.4,532.7,329.7z"/>
<path class="st12" d="M484.3,313.9c0,1.3-1,2.3-2.3,2.3c-1.3,0-2.3-1-2.3-2.3c0-1.3,1-2.3,2.3-2.3
	C483.3,311.6,484.3,312.7,484.3,313.9z"/>
<path class="st12" d="M422.1,316.2c0,1.3-1,2.3-2.3,2.3c-1.3,0-2.3-1-2.3-2.3c0-1.3,1-2.3,2.3-2.3
	C421.1,313.9,422.1,315,422.1,316.2z"/>
<path class="st12" d="M382.8,359.5c0,1.3-1,2.3-2.3,2.3c-1.3,0-2.3-1-2.3-2.3c0-1.3,1-2.3,2.3-2.3
	C381.8,357.2,382.8,358.2,382.8,359.5z"/>
<path class="st12" d="M412.7,359.5c0,1.3-1,2.3-2.3,2.3c-1.3,0-2.3-1-2.3-2.3c0-1.3,1-2.3,2.3-2.3
	C411.7,357.2,412.7,358.2,412.7,359.5z"/>
<path class="st12" d="M472.8,359.5c0,1.3-1,2.3-2.3,2.3c-1.3,0-2.3-1-2.3-2.3c0-1.3,1-2.3,2.3-2.3
	C471.8,357.2,472.8,358.2,472.8,359.5z"/>
<path class="st12" d="M502.8,359.5c0,1.3-1,2.3-2.3,2.3c-1.3,0-2.3-1-2.3-2.3c0-1.3,1-2.3,2.3-2.3
	C501.7,357.2,502.8,358.2,502.8,359.5z"/>
<path class="st12" d="M532.7,359.5c0,1.3-1,2.3-2.3,2.3c-1.3,0-2.3-1-2.3-2.3c0-1.3,1-2.3,2.3-2.3
	C531.7,357.2,532.7,358.2,532.7,359.5z"/>
<path class="st12" d="M562.8,359.5c0,1.3-1,2.3-2.3,2.3s-2.3-1-2.3-2.3c0-1.3,1-2.3,2.3-2.3S562.8,358.2,562.8,359.5z"/>
<path class="st12" d="M367.8,345c0,1.3-1,2.3-2.3,2.3c-1.3,0-2.3-1-2.3-2.3s1-2.3,2.3-2.3C366.8,342.7,367.8,343.7,367.8,345z"/>
<path class="st12" d="M397.7,345c0,1.3-1,2.3-2.3,2.3s-2.3-1-2.3-2.3s1-2.3,2.3-2.3S397.7,343.7,397.7,345z"/>
<path class="st12" d="M457.8,346.5c0,1.3-1,2.3-2.3,2.3c-1.3,0-2.3-1-2.3-2.3s1-2.3,2.3-2.3C456.8,344.2,457.8,345.3,457.8,346.5z"
	/>
<path class="st12" d="M427.8,345c0,1.3-1,2.3-2.3,2.3c-1.3,0-2.3-1-2.3-2.3s1-2.3,2.3-2.3C426.7,342.7,427.8,343.7,427.8,345z"/>
<path class="st12" d="M487.8,345c0,1.3-1,2.3-2.3,2.3s-2.3-1-2.3-2.3s1-2.3,2.3-2.3S487.8,343.7,487.8,345z"/>
<path class="st12" d="M517.7,345c0,1.3-1,2.3-2.3,2.3c-1.3,0-2.3-1-2.3-2.3s1-2.3,2.3-2.3C516.7,342.7,517.7,343.7,517.7,345z"/>
<path class="st12" d="M547.8,345c0,1.3-1,2.3-2.3,2.3c-1.3,0-2.3-1-2.3-2.3s1-2.3,2.3-2.3C546.8,342.7,547.8,343.7,547.8,345z"/>
<path class="st12" d="M367.8,374.7c0,1.3-1,2.3-2.3,2.3c-1.3,0-2.3-1-2.3-2.3s1-2.3,2.3-2.3C366.8,372.4,367.8,373.5,367.8,374.7z"
	/>
<path class="st12" d="M397.7,374.7c0,1.3-1,2.3-2.3,2.3s-2.3-1-2.3-2.3s1-2.3,2.3-2.3S397.7,373.5,397.7,374.7z"/>
<path class="st12" d="M457.8,374.7c0,1.3-1,2.3-2.3,2.3c-1.3,0-2.3-1-2.3-2.3s1-2.3,2.3-2.3C456.8,372.4,457.8,373.5,457.8,374.7z"
	/>
<path class="st12" d="M427.8,374.7c0,1.3-1,2.3-2.3,2.3c-1.3,0-2.3-1-2.3-2.3s1-2.3,2.3-2.3C426.7,372.4,427.8,373.5,427.8,374.7z"
	/>
<path class="st12" d="M487.8,374.7c0,1.3-1,2.3-2.3,2.3s-2.3-1-2.3-2.3s1-2.3,2.3-2.3S487.8,373.5,487.8,374.7z"/>
<path class="st12" d="M517.7,374.7c0,1.3-1,2.3-2.3,2.3c-1.3,0-2.3-1-2.3-2.3s1-2.3,2.3-2.3C516.7,372.4,517.7,373.5,517.7,374.7z"
	/>
<path class="st12" d="M547.8,374.7c0,1.3-1,2.3-2.3,2.3c-1.3,0-2.3-1-2.3-2.3s1-2.3,2.3-2.3C546.8,372.4,547.8,373.5,547.8,374.7z"
	/>
<path class="st12" d="M367.8,404.7c0,1.3-1,2.3-2.3,2.3c-1.3,0-2.3-1-2.3-2.3s1-2.3,2.3-2.3C366.8,402.4,367.8,403.4,367.8,404.7z"
	/>
<path class="st12" d="M397.7,404.7c0,1.3-1,2.3-2.3,2.3s-2.3-1-2.3-2.3s1-2.3,2.3-2.3S397.7,403.4,397.7,404.7z"/>
<path class="st12" d="M457.8,404.7c0,1.3-1,2.3-2.3,2.3c-1.3,0-2.3-1-2.3-2.3s1-2.3,2.3-2.3C456.8,402.4,457.8,403.4,457.8,404.7z"
	/>
<path class="st12" d="M427.8,404.7c0,1.3-1,2.3-2.3,2.3c-1.3,0-2.3-1-2.3-2.3s1-2.3,2.3-2.3C426.7,402.4,427.8,403.4,427.8,404.7z"
	/>
<path class="st12" d="M487.8,404.7c0,1.3-1,2.3-2.3,2.3s-2.3-1-2.3-2.3s1-2.3,2.3-2.3S487.8,403.4,487.8,404.7z"/>
<path class="st12" d="M547.8,404.7c0,1.3-1,2.3-2.3,2.3c-1.3,0-2.3-1-2.3-2.3s1-2.3,2.3-2.3C546.8,402.4,547.8,403.4,547.8,404.7z"
	/>
<path class="st12" d="M577.9,404.7c0,1.3-1,2.3-2.3,2.3c-1.3,0-2.3-1-2.3-2.3s1-2.3,2.3-2.3C576.8,402.4,577.9,403.4,577.9,404.7z"
	/>
<path class="st12" d="M367.8,434.6c0,1.3-1,2.3-2.3,2.3c-1.3,0-2.3-1-2.3-2.3c0-1.3,1-2.3,2.3-2.3
	C366.8,432.3,367.8,433.4,367.8,434.6z"/>
<path class="st12" d="M397.7,434.6c0,1.3-1,2.3-2.3,2.3s-2.3-1-2.3-2.3c0-1.3,1-2.3,2.3-2.3S397.7,433.4,397.7,434.6z"/>
<path class="st12" d="M457.8,434.6c0,1.3-1,2.3-2.3,2.3c-1.3,0-2.3-1-2.3-2.3c0-1.3,1-2.3,2.3-2.3
	C456.8,432.3,457.8,433.4,457.8,434.6z"/>
<path class="st12" d="M427.8,434.6c0,1.3-1,2.3-2.3,2.3c-1.3,0-2.3-1-2.3-2.3c0-1.3,1-2.3,2.3-2.3
	C426.7,432.3,427.8,433.4,427.8,434.6z"/>
<path class="st12" d="M487.8,434.6c0,1.3-1,2.3-2.3,2.3s-2.3-1-2.3-2.3c0-1.3,1-2.3,2.3-2.3S487.8,433.4,487.8,434.6z"/>
<path class="st12" d="M547.8,434.6c0,1.3-1,2.3-2.3,2.3c-1.3,0-2.3-1-2.3-2.3c0-1.3,1-2.3,2.3-2.3
	C546.8,432.3,547.8,433.4,547.8,434.6z"/>
<path class="st12" d="M397.7,464.8c0,1.3-1,2.3-2.3,2.3s-2.3-1-2.3-2.3s1-2.3,2.3-2.3S397.7,463.5,397.7,464.8z"/>
<path class="st12" d="M457.8,464.8c0,1.3-1,2.3-2.3,2.3c-1.3,0-2.3-1-2.3-2.3s1-2.3,2.3-2.3C456.8,462.5,457.8,463.5,457.8,464.8z"
	/>
<path class="st12" d="M427.8,464.8c0,1.3-1,2.3-2.3,2.3c-1.3,0-2.3-1-2.3-2.3s1-2.3,2.3-2.3C426.7,462.5,427.8,463.5,427.8,464.8z"
	/>
<path class="st12" d="M487.8,464.8c0,1.3-1,2.3-2.3,2.3s-2.3-1-2.3-2.3s1-2.3,2.3-2.3S487.8,463.5,487.8,464.8z"/>
<path class="st12" d="M517.7,464.8c0,1.3-1,2.3-2.3,2.3c-1.3,0-2.3-1-2.3-2.3s1-2.3,2.3-2.3C516.7,462.5,517.7,463.5,517.7,464.8z"
	/>
<path class="st12" d="M397.7,494.8c0,1.3-1,2.3-2.3,2.3s-2.3-1-2.3-2.3c0-1.3,1-2.3,2.3-2.3S397.7,493.5,397.7,494.8z"/>
<path class="st12" d="M457.8,494.8c0,1.3-1,2.3-2.3,2.3c-1.3,0-2.3-1-2.3-2.3c0-1.3,1-2.3,2.3-2.3
	C456.8,492.5,457.8,493.5,457.8,494.8z"/>
<path class="st12" d="M427.8,494.8c0,1.3-1,2.3-2.3,2.3c-1.3,0-2.3-1-2.3-2.3c0-1.3,1-2.3,2.3-2.3
	C426.7,492.5,427.8,493.5,427.8,494.8z"/>
<path class="st12" d="M487.8,494.8c0,1.3-1,2.3-2.3,2.3s-2.3-1-2.3-2.3c0-1.3,1-2.3,2.3-2.3S487.8,493.5,487.8,494.8z"/>
<path class="st12" d="M517.7,494.8c0,1.3-1,2.3-2.3,2.3c-1.3,0-2.3-1-2.3-2.3c0-1.3,1-2.3,2.3-2.3
	C516.7,492.5,517.7,493.5,517.7,494.8z"/>
<path class="st12" d="M397.7,524.7c0,1.3-1,2.3-2.3,2.3s-2.3-1-2.3-2.3s1-2.3,2.3-2.3S397.7,523.4,397.7,524.7z"/>
<path class="st12" d="M457.8,524.7c0,1.3-1,2.3-2.3,2.3c-1.3,0-2.3-1-2.3-2.3s1-2.3,2.3-2.3C456.8,522.4,457.8,523.4,457.8,524.7z"
	/>
<circle class="st12" cx="425.5" cy="524.7" r="2.3"/>
<path class="st12" d="M382.8,389.3c0,1.3-1,2.3-2.3,2.3c-1.3,0-2.3-1-2.3-2.3c0-1.3,1-2.3,2.3-2.3C381.8,387,382.8,388,382.8,389.3z
	"/>
<path class="st12" d="M352.6,389.3c0,1.3-1,2.3-2.3,2.3c-1.3,0-2.3-1-2.3-2.3c0-1.3,1-2.3,2.3-2.3C351.6,387,352.6,388,352.6,389.3z
	"/>
<path class="st12" d="M412.7,389.3c0,1.3-1,2.3-2.3,2.3c-1.3,0-2.3-1-2.3-2.3c0-1.3,1-2.3,2.3-2.3C411.7,387,412.7,388,412.7,389.3z
	"/>
<path class="st12" d="M472.8,389.3c0,1.3-1,2.3-2.3,2.3c-1.3,0-2.3-1-2.3-2.3c0-1.3,1-2.3,2.3-2.3C471.8,387,472.8,388,472.8,389.3z
	"/>
<path class="st12" d="M502.8,389.3c0,1.3-1,2.3-2.3,2.3c-1.3,0-2.3-1-2.3-2.3c0-1.3,1-2.3,2.3-2.3C501.7,387,502.8,388,502.8,389.3z
	"/>
<path class="st12" d="M442.8,389.3c0,1.3-1,2.3-2.3,2.3c-1.3,0-2.3-1-2.3-2.3c0-1.3,1-2.3,2.3-2.3C441.7,387,442.8,388,442.8,389.3z
	"/>
<path class="st12" d="M532.7,389.3c0,1.3-1,2.3-2.3,2.3c-1.3,0-2.3-1-2.3-2.3c0-1.3,1-2.3,2.3-2.3C531.7,387,532.7,388,532.7,389.3z
	"/>
<path class="st12" d="M562.8,389.3c0,1.3-1,2.3-2.3,2.3s-2.3-1-2.3-2.3c0-1.3,1-2.3,2.3-2.3S562.8,388,562.8,389.3z"/>
<path class="st12" d="M382.8,419c0,1.3-1,2.3-2.3,2.3c-1.3,0-2.3-1-2.3-2.3c0-1.3,1-2.3,2.3-2.3C381.8,416.7,382.8,417.8,382.8,419z
	"/>
<path class="st12" d="M412.7,419c0,1.3-1,2.3-2.3,2.3c-1.3,0-2.3-1-2.3-2.3c0-1.3,1-2.3,2.3-2.3C411.7,416.7,412.7,417.8,412.7,419z
	"/>
<path class="st12" d="M472.8,419c0,1.3-1,2.3-2.3,2.3c-1.3,0-2.3-1-2.3-2.3c0-1.3,1-2.3,2.3-2.3C471.8,416.7,472.8,417.8,472.8,419z
	"/>
<path class="st12" d="M442.8,419c0,1.3-1,2.3-2.3,2.3c-1.3,0-2.3-1-2.3-2.3c0-1.3,1-2.3,2.3-2.3C441.7,416.7,442.8,417.8,442.8,419z
	"/>
<path class="st12" d="M352.6,419c0,1.3-1,2.3-2.3,2.3c-1.3,0-2.3-1-2.3-2.3c0-1.3,1-2.3,2.3-2.3C351.6,416.7,352.6,417.8,352.6,419z
	"/>
<path class="st12" d="M502.8,419c0,1.3-1,2.3-2.3,2.3c-1.3,0-2.3-1-2.3-2.3c0-1.3,1-2.3,2.3-2.3C501.7,416.7,502.8,417.8,502.8,419z
	"/>
<path class="st12" d="M532.7,419c0,1.3-1,2.3-2.3,2.3c-1.3,0-2.3-1-2.3-2.3c0-1.3,1-2.3,2.3-2.3C531.7,416.7,532.7,417.8,532.7,419z
	"/>
<path class="st12" d="M562.8,419c0,1.3-1,2.3-2.3,2.3s-2.3-1-2.3-2.3c0-1.3,1-2.3,2.3-2.3S562.8,417.8,562.8,419z"/>
<path class="st12" d="M382.8,450.2c0,1.3-1,2.3-2.3,2.3c-1.3,0-2.3-1-2.3-2.3s1-2.3,2.3-2.3C381.8,447.9,382.8,449,382.8,450.2z"/>
<path class="st12" d="M412.7,450.2c0,1.3-1,2.3-2.3,2.3c-1.3,0-2.3-1-2.3-2.3s1-2.3,2.3-2.3C411.7,447.9,412.7,449,412.7,450.2z"/>
<path class="st12" d="M472.8,450.2c0,1.3-1,2.3-2.3,2.3c-1.3,0-2.3-1-2.3-2.3s1-2.3,2.3-2.3C471.8,447.9,472.8,449,472.8,450.2z"/>
<path class="st12" d="M442.8,450.2c0,1.3-1,2.3-2.3,2.3c-1.3,0-2.3-1-2.3-2.3s1-2.3,2.3-2.3C441.7,447.9,442.8,449,442.8,450.2z"/>
<path class="st12" d="M502.8,450.2c0,1.3-1,2.3-2.3,2.3c-1.3,0-2.3-1-2.3-2.3s1-2.3,2.3-2.3C501.7,447.9,502.8,449,502.8,450.2z"/>
<path class="st12" d="M382.8,479.3c0,1.3-1,2.3-2.3,2.3c-1.3,0-2.3-1-2.3-2.3c0-1.3,1-2.3,2.3-2.3C381.8,477,382.8,478,382.8,479.3z
	"/>
<path class="st12" d="M412.7,479.3c0,1.3-1,2.3-2.3,2.3c-1.3,0-2.3-1-2.3-2.3c0-1.3,1-2.3,2.3-2.3C411.7,477,412.7,478,412.7,479.3z
	"/>
<path class="st12" d="M472.8,479.3c0,1.3-1,2.3-2.3,2.3c-1.3,0-2.3-1-2.3-2.3c0-1.3,1-2.3,2.3-2.3C471.8,477,472.8,478,472.8,479.3z
	"/>
<path class="st12" d="M442.8,479.3c0,1.3-1,2.3-2.3,2.3c-1.3,0-2.3-1-2.3-2.3c0-1.3,1-2.3,2.3-2.3C441.7,477,442.8,478,442.8,479.3z
	"/>
<path class="st12" d="M502.8,479.3c0,1.3-1,2.3-2.3,2.3c-1.3,0-2.3-1-2.3-2.3c0-1.3,1-2.3,2.3-2.3C501.7,477,502.8,478,502.8,479.3z
	"/>
<path class="st12" d="M412.7,510.2c0,1.3-1,2.3-2.3,2.3c-1.3,0-2.3-1-2.3-2.3s1-2.3,2.3-2.3C411.7,507.9,412.7,509,412.7,510.2z"/>
<path class="st12" d="M472.8,510.2c0,1.3-1,2.3-2.3,2.3c-1.3,0-2.3-1-2.3-2.3s1-2.3,2.3-2.3C471.8,507.9,472.8,509,472.8,510.2z"/>
<path class="st12" d="M442.8,510.2c0,1.3-1,2.3-2.3,2.3c-1.3,0-2.3-1-2.3-2.3s1-2.3,2.3-2.3C441.7,507.9,442.8,509,442.8,510.2z"/>
<path class="st12" d="M502.8,510.2c0,1.3-1,2.3-2.3,2.3c-1.3,0-2.3-1-2.3-2.3s1-2.3,2.3-2.3C501.7,507.9,502.8,509,502.8,510.2z"/>
<path class="st12" d="M382.8,539.2c0,1.3-1,2.3-2.3,2.3c-1.3,0-2.3-1-2.3-2.3s1-2.3,2.3-2.3C381.8,536.9,382.8,537.9,382.8,539.2z"
	/>
<path class="st12" d="M412.7,539.2c0,1.3-1,2.3-2.3,2.3c-1.3,0-2.3-1-2.3-2.3s1-2.3,2.3-2.3C411.7,536.9,412.7,537.9,412.7,539.2z"
	/>
<path class="st12" d="M442.8,539.2c0,1.3-1,2.3-2.3,2.3c-1.3,0-2.3-1-2.3-2.3s1-2.3,2.3-2.3C441.7,536.9,442.8,537.9,442.8,539.2z"
	/>
<path class="st5" d="M417.7,553.3l119.6-61.2l41.3,28.8c0,0-6.9,35.9-143.8,55.4L417.7,553.3z"/>
<path class="st19" d="M525,497.8c0,0,8.6-5.2,17.5-2.1"/>
<ellipse class="st8" cx="640.7" cy="321" rx="13.3" ry="13.3"/>
<circle class="st8" cx="336.5" cy="639.2" r="8.1"/>
<polygon class="st8" points="293.7,123.4 289.8,92.4 317.3,105.2 "/>
<ellipse class="st20" cx="466.2" cy="242.7" rx="18.9" ry="21.2"/>
<path class="st10" d="M457.5,226.2c0,0-7.8-60-58.8-53.5l20.7-9c0,0,43.7,0.5,51.1,66.7L457.5,226.2z"/>
<path class="st10" d="M463.3,246.7c0,0-11.6,27-24.5,27l4.8,6.9c0,0,21.3-9.1,26.3-34H463.3z"/>
<path class="st20" d="M148,167.8l1.8,3.7c0.5,0.9,1.4,1.6,2.4,1.7l4,0.6c2.6,0.4,3.7,3.6,1.8,5.4l-2.9,2.8c-0.8,0.7-1.1,1.8-0.9,2.8
	l0.7,4c0.4,2.6-2.3,4.6-4.6,3.4l-3.6-1.9c-0.9-0.5-2-0.5-3,0l-3.6,1.9c-2.3,1.2-5.1-0.8-4.6-3.4l0.7-4c0.2-1-0.2-2.1-0.9-2.8
	l-2.9-2.8c-1.9-1.8-0.8-5.1,1.8-5.4l4-0.6c1-0.2,1.9-0.8,2.4-1.7l1.8-3.7C143.4,165.4,146.8,165.4,148,167.8z"/>
<path class="st20" d="M181.8,167.8l1.8,3.7c0.5,0.9,1.4,1.6,2.4,1.7l4,0.6c2.6,0.4,3.7,3.6,1.8,5.4l-2.9,2.8
	c-0.8,0.7-1.1,1.8-0.9,2.8l0.7,4c0.4,2.6-2.3,4.6-4.6,3.4l-3.6-1.9c-0.9-0.5-2-0.5-3,0l-3.6,1.9c-2.3,1.2-5.1-0.8-4.6-3.4l0.7-4
	c0.2-1-0.2-2.1-0.9-2.8l-2.9-2.8c-1.9-1.8-0.8-5.1,1.8-5.4l4-0.6c1-0.2,1.9-0.8,2.4-1.7l1.8-3.7
	C177.2,165.4,180.6,165.4,181.8,167.8z"/>
<path class="st20" d="M215.5,167.8l1.8,3.7c0.5,0.9,1.4,1.6,2.4,1.7l4,0.6c2.6,0.4,3.7,3.6,1.8,5.4l-2.9,2.8
	c-0.8,0.7-1.1,1.8-0.9,2.8l0.7,4c0.4,2.6-2.3,4.6-4.6,3.4l-3.6-1.9c-0.9-0.5-2-0.5-3,0l-3.6,1.9c-2.3,1.2-5.1-0.8-4.6-3.4l0.7-4
	c0.2-1-0.2-2.1-0.9-2.8l-2.9-2.8c-1.9-1.8-0.8-5.1,1.8-5.4l4-0.6c1-0.2,1.9-0.8,2.4-1.7l1.8-3.7C211,165.4,214.4,165.4,215.5,167.8z
	"/>
<path class="st20" d="M249.3,167.8l1.8,3.7c0.5,0.9,1.4,1.6,2.4,1.7l4,0.6c2.6,0.4,3.7,3.6,1.8,5.4l-2.9,2.8
	c-0.8,0.7-1.1,1.8-0.9,2.8l0.7,4c0.4,2.6-2.3,4.6-4.6,3.4l-3.6-1.9c-0.9-0.5-2-0.5-3,0l-3.6,1.9c-2.3,1.2-5.1-0.8-4.6-3.4l0.7-4
	c0.2-1-0.2-2.1-0.9-2.8l-2.9-2.8c-1.9-1.8-0.8-5.1,1.8-5.4l4-0.6c1-0.2,1.9-0.8,2.4-1.7l1.8-3.7
	C244.8,165.4,248.2,165.4,249.3,167.8z"/>
<path class="st20" d="M283.1,167.8l1.8,3.7c0.5,0.9,1.4,1.6,2.4,1.7l4,0.6c2.6,0.4,3.7,3.6,1.8,5.4l-2.9,2.8
	c-0.8,0.7-1.1,1.8-0.9,2.8l0.7,4c0.4,2.6-2.3,4.6-4.6,3.4l-3.6-1.9c-0.9-0.5-2-0.5-3,0l-3.6,1.9c-2.3,1.2-5.1-0.8-4.6-3.4l0.7-4
	c0.2-1-0.2-2.1-0.9-2.8l-2.9-2.8c-1.9-1.8-0.8-5.1,1.8-5.4l4-0.6c1-0.2,1.9-0.8,2.4-1.7l1.8-3.7
	C278.6,165.4,281.9,165.4,283.1,167.8z"/>
<path class="st10" d="M402.7,271.4l17.9-1.6c0,0-1.4,12.7-8.9,12.5C404.1,282.1,402.7,271.4,402.7,271.4z"/>
<ellipse transform="matrix(0.9965 -8.414855e-02 8.414855e-02 0.9965 -18.6075 40.3514)" class="st7" cx="469.4" cy="240.9" rx="10.4" ry="12.3"/>
<path class="st8" d="M455.4,260.2c0,0,3.7,4.1,9,3.8"/>
<ellipse transform="matrix(0.9845 -0.1753 0.1753 0.9845 -42.0838 80.925)" class="st7" cx="436.9" cy="278.6" rx="10.7" ry="8.3"/>
<line class="st8" x1="41.7" y1="590.4" x2="604.9" y2="590.4"/>
<g>
	<path class="st21" d="M583.9,223.6c-0.3-5.1,3.3-9.1,8.1-9.4c4.8-0.2,8.7,3.3,8.9,8.5c0.3,5.1-3.2,9.1-8,9.4
		C588.1,232.3,584.1,228.8,583.9,223.6z M583.3,167.4l-1-13l13.3-0.7l0.2,13.1l0.2,39.1l-8.8,0.5L583.3,167.4z"/>
</g>
<g>
	<path class="st12" d="M644.4,178.5c1.4-5.3-1-9.7-6.7-11.2c-4.5-1.2-8.8,0.1-12.9,2.8l-5.4-8.4c6.3-4.4,14.3-6.6,22.6-4.5
		c11.5,3,18.2,11.5,15.1,23.5c-3.6,14.1-22.2,14.6-24.4,29.3l-11.2-2.9C623.3,190.5,641.8,188.5,644.4,178.5z M614.7,223.1
		c1.3-5,5.8-7.7,10.4-6.5c4.7,1.2,7.4,5.8,6.1,10.8c-1.3,5-5.9,7.7-10.6,6.5C616,232.7,613.4,228.1,614.7,223.1z"/>
</g>
</svg>
