<?xml version="1.0" encoding="utf-8"?>
<!-- Generator: Adobe Illustrator 25.2.3, SVG Export Plug-In . SVG Version: 6.00 Build 0)  -->
<svg version="1.1" id="Layer_1" xmlns="http://www.w3.org/2000/svg" xmlns:xlink="http://www.w3.org/1999/xlink" x="0px" y="0px"
	 viewBox="0 0 168 168" style="enable-background:new 0 0 168 168;" xml:space="preserve">
<style type="text/css">
	.st0{fill:#2B3B47;}
	.st1{fill:#E84621;}
</style>
<path class="st0" d="M168,84c0,46.4-37.6,84-84,84c-46.4,0-84-37.6-84-84C0,37.6,37.6,0,84,0C130.4,0,168,37.6,168,84z"/>
<path class="st1" d="M118.8,69.8c-2.7-3.9-5.4-7.7-6.4-9.2c-2.5-3.6-3.7-5.1-8.4-5.1c0,0-18,0-24,0l-2.9,26.2h-2.8l0.9-8.6l-24-17.2
	c-1.3-1.3-3.4-1.3-4.7,0c-1.3,1.3-1.3,3.3,0,4.6L35,74.4c-0.6-0.1-1.3,0.2-1.7,0.7l-4.6,5.5c-0.3,0.3-0.7,0.5-1.1,0.5
	c-0.8,0-1.4-0.6-1.4-1.4c0-0.8,0.6-1.4,1.4-1.4c1.1,0,1.9-0.9,1.9-1.9s-0.9-1.9-1.9-1.9c-2.9,0-5.3,2.4-5.3,5.3
	c0,2.9,2.4,5.3,5.3,5.3c1.5,0,2.9-0.6,4-1.8l4.6-5.5c0.4-0.5,0.5-1.1,0.4-1.7L48,62.4l8.9,13.7L56,81.7H42.7l-8.8,8.7v9.2l5.4,3.3
	c1.7,5.9,7.1,10.2,13.5,10.2c5.2,0,9.7-2.8,12.1-7h49.8c2.4,4.2,6.9,7,12.1,7c5.6,0,10.4-3.3,12.6-8l4.3-1.5V79.1L118.8,69.8z
	 M52.8,105.8c-3.7,0-6.7-3-6.7-6.7c0-3.7,3-6.7,6.7-6.7c3.7,0,6.7,3,6.7,6.7C59.5,102.8,56.5,105.8,52.8,105.8z M109,72.2H90.8
	l0.4-11.9h12.9c2.2,0,2.2,0,4.3,3c0.7,1,2.1,3.1,3.8,5.5L109,72.2z M126.8,105.8c-3.7,0-6.7-3-6.7-6.7c0-3.7,3-6.7,6.7-6.7
	s6.7,3,6.7,6.7C133.5,102.8,130.5,105.8,126.8,105.8z"/>
</svg>
