<?xml version="1.0" encoding="utf-8"?>
<!-- Generator: Adobe Illustrator 25.2.3, SVG Export Plug-In . SVG Version: 6.00 Build 0)  -->
<svg version="1.1" id="Layer_1" xmlns="http://www.w3.org/2000/svg" xmlns:xlink="http://www.w3.org/1999/xlink" x="0px" y="0px"
	 viewBox="0 0 150 150" style="enable-background:new 0 0 150 150;" xml:space="preserve">
<style type="text/css">
	.st0{fill:#ADC6E1;}
	.st1{fill:#37474F;}
</style>
<path class="st0" d="M150,75c0,41.4-33.6,75-75,75c-41.4,0-75-33.6-75-75C0,33.6,33.6,0,75,0C116.4,0,150,33.6,150,75z"/>
<path class="st1" d="M106.1,62.3c-2.4-3.5-4.8-6.9-5.7-8.2c-2.2-3.2-3.3-4.6-7.5-4.6c0,0-16.1,0-21.4,0L69,72.9h-2.5l0.8-7.7
	L45.9,49.9c-1.1-1.1-3-1.1-4.2,0c-1.1,1.1-1.1,2.9,0,4.1L31.2,66.5c-0.6-0.1-1.1,0.2-1.5,0.6L25.6,72c-0.2,0.3-0.6,0.4-0.9,0.4
	c-0.7,0-1.3-0.6-1.3-1.3c0-0.7,0.6-1.3,1.3-1.3c1,0,1.7-0.8,1.7-1.7s-0.8-1.7-1.7-1.7c-2.6,0-4.7,2.1-4.7,4.7c0,2.6,2.1,4.7,4.7,4.7
	c1.3,0,2.6-0.6,3.6-1.6l4.1-4.9c0.4-0.4,0.5-1,0.3-1.6l10.1-12l7.9,12.2l-0.8,5H38.1l-7.9,7.7v8.2l4.8,2.9c1.5,5.3,6.3,9.1,12,9.1
	c4.6,0,8.6-2.5,10.8-6.2h44.5c2.2,3.7,6.2,6.2,10.8,6.2c5,0,9.2-2.9,11.3-7.1l3.8-1.4V70.6L106.1,62.3z M47.1,94.5c-3.3,0-6-2.7-6-6
	c0-3.3,2.7-6,6-6c3.3,0,6,2.7,6,6C53.1,91.8,50.4,94.5,47.1,94.5z M97.3,64.5H81.1l0.4-10.6h11.5c2,0,2,0,3.9,2.7
	c0.6,0.9,1.9,2.7,3.4,4.9L97.3,64.5z M113.2,94.5c-3.3,0-6-2.7-6-6c0-3.3,2.7-6,6-6c3.3,0,6,2.7,6,6
	C119.2,91.8,116.5,94.5,113.2,94.5z"/>
</svg>
