<?xml version="1.0" encoding="utf-8"?>
<!-- Generator: Adobe Illustrator 25.2.3, SVG Export Plug-In . SVG Version: 6.00 Build 0)  -->
<svg version="1.1" id="Layer_1" xmlns="http://www.w3.org/2000/svg" xmlns:xlink="http://www.w3.org/1999/xlink" x="0px" y="0px"
	 viewBox="0 0 70 70" style="enable-background:new 0 0 70 70;" xml:space="preserve">
<style type="text/css">
	.st0{fill:#41586B;}
	.st1{fill:#E84621;}
</style>
<g>
	<g>
		<g>
			<path class="st0" d="M69,33.3c0-0.1-0.1-0.2-0.1-0.3c0.5-0.1,0.7-0.5,0.7-0.9l-0.2-1.7c-0.1-0.4-0.5-0.8-0.9-0.7
				c0-0.1,0-0.2-0.1-0.4c0.4-0.1,0.7-0.6,0.6-1l-0.4-1.7c-0.1-0.4-0.5-0.7-0.9-0.7c0-0.1-0.1-0.2-0.1-0.2c0.4-0.2,0.6-0.6,0.5-1
				l-0.5-1.6c-0.1-0.4-0.6-0.6-1-0.6c0-0.1-0.1-0.2-0.1-0.3c0.4-0.2,0.5-0.7,0.3-1.1l-0.7-1.6c-0.2-0.4-0.6-0.6-1-0.4
				c0-0.1-0.1-0.2-0.1-0.2c0.3-0.3,0.4-0.7,0.2-1.1l-0.9-1.5c-0.2-0.4-0.7-0.5-1-0.3c0-0.1-0.1-0.1-0.1-0.2c0.3-0.3,0.3-0.8,0.1-1.1
				l-1-1.4c-0.2-0.3-0.7-0.4-1.1-0.2c0,0-0.1-0.1-0.1-0.2c0.2-0.3,0.2-0.8-0.1-1.1l-1.2-1.2c-0.3-0.3-0.7-0.4-1.1-0.2
				c0,0,0-0.1-0.1-0.1c0.2-0.3,0.1-0.8-0.2-1.1l-1.3-1.1C57,8,56.7,7.9,56.4,8c0.1-0.3-0.1-0.6-0.3-0.8l-1.4-1c-0.3-0.2-0.7-0.2-1,0
				c0,0,0,0,0,0c0.1-0.4,0-0.8-0.4-1l-1.5-0.9c-0.3-0.2-0.7-0.1-1,0.1c0,0,0,0-0.1,0c0-0.3-0.1-0.7-0.5-0.9l-1.5-0.7
				c-0.3-0.2-0.7-0.1-1,0.2C47.6,3,47.5,3,47.5,3c0-0.3-0.2-0.7-0.6-0.8l-1.6-0.6c-0.4-0.1-0.7,0-0.9,0.3c-0.1,0-0.1,0-0.2-0.1
				c0-0.3-0.3-0.6-0.6-0.7l-1.7-0.4c-0.4-0.1-0.7,0.1-0.9,0.4c-0.1,0-0.2,0-0.4-0.1c-0.1-0.3-0.4-0.6-0.7-0.6l-1.7-0.2
				c-0.4,0-0.7,0.1-0.9,0.5c-0.2,0-0.4,0-0.5,0C36.7,0.3,36.4,0,36,0l-1.7,0c-0.4,0-0.7,0.2-0.8,0.5c-0.2,0-0.4,0-0.6,0
				c-0.2-0.3-0.5-0.5-0.8-0.5l-1.7,0.2c-0.4,0-0.6,0.3-0.7,0.6c-0.2,0-0.4,0.1-0.5,0.1c-0.2-0.3-0.5-0.4-0.9-0.4L26.6,1
				C26.3,1,26,1.3,26,1.7c-0.2,0-0.3,0.1-0.5,0.1c-0.2-0.3-0.6-0.4-0.9-0.3L23,2.1c-0.3,0.1-0.6,0.4-0.6,0.7c-0.1,0-0.2,0.1-0.3,0.1
				c-0.2-0.2-0.6-0.3-0.9-0.2l-1.6,0.7c-0.3,0.2-0.5,0.5-0.5,0.8c-0.1,0.1-0.3,0.1-0.4,0.2c-0.3-0.2-0.6-0.2-0.9-0.1l-1.5,0.9
				c-0.3,0.2-0.5,0.5-0.4,0.9c-0.1,0.1-0.2,0.2-0.4,0.2c-0.3-0.2-0.7-0.2-0.9,0.1l-1.4,1c-0.3,0.2-0.4,0.6-0.3,0.9
				c-0.1,0.1-0.2,0.2-0.3,0.3c-0.3-0.1-0.7-0.1-1,0.1L10.4,10c-0.3,0.2-0.3,0.6-0.2,0.9c-0.1,0-0.1,0.1-0.1,0.1
				c-0.3-0.1-0.7,0-0.9,0.2L8,12.5c-0.2,0.3-0.3,0.7-0.1,1c0,0-0.1,0.1-0.1,0.1c-0.3-0.1-0.7,0-0.9,0.3l-1,1.4c-0.2,0.3-0.2,0.7,0,1
				c0,0.1-0.1,0.1-0.1,0.2c-0.4-0.1-0.7,0.1-0.9,0.4l-0.8,1.5c-0.2,0.3-0.1,0.7,0.1,1c0,0,0,0,0,0c-0.4,0-0.7,0.2-0.9,0.5l-0.7,1.6
				c-0.1,0.3,0,0.7,0.2,1c0,0.1-0.1,0.3-0.1,0.4c-0.4,0-0.7,0.2-0.8,0.6l-0.5,1.6c-0.1,0.4,0,0.8,0.3,1c0,0.1,0,0.1-0.1,0.2
				c-0.4,0-0.7,0.3-0.8,0.7l-0.4,1.7c-0.1,0.4,0.1,0.8,0.5,0.9c0,0.1,0,0.1,0,0.2c-0.4,0.1-0.7,0.4-0.7,0.7L0,32.2
				c0,0.4,0.2,0.8,0.6,0.9c0,0.1,0.1,0.2,0.1,0.3c-0.4,0.1-0.6,0.4-0.6,0.8v1.7c0,0.4,0.2,0.7,0.6,0.8c0,0.1,0,0.2,0,0.3
				C0.3,37.1,0,37.5,0,37.9l0.2,1.7c0,0.4,0.4,0.7,0.8,0.8c0,0.1,0,0.3,0.1,0.4c-0.4,0.1-0.6,0.6-0.5,1l0.4,1.7
				C1,43.8,1.4,44.1,1.8,44c0,0.1,0.1,0.2,0.1,0.3c-0.4,0.2-0.6,0.6-0.4,1L2,46.9c0.1,0.4,0.6,0.6,1,0.6C3,47.6,3,47.7,3.1,47.8
				c-0.4,0.2-0.5,0.7-0.3,1.1l0.7,1.5c0.2,0.4,0.7,0.6,1.1,0.4c0,0.1,0.1,0.1,0.1,0.2c-0.4,0.2-0.5,0.7-0.2,1.1l0.9,1.5
				C5.5,54.1,6,54.2,6.4,54c0,0.1,0.1,0.1,0.1,0.1c-0.3,0.3-0.4,0.8-0.1,1.2l1,1.4c0.3,0.4,0.8,0.4,1.2,0.2c0,0,0.1,0.1,0.1,0.1
				c-0.3,0.3-0.3,0.8,0,1.2l1.2,1.2c0.3,0.3,0.9,0.4,1.2,0c0,0,0,0,0,0c-0.3,0.3-0.3,0.9,0.1,1.2l1.3,1.1c0.2,0.2,0.6,0.3,0.9,0.1
				c0,0.3,0.1,0.6,0.3,0.8l1.4,1c0.3,0.2,0.8,0.2,1.1-0.1c-0.1,0.4,0,0.8,0.4,1l1.5,0.9c0.4,0.2,0.9,0.1,1.1-0.2
				c-0.1,0.4,0.1,0.8,0.4,1l1.5,0.7c0.4,0.2,0.9,0,1.1-0.4l0,0c0,0,0.1,0,0.1,0l0,0.1c-0.2,0.4,0.1,0.9,0.5,1.1l1.6,0.5
				c0.5,0.2,0.9-0.1,1.1-0.5l0-0.1c0,0,0,0,0.1,0l0,0.1c-0.1,0.5,0.2,0.9,0.6,1l1.7,0.4c0.5,0.1,0.9-0.2,1-0.6l0-0.1
				c0.1,0,0.2,0,0.2,0l0,0.1c0,0.5,0.3,0.9,0.7,1l1.7,0.2c0.5,0.1,0.9-0.3,0.9-0.7l0.2-0.1c0.1,0,0.5,0,0.5,0v0.1
				c0,0.5,0.2,0.8,0.7,0.8l1.6,0c0.5,0,0.7-0.4,0.7-0.8V69c0,0,0.3,0,0.5,0l0,0.1c0,0.5,0.5,0.8,0.9,0.8l1.7-0.2
				c0.5,0,0.8-0.5,0.8-0.9l0-0.1c0.1,0,0.2,0,0.4-0.1l0,0.1c0.1,0.5,0.6,0.7,1,0.7L43,69c0.5-0.1,0.8-0.5,0.7-1l0-0.1
				c0.1,0,0.2,0,0.3-0.1l0,0.1c0.1,0.4,0.6,0.7,1.1,0.5l1.6-0.5c0.4-0.1,0.7-0.6,0.5-1.1l0-0.1c0.1,0,0.1,0,0.2-0.1l0,0.1
				c0.2,0.4,0.7,0.6,1.1,0.4l1.5-0.7c0.4-0.2,0.6-0.7,0.4-1.1l0-0.1c0.1,0,0.1-0.1,0.2-0.1l0.1,0.1c0.2,0.4,0.8,0.5,1.2,0.3l1.5-0.9
				c0.4-0.2,0.5-0.8,0.3-1.2l-0.1-0.1c0.1,0,0.2-0.1,0.2-0.1l0.1,0.1c0.3,0.4,0.8,0.4,1.2,0.2l1.4-1c0.4-0.3,0.5-0.8,0.2-1.2
				l-0.1-0.1c0,0,0.1-0.1,0.2-0.1l0.1,0.1c0.3,0.3,0.9,0.4,1.2,0l1.2-1.2c0.3-0.3,0.4-0.8,0-1.2l-0.1-0.1c0,0,0,0,0,0l0.1,0.1
				c0.4,0.3,0.9,0.3,1.2-0.1l1.1-1.3c0.3-0.3,0.3-0.9-0.1-1.2l0,0l0,0c0.4,0.3,0.9,0.2,1.2-0.2l1-1.4c0.3-0.4,0.2-0.9-0.2-1.2
				l-0.1-0.1c0,0,0-0.1,0.1-0.1l0.1,0c0.4,0.2,0.9,0.1,1.2-0.3l0.8-1.5c0.2-0.3,0.1-0.8-0.1-1c0.4,0.1,0.8-0.1,0.9-0.5l0.7-1.6
				c0.2-0.4,0-0.9-0.4-1.1l0,0c0-0.1,0.1-0.2,0.1-0.3l0,0c0.4,0.1,0.9-0.1,1.1-0.5l0.5-1.6c0.1-0.4-0.1-0.9-0.5-1.1l0,0
				c0,0,0-0.1,0-0.1l0,0c0.5,0.1,0.9-0.2,1-0.7l0.3-1.7c0.1-0.5-0.2-1-0.6-1h0h0h0h0h0c0.5,0,0.9-0.3,0.9-0.8l0.2-1.7
				c0-0.5-0.3-0.9-0.8-1l0-0.2c0-0.1,0-0.4,0-0.4h0c0.5,0,1.1,0,1.1-0.5v-1.7C70,33.7,69.5,33.3,69,33.3z M34.7,61.8
				c-14.9,0-27-12.1-27-27c0-14.9,12.1-27,27-27c14.9,0,27,12.1,27,27C61.7,49.7,49.6,61.8,34.7,61.8z"/>
		</g>
	</g>
	<path class="st1" d="M34.8,11.5c-12.6,0-22.9,10.5-22.9,23.5c0,12.9,10.3,23.5,22.9,23.5c12.6,0,22.9-10.5,22.9-23.5
		C57.6,22.1,47.4,11.5,34.8,11.5z M33.1,13.6v15.2c-2,0.4-2.6,1.3-3.4,2.4l-13.8-5C18.9,19.2,25.1,14.3,33.1,13.6z M13.8,35
		c0-1.8,0.2-3.6,0.6-5.3l13.8,5c0,0.1,0,0.1,0,0.2c0,1.4,0.5,2.8,1.3,3.9l-9,11.9C16.4,46.8,13.8,41.2,13.8,35z M34.8,56.5
		c-5.3,0-10.1-2-13.8-5.3l2.6,1.9l9-11.9c0.7,0.2,1.4,0.4,2.1,0.4c0.8,0,1.5-0.1,2.2-0.4L46,53l2.5-1.8C44.8,54.5,40,56.5,34.8,56.5
		z M55.7,35c0,6.2-2.6,11.8-6.7,15.8l-9-11.9c0.8-1.1,1.3-2.4,1.3-3.8c0-0.1,0-0.1,0-0.2l13.8-5.1C55.5,31.4,55.7,33.2,55.7,35z
		 M40.3,31.2c-0.8-1.1-2.2-2-3.2-2.4V13.6c7,0.7,13.9,5.7,17,12.6L40.3,31.2z"/>
</g>
</svg>
