<?xml version="1.0" encoding="utf-8"?>
<!-- Generator: Adobe Illustrator 25.2.3, SVG Export Plug-In . SVG Version: 6.00 Build 0)  -->
<svg version="1.1" id="Layer_1" xmlns="http://www.w3.org/2000/svg" xmlns:xlink="http://www.w3.org/1999/xlink" x="0px" y="0px"
	 viewBox="0 0 51 67" style="enable-background:new 0 0 51 67;" xml:space="preserve">
<style type="text/css">
	.st0{fill:#E84621;}
	.st1{fill:#41586B;}
	.st2{fill:#F9B232;}
</style>
<g>
	<rect x="5" y="5" class="st0" width="29" height="28"/>
	<g>
		<g>
			<path class="st1" d="M42.6,4.5l-0.9,1.6l5,5.7c1,1.5,1.4,2.7,1.4,4.1v31.8c0,1.3-0.8,2.4-2.1,2.4h-0.3c-1.3,0-2.6-1.2-2.6-2.4
				V29.8c0-3-2.1-5.8-5.1-5.8H35v3h2.9c1.4,0,2.1,1.3,2.1,2.8v17.8c0,2.8,2.8,5.4,5.6,5.4h0.3c2.8,0,5.1-2.6,5.1-5.4V16.2
				c0-2.1-0.8-4.1-2.3-5.6L42.6,4.5z"/>
		</g>
		<g>
			<path class="st1" d="M46,12.4V9h-2v3.4c0,1.6,0.7,3,1.8,4.2l3.5,3.4l1.1-1.1l-3.3-3.4C46.3,14.6,46,13.6,46,12.4z"/>
		</g>
	</g>
	<path class="st2" d="M32.8,0H6.9C4.8,0,3,2,3,4.1V61h34V4.1C37,2,34.9,0,32.8,0z M31,21.1c0,2.1-1.1,3.9-3.3,3.9H11.9
		C9.8,25,8,23.3,8,21.1V10.4C8,8.2,9.8,7,11.9,7h15.8c2.1,0,3.3,1.2,3.3,3.4V21.1z"/>
	<rect y="61" class="st1" width="40" height="6"/>
</g>
</svg>
