<?xml version="1.0" encoding="utf-8"?>
<!-- Generator: Adobe Illustrator 25.2.3, SVG Export Plug-In . SVG Version: 6.00 Build 0)  -->
<svg version="1.1" id="Layer_1" xmlns="http://www.w3.org/2000/svg" xmlns:xlink="http://www.w3.org/1999/xlink" x="0px" y="0px"
	 viewBox="0 0 69 69" style="enable-background:new 0 0 69 69;" xml:space="preserve">
<style type="text/css">
	.st0{fill:#F9B232;}
	.st1{fill:#41586B;}
</style>
<g>
	<circle class="st0" cx="34.5" cy="33.6" r="33.6"/>
	<g>
		<g>
			<rect x="32.8" y="2.7" class="st1" width="3" height="7"/>
		</g>
		<g>
			<rect x="58.8" y="32.9" class="st1" width="8" height="3"/>
		</g>
		<g>
			<rect x="2.7" y="32.9" class="st1" width="7" height="3"/>
		</g>
		<g>
			<rect x="6.2" y="46.9" transform="matrix(0.866 -0.5 0.5 0.866 -22.9614 11.5287)" class="st1" width="7.6" height="3.3"/>
		</g>
		<g>
			<rect x="55.2" y="18.7" transform="matrix(0.866 -0.5 0.5 0.866 -2.2806 32.21)" class="st1" width="7.6" height="3.3"/>
		</g>
		<g>
			<rect x="18.7" y="6.2" transform="matrix(0.866 -0.5 0.5 0.866 -2.2803 11.5296)" class="st1" width="3.3" height="7.6"/>
		</g>
		<g>
			<rect x="57.3" y="44.8" transform="matrix(0.5 -0.866 0.866 0.5 -12.6169 75.3717)" class="st1" width="3.3" height="7.6"/>
		</g>
		<g>
			<rect x="8.4" y="16.6" transform="matrix(0.5 -0.866 0.866 0.5 -12.6163 18.8697)" class="st1" width="3.3" height="7.6"/>
		</g>
		<g>
			<rect x="44.8" y="8.3" transform="matrix(0.5 -0.8661 0.8661 0.5 15.6375 47.1228)" class="st1" width="7.6" height="3.3"/>
		</g>
		<g>
			<path class="st1" d="M34.5,0C15.5,0,0,15.5,0,34.5C0,53.5,15.5,69,34.5,69S69,53.5,69,34.5C69,15.5,53.5,0,34.5,0z M34.5,64.2
				c-16.4,0-29.7-13.3-29.7-29.7c0-16.4,13.3-29.7,29.7-29.7c16.4,0,29.7,13.3,29.7,29.7C64.2,50.9,50.9,64.2,34.5,64.2z"/>
		</g>
	</g>
	<rect x="22.8" y="48.9" class="st1" width="24" height="5"/>
	<path class="st1" d="M52.2,17.7L31.6,33.2l2.7,2.7l2.7,2.7L52.5,18C52.6,17.8,52.5,17.6,52.2,17.7z"/>
	<path class="st1" d="M34.5,30.1c-3.1,0-5.6,2.5-5.6,5.6c0,3.1,2.5,5.6,5.6,5.6c3.1,0,5.6-2.5,5.6-5.6
		C40.1,32.6,37.6,30.1,34.5,30.1z"/>
</g>
</svg>
