<?xml version="1.0" encoding="utf-8"?>
<!-- Generator: Adobe Illustrator 25.2.3, SVG Export Plug-In . SVG Version: 6.00 Build 0)  -->
<svg version="1.1" id="Layer_1" xmlns="http://www.w3.org/2000/svg" xmlns:xlink="http://www.w3.org/1999/xlink" x="0px" y="0px"
	 viewBox="0 0 58 49" style="enable-background:new 0 0 58 49;" xml:space="preserve">
<style type="text/css">
	.st0{fill:#F9B232;}
	.st1{fill:#41586B;}
	.st2{fill:#E84621;}
</style>
<g>
	<g>
		<rect y="7" class="st0" width="58" height="42"/>
		<rect y="7" class="st1" width="58" height="3"/>
		<g>
			<rect x="9" class="st2" width="7" height="7"/>
			<rect x="41" class="st2" width="7" height="7"/>
		</g>
		<polygon class="st2" points="14,16 12,16 12,19 8,19 8,22 12,22 12,25 14,25 14,22 17,22 17,19 14,19 		"/>
		<rect x="40" y="19" class="st2" width="9" height="3"/>
	</g>
	<polygon class="st2" points="28.4,30 31.5,18.6 24.3,31.3 22.8,34 26,34 29.1,34 26,45.6 33.2,32.6 34.6,30 31.5,30 	"/>
</g>
</svg>
