<?xml version="1.0" encoding="utf-8"?>
<!-- Generator: Adobe Illustrator 25.2.3, SVG Export Plug-In . SVG Version: 6.00 Build 0)  -->
<svg version="1.1" id="Layer_1" xmlns="http://www.w3.org/2000/svg" xmlns:xlink="http://www.w3.org/1999/xlink" x="0px" y="0px"
	 viewBox="0 0 56 65" style="enable-background:new 0 0 56 65;" xml:space="preserve">
<style type="text/css">
	.st0{fill:#F9B232;}
	.st1{fill:#FFFFFF;}
	.st2{fill:#41586B;}
	.st3{fill:#E84621;}
</style>
<g>
	<rect x="2" y="35.9" class="st0" width="52" height="17.1"/>
	<path class="st1" d="M52.4,33l0.1-0.1h-4h0H7.9l0,0.1l-3.9,0l-0.2,0.1C1.8,33.2,0,34.9,0,37v14.3C0,53.4,2,55,4.2,55h48
		c2.2,0,3.8-1.5,3.8-3.7V37C56,34.9,54.5,33.1,52.4,33z M9.1,49.2c-2.4,0-4.4-2-4.4-4.4c0-2.4,2-4.4,4.4-4.4c2.4,0,4.4,2,4.4,4.4
		C13.5,47.2,11.5,49.2,9.1,49.2z M47.4,49.2c-2.4,0-4.4-2-4.4-4.4c0-2.4,2-4.4,4.4-4.4s4.4,2,4.4,4.4C51.8,47.2,49.8,49.2,47.4,49.2
		z"/>
	<path class="st0" d="M8.7,16.8L7.3,35.5c0.9-0.2,1.9-0.4,2.9-0.4c13.5-0.1,27.1,0.1,40.6,0.2l-2-18.4H8.7z"/>
	<path class="st2" d="M52.4,33.1l-3.3-13.9c-0.5-2.4-2.5-4.3-5-4.3H12.3c-2.4,0-4.5,1.9-5,4.3L3.8,33C1.8,33.2,0,34.9,0,37v14.3
		C0,53.4,2,55,4.2,55H5v7.7C5,64,5.7,65,7,65h3.9c1.3,0,2.1-1,2.1-2.3V55h30v7.7c0,1.3,1.2,2.3,2.5,2.3h3.9c1.3,0,2.6-1,2.6-2.3V55
		h0.2c2.2,0,3.8-1.5,3.8-3.7V37C56,34.9,54.5,33.2,52.4,33.1z M11.1,19.9c0.1-0.6,0.6-1.1,1.2-1.1h31.9c0.6,0,1.1,0.4,1.2,1.1
		l3.1,12.9H7.9L11.1,19.9z M9.1,49.2c-2.4,0-4.4-2-4.4-4.4c0-2.4,2-4.4,4.4-4.4s4.4,2,4.4,4.4C13.5,47.2,11.5,49.2,9.1,49.2z
		 M47.4,49.2c-2.4,0-4.4-2-4.4-4.4c0-2.4,2-4.4,4.4-4.4s4.4,2,4.4,4.4C51.8,47.2,49.8,49.2,47.4,49.2z"/>
	<g>
		<g>
			<path class="st2" d="M47,0c-3.1,0-6,2.6-6,5.7v6.4c0,0.4,0.6,0.7,1,0.7c0.4,0,1-0.3,1-0.7V5.7c0-2.4,1.6-4.4,4-4.4
				c2.4,0,4,2,4,4.4v7.6c0,0.4,0.6,0.7,1,0.7c0.4,0,1-0.3,1-0.7V5.7C53,2.6,50.1,0,47,0z"/>
		</g>
		<rect x="40" y="10.8" class="st3" width="14" height="15"/>
		<path class="st2" d="M48.8,16.4c0-1-0.8-1.8-1.8-1.8c-1,0-1.8,0.8-1.8,1.8c0,0.6,0.3,1.2,0.8,1.5l-0.8,4.9h3.6L48,17.9
			C48.5,17.6,48.8,17,48.8,16.4z"/>
	</g>
</g>
</svg>
