<?xml version="1.0" encoding="utf-8"?>
<!-- Generator: Adobe Illustrator 25.2.3, SVG Export Plug-In . SVG Version: 6.00 Build 0)  -->
<svg version="1.1" id="Layer_1" xmlns="http://www.w3.org/2000/svg" xmlns:xlink="http://www.w3.org/1999/xlink" x="0px" y="0px"
	 viewBox="0 0 1200 657" style="enable-background:new 0 0 1200 657;" xml:space="preserve">
<style type="text/css">
	.st0{fill:#D3D2D2;}
	.st1{fill:#FFFFFF;}
	.st2{fill:none;stroke:#231F20;stroke-linecap:round;stroke-linejoin:round;stroke-miterlimit:10;}
	.st3{fill:#D3D1D2;}
	.st4{fill:#231F20;}
</style>
<g id="XMLID_10_">
	<g id="XMLID_95_">
		<ellipse id="XMLID_248_" cx="397.1" cy="264.6" rx="33.5" ry="33.5"/>
	</g>
	<g id="XMLID_100_">
		<path id="XMLID_791_" d="M397.1,229.8c-19.2,0-34.8,15.6-34.8,34.8s15.6,34.8,34.8,34.8c19.2,0,34.8-15.6,34.8-34.8
			C431.8,245.4,416.2,229.8,397.1,229.8z M397.1,296.8c-17.7,0-32.2-14.4-32.2-32.2c0-17.7,14.4-32.2,32.2-32.2
			c17.7,0,32.2,14.4,32.2,32.2C429.2,282.3,414.8,296.8,397.1,296.8z"/>
	</g>
</g>
<g id="XMLID_35_">
	<g id="XMLID_99_">
		<path id="XMLID_247_" class="st0" d="M397.1,281.5c-3.9,0-7.5-1.3-10.5-3.6c-0.6-0.4-0.7-1.3-0.2-1.8c0.4-0.6,1.3-0.7,1.8-0.2
			c2.6,2,5.6,3.1,8.9,3.1c7.9,0,14.3-6.4,14.3-14.3s-6.4-14.3-14.3-14.3c-0.7,0-1.3-0.6-1.3-1.3s0.6-1.3,1.3-1.3
			c9.3,0,16.9,7.6,16.9,17C414,273.9,406.4,281.5,397.1,281.5z"/>
	</g>
</g>
<g id="XMLID_4_">
	<g id="XMLID_98_">
		<path id="XMLID_246_" class="st0" d="M387.4,278.2c-0.3,0-0.6-0.1-0.8-0.3c-4.1-3.2-6.4-8.1-6.4-13.3c0-4.8,2-9.4,5.6-12.6
			c0.5-0.5,1.4-0.4,1.8,0.1c0.5,0.5,0.4,1.4-0.1,1.8c-3,2.7-4.7,6.6-4.7,10.6c0,4.4,2,8.5,5.5,11.3c0.6,0.4,0.7,1.3,0.2,1.8
			C388.1,278,387.8,278.2,387.4,278.2z"/>
	</g>
</g>
<g id="XMLID_6_">
	<g id="XMLID_113_">
		<ellipse id="XMLID_245_" class="st0" cx="397.1" cy="264.6" rx="7.9" ry="7.9"/>
	</g>
</g>
<g id="XMLID_11_">
	<g id="XMLID_112_">
		<ellipse id="XMLID_244_" class="st1" cx="476.1" cy="264.6" rx="7.9" ry="7.9"/>
	</g>
</g>
<g id="XMLID_32_">
	<g id="XMLID_97_">
		<path id="XMLID_243_" class="st0" d="M397.1,289.1c-13.5,0-24.5-11-24.5-24.5s11-24.5,24.5-24.5c0.7,0,1.3,0.6,1.3,1.3
			s-0.6,1.3-1.3,1.3c-12.1,0-21.9,9.8-21.9,21.9c0,12.1,9.8,21.9,21.9,21.9c0.7,0,1.3,0.6,1.3,1.3
			C398.4,288.5,397.8,289.1,397.1,289.1z"/>
	</g>
</g>
<g id="XMLID_5_">
	<g id="XMLID_96_">
		<path id="XMLID_242_" class="st0" d="M420.3,265.9c-0.7,0-1.3-0.6-1.3-1.3c0-12.1-9.8-21.9-21.9-21.9c-0.7,0-1.3-0.6-1.3-1.3
			s0.6-1.3,1.3-1.3c13.5,0,24.5,11,24.5,24.5C421.6,265.3,421,265.9,420.3,265.9z"/>
	</g>
</g>
<g id="XMLID_12_">
	<g id="XMLID_88_">
		<path id="XMLID_241_" d="M509.6,264.6c0,18.5-15,33.5-33.5,33.5s-33.5-15-33.5-33.5s15-33.5,33.5-33.5S509.6,246.1,509.6,264.6z"
			/>
	</g>
	<g id="XMLID_92_">
		<path id="XMLID_766_" d="M476.1,229.8c-19.2,0-34.8,15.6-34.8,34.8s15.6,34.8,34.8,34.8c19.2,0,34.8-15.6,34.8-34.8
			C510.9,245.4,495.3,229.8,476.1,229.8z M476.1,296.8c-17.7,0-32.2-14.4-32.2-32.2c0-17.7,14.4-32.2,32.2-32.2
			c17.7,0,32.2,14.4,32.2,32.2C508.3,282.3,493.8,296.8,476.1,296.8z"/>
	</g>
</g>
<g id="XMLID_37_">
	<g id="XMLID_91_">
		<path id="XMLID_240_" class="st0" d="M476.1,281.5c-9.3,0-16.9-7.6-16.9-17c0-9.3,7.6-17,16.9-17c4.2,0,8.3,1.6,11.4,4.4
			c0.5,0.5,0.6,1.3,0.1,1.8s-1.3,0.6-1.8,0.1c-2.6-2.4-6.1-3.7-9.6-3.7c-7.9,0-14.3,6.4-14.3,14.3s6.4,14.3,14.3,14.3
			c0.7,0,1.3,0.6,1.3,1.3C477.4,281,476.8,281.5,476.1,281.5z"/>
	</g>
</g>
<g id="XMLID_8_">
	<g id="XMLID_90_">
		<path id="XMLID_239_" d="M487.9,276.1c-0.3,0-0.6-0.1-0.9-0.3c-0.5-0.5-0.6-1.3-0.1-1.8c2.3-2.6,3.5-5.9,3.5-9.4
			c0-4-1.7-7.9-4.7-10.6c-0.5-0.5-0.6-1.3-0.1-1.8s1.3-0.6,1.8-0.1c3.5,3.2,5.6,7.8,5.6,12.6c0,4.1-1.5,8-4.1,11.1
			C488.7,276,488.3,276.1,487.9,276.1z"/>
	</g>
</g>
<g id="XMLID_36_">
	<g id="XMLID_111_">
		<path id="XMLID_238_" class="st2" d="M477.6,287.7"/>
	</g>
</g>
<g id="XMLID_7_">
	<g id="XMLID_89_">
		<path id="XMLID_237_" class="st0" d="M476.1,289.1c-13.5,0-24.5-11-24.5-24.5s11-24.5,24.5-24.5s24.5,11,24.5,24.5
			c0,6.1-2.3,12-6.4,16.5c-0.5,0.5-1.3,0.6-1.8,0.1s-0.6-1.3-0.1-1.8c3.7-4,5.7-9.3,5.7-14.8c0-12.1-9.8-21.9-21.9-21.9
			s-21.9,9.8-21.9,21.9c0,12.1,9.8,21.9,21.9,21.9c0.5,0,0.9,0,1.4,0c0.7-0.1,1.3,0.5,1.4,1.2c0,0.7-0.5,1.3-1.2,1.4
			C477.1,289.1,476.6,289.1,476.1,289.1z"/>
	</g>
</g>
<g id="XMLID_16_">
	<g id="XMLID_110_">
		
			<ellipse id="XMLID_236_" transform="matrix(1 -1.413576e-03 1.413576e-03 1 -0.3732 1.2397)" class="st1" cx="876.8" cy="264.6" rx="7.9" ry="7.9"/>
	</g>
</g>
<g id="XMLID_15_">
	<g id="XMLID_78_">
		<path id="XMLID_235_" d="M910.3,264.6c0,18.5-15,33.5-33.5,33.5s-33.5-15-33.5-33.5s15-33.5,33.5-33.5S910.3,246.1,910.3,264.6z"
			/>
	</g>
	<g id="XMLID_85_">
		<path id="XMLID_744_" d="M876.8,229.8c-19.2,0-34.8,15.6-34.8,34.8s15.6,34.8,34.8,34.8s34.8-15.6,34.8-34.8
			C911.6,245.4,896,229.8,876.8,229.8z M876.8,296.8c-17.7,0-32.2-14.4-32.2-32.2c0-17.7,14.4-32.2,32.2-32.2s32.2,14.4,32.2,32.2
			C909,282.3,894.6,296.8,876.8,296.8z"/>
	</g>
</g>
<g id="XMLID_14_">
	<g id="XMLID_82_">
		<path id="XMLID_739_" class="st0" d="M876.8,247.6c-9.3,0-16.9,7.6-16.9,17c0,9.3,7.6,17,16.9,17c9.3,0,16.9-7.6,16.9-17
			C893.8,255.2,886.2,247.6,876.8,247.6z M876.8,278.9c-7.9,0-14.3-6.4-14.3-14.3s6.4-14.3,14.3-14.3c7.9,0,14.3,6.4,14.3,14.3
			S884.8,278.9,876.8,278.9z"/>
	</g>
</g>
<g id="XMLID_13_">
	<g id="XMLID_79_">
		<path id="XMLID_734_" class="st0" d="M876.8,240.1c-13.5,0-24.5,11-24.5,24.5s11,24.5,24.5,24.5s24.5-11,24.5-24.5
			S890.3,240.1,876.8,240.1z M876.8,286.5c-12.1,0-21.9-9.8-21.9-21.9s9.8-21.9,21.9-21.9c12.1,0,21.9,9.8,21.9,21.9
			C898.7,276.7,888.9,286.5,876.8,286.5z"/>
	</g>
</g>
<g id="XMLID_9_">
	<g id="XMLID_109_">
		<path id="XMLID_320_" d="M939.7,250.8v-21.2h-4.9v32h-5.9v-40.1c0-3.4-1.8-6.6-4.8-8.3l-15.5-9v-5c0-2.9-2.2-5.2-5.1-5.4
			l-23.9-1.6v2.6c0,0-14.3,4.9-26.1-17.9c-7.2-14-16-33.8-21.1-45.3c-2.1-4.8-6.9-7.9-12.1-7.9h-59.8c-9.6,0-17.3,7.8-17.3,17.3
			v68.8H276.3l-20.9,10.5l52.1,0.9v2.9h15.9v3.9h58l-41.3,3.2l-3.5,6.1h-10v27.4l7.3,7.3v-15.3l3.6,3.6v20l5.9,5.9v-25.1h11
			l-4.3,34.8l9.6-31.3c0-20.6,16.7-37.4,37.4-37.4c20.6,0,37.4,16.7,37.4,37.4l-1.7,13.9h7.4l-1.4-13.9c0-21.2,17.7-38.4,39.2-37.3
			c20.1,0.9,35.6,18.3,35.6,38.4v11.2l87-12.3v15.6H751v-21.6h3.3V284l78.2,0.3v11.5l6.8-10.2l0.4-21.1c0-20.5,16.6-37.1,37.1-37.1
			s37.1,16.6,37.1,37.1c0,0-2.3,19.8,3.9,17.5s10.8-14.7,10.8-14.7l16,0.7v-17.3h-4.9V250.8z M817.8,152.4c0-3.7,4.3-5.8,7.2-3.5
			s4.2,5.7,4.8,7.6c0.7,2.3,4.4,11.9,6.2,20.6c0.9,4.4-1,8.6-4.3,11l-1.1-2.6c-0.3-0.6-1-1-1.6-0.8l-11.2,3.8L817.8,152.4
			L817.8,152.4z M771.9,141.8h29c3.8,0,6.9,3.6,6.9,7.9V190h-29c-3.8,0-6.9-3.6-6.9-7.9V141.8z"/>
	</g>
</g>
<g id="XMLID_3_">
	<g id="XMLID_74_">
		<polygon id="XMLID_233_" class="st0" points="412.7,226.2 424.3,234.3 448.1,234.3 459,226.2 		"/>
	</g>
	<g id="XMLID_75_">
		<path id="XMLID_724_" class="st0" d="M460.2,225.8c-0.2-0.5-0.7-0.9-1.2-0.9h-46.3c-0.6,0-1.1,0.4-1.2,0.9c-0.2,0.5,0,1.1,0.5,1.5
			l11.6,8.2c0.2,0.2,0.5,0.2,0.8,0.2h23.8c0.3,0,0.6-0.1,0.8-0.3l10.9-8.2C460.2,226.9,460.4,226.3,460.2,225.8z M424.7,233
			l-7.9-5.5H455l-7.4,5.5H424.7z"/>
	</g>
</g>
<g id="XMLID_18_">
	<g id="XMLID_70_">
		<path id="XMLID_232_" class="st0" d="M607.8,230.2l-4.8,4.1h-98.6c0,0-6.6-12.1-36.2-11.2v-3.7h73l-9.5,9.5h87.9L607.8,230.2z"/>
	</g>
	<g id="XMLID_71_">
		<path id="XMLID_717_" class="st0" d="M619.6,227.5h-84.7l7.2-7.2c0.4-0.4,0.5-0.9,0.3-1.4s-0.7-0.8-1.2-0.8h-73
			c-0.7,0-1.3,0.6-1.3,1.3v3.7c0,0.4,0.1,0.7,0.4,0.9s0.6,0.4,0.9,0.4c28.2-0.9,35,10.5,35.1,10.6c0.2,0.4,0.7,0.7,1.1,0.7H603
			c0.3,0,0.6-0.1,0.8-0.3l4.5-3.8l11.3-1.4c0.7-0.1,1.2-0.7,1.1-1.4C620.8,228.1,620.2,227.5,619.6,227.5z M505.1,233
			c-1.9-2.6-10.3-11.7-35.6-11.3v-1.1H538l-7.2,7.2c-0.4,0.4-0.5,0.9-0.3,1.4s0.7,0.8,1.2,0.8H606l-3.4,2.9h-97.5V233z"/>
	</g>
</g>
<g id="XMLID_19_">
	<g id="XMLID_66_">
		<polygon id="XMLID_231_" class="st0" points="661.1,219.4 751.9,219.4 751.9,234.3 746.2,228.7 670.8,228.7 		"/>
	</g>
	<g id="XMLID_67_">
		<path id="XMLID_710_" class="st0" d="M751.9,218.1h-90.8c-0.5,0-1,0.3-1.2,0.8s-0.1,1.1,0.3,1.4l9.8,9.3c0.2,0.2,0.6,0.4,0.9,0.4
			h74.9l5.2,5.2c0.2,0.2,0.6,0.4,0.9,0.4c0.2,0,0.3,0,0.5-0.1c0.5-0.2,0.8-0.7,0.8-1.2v-14.9C753.2,218.7,752.6,218.1,751.9,218.1z
			 M750.6,231.2l-3.4-3.4c-0.2-0.2-0.6-0.4-0.9-0.4h-74.9l-7-6.7h86.3L750.6,231.2L750.6,231.2z"/>
	</g>
</g>
<g id="XMLID_20_">
	<g id="XMLID_107_">
		<path id="XMLID_76_" class="st1" d="M831.7,188.1c-0.7,0.5-1.5,0.9-2.3,1.2c-1.2,0.5-2.5,0.7-3.9,0.7h-7.7v-1.6l11.2-3.8
			c0.7-0.2,1.4,0.1,1.6,0.8L831.7,188.1z"/>
	</g>
</g>
<g id="XMLID_22_">
	<g id="XMLID_46_">
		<polygon id="XMLID_228_" class="st1" points="516.7,256.6 580.9,256.6 516.7,268.4 		"/>
	</g>
	<g id="XMLID_63_">
		<path id="XMLID_697_" d="M580.9,255.3h-64.2c-0.7,0-1.3,0.6-1.3,1.3v11.7c0,0.4,0.2,0.8,0.5,1c0.2,0.2,0.5,0.3,0.8,0.3
			c0.1,0,0.2,0,0.2,0l64.2-11.7c0.7-0.1,1.1-0.7,1.1-1.4C582.1,255.9,581.6,255.3,580.9,255.3z M518,266.8V258h48.5L518,266.8z"/>
	</g>
</g>
<g id="XMLID_23_">
	<g id="XMLID_62_">
		<path id="XMLID_227_" class="st0" d="M820.7,278.8h-61.9c-0.7,0-1.3-0.6-1.3-1.3v-40.1c0-0.7,0.6-1.3,1.3-1.3s1.3,0.6,1.3,1.3
			v38.8h59.3v-3.8c0-12.5,4.6-24.4,13-33.7c11.6-12.9,30.7-28.1,55.8-27.7c0.3,0,33,0.4,38.7,34.7c0.1,0.7-0.4,1.4-1.1,1.5
			c-0.7,0.1-1.4-0.4-1.5-1.1c-5.4-32.1-34.9-32.5-36.2-32.5c-24.2-0.4-42.6,14.4-53.8,26.9c-7.9,8.8-12.3,20.1-12.3,31.9v5.1
			C822,278.2,821.5,278.8,820.7,278.8z"/>
	</g>
</g>
<g id="XMLID_24_">
	<g id="XMLID_61_">
		<path id="XMLID_226_" class="st0" d="M812.4,250.2h-45.7c-0.7,0-1.3-0.6-1.3-1.3V134.1c0-0.7,0.6-1.3,1.3-1.3s1.3,0.6,1.3,1.3
			v113.6h44.4c3.8,0,7.3-1.6,9.7-4.5c5.1-6.1,12.3-14.4,18-19c2.2-1.8,3.5-4.6,3.5-7.6V190c0-0.7,0.6-1.3,1.3-1.3s1.3,0.6,1.3,1.3
			v26.5c0,3.8-1.6,7.3-4.5,9.6c-5.8,4.7-13.5,13.7-17.6,18.6C821.2,248.2,816.9,250.2,812.4,250.2z"/>
	</g>
</g>
<g id="XMLID_25_">
	<g id="XMLID_60_">
		<path id="XMLID_225_" class="st0" d="M813.9,259.6h-47.3c-0.7,0-1.3-0.6-1.3-1.3c0-0.7,0.6-1.3,1.3-1.3h47.3
			c0.7,0,1.3,0.6,1.3,1.3S814.6,259.6,813.9,259.6z"/>
	</g>
</g>
<g id="XMLID_26_">
	<g id="XMLID_59_">
		<path id="XMLID_224_" class="st0" d="M925.7,257h-9.3c-0.7,0-1.3-0.6-1.3-1.3s0.6-1.3,1.3-1.3h9.3c0.7,0,1.3,0.6,1.3,1.3
			S926.4,257,925.7,257z"/>
	</g>
</g>
<g id="XMLID_27_">
	<g id="XMLID_58_">
		<path id="XMLID_223_" class="st0" d="M904.8,205.7c-0.1,0-0.3,0-0.4-0.1l-23-7.2c-0.7-0.2-1.1-0.9-0.9-1.6
			c0.2-0.7,0.9-1.1,1.6-0.9l23,7.2c0.7,0.2,1.1,0.9,0.9,1.6C905.9,205.3,905.4,205.7,904.8,205.7z"/>
	</g>
</g>
<g id="XMLID_21_">
	<g id="XMLID_106_">
		<rect id="XMLID_222_" x="848.3" y="200.8" class="st0" width="23.9" height="6"/>
	</g>
</g>
<g id="XMLID_29_">
	<g id="XMLID_57_">
		<path id="XMLID_221_" class="st0" d="M687.8,265.9h-72.3c-0.7,0-1.3-0.6-1.3-1.3c0-0.7,0.6-1.3,1.3-1.3h72.3
			c0.7,0,1.3,0.6,1.3,1.3S688.5,265.9,687.8,265.9z"/>
	</g>
</g>
<g id="XMLID_30_">
	<g id="XMLID_56_">
		<path id="XMLID_220_" class="st0" d="M698.2,273.8h-62.6c-0.7,0-1.3-0.6-1.3-1.3c0-0.7,0.6-1.3,1.3-1.3h62.6
			c0.7,0,1.3,0.6,1.3,1.3C699.5,273.2,698.9,273.8,698.2,273.8z"/>
	</g>
</g>
<g id="XMLID_31_">
	<g id="XMLID_55_">
		<path id="XMLID_219_" class="st0" d="M737.3,269.7h-27.4c-0.7,0-1.3-0.6-1.3-1.3c0-0.7,0.6-1.3,1.3-1.3h27.4
			c0.7,0,1.3,0.6,1.3,1.3S738,269.7,737.3,269.7z"/>
	</g>
</g>
<g id="XMLID_33_">
	<g id="XMLID_105_">
		
			<ellipse id="XMLID_218_" transform="matrix(1 -1.413576e-03 1.413576e-03 1 -0.3732 1.2397)" class="st0" cx="876.8" cy="264.6" rx="7.9" ry="7.9"/>
	</g>
</g>
<g id="XMLID_34_">
	<g id="XMLID_104_">
		<ellipse id="XMLID_217_" class="st0" cx="476.1" cy="264.6" rx="7.9" ry="7.9"/>
	</g>
</g>
<g id="XMLID_38_">
	<g id="XMLID_54_">
		<path id="XMLID_216_" class="st0" d="M811.9,135.4h-38.1c-0.7,0-1.3-0.6-1.3-1.3s0.6-1.3,1.3-1.3h38.1c0.7,0,1.3,0.6,1.3,1.3
			C813.2,134.8,812.7,135.4,811.9,135.4z"/>
	</g>
</g>
<g id="XMLID_39_">
	<g id="XMLID_53_">
		<path id="XMLID_140_" class="st0" d="M835.1,200.2c-0.2,0.1-0.3,0.1-0.5,0.1c-0.5,0-1-0.3-1.2-0.8l-4-10.1l-0.7-1.8l-7.4,2.5
			l-5.5,1.9l-7.6,2.6c-0.7,0.2-1.4-0.1-1.7-0.8c-0.2-0.7,0.1-1.4,0.8-1.6l7.9-2.7l2.6-0.9l11.2-3.8c0.7-0.2,1.4,0.1,1.6,0.8l1.1,2.6
			l4.2,10.4C836.1,199.1,835.8,199.9,835.1,200.2z"/>
	</g>
</g>
<g id="XMLID_41_">
	<g id="XMLID_52_">
		<path id="XMLID_213_" class="st0" d="M844.9,180.7c-0.5,0-1-0.3-1.2-0.8l-17.8-41.1c-0.3-0.7,0-1.4,0.7-1.7s1.4,0,1.7,0.7
			l17.8,41.1c0.3,0.7,0,1.4-0.7,1.7C845.2,180.6,845,180.7,844.9,180.7z"/>
	</g>
</g>
<g id="XMLID_42_">
	<g id="XMLID_51_">
		<path id="XMLID_212_" class="st0" d="M754.9,211.1c-0.7,0-1.3-0.6-1.3-1.3v-25.6c0-0.7,0.6-1.3,1.3-1.3s1.3,0.6,1.3,1.3v25.6
			C756.2,210.5,755.6,211.1,754.9,211.1z"/>
	</g>
</g>
<g id="XMLID_40_">
	<g id="XMLID_48_">
		<path id="XMLID_644_" class="st0" d="M777.4,203.3h-4.1c-0.7,0-1.3,0.6-1.3,1.3v14.8c0,0.7,0.6,1.3,1.3,1.3h4.1
			c0.7,0,1.3-0.6,1.3-1.3v-14.8C778.7,203.9,778.1,203.3,777.4,203.3z M776.1,218.1h-1.5v-12.2h1.5V218.1z"/>
	</g>
</g>
<g id="XMLID_44_">
	<g id="XMLID_47_">
		<path id="XMLID_210_" class="st0" d="M758.8,170.3h-7c-0.7,0-1.3-0.6-1.3-1.3v-34.9c0-0.7,0.6-1.3,1.3-1.3h7
			c0.7,0,1.3,0.6,1.3,1.3s-0.6,1.3-1.3,1.3h-5.6v32.3h5.6c0.7,0,1.3,0.6,1.3,1.3C760.1,169.7,759.5,170.3,758.8,170.3z"/>
	</g>
</g>
<g id="XMLID_125_">
	<polygon id="XMLID_207_" class="st3" points="1047.6,224.9 1074.9,108.2 600,46.1 125.1,108.2 152.4,224.9 0,224.9 14.6,221.2 
		136.9,221.2 108.7,100.5 600,36.3 1091.3,100.5 1063.1,221.2 1185.4,221.2 1200,224.9 	"/>
</g>
<g id="XMLID_123_">
	<polygon id="XMLID_204_" points="1063.1,221.2 1091.3,100.5 600,36.3 108.7,100.5 136.9,221.2 14.6,221.2 105.3,198.5 79.9,76.2 
		600,0 1120.1,76.2 1094.7,198.5 1185.4,221.2 	"/>
</g>
<g id="XMLID_203_">
	<g id="XMLID_126_">
		<polygon id="XMLID_209_" points="1125,487.6 1019.7,521.5 1019.7,539.1 738.9,657 461.1,657 180.3,539.1 180.3,521.5 75,487.6 
			180.3,487.6 180.3,495.2 461.1,613.1 738.9,613.1 1019.7,495.2 1019.7,487.6 		"/>
	</g>
	<g id="XMLID_127_">
		<polygon id="XMLID_206_" class="st3" points="1019.7,487.6 1019.7,495.2 738.9,613.1 461.1,613.1 180.3,495.2 180.3,487.6 
			221.7,487.6 500.3,600.5 699.7,600.5 978.3,487.6 		"/>
	</g>
</g>
<path class="st4" d="M32.3,322.4c6.7,0,12.4,1.1,17,3.4c4.6,2.2,8.2,5.4,10.6,9.5s3.6,8.9,3.6,14.5c0,3.3-0.5,6.6-1.5,10
	s-2.6,6.4-4.7,9.1c-2.2,2.7-5.1,4.9-8.7,6.6c-3.6,1.7-8.1,2.5-13.4,2.5H23.7v25.7h-16v-81.3L32.3,322.4L32.3,322.4z M35.1,362.4
	c2.4,0,4.5-0.4,6.1-1.3c1.6-0.8,2.9-1.9,3.8-3.2c0.9-1.3,1.6-2.6,2-4s0.6-2.6,0.6-3.6c0-0.8-0.1-1.9-0.4-3.3
	c-0.3-1.4-0.8-2.7-1.6-4.1s-2-2.6-3.7-3.5c-1.7-1-3.9-1.4-6.7-1.4H23.7v24.5h11.4V362.4z"/>
<path class="st4" d="M180,322.4c5.1,0,9.6,0.6,13.6,1.9s7.3,3.1,10,5.5s4.7,5.3,6.1,8.6c1.4,3.4,2.1,7.1,2.1,11.3
	c0,3.3-0.5,6.6-1.5,9.9s-2.6,6.3-4.9,9.1c-2.2,2.7-5.2,4.9-8.9,6.6s-8.2,2.5-13.7,2.5h-11.4v25.8h-16v-81.3H180V322.4z M182.8,362.4
	c2.4,0,4.5-0.4,6.1-1.2c1.6-0.8,2.9-1.8,3.8-3.1c0.9-1.3,1.6-2.6,2-3.9c0.4-1.4,0.6-2.6,0.6-3.8c0-0.9-0.1-2-0.4-3.4
	s-0.8-2.7-1.6-4.1s-2-2.6-3.7-3.5c-1.7-1-3.9-1.4-6.7-1.4h-11.5v24.5h11.4V362.4z M197.8,372.3l20.1,31.4h-18.7l-20.5-30.9
	L197.8,372.3z"/>
<path class="st4" d="M78.8,322.4h55.4v15.5H94.8v17.3h34.9v15.5H94.8v17.6h41v15.5h-57V322.4z"/>
<path class="st4" d="M229.8,322.4h50.8v15.5h-34.8v18.4H276v15.5h-30.1v31.9h-16L229.8,322.4L229.8,322.4z"/>
<path class="st4" d="M297,322.4h55.4v15.5H313v17.3h34.9v15.5H313v17.6h41v15.5h-57V322.4z"/>
<path class="st4" d="M396,322.4c5.1,0,9.6,0.6,13.6,1.9s7.3,3.1,10,5.5s4.7,5.3,6.1,8.6c1.4,3.4,2.1,7.1,2.1,11.3
	c0,3.3-0.5,6.6-1.5,9.9s-2.6,6.3-4.9,9.1c-2.2,2.7-5.2,4.9-8.9,6.6c-3.7,1.7-8.2,2.5-13.7,2.5h-11.5v25.8h-16v-81.3H396V322.4z
	 M398.8,362.4c2.4,0,4.5-0.4,6.1-1.2c1.6-0.8,2.9-1.8,3.8-3.1c0.9-1.3,1.6-2.6,2-3.9c0.4-1.4,0.6-2.6,0.6-3.8c0-0.9-0.1-2-0.4-3.4
	s-0.8-2.7-1.6-4.1c-0.8-1.4-2-2.6-3.7-3.5c-1.7-1-3.9-1.4-6.7-1.4h-11.5v24.5h11.4V362.4z M413.8,372.3l20.1,31.4h-18.7l-20.5-30.9
	L413.8,372.3z"/>
<path class="st4" d="M472.6,322.4c5.1,0,9.6,0.6,13.6,1.9s7.3,3.1,10,5.5s4.7,5.3,6.1,8.6c1.4,3.4,2.1,7.1,2.1,11.3
	c0,3.3-0.5,6.6-1.5,9.9s-2.6,6.3-4.9,9.1c-2.2,2.7-5.2,4.9-8.9,6.6c-3.7,1.7-8.2,2.5-13.7,2.5H464v25.8h-16v-81.3h24.6V322.4z
	 M475.4,362.4c2.4,0,4.5-0.4,6.1-1.2c1.6-0.8,2.9-1.8,3.8-3.1c0.9-1.3,1.6-2.6,2-3.9c0.4-1.4,0.6-2.6,0.6-3.8c0-0.9-0.1-2-0.4-3.4
	s-0.8-2.7-1.6-4.1c-0.8-1.4-2-2.6-3.7-3.5c-1.7-1-3.9-1.4-6.7-1.4H464v24.5h11.4V362.4z M490.4,372.3l20.1,31.4h-18.7l-20.5-30.9
	L490.4,372.3z"/>
<path class="st4" d="M524.6,322.4H580v15.5h-39.4v17.3h34.9v15.5h-34.9v17.6h41v15.5h-57V322.4z"/>
<path class="st4" d="M599.1,403.7v-81.3h24.3c8.2,0,15.1,1.2,20.9,3.6c5.7,2.4,10.4,5.7,13.9,9.7c3.5,4.1,6.1,8.6,7.7,13.6
	c1.6,5,2.4,10.1,2.4,15.1c0,6-1.1,11.5-3.3,16.3s-5.1,8.9-8.9,12.4c-3.8,3.4-8.1,6-13,7.8s-10.2,2.7-15.7,2.7L599.1,403.7
	L599.1,403.7z M615.1,388.2h9.5c4,0,7.7-0.5,11-1.6s6.2-2.6,8.6-4.7c2.4-2.1,4.2-4.7,5.5-7.8c1.3-3.1,1.9-6.7,1.9-10.8
	c0-5.3-0.9-9.6-2.6-13c-1.7-3.3-3.9-5.9-6.4-7.8c-2.5-1.8-5.1-3.1-7.8-3.8c-2.7-0.7-4.9-1-6.7-1h-13V388.2z"/>
<path class="st4" d="M716.3,322.4h54.8v15.5h-19.8v65.8h-16v-65.8h-19V322.4z"/>
<path class="st4" d="M782.5,363.2c0-5.6,1.1-10.9,3.2-15.9c2.1-5,5.1-9.4,8.9-13.3c3.8-3.9,8.2-6.9,13.2-9.1s10.4-3.3,16.1-3.3
	c5.7,0,11,1.1,16,3.3c5,2.2,9.4,5.2,13.3,9.1c3.9,3.9,6.9,8.3,9.1,13.3c2.2,5,3.3,10.3,3.3,15.9c0,5.7-1.1,11.1-3.3,16.1
	s-5.2,9.4-9.1,13.2c-3.9,3.8-8.3,6.8-13.3,8.9s-10.3,3.2-16,3.2s-11.1-1.1-16.1-3.2s-9.4-5.1-13.2-8.9s-6.8-8.2-8.9-13.2
	C783.5,374.3,782.5,368.9,782.5,363.2z M799,363.2c0,3.6,0.6,7,1.9,10.1c1.3,3.1,3.1,5.9,5.4,8.3c2.3,2.4,5,4.3,8.1,5.6
	c3.1,1.3,6.4,2,10,2c3.5,0,6.7-0.7,9.7-2s5.6-3.2,7.8-5.6s3.9-5.2,5.2-8.3c1.2-3.1,1.9-6.5,1.9-10.1c0-3.7-0.6-7.1-1.9-10.3
	c-1.3-3.2-3.1-5.9-5.3-8.3s-4.9-4.3-7.9-5.6c-3-1.3-6.3-2-9.8-2s-6.8,0.7-9.8,2s-5.7,3.2-8,5.6s-4,5.2-5.3,8.3
	C799.6,356.1,799,359.5,799,363.2z"/>
<path class="st4" d="M875.4,323h18.8l17.3,51l-2.5-1.1l15.1-37.7l7.4,22l-23.4,50.3L875.4,323z M916.2,323h15.9l20,49.4l-2.9-0.4
	l14.9-48.9h17.2L950,407.2L916.2,323z"/>
<path class="st4" d="M996.2,322.4h16v81.3h-16V322.4z"/>
<path class="st4" d="M1106.8,407l-61.6-55.7l4.7,2.7l0.3,49.7H1034v-84.5h0.7l60.3,55.5l-3.5-1.5l-0.3-50.7h16.1V407H1106.8z"/>
<path class="st4" d="M1195.1,395.5c-1,1-2.5,2.1-4.5,3.1c-2.1,1.1-4.4,2-7.1,2.9s-5.4,1.6-8.2,2.2c-2.8,0.6-5.4,0.8-8,0.8
	c-6.6,0-12.6-1-17.9-2.9c-5.3-2-9.8-4.7-13.6-8.2c-3.8-3.5-6.6-7.6-8.6-12.4s-3-10-3-15.7c0-7.4,1.1-13.9,3.4-19.4
	c2.2-5.5,5.3-10.1,9.2-13.7c3.9-3.6,8.3-6.4,13.4-8.1c5-1.8,10.3-2.7,15.8-2.7c5.2,0,10,0.6,14.4,1.7c4.3,1.1,8,2.6,11,4.3
	l-5.2,14.9c-1.3-0.7-3.1-1.5-5.3-2.2c-2.2-0.7-4.5-1.3-6.7-1.8c-2.3-0.5-4.3-0.7-6.1-0.7c-4.4,0-8.3,0.6-11.7,1.7
	c-3.4,1.1-6.2,2.8-8.6,5c-2.3,2.2-4.1,5-5.2,8.2c-1.2,3.3-1.8,7.1-1.8,11.4c0,3.8,0.7,7.3,2,10.3c1.3,3.1,3.2,5.7,5.6,7.8
	c2.4,2.1,5.2,3.8,8.5,4.9s6.9,1.7,10.9,1.7c2.3,0,4.4-0.2,6.3-0.5s3.5-0.9,4.9-1.6v-9.8h-14v-15.5h30.3v34.3H1195.1z"/>
<g>
	<g>
		<path class="st4" d="M325.1,422c2.3,0,4.3,0.3,6.2,0.9c1.9,0.6,3.5,1.5,4.8,2.6s2.4,2.5,3.1,4.1s1.1,3.5,1.1,5.7
			c0,1.6-0.2,3.3-0.7,4.9s-1.3,3.1-2.4,4.4s-2.6,2.4-4.4,3.2c-1.8,0.8-4,1.2-6.7,1.2h-6v14.4h-6.6V422H325.1z M325.9,442.5
			c1.4,0,2.6-0.2,3.6-0.7s1.8-1,2.3-1.8c0.6-0.7,1-1.5,1.2-2.3s0.4-1.6,0.4-2.3c0-0.7-0.1-1.4-0.3-2.2c-0.2-0.8-0.6-1.6-1.2-2.4
			c-0.5-0.8-1.3-1.4-2.2-1.8c-0.9-0.5-2.1-0.7-3.6-0.7H320v14.2L325.9,442.5L325.9,442.5z M333.1,446.6l10.5,16.7h-7.7l-10.7-16.6
			L333.1,446.6z"/>
		<path class="st4" d="M351.5,422h27.4v6.4h-20.8v11h18.5v6.4h-18.5V457h21.6v6.4h-28.2V422z"/>
		<path class="st4" d="M419.7,460.1c-0.6,0.5-1.5,1-2.7,1.6s-2.6,1.1-4.3,1.5c-1.6,0.4-3.5,0.6-5.5,0.6c-3.2,0-6.1-0.6-8.6-1.7
			c-2.6-1.1-4.7-2.6-6.5-4.5s-3.2-4.1-4.1-6.6c-1-2.5-1.4-5.1-1.4-8c0-3.1,0.5-5.9,1.5-8.5s2.4-4.9,4.2-6.8s4-3.4,6.5-4.5
			s5.2-1.6,8.2-1.6c2.6,0,4.9,0.4,6.9,1c2.1,0.7,3.8,1.5,5.2,2.4l-2.6,6.2c-1.1-0.8-2.4-1.5-4-2.2s-3.4-1-5.4-1
			c-1.8,0-3.5,0.4-5.2,1.1c-1.6,0.7-3.1,1.8-4.4,3.1c-1.3,1.3-2.3,2.9-3,4.7s-1.1,3.7-1.1,5.8c0,2.1,0.3,4.1,1,5.9s1.6,3.4,2.8,4.7
			c1.2,1.3,2.7,2.3,4.4,3.1c1.7,0.7,3.6,1.1,5.8,1.1c2.2,0,4-0.3,5.6-1s2.9-1.4,3.9-2.2L419.7,460.1z"/>
		<path class="st4" d="M426.1,442.7c0-2.8,0.5-5.5,1.6-8.1s2.6-4.8,4.5-6.8s4.2-3.5,6.7-4.6s5.3-1.7,8.2-1.7c2.9,0,5.6,0.6,8.1,1.7
			c2.6,1.1,4.8,2.7,6.8,4.6c2,2,3.5,4.2,4.6,6.8c1.1,2.6,1.6,5.2,1.6,8.1s-0.5,5.6-1.6,8.2c-1.1,2.5-2.6,4.8-4.6,6.7
			c-2,1.9-4.2,3.5-6.8,4.5c-2.5,1.1-5.3,1.6-8.2,1.6c-2.9,0-5.6-0.5-8.2-1.6c-2.5-1.1-4.8-2.6-6.7-4.5c-1.9-1.9-3.4-4.1-4.5-6.7
			C426.6,448.4,426.1,445.7,426.1,442.7z M432.9,442.7c0,2.1,0.4,4,1.1,5.8s1.8,3.3,3.1,4.7c1.3,1.3,2.9,2.4,4.6,3.1
			s3.6,1.1,5.6,1.1s3.9-0.4,5.6-1.1c1.7-0.8,3.2-1.8,4.5-3.1c1.3-1.3,2.3-2.9,3-4.7c0.7-1.8,1.1-3.7,1.1-5.7c0-2.1-0.4-4-1.1-5.8
			c-0.8-1.8-1.8-3.3-3.1-4.7c-1.3-1.4-2.8-2.4-4.5-3.2c-1.7-0.8-3.6-1.1-5.6-1.1s-3.9,0.4-5.6,1.2c-1.7,0.8-3.3,1.8-4.6,3.2
			c-1.3,1.3-2.3,2.9-3,4.7C433.2,438.8,432.9,440.7,432.9,442.7z"/>
		<path class="st4" d="M481.6,422l13,32.4l-3.8-0.8l12.1-31.6h7.8l-18.5,43.2L473.8,422H481.6z"/>
		<path class="st4" d="M518.6,422H546v6.4h-20.8v11h18.5v6.4h-18.5V457h21.6v6.4h-28.2V422z"/>
		<path class="st4" d="M567.8,422c2.3,0,4.3,0.3,6.2,0.9s3.5,1.5,4.8,2.6s2.4,2.5,3.1,4.1c0.7,1.6,1.1,3.5,1.1,5.7
			c0,1.6-0.2,3.3-0.7,4.9s-1.3,3.1-2.4,4.4c-1.1,1.3-2.6,2.4-4.4,3.2c-1.8,0.8-4,1.2-6.7,1.2h-6v14.4h-6.6V422H567.8z M568.7,442.5
			c1.4,0,2.6-0.2,3.6-0.7s1.8-1,2.3-1.8c0.6-0.7,1-1.5,1.2-2.3s0.4-1.6,0.4-2.3c0-0.7-0.1-1.4-0.3-2.2c-0.2-0.8-0.6-1.6-1.2-2.4
			c-0.5-0.8-1.3-1.4-2.2-1.8c-0.9-0.5-2.1-0.7-3.6-0.7h-6.1v14.2L568.7,442.5L568.7,442.5z M575.8,446.6l10.5,16.7h-7.7l-10.7-16.6
			L575.8,446.6z"/>
		<path class="st4" d="M605.2,449.9L589.9,422h8.1l11.6,22.2l-2,0.1l11.5-22.4h8.1l-15.5,27.9v13.4h-6.6v-13.3H605.2z"/>
		<path class="st4" d="M674.4,430.5c-1.5-0.8-3-1.5-4.7-2s-3.3-0.8-4.8-0.8c-2,0-3.6,0.5-4.8,1.4s-1.8,2.2-1.8,3.7
			c0,1.1,0.4,2.1,1.2,3s1.9,1.6,3.1,2.2s2.6,1.2,4.1,1.8c1.2,0.5,2.5,1,3.7,1.6s2.3,1.4,3.3,2.3s1.8,2,2.4,3.4c0.6,1.4,0.9,3,0.9,5
			c0,2.2-0.5,4.2-1.6,5.9c-1.1,1.8-2.7,3.2-4.7,4.3c-2.1,1.1-4.6,1.6-7.4,1.6c-1.7,0-3.4-0.2-5.1-0.6s-3.2-0.9-4.7-1.5
			s-2.8-1.4-4.1-2.3l3-5.1c0.9,0.7,1.9,1.3,3.1,1.9c1.2,0.6,2.4,1,3.6,1.4c1.2,0.3,2.4,0.5,3.5,0.5s2.3-0.2,3.5-0.6s2.2-1,2.9-1.9
			c0.8-0.9,1.1-2,1.1-3.5c0-1.2-0.3-2.2-1-3s-1.6-1.5-2.6-2.2c-1.1-0.6-2.3-1.2-3.5-1.7s-2.6-1-3.9-1.6c-1.4-0.6-2.6-1.4-3.8-2.2
			c-1.2-0.9-2.1-2-2.8-3.3s-1-2.9-1-4.7c0-2.3,0.5-4.2,1.5-5.9c1-1.7,2.5-3,4.4-4s4.1-1.5,6.5-1.6c2.9,0,5.4,0.3,7.5,1
			s3.9,1.6,5.5,2.6L674.4,430.5z"/>
		<path class="st4" d="M685.9,422h27.4v6.4h-20.8v11H711v6.4h-18.5V457h21.6v6.4h-28.2L685.9,422L685.9,422z"/>
		<path class="st4" d="M735.1,422c2.3,0,4.3,0.3,6.2,0.9s3.5,1.5,4.8,2.6s2.4,2.5,3.1,4.1c0.7,1.6,1.1,3.5,1.1,5.7
			c0,1.6-0.2,3.3-0.7,4.9s-1.3,3.1-2.4,4.4c-1.1,1.3-2.6,2.4-4.4,3.2c-1.8,0.8-4,1.2-6.7,1.2h-6v14.4h-6.6V422H735.1z M735.9,442.5
			c1.4,0,2.6-0.2,3.6-0.7s1.8-1,2.3-1.8c0.6-0.7,1-1.5,1.2-2.3s0.4-1.6,0.4-2.3c0-0.7-0.1-1.4-0.3-2.2c-0.2-0.8-0.6-1.6-1.2-2.4
			c-0.5-0.8-1.3-1.4-2.2-1.8c-0.9-0.5-2.1-0.7-3.6-0.7H730v14.2L735.9,442.5L735.9,442.5z M743.1,446.6l10.5,16.7h-7.7l-10.7-16.6
			L743.1,446.6z"/>
		<path class="st4" d="M765.9,422l13,32.4l-3.8-0.8l12.1-31.6h7.8l-18.5,43.2L758,422H765.9z"/>
		<path class="st4" d="M802.9,422h6.6v41.3h-6.6V422z"/>
		<path class="st4" d="M851.7,460.1c-0.6,0.5-1.5,1-2.7,1.6s-2.6,1.1-4.3,1.5c-1.6,0.4-3.5,0.6-5.5,0.6c-3.2,0-6.1-0.6-8.6-1.7
			c-2.6-1.1-4.7-2.6-6.5-4.5s-3.2-4.1-4.1-6.6c-1-2.5-1.4-5.1-1.4-8c0-3.1,0.5-5.9,1.5-8.5s2.4-4.9,4.2-6.8s4-3.4,6.5-4.5
			s5.2-1.6,8.2-1.6c2.6,0,4.9,0.4,6.9,1c2.1,0.7,3.8,1.5,5.2,2.4l-2.6,6.2c-1.1-0.8-2.4-1.5-4-2.2s-3.4-1-5.4-1
			c-1.8,0-3.5,0.4-5.2,1.1c-1.6,0.7-3.1,1.8-4.4,3.1c-1.3,1.3-2.3,2.9-3,4.7s-1.1,3.7-1.1,5.8c0,2.1,0.3,4.1,1,5.9s1.6,3.4,2.8,4.7
			c1.2,1.3,2.7,2.3,4.4,3.1c1.7,0.7,3.6,1.1,5.8,1.1s4-0.3,5.6-1s2.9-1.4,3.9-2.2L851.7,460.1z"/>
		<path class="st4" d="M860.7,422H888v6.4h-20.8v11h18.5v6.4h-18.5V457h21.6v6.4h-28.2V422H860.7z"/>
	</g>
</g>
<g id="XMLID_28_">
	<g id="XMLID_103_">
		<path id="XMLID_102_" class="st0" d="M811.7,204.2c-4.7,1.9-11.1-2.8-14.3-10.6c-0.5-1.2-0.9-2.4-1.2-3.5h11.6v-12.4
			c2.5,1.9,4.9,5,6.5,8.8c0.4,0.9,0.7,1.9,1,2.8c0.2,0.9,0.4,1.7,0.6,2.6C816.7,197.7,815.2,202.7,811.7,204.2z"/>
	</g>
</g>
</svg>
