<?xml version="1.0" encoding="utf-8"?>
<!-- Generator: Adobe Illustrator 25.2.3, SVG Export Plug-In . SVG Version: 6.00 Build 0)  -->
<svg version="1.1" id="Layer_1" xmlns="http://www.w3.org/2000/svg" xmlns:xlink="http://www.w3.org/1999/xlink" x="0px" y="0px"
	 viewBox="0 0 25 35" style="enable-background:new 0 0 25 35;" xml:space="preserve">
<style type="text/css">
	.st0{fill:#E84621;}
</style>
<g>
	<path class="st0" d="M11.6,22.2c-1.3-1.8-2.7-4.1-3.7-6.6c-0.7-1.7-1.3-3.5,0-4.2L2.6,2C1.1,3-3.2,8.7,4.1,21.9
		c7.7,14,15.4,13.6,17,12.7l-5.2-9.2C14.6,26.2,13.5,24.9,11.6,22.2z"/>
	<path class="st0" d="M24.5,31.2L24.5,31.2c0,0-3.8-7.1-3.8-7.1c-0.3-0.6-0.9-0.8-1.5-0.5l-2.6,1.4l5.2,9.2l2.6-1.4l-0.1,0
		C24.9,32.5,25.5,31.8,24.5,31.2z"/>
	<path class="st0" d="M6.1,0.1L3.4,1.6L8.7,11l2.7-1.4l0.1,0c0.6-0.3,0.6-1,0.6-1.6v0c0,0-4.3-7.3-4.3-7.4C7.4,0,6.6-0.2,6.1,0.1z"
		/>
</g>
</svg>
