<?xml version="1.0" encoding="utf-8"?>
<!-- Generator: Adobe Illustrator 25.2.3, SVG Export Plug-In . SVG Version: 6.00 Build 0)  -->
<svg version="1.1" id="Layer_1" xmlns="http://www.w3.org/2000/svg" xmlns:xlink="http://www.w3.org/1999/xlink" x="0px" y="0px"
	 viewBox="0 0 58 61" style="enable-background:new 0 0 58 61;" xml:space="preserve">
<style type="text/css">
	.st0{fill:#41586B;}
	.st1{fill:#E84621;}
	.st2{fill:#F9B232;}
</style>
<g>
	<path class="st0" d="M55.4,0.8L54.6,0l-2.6,1.4c-0.6,0.2-1,0.7-1.2,1.2L49.9,5l-6,6.4l0.9,0.8l1.7,1.6l0.9,0.8l6-6.4l2.3-1
		c0.6-0.2,1-0.7,1.1-1.3L58,3.1l-0.9-0.8L55.4,0.8z"/>
	<polygon class="st0" points="12.8,35 25.8,46.8 31.8,40.4 18.8,28.6 	"/>
	<polygon class="st0" points="18.8,28.6 31.8,40.5 32,39.2 20,28.3 	"/>
	<polygon class="st0" points="12.5,36.2 24.5,47.2 25.8,46.8 12.8,35 	"/>
	<path class="st0" d="M13.7,37.3c-0.3-0.3-0.9-0.3-1.2,0c-0.3,0.3-0.3,0.8,0,1.1l9.7,8.9c0.3,0.3,0.9,0.3,1.2,0
		c0.3-0.3,0.3-0.8,0-1.1L13.7,37.3z"/>
	<path class="st0" d="M12.5,38.5c-0.3-0.3-0.9-0.3-1.2,0c-0.3,0.3-0.3,0.8,0,1.1l9.7,8.9c0.3,0.3,0.9,0.3,1.2,0
		c0.3-0.3,0.3-0.8,0-1.1L12.5,38.5z"/>
	<path class="st0" d="M11.4,39.7c-0.3-0.3-0.9-0.3-1.2,0c-0.3,0.3-0.3,0.8,0,1.1l9.7,8.9c0.3,0.3,0.9,0.3,1.2,0
		c0.3-0.3,0.3-0.8,0-1.1L11.4,39.7z"/>
	<path class="st0" d="M10.3,40.8c-0.3-0.3-0.9-0.3-1.2,0c-0.3,0.3-0.3,0.8,0,1.1l9.7,8.9c0.3,0.3,0.9,0.3,1.2,0
		c0.3-0.3,0.3-0.8,0-1.1L10.3,40.8z"/>
	<path class="st0" d="M9.2,42c-0.3-0.3-0.9-0.3-1.2,0c-0.3,0.3-0.3,0.8,0,1.1l9.7,8.9c0.3,0.3,0.9,0.3,1.2,0c0.3-0.3,0.3-0.8,0-1.1
		L9.2,42z"/>
	<path class="st0" d="M8.1,43.2c-0.3-0.3-0.9-0.3-1.2,0c-0.3,0.3-0.3,0.8,0,1.1l9.7,8.9c0.3,0.3,0.9,0.3,1.2,0
		c0.3-0.3,0.3-0.8,0-1.1L8.1,43.2z"/>
	<path class="st0" d="M6.9,44.4c-0.3-0.3-0.9-0.3-1.2,0c-0.3,0.3-0.3,0.8,0,1.1l9.7,8.9c0.3,0.3,0.9,0.3,1.2,0
		c0.3-0.3,0.3-0.8,0-1.1L6.9,44.4z"/>
	<path class="st0" d="M5.8,45.6c-0.3-0.3-0.9-0.3-1.2,0c-0.3,0.3-0.3,0.8,0,1.1l9.7,8.9c0.3,0.3,0.9,0.3,1.2,0
		c0.3-0.3,0.3-0.8,0-1.1L5.8,45.6z"/>
	<path class="st0" d="M4.7,46.8c-0.3-0.3-0.9-0.3-1.2,0c-0.3,0.3-0.3,0.8,0,1.1l9.7,8.9c0.3,0.3,0.9,0.3,1.2,0
		c0.3-0.3,0.3-0.8,0-1.1L4.7,46.8z"/>
	<path class="st0" d="M3.6,48c-0.3-0.3-0.9-0.3-1.2,0c-0.3,0.3-0.3,0.8,0,1.1l9.7,8.9c0.3,0.3,0.9,0.3,1.2,0c0.3-0.3,0.3-0.8,0-1.1
		L3.6,48z"/>
	<path class="st0" d="M2.5,49.2c-0.3-0.3-0.9-0.3-1.2,0c-0.3,0.3-0.3,0.8,0,1.1l9.7,8.9c0.3,0.3,0.9,0.3,1.2,0
		c0.3-0.3,0.3-0.8,0-1.1L2.5,49.2z"/>
	<polygon class="st1" points="0,55.9 5.6,61 10.1,58.4 2.3,51.3 	"/>
	<path class="st1" d="M1.6,56.5c-0.4-0.3-0.9-0.3-1.3,0C0,56.9,0,57.5,0.4,57.8l3.3,3c0.4,0.3,0.9,0.3,1.3,0
		c0.3-0.4,0.3-0.9-0.1-1.3L1.6,56.5z"/>
	<polygon class="st2" points="25.2,26.1 33.8,34 53.1,12.5 45.5,5.5 	"/>
	<path class="st2" d="M34.3,16.8c-0.8-0.8-2.2-0.7-3,0.1l-4.8,5.1l11.3,10.2l4.8-5.1c0.8-0.8,0.7-2.1-0.1-2.9L34.3,16.8z"/>
	<path class="st1" d="M24.6,20.3c-0.8,0-1.3,0.1-2.2,0.1l-4.1,4.3c0,0.8,0.1,1.3,0.1,2.1l15.1,13.7c0.8,0,1.3-0.1,2.2-0.1l4.1-4.3
		c0-0.8-0.1-1.3-0.1-2.1L24.6,20.3z"/>
</g>
</svg>
