<?xml version="1.0" encoding="utf-8"?>
<!-- Generator: Adobe Illustrator 25.2.3, SVG Export Plug-In . SVG Version: 6.00 Build 0)  -->
<svg version="1.1" id="Layer_1" xmlns="http://www.w3.org/2000/svg" xmlns:xlink="http://www.w3.org/1999/xlink" x="0px" y="0px"
	 viewBox="0 0 212 258" style="enable-background:new 0 0 212 258;" xml:space="preserve">
<style type="text/css">
	.st0{fill:#AD3519;}
	.st1{fill:#E84621;}
	.st2{fill:#333333;}
	.st3{fill:#623E3B;}
	.st4{fill:#EAB99F;}
	.st5{opacity:0.1;}
	.st6{fill:#D8AC94;}
	.st7{fill:#404040;}
	.st8{fill:#565150;}
	.st9{opacity:0.15;}
</style>
<g>
	<g>
		<g>
			<path class="st0" d="M170.3,173.1c-1-1.7-2.8-2.8-4.9-2.8c-2,0-3.8,1.1-4.9,2.8l-41,70.9c-1,1.7-1,3.9,0,5.6
				c1,1.7,2.8,2.8,4.9,2.8h82c2,0,3.8-1.1,4.9-2.8c1-1.7,1-3.9,0-5.6L170.3,173.1z M134.1,241.2l31.3-54.1l31.3,54.1H134.1z"/>
		</g>
		<g>
			<path class="st1" d="M128.5,244.3h73.8l-36.9-63.9L128.5,244.3z M142.4,236.3l23.1-39.9l23.1,39.9H142.4z"/>
		</g>
	</g>
	<g>
		<rect x="131" y="248.9" class="st2" width="3.6" height="7.8"/>
		<rect x="196.3" y="248.9" class="st2" width="3.6" height="7.8"/>
	</g>
</g>
<g>
	<g>
		<path class="st3" d="M35.3,0H28C21.4,0,16,5.4,16,12.1l-1,40.1c0,4.7,3.8,8.6,8.6,8.6h15.1c4.7,0,8.6-3.8,8.6-8.6V12.1
			C47.3,5.4,41.9,0,35.3,0z"/>
		<polygon class="st4" points="8.4,249.7 16.1,248.7 24.8,158.2 8.4,158.2 		"/>
		<polygon class="st5" points="8.4,249.7 10,249.5 11.6,160.6 24.8,158.2 8.4,158.2 		"/>
		<polygon class="st4" points="36.1,249.7 43.8,248.7 52.5,158.2 36.1,158.2 		"/>
		<path class="st5" d="M9.7,251.3c0.1-1,0.3-2,0.6-2.9h-2c0,0-2.2,4.5-1.5,9.6h4.5C10.2,256,9.5,253.6,9.7,251.3z"/>
		<path class="st5" d="M37.5,251c0.1-0.9,0.3-1.8,0.6-2.5h-2c0,0-2.2,4.5-1.5,9.6h4.9C37.9,256,37.1,253.6,37.5,251z"/>
		<path class="st5" d="M12.3,43.6c-4.7,1.2-6.7,5.1-7.4,6.7L0,59.7c0.3,0.1,2.3,1.2,4.7,2.6c1.7-4.2,5.4-11,6.2-12.7
			c2.7-5.3,9.4-6.7,13.8-8.6c0-0.1,7-3.6,6.9-4c0,0,0,0,0-0.1l-0.1-0.1L12.3,43.6z"/>
		<path class="st4" d="M65.9,121.4l-5.5-30.8l-3-36.9l-12.8-1.4l6.6,39.5l9.2,30l0,0l-2,7l-0.8,7.7c1.9,0.1,2.7-2.3,3-3.9
			c0.3-1.6,1.5-1.1,1.5-1.1s0.4,8.5,0.5,10.4c0.1,1.9,1.9,1.5,1.9,1.5l2.7-3.2l1.8-7.2L65.9,121.4L65.9,121.4z"/>
		<path class="st5" d="M52.9,67.4c0-0.2,5.3-3.7,5.3-3.7l-0.7-9.9l-12.8-1.4l6.6,39.5l9.2,30l0,0l-2,7l-0.8,7.7
			c0.4,0,0.8-0.1,1.1-0.3c0,0,2.7-11.6,3.2-13.8l-7.1-30.4C53.6,84.6,53.2,73,52.9,67.4z"/>
		<path class="st1" d="M60.7,60.3l-3.4-9.2l-0.9-2c-1-1.8-3-4.4-6.6-5.4l-18.1-6.3c0-0.1,0-0.2,0-0.4c0,0,0,0,0-0.1l-0.1-0.1
			l-0.6,0.2l-0.6-0.2L30.2,37c0,0,0,0,0,0.1c0,0.1,0,0.2,0,0.4l-17.9,6.3c-4.7,1.2-6.7,5.1-7.4,6.7L0,59.7
			c0.8,0.3,10.2,5.9,13.9,8.1l2.1,30.9l-7,18.8c-1.1,3.4-1.5,11.8-1.4,15.3l0.8,25.4h44.3v-28.1c0-2.8-0.3-10.4-0.9-13.1L47,98.7
			l1.6-31.4C52.5,65,60,60.6,60.7,60.3z"/>
		<path class="st4" d="M21.3,26.2c0,6.2,5.1,11.3,11.3,11.3c6.2,0,11.3-5.1,11.3-11.3V12.5H21.3V26.2z"/>
		<path class="st4" d="M24.5,43.3c0,3.7,3,6.7,6.7,6.7c3.7,0,6.7-3,6.7-6.7V28.2H24.5V43.3z"/>
		<path class="st3" d="M23.1,10.4h-1.3V11l-2.5,1.1l0.1,17.7l3.4,6.1l1.6,3.3l1.3-24.2c0.3-1,1.1-2.4,3.4-2.4v-2.1H26H23.1z"/>
		<path class="st5" d="M17.1,69.2c-0.2-0.1-3-1.4-3.2-1.5l2.2,30.9l-7,18.8c-1.1,3.4-1.5,11.8-1.4,15.3l0.8,25.4h3.7
			c0,0-0.6-19.8-0.1-26.6c0.9-13.8,3.4-20.7,7.3-32.9l0.1,0c0,0,0-0.1,0-0.2c0,0,0,0,0,0h0c0,0,0-0.1,0-0.1l0,0.1l0.1-21.6l-1.9-3.4
			C17.4,71.6,17.3,70,17.1,69.2z"/>
		<path class="st1" d="M46.4,52.7c0,0-30.1,1.1-30.1,5.2L15.7,71c0,4.1,3.1,7.5,6.9,7.5h22.1c3.8,0,6.9-3.4,6.9-7.5v-0.5
			C51.6,70.5,50.2,52.7,46.4,52.7z"/>
		<polygon class="st5" points="36,248.4 38,248.4 38.1,160.8 52.5,158.2 36.1,158.2 		"/>
		<path class="st5" d="M28.6,35.5c4.5,4.7,9.4,1.9,9.4,1.9v-1.2C33.7,38.6,28.6,35.5,28.6,35.5z"/>
		<path class="st6" d="M2.5,82l9.6-3.4l0.4-12.3l-9.8-5.2C2.7,61.1,1.3,77.9,2.5,82z"/>
		<g>
			<path class="st7" d="M25.7,20.1c-0.1-0.6-0.8-1-1.4-0.8l-8.2,1.9c-0.6,0.1-1,0.8-0.8,1.4L19,38.6c0.1,0.6,0.8,1,1.4,0.8l8.2-1.9
				c0.6-0.1,1-0.8,0.8-1.4L25.7,20.1z"/>
			<path class="st4" d="M26.1,26.1c0.5-0.9,0.3-1.6,0-1.9c-0.3-0.2-0.8,0.1-0.8,0.1L21,25.8l-1.2,0.7l0.1-0.3c0,0,0.9-0.7,2.2-2.1
				c1.1-1.3,0-2.2,0-2.2l-4.6,2.7L15,29.5l-1.5,2.9l-1.1,5l-1.4,8.1L2.6,75c0,0-2.4,13,5.7,14.9c0,0,4.8,2.1,6.3-18.3l2.4-27
				c0,0,2-1.1,3.2-4.1l1.8-4.8l3.2-1.9c1.2-0.7,1.8-2.7,0.8-2.5L22,32.8l-1,0.8l2.6-3.8l3.2-2c0.8-0.9,0.6-1.5,0.3-1.7
				C26.8,25.8,26.1,26.1,26.1,26.1z"/>
			<path class="st5" d="M22.1,21.9l-4.6,2.7L15,29.5l-1.5,2.9l-1.1,5l-1.4,8.1L2.6,75c0,0-1.4,7.3,1.4,11.8C2,75.9,7.3,64,10.3,53.7
				c3.1-10.9,3.4-23.3,12.1-31.5C22.2,22,22.1,21.9,22.1,21.9z"/>
		</g>
		<polygon class="st5" points="18.6,31.9 21.2,28.9 26.1,26.1 26.3,25.7 20.7,28.4 		"/>
	</g>
	<path class="st5" d="M38,26.2h-3.1c2.1,3.1,4.1,0.3,4.1,0.3L37.8,18L38,26.2z"/>
	<path class="st8" d="M24.3,252.9l-5-2.7h0l1.5-23H7.1l1.4,21.3H8.3c0,0-2.2,4.5-1.5,9.6h23.5C30.4,258,30,253.5,24.3,252.9z"/>
	<path class="st9" d="M7.1,227.2l1.4,21.3H8.3c0,0-2.2,4.5-1.5,9.6h1.8c0-2.5,0.5-5.1,1.7-7.6c0.7-1.4,1.2-3.1,1.6-4.9
		c-0.1-5.7-0.2-11.4,0-17c0-0.4,0-0.8,0-1.2H7.1z"/>
	<path class="st8" d="M56.8,252.9l-9.5-3.4l1.3-22.4H34.4l1.6,21.3c0,0-2.2,4.5-1.5,9.6h28.3C62.9,258,62.5,253.5,56.8,252.9z"/>
	<path class="st9" d="M37.7,227.2h-3.4l1.6,21.3c0,0-2.2,4.5-1.5,9.6h3.8c0.2-3.3,0.6-6.6,1.3-9.9c0-0.3,0-0.5-0.1-0.8
		C39.1,241.6,37.8,227.5,37.7,227.2z"/>
</g>
</svg>
