<?xml version="1.0" encoding="utf-8"?>
<!-- Generator: Adobe Illustrator 25.2.3, SVG Export Plug-In . SVG Version: 6.00 Build 0)  -->
<svg version="1.1" id="Layer_1" xmlns="http://www.w3.org/2000/svg" xmlns:xlink="http://www.w3.org/1999/xlink" x="0px" y="0px"
	 viewBox="0 0 80 33" style="enable-background:new 0 0 80 33;" xml:space="preserve">
<style type="text/css">
	.st0{fill:#41586B;}
	.st1{fill:#F9B232;}
	.st2{fill:#E84621;}
</style>
<g>
	<path class="st0" d="M11.5,22.6c-2.9,0-5.2,2.3-5.2,5.2c0,2.9,2.3,5.2,5.2,5.2s5.2-2.3,5.2-5.2C16.7,24.9,14.4,22.6,11.5,22.6z
		 M11.5,30.7c-1.6,0-2.9-1.3-2.9-2.9c0-1.6,1.3-2.9,2.9-2.9s2.9,1.3,2.9,2.9C14.4,29.4,13.1,30.7,11.5,30.7z"/>
	<path class="st1" d="M79.4,22c0-0.2-0.1-0.5-0.3-0.7l-1.3-1.7L77.4,17c0-0.1,0-0.1,0-0.1v0c0,0,0-0.3-0.3-0.6h0
		c-0.2-0.2-1.4-2.5-7.9-3l-3.6-7.4h0l-0.2-0.2l-0.4-1c-0.2-0.3-0.5-0.7-0.9-0.7H53.3c-0.5,0-1,0.8-1,1.4l0,17.5h-1.5V6.9h-2v13.9
		L0,20.7v5.1h5.8c0.9-3,3.1-4,5.7-4c3.4,0,6.2,2.6,6.2,6c0,0.4,0,1-0.1,1h45.3c0,0,0.8,0,0.8-1h1.4c0,0,0-0.1,0-0.2
		c0-3.4,2.8-6.1,6.2-6.1c3.4,0,6.1,2.7,6.2,6c0.8-0.2,1.6-0.2,1.6-0.2l0.6-0.5c0.4-0.4,0.5-0.8,0.4-1.3L79.4,22z M63.8,12.9h-9v-7
		h7.8l2.3,5.2C64.4,11.8,64.2,11.9,63.8,12.9z"/>
	<g>
		<path class="st0" d="M50.7,22.8V6.9h-2v13.9L0,20.7v5.1h5.8c0.9-3,3.1-4,5.7-4c3.4,0,6.2,2.6,6.2,6c0,0.4,0,1-0.1,1h35.1V18.5
			l-0.5,4.3H50.7z"/>
	</g>
	<path class="st0" d="M71.2,22.6c-2.9,0-5.2,2.3-5.2,5.2c0,2.9,2.3,5.2,5.2,5.2c2.9,0,5.2-2.3,5.2-5.2
		C76.5,24.9,74.1,22.6,71.2,22.6z M71.2,30.7c-1.6,0-2.9-1.3-2.9-2.9c0-1.6,1.3-2.9,2.9-2.9c1.6,0,2.9,1.3,2.9,2.9
		C74.1,29.4,72.8,30.7,71.2,30.7z"/>
	<g>
		<polygon class="st2" points="47.4,14.9 47.4,15 47.4,14.9 		"/>
		<path class="st2" d="M45.8,10.7c-0.1-0.1-0.2-0.2-0.2-0.3c-0.1-0.1-0.2-0.2-0.3-0.3c-0.5-0.5-1.1-1.1-1.7-1.4
			c-0.9-0.5-8.3-2.2-8.3-2.2S28.1,0.5,22,0.1C16.2-0.2,11.7,0.2,9.1,0.7l0,0c0,0-2.1,0.3-3.4,2.9l0,0C5,4.7,4.5,6,4,6.8
			C3.9,7,3,7.8,2.1,9.5L2,9.7l0,0.1c-0.2,0.4-0.3,0.8-0.5,1.2l-0.1,0.3l-0.2,0.6h0c-0.1,1-0.3,1.2-0.4,1.8c-0.6,3.2,1.9,5.2,1.9,5.2
			h0.2c-0.2-1-0.4-1.3-0.4-2c0-2.7,2.2-4.9,4.8-4.9c2.7,0,4.8,2.1,4.8,4.8c0,0.7-0.1,1.3-0.4,1.8l21,0c-0.2-0.6-0.4-1.2-0.4-1.9
			c0-2.7,2.2-4.8,4.8-4.8c2.7,0,4.8,2.2,4.8,4.8c0,0.7-0.1,1.3-0.4,1.9l4.9,0.2l0.3-1h0l0.5-2.8C47.2,14.6,46,11.1,45.8,10.7
			C45.8,10.7,45.8,10.8,45.8,10.7z M15.4,5.9L9.6,5.7L7.5,5.6c1.6-3.7,2.9-3.8,2.9-3.9c1.7-0.2,3.3-0.4,4.8-0.5c0.3,0,0.7,0,1-0.1
			L15.4,5.9z M30.3,6.6l-4.9-0.2L17.9,6l0-0.2l-0.1-3.1c0.1-0.2,0-0.5,0-0.7l0-0.8c0.8,0,1.6,0,2.4,0c5.2,0,7.6,2,9.3,3.2
			c0.4,0.2,0.7,0.5,1,0.7L30.3,6.6z"/>
		<path class="st2" d="M47.4,15.1l0-0.1L47.4,15.1C47.4,15.1,47.4,15.1,47.4,15.1z"/>
		<path class="st0" d="M7.4,12.7c-2.2,0-4,1.8-4,4c0,0.7,0.2,1.3,0.5,1.9c0.7,1.3,2,2.2,3.6,2.2c1.5,0,2.9-0.9,3.6-2.2
			c0.3-0.6,0.5-1.2,0.5-1.9C11.4,14.5,9.6,12.7,7.4,12.7z M9,18.6c-0.4,0.4-1,0.6-1.6,0.6c-0.6,0-1.2-0.2-1.6-0.6
			c-0.5-0.4-0.9-1.1-0.9-1.9c0-1.4,1.1-2.4,2.5-2.4c1.4,0,2.5,1.1,2.5,2.4C9.8,17.4,9.5,18.1,9,18.6z"/>
		<path class="st0" d="M37.2,12.7c-2.2,0-4,1.8-4,4c0,0.7,0.2,1.3,0.5,1.9c0.7,1.3,2,2.1,3.6,2.1c1.5,0,2.9-0.9,3.6-2.1
			c0.3-0.6,0.5-1.2,0.5-1.9C41.3,14.5,39.5,12.7,37.2,12.7z M38.8,18.6c-0.4,0.4-1,0.6-1.6,0.6c-0.6,0-1.2-0.2-1.6-0.6
			c-0.5-0.4-0.9-1.1-0.9-1.9c0-1.4,1.1-2.4,2.5-2.4c1.4,0,2.5,1.1,2.5,2.4C39.7,17.5,39.4,18.1,38.8,18.6z"/>
	</g>
	<path class="st0" d="M77,25.8c0.2,0,0.4,1.2,0.4,1.9c0.8-0.2,1.6-0.3,1.6-0.3l0.6-0.5c0.3-0.3,0.5-1.1,0.5-1.1H77z"/>
	<path class="st0" d="M17.7,27.8c0,0.4,0,1-0.1,1h45.3c0,0,0.8,0,0.8-1h1.4c0,0,0,0,0-0.1c0-0.8,0.1-1.9,0.4-1.9H17.3
		C17.6,25.8,17.7,27,17.7,27.8z"/>
	<path class="st0" d="M65.1,27.8L65.1,27.8C65.1,27.8,65.1,27.8,65.1,27.8z"/>
</g>
</svg>
